<?xml version="1.0" encoding="UTF-8"?>
<svg id="_レイヤー_2" data-name="レイヤー 2" xmlns="http://www.w3.org/2000/svg" viewBox="0 0 54.56 25.48">
  <defs>
    <style>
      .cls-1 {
        fill: #4477e9;
      }
    </style>
  </defs>
  <g id="_文字" data-name="文字">
    <g>
      <path class="cls-1" d="M9.27,25.12c-.39,0-.64-.11-.7-.5-.11-.64-.87-1.62-1.18-2.18-.06-.11-.11-.2-.11-.22s.03-.06.06-.06c.06,0,.14.03.25.06.87.17,1.54.28,2.07.28,1.15,0,1.68-.42,2.04-1.26.34-.78.48-1.62.48-2.49,0-.31-.03-.62-.06-.92-4.48,4.48-9.27,5.71-9.94,5.71-.17,0-.28-.06-.36-.22-.34-.64-1.23-1.26-1.62-1.62-.06-.06-.11-.11-.11-.17s.06-.08.2-.11c4.4-.53,8.93-3.28,11.31-5.57-.17-.39-.36-.76-.56-1.12-4,3.25-8.43,4.28-8.96,4.28-.17,0-.31-.08-.39-.25-.34-.64-1.2-1.15-1.6-1.51-.06-.06-.08-.11-.08-.17s.06-.08.2-.11c4.17-.5,8.06-2.38,9.77-3.78-.31-.34-.62-.67-.95-.95-3.84,2.3-6.33,2.6-6.38,2.6-.17,0-.28-.06-.36-.22-.34-.64-1.2-1.18-1.6-1.54-.06-.06-.11-.11-.11-.17s.06-.08.2-.11c3.67-.45,7.06-2.04,8.62-3.05-.98.03-2.18.08-4.12.22-.14,0-.34-.03-.34-.22s-.03-.59-.03-1.01c0-1.23.03-1.23.36-1.23,3.56.25,4.51.25,6.44.25,2.04,0,3,0,6.47-.25.25,0,.31.2.31,1.06,0,.48,0,.98-.03,1.23,0,.11-.17.17-.28.17-.87-.06-1.6-.14-2.21-.17.11,1.29.36,2.66.87,4,2.13-1.12,3.44-2.24,4-2.86.06-.06.11-.08.2-.08.06,0,.11.03.17.06.08.06,2.04,1.62,2.04,2.16,0,.25-.42.36-.95.39-.34.03-.59.17-.9.34-.73.39-2.07,1.09-3.75,1.82,1.23,2.27,3.25,4.31,6.36,5.71.17.08.25.14.25.22,0,.11-.17.2-.42.28-.7.22-2.07.73-2.63,1.18-.08.08-.17.11-.25.11s-.14-.03-.2-.08c-4.7-3.58-6.52-8.46-7.08-13.33h-1.04c.06.03.06.08.06.14,0,.11-.14.25-.48.28-.2.03-.31.06-.48.2-.28.22-.56.48-.9.7,2.27,1.96,3.78,4.87,3.78,7.98,0,5.99-4.23,6.13-5.12,6.13h-.22ZM22.51,9.27c0,.14-.11.2-.22.22-.34.03-.9.06-1.4.06-1.21,0-1.21-.14-1.21-.28v-.06c.06-.34.11-1.01.11-3.39-1.9-.08-3.28-.11-4.48-.11s-2.3.03-3.64.03c-1.62,0-2.72-.03-3.98-.03-1.09,0-2.3.03-4.09.11,0,.7,0,1.82.14,3.47,0,.14-.11.22-.25.25-.34.03-.92.06-1.43.06-.81,0-1.26-.03-1.26-.28v-.06c.28-1.76.28-3.22.28-3.64,0-.64-.03-1.29-.08-2.04v-.11c0-.14.06-.2.2-.2h.11c4.54.25,6.69.28,8.9.28,0-.73-.06-1.9-.31-3.28-.03-.08-.03-.14-.03-.17,0-.08.03-.11.14-.11.28,0,2.18.25,3.3.59.28.08.39.22.39.39,0,.36-.45.87-.59,1.37-.14.39-.17.84-.2,1.2,2.63,0,4.56-.03,9.24-.28.2,0,.25.06.25.2v.08c-.06.98-.11,1.79-.11,2.3,0,1.62.17,3.05.2,3.39v.03Z"/>
      <path class="cls-1" d="M51.84,10.44c-2.1-.2-3.92-.22-5.29-.22-3.95,0-5.52.14-6.47.22-.11,0-.28-.03-.31-.2,0-.22-.03-.56-.03-.9,0-1.06.06-1.09.34-1.09,1.99.2,3.44.22,4.54.22v-1.57c-1.43,0-3.19.03-5.85.22-.28,0-.34-.03-.34-1.04,0-1.18.06-1.18.34-1.18,2.66.2,4.4.25,5.8.25-.03-.5-.06-.92-.11-1.32-1.29.17-2.58.34-3.67.39-.2,0-.39,0-.45-.22-.14-.56-.67-1.15-1.01-1.57l-.08-.11c-.17.03-.28.08-.45.31-.28.36-1.01,1.15-1.93,2.07.7.17.87.22.87.39,0,.08-.08.2-.25.34-.36.28-.36.48-.36.9,0,.5-.03,1.09-.03,1.88,0,.67.03,1.46.11,2.44,0,.08-.08.17-.22.17-.25.03-.73.03-1.21.03-.95,0-1.43,0-1.43-.2v-.03c.25-1.34.34-2.77.39-3.92-.9.78-2.21,1.88-2.49,1.88-.11,0-.22-.03-.28-.11-.42-.45-1.34-.92-1.9-1.18-.14-.06-.22-.11-.22-.17,0-.03.06-.08.17-.14,3.81-1.88,7.08-5.74,7.5-6.86.03-.08.06-.14.11-.14.25,0,2.69,1.43,2.69,1.88,0,.14-.17.28-.42.36,4.82-.06,9.04-1.06,9.74-1.46.11-.06.17-.11.22-.11.08,0,1.85,1.43,1.85,1.88,0,.2-.22.28-.62.28-.11,0-.25,0-.42-.03-.08,0-.59.03-.98.14-.5.14-1.57.34-2.88.56.64.17.73.22.73.36s-.11.31-.22.5c-.14.25-.22.48-.25.81,1.74,0,3.89-.06,6.5-.25.28,0,.31.22.31,1.29,0,.31,0,.59-.03.76-.03.11-.2.17-.28.17-2.58-.2-4.84-.22-6.58-.22v1.57c1.29,0,2.91-.06,4.84-.22.11,0,.25.06.25.22.03.22.03.62.03,1.01,0,.73,0,.95-.2.95h-.06ZM39.02,20.83c.11-.08.17-.11.22-.11.39,0,2.1,1.4,2.1,1.74,0,.17-.22.28-.62.34-.36.06-.48.11-.81.28-2.52,1.23-6.13,2.41-6.94,2.41-.17,0-.34-.03-.42-.17-.25-.48-1.43-1.37-1.93-1.74-.08-.06-.14-.11-.14-.14,0-.06.11-.08.22-.11,4.56-.36,7.62-1.99,8.32-2.49ZM49.55,20.61c0,.22-.14.25-.31.25-.31,0-.7.03-1.06.03-1.23,0-1.32-.08-1.32-.28v-.28c-.84-.03-2.6-.03-4.4-.03-1.54,0-3.11,0-4.03.03l.03.5c0,.14-.03.22-1.43.22s-1.37-.08-1.37-.17v-.06c.22-1.9.36-3.36.36-4.82,0-3.11-.05-3.7-.2-4.82v-.06c0-.11.11-.11.25-.11,2.24.11,3.95.14,6.36.14,2.63,0,3,0,6.72-.17.22,0,.28.03.28.17v.06c-.11,1.32-.14,2.02-.14,2.88,0,3.33.03,4,.25,6.44v.06ZM46.97,15.2c-.81-.03-2.63-.03-4.48-.03-1.62,0-3.22,0-4.14.03v.98c.9.03,2.52.06,4.12.06,1.85,0,3.7-.03,4.51-.06v-.98ZM42.49,17.64c-1.6,0-3.22,0-4.14.03,0,.36.03.73.03,1.09.92.03,2.49.06,4.06.06,1.85,0,3.7-.03,4.51-.06,0-.36.03-.7.03-1.06-.81-.03-2.66-.06-4.48-.06ZM46.91,12.77s-2.18-.06-4.48-.06-4.03.06-4.03.06c0,0,0,.31-.03.92.92.03,2.49.06,4.09.06,1.82,0,3.67-.03,4.48-.06-.03-.62-.03-.92-.03-.92ZM54.56,22.99s-.06.08-.2.17c-.62.36-1.85,1.32-2.35,1.93-.08.11-.17.14-.25.14-.81,0-7.62-2.49-7.62-3.11,0-.06,1.26-1.34,1.82-1.34.08,0,.17.03.25.08.73.45,4.12,1.74,8.09,2.02.14.03.25.06.25.11Z"/>
    </g>
  </g>
</svg>