<?xml version="1.0" encoding="UTF-8"?>
<svg id="_レイヤー_2" data-name="レイヤー 2" xmlns="http://www.w3.org/2000/svg" viewBox="0 0 391.5 26.53">
  <defs>
    <style>
      .cls-1 {
        fill: #4477e9;
      }
    </style>
  </defs>
  <g id="_文字" data-name="文字">
    <g>
      <path class="cls-1" d="M22.32,9.22c0,.14-.14.25-1.68.24-1.2,0-1.23-.17-1.23-.29v-.06c.06-.42.12-.95.13-3.08-1.96-.09-3.36-.13-4.62-.13-1.26,0-2.35.02-3.72,0-1.48,0-2.63-.04-3.86-.05-1.23,0-2.55.02-4.42.09,0,1.15.05,2.02.12,3.17,0,.14-.08.22-.25.25-.36.03-.95.05-1.51.05C.47,9.42,0,9.36,0,9.14v-.06c.12-.76.32-2.15.32-3.25,0-.67-.05-1.37-.1-2.16v-.11c0-.14.06-.2.23-.19h.11c4.7.28,6.92.31,9.18.32,0-.7-.05-1.93-.29-3.42-.03-.08-.03-.14-.03-.17,0-.08.03-.11.14-.11.28,0,2.18.26,3.3.6.28.09.39.23.39.39,0,.34-.45.87-.59,1.37-.11.45-.17.95-.2,1.34,2.69.01,4.7,0,9.55-.23.2,0,.25.06.25.2v.08c-.06.98-.12,1.79-.12,2.3,0,1.62.15,2.94.18,3.11v.06ZM19.25,24.49c0,.17-.06.31-1.6.3-.9,0-1.18-.06-1.17-.29v-.06c0-.22.03-.45.03-.67-1.04,0-4-.07-4.73-.08-.62,0-3.25.01-4.79.03,0,.31.03.53.02.7,0,.31-.11.39-1.46.38-1.26,0-1.34-.12-1.34-.34v-.11c.2-1.68.28-12.49.29-13.27,0-1.01,0-1.76-.1-2.94,0-.08-.03-.17-.03-.2,0-.08.03-.08.17-.08h.22c1.18.09,5.35.14,6.78.15,1.4,0,4.37-.04,6.19-.11h.08c.2,0,.25.09.25.23v.08c-.12,1.2-.12,1.85-.12,2.41,0,.31-.01,2.97.12,4.4,0,.08.03.14.03.2,0,.14-.09.28-1.57.27-1.04,0-1.15-.06-1.15-.29v-.03c0-.17.03-.34.03-.5-.9,0-3.28-.07-3.95-.07-.7,0-3.47.04-4.45.03v2.02c1.39.04,3.85.05,4.86.05,1.43,0,5.15-.03,7.03-.11h.08c.2,0,.28.11.28.25v.08c-.15,1.76-.15,2.69-.16,3.53,0,.76,0,2.02.15,3.84v.2ZM16.58,20.14c0-.7-.02-1.4-.02-1.4,0,0-3.84-.05-4.79-.05-.67,0-3.3-.02-4.79,0v2.88c1.55.04,4.24.05,4.77.05.64,0,3.81-.04,4.82-.03v-1.46ZM15.48,11c0-.67-.02-1.01-.02-1.01,0,0-3.08-.04-4-.05h-4.4s-.03.48-.03,1.1v1.54c.97,0,3.8.07,4.42.08s3.14-.04,4.03-.04v-1.62Z"/>
      <path class="cls-1" d="M40.62,21.06c0,.11-.08.25-.37.33-3.14,1.13-8.19,2.76-9.45,3.15-.37.11-.7.47-.98.47-.56,0-1.83-2.84-1.83-2.89,0-.11.17-.14.37-.17,1.18-.16,2.38-.38,3.59-.65.15-3,.19-9.63.19-10.11.02-4.2-.13-7.87-.29-9.1,0-.08-.03-.17-.03-.22,0-.11.06-.14.2-.14h.17c2.83.21,4.87.25,6.58.26,7.36.04,8.74-.04,10.25-.12h.06c.17,0,.28.09.28.31v.06c-.09,1.09-.18,2.44-.19,3.78,0,1.4.07,2.83.23,4.01v.14c0,.31-.2.31-1.51.3-1.46,0-1.46-.12-1.45-.37v-.06c0-.14.03-.31.03-.48-.78-.03-2.02-.07-3.44-.07.06.03.08.08.08.14,0,.11-.09.25-.23.45-.11.17-.12.56-.12.73.05.59.11,1.18.19,1.77,1.71-.02,4.79-.06,8.32-.24.39,0,.39.25.38,1.68,0,.39,0,.76-.03.98,0,.14-.2.2-.37.19-3.16-.18-6.02-.25-7.81-.29,1.71,6.03,5.93,7.14,6.01,7.14.7,0,1.07-1.17,1.3-3.05.03-.11.06-.17.11-.17.06,0,.11.03.14.08.22.28,1.31,1.85,2.12,2.36.14.08.17.17.17.25,0,.06-.03.08-.03.11-.77,2.46-1.81,3.46-3.21,3.46-.84,0-6.94-1.15-9.25-10.24-1.18,0-3.7-.02-6.02.03-.02,4.59-.02,5.01,0,5.71,2.61-.72,4.79-1.49,5.75-1.85.08-.03.14-.03.2-.03.03,0,.06,0,.06.06,0,.06-.03.11-.03.2-.06.42-.15,1.06-.15,1.6,0,.17,0,.31.03.42v.08ZM39.89,9.47c-2.02,0-4,0-5.1.03v2.97c2.03.07,4.21.08,5.5.08l-.41-3.08ZM46.52,4.35s-1.46-.06-4.03-.08h-1.37c-3.42,0-6.27.02-6.27.02v2.8c1.3.03,3.88.1,6.2.11,2.18.01,4.31,0,5.46-.03v-2.83Z"/>
      <path class="cls-1" d="M66.58,10.63c-2.17,2.06-4.58,3.9-4.95,3.9-.08,0-.14-.03-.2-.08-.56-.67-2.04-1.44-2.65-1.69-.22-.09-.31-.14-.31-.2s.14-.11.28-.17c7.15-3.07,11.89-9.83,12.29-11.56.06-.14.06-.25.2-.25.17,0,3.02,1.16,3.02,1.75,0,.25-.42.45-.76.56,2,2.73,6.3,6.44,11.66,8.34.17.06.28.06.28.11,0,.06-.08.11-.28.25-.56.36-1.88,1.08-2.5,1.86-.08.11-.22.17-.34.17-.48,0-6.92-4.23-10.4-8.98-.96,1.28-2.56,3.35-4.93,5.63,1.74.18,3.02.21,4,.22.53,0,4.12.02,6.33-.19.22,0,.28.06.27,1.37,0,.45,0,.9-.03,1.12,0,.14-.17.2-.25.19-2.46-.24-4.25-.24-5.21-.25-2.46-.01-3.98.09-5.24.2-.28,0-.31-.11-.3-1.77v-.53ZM79.37,25.09c0,.17-.09.36-1.71.36-1.04,0-1.2-.09-1.2-.37v-.06c.03-.34.06-.7.06-1.04-.92,0-3.67-.07-4.4-.08-.7,0-3.61.01-4.62.03,0,.42.05.84.05,1.26,0,.39-.09.5-1.51.5-1.34,0-1.46-.12-1.45-.43v-.11c.21-2.04.27-4.48.28-5.21,0-1.37.01-2.72-.09-4.17,0-.08-.03-.17-.03-.22,0-.14.06-.17.28-.17h.14c1.18.09,5.57.2,7.06.2,1.43,0,4.9-.03,6.75-.14h.08c.2,0,.28.09.28.28v.08c-.15,2.04-.16,3.61-.16,4.37,0,.67.04,2.58.2,4.68v.22ZM76.53,20.2c0-.64-.02-2.32-.02-2.32,0,0-3.42-.04-4.37-.05h-4.62s-.04,1.55-.04,2.39v1.37c1,0,4,.08,4.64.08.64,0,3.47-.04,4.4-.03v-1.43Z"/>
      <path class="cls-1" d="M113.46,21.75c0,1.82-1.39,3.21-4.47,3.2-.17,0-.31-.14-.42-.39-.28-.76-1.2-1.69-1.78-2.44-.06-.08-.08-.14-.08-.17,0-.06.03-.08.11-.08.03,0,.08.03.14.03.48.09,1.32.26,2.07.26.84,0,1.57-.22,1.6-1.08.04-2.97.06-6.55.06-7.81,0-1.93.02-8.9.02-8.9,0,0-6.83-.06-7.78-.06-.95,0-7.39,0-7.39,0,0,0-.07,8.23-.07,9.07-.03,5.96,0,7.39.14,11.34,0,.14-.14.28-.34.28h-2.52c-.11-.01-.28-.04-.28-.24.31-5.57.37-6.16.39-11.56,0-.92.01-8.4-.25-10.98,0-.08-.03-.17-.03-.22,0-.14.06-.17.28-.17h.14c3.44.24,8.54.27,10,.27,1.43,0,6.5,0,10.22-.12.25,0,.33.06.33.25v.11c-.21,2.07-.25,5.07-.26,7.53-.03,6.47.04,9.41.17,11.68v.22ZM97.26,7.48c0-1.26.03-1.26.31-1.26,3.36.27,3.95.27,5.57.28,1.9,0,2.3.01,5.57-.23.14,0,.22.08.25.25.03.2.02.7.02,1.15,0,.34,0,.67-.03.84-.03.11-.17.2-.25.2-3.19-.27-3.81-.27-5.57-.28-1.62,0-2.24-.01-5.57.23-.31,0-.31-.39-.3-1.18ZM107.76,19.15c0,.17-.08.28-1.46.27-1.04,0-1.15-.12-1.15-.31l.03-1.04c-.53-.03-1.51-.06-2.13-.07-.62,0-1.76.02-2.35.04v1.43c0,.34-.06.39-1.32.39-1.29,0-1.29-.15-1.29-.37v-.08c.18-2.16.25-4.31.25-4.93,0-.9-.02-2.58-.09-3.64,0-.08-.03-.17-.03-.2,0-.08.06-.11.22-.11h.17c1.15.09,3.05.13,4.54.13,1.43,0,2.49-.04,4.28-.12h.08c.2,0,.25.09.25.25v.08c-.12,1.12-.13,2.83-.13,3.47,0,.56.01,2.72.12,4.59v.2ZM100.69,16.06c.59.03,1.79.04,2.35.04.56,0,1.68,0,2.24-.02.03-.81.04-1.48.04-1.68,0-.53-.02-1.76-.02-1.76,0,0-1.29-.03-2.24-.04-.95,0-2.32.02-2.32.02,0,0-.03,1.12-.04,1.82v1.62Z"/>
      <path class="cls-1" d="M141.69,20.68c0,.2-.17.39-1.54.38-1.01,0-1.06-.15-1.06-.43,0-.11.03-.25.03-.36l-4.28-.02.05,1.76v.31c0,1.68-.74,3.19-4.44,3.17-.17,0-.31-.14-.39-.39-.17-.59-1-1.52-1.61-2.25-.03-.06-.06-.08-.06-.14s.06-.11.2-.11c.03,0,.08.03.14.03.9.14,1.57.23,2.07.23,1.12,0,1.4-.36,1.43-1.17,0-.48.03-.98.04-1.46-1.71.02-3.47.1-7.53.19-.11,0-.11-.06-.14-.23,0-.2-.03-.5-.02-.84,0-1.04.09-1.04.29-1.03,3.22.21,4.84.25,7.45.26v-1.43c-2.82-.01-5.65-.03-10.66.15-.2,0-.31-.03-.33-.2,0-.2-.03-.53-.02-.9q0-1.09.37-1.09c5.04.25,7.81.26,10.67.28v-1.29c-1.23,0-3.63.04-7.47.16-.2,0-.25-.08-.25-1.29,0-.59.03-.7.31-.7,3.95.21,6.24.23,7.42.23v-1.34c-1.31,0-3.16.01-3.91,0v.11c0,.31-.09.42-1.35.41-1.34,0-1.4-.15-1.4-.31,0-.03.03-.08.03-.17.14-1.09.18-1.71.18-2.32,0-.76,0-.53-.1-2.35,0-.08-.03-.14-.03-.2,0-.11.06-.14.22-.14h.14c.81.06,4.17.13,6.21.17,0-.45-.02-.92-.02-1.37-2.49-.01-5.32-.03-9.52.18-.2,0-.25-.06-.28-.23,0-.2-.03-.56-.02-.95,0-1.12,0-1.15.31-1.15,4.2.24,6.97.26,9.46.27-.05-1.04-.1-1.93-.21-2.55v-.14c0-.11.03-.11.2-.11.78,0,3.41.35,3.41.91,0,.17-.17.39-.37.61-.34.36-.42.78-.45,1.29,2.44.01,4.98.02,9.27-.18.22,0,.28.06.27,1.21,0,.36-.03.73-.06.95,0,.11-.08.17-.22.17-4.17-.24-6.92-.26-9.29-.27,0,.42-.03.9-.03,1.37,1.88-.02,5.01-.03,6.3-.11h.08c.17,0,.2.06.2.2v.11c-.06.64-.06,1.18-.06,1.65,0,.17,0,.98.13,2.94v.14c0,.28-.14.36-1.63.36-.87,0-1.06-.03-1.06-.31v-.14c-.78,0-2.72-.04-4-.05v1.34c2.04-.02,5.4-.03,6.8-.16h.08c.11,0,.14.03.14.11v.17c-.12.67-.18,1.65-.18,2.72,1.18-.02,2.46-.07,3.86-.12.25,0,.28.11.27,1.15,0,.34-.03.7-.06.9,0,.11-.06.17-.22.17-1.37-.06-2.66-.1-3.86-.13.02,1.15.07,2.32.15,3.3v.06ZM132.34,8.04h-3.95s-.03.57-.03.85v.59c.72,0,2.66.04,3.97.05v-1.48ZM138.81,8.1c-.48,0-2.63-.04-4.06-.05,0,.53-.03,1.01-.04,1.48,1.32,0,3.36-.01,4.09,0v-1.43ZM139.23,14.15l-4.51-.02c0,.42.02.84.02,1.29,1.37,0,2.8.01,4.48,0v-1.26ZM134.76,17.18c0,.48.02.98.02,1.46,1.32,0,2.83.01,4.4-.04,0-.48.03-.9.03-1.34-1.68-.04-3.13-.07-4.45-.08Z"/>
      <path class="cls-1" d="M167.62,6.41c1.07-1.42,2.06-3.04,2.43-4.08.08-.2.08-.28.14-.28.34,0,2.51,1.36,2.51,1.69,0,.17-.23.25-.48.42-.31.19-.39.36-.65.64-.39.45-.9,1.06-1.38,1.59,1.43-.02,3.08-.1,5.1-.17.31,0,.31.09.3,1.18,0,.36-.03.73-.06.95,0,.11-.08.2-.25.19-3.22-.18-5.6-.25-7.64-.29.98.48,1.54.88,1.53,1.16,0,.2-.23.31-.56.44-.23.11-.65.31-1.01.84,1.48-.02,3-.07,5.46-.17.2,0,.31.06.3,1.09,0,.34-.03.67-.06.87,0,.11-.06.14-.22.14-3.39-.1-5.24-.17-7.5-.2-.03.08-.08.17-.22.25-.03.03-.17.11-.17.42,0,.2-.03.42-.03.67,1.93,0,2.77-.02,6.11-.17.28,0,.28.11.28,1.04,0,.31-.03.62-.06.81,0,.11-.08.17-.22.17-3.44-.16-4.34-.22-6.16-.23-.03.42-.06.84-.06,1.29,2.72.01,4.51,0,9.41-.18.28,0,.28.11.28,1.12,0,.36-.03.73-.06.92,0,.11-.06.17-.22.17-3.83-.19-5.93-.25-7.95-.26,2.01,1.49,5.61,3.7,10.14,4.33.2.03.28.09.28.17,0,.08-.11.22-.31.33-.76.44-1.8,1-2.39,1.61-.11.14-.22.17-.34.17-.64,0-5.81-2.41-8.85-5.42.05,1.9.18,3.86.28,5.6,0,.14,0,.2-.14.22-.28.03-.87.05-1.4.05-.45,0-.84-.03-.98-.06-.2-.03-.22-.11-.22-.25.12-1.62.27-3.53.33-5.4-4.22,4.04-8.45,5.42-8.68,5.42-.14,0-.25-.03-.42-.2-.64-.67-1.59-1.1-2.23-1.47-.14-.08-.22-.14-.22-.2s.08-.11.22-.14c4.43-.71,8.08-3.15,10.13-4.8-2.07,0-3.75.04-7.95.19-.2,0-.31-.06-.33-.23,0-.2-.03-.53-.02-.9q0-1.09.37-1.09c4.9.22,6.86.26,9.18.27,0-.45-.02-.87-.02-1.29-2.18-.01-3.22.04-6.75.16-.17,0-.25-.09-.28-.23,0-.17-.03-.48-.02-.81,0-.95.03-.98.31-.98,3.25.18,4.81.22,6.69.23-.03-.53-.05-1.01-.11-1.37-2.6-.01-4.03-.02-7.95.16-.2,0-.31,0-.34-.17,0-.2-.03-.53-.02-.87q0-1.06.37-1.06c2.41.1,4.03.16,5.43.19-.56-.7-1.2-1.21-1.28-1.29-.08-.06-.14-.11-.14-.2,0-.17.9-.75,1.21-.92-1.79.02-3.89.09-6.97.22-.28,0-.33-.11-.33-1.18,0-1.09.03-1.15.34-1.15,1.88.09,3.42.16,4.7.19-.61-1.07-1.92-2.28-2.14-2.47-.08-.08-.14-.14-.14-.2,0-.17,1.6-1.31,1.74-1.31.39,0,2.71,2.34,2.7,2.62,0,.22-.79.92-1.38,1.39.81.03,1.54.06,2.24.07,0-1.29.02-3.7-.2-5.21v-.14c0-.06,0-.08.09-.08.87,0,2.54.43,2.8.52.22.06.31.17.31.31,0,.31-.42.73-.51,1.17-.17.73-.18,2.41-.18,3.44h1.82c0-1.28,0-3.69-.23-5.2v-.11c0-.08.03-.11.09-.11.11,0,1.65.18,2.8.52.22.08.31.17.31.31,0,.31-.4.73-.48,1.17-.17.73-.18,2.41-.18,3.44l.42-.03ZM164.86,10.71c.79-.75,1.24-1.79,1.5-2.46-.81,0-1.54-.04-2.3-.04-1.12,0-2.16.02-3.28.01,1.67,1.24,2.12,1.94,2.12,2.17,0,.11-.08.17-.17.28l-.03.03h2.16Z"/>
      <path class="cls-1" d="M189.3,22.34c0,1.32-.29,2.83-3.49,3.09h-.08c-.22,0-.36-.09-.42-.25-.19-.84-.75-1.77-1.25-2.39-.06-.08-.08-.14-.08-.2,0-.06.03-.08.11-.08h.03c.67.09,1.15.15,1.54.15,1.01,0,1.07-.33,1.1-1.14.06-1.54.1-3.53.11-5.35l-1.82.8c-.34.14-.59.5-.87.5-.45,0-1.7-2.44-1.7-2.53,0-.14.14-.14.31-.17.9-.14,2.47-.69,4.09-1.3l.02-4.12c-1.12.02-2.21.05-3.33.1-.25,0-.31-.03-.3-1.09,0-.5,0-1.04.03-1.26.03-.17.14-.25.28-.25,1.12.12,2.21.18,3.3.21-.02-2.21-.09-4.48-.28-5.57v-.08c0-.17.09-.22.23-.22.17,0,3.16.24,3.16.8,0,.25-.26.67-.43,1.31-.14.5-.23,2.1-.27,3.78.67-.02,1.29-.11,2.21-.19.14,0,.25.09.28.25.03.22.02.76.02,1.26,0,1.06-.06,1.09-.31,1.09l-2.24-.12-.02,3.36,2.41-1.05c.08-.03.14-.06.17-.06.06,0,.06.06.05.22,0,1.57.05,1.76.05,1.82v.08c0,.22-.17.36-2.7,1.53,0,2.1.03,4.68.08,6.78v.28ZM195.92,25.25c0,.22-.28.31-1.4.3-1.26,0-1.43-.12-1.43-.31v-.06c.38-3.81.47-9.57.54-14.19-.73.92-.9.92-.96.92-.06,0-.11-.03-.17-.06-.59-.48-1.34-.48-1.93-.68-.14-.03-.25-.06-.25-.11,0-.03.03-.06.11-.14,3.63-3.31,4.88-7.93,5.14-9.16.03-.11.03-.2.11-.2h.06c.45.03,3.02.88,3.02,1.39,0,.14-.14.28-.45.45-.34.17-.42.17-.59.53-.25.59-.82,1.79-1.58,3.16,1.29.03,2.18.04,2.94.04,1.07-1.96,1.9-4.58,1.93-5.12.03-.22.03-.28.14-.28.73,0,3.05.85,3.05,1.33,0,.25-.53.47-.76.7-.34.31-1.13,1.98-1.89,3.38,1.32,0,2.83-.01,4.93-.23.31,0,.31.2.3,1.46,0,.34,0,.67-.03.87,0,.14-.17.17-.25.17-1.93-.23-3.47-.3-4.73-.3-.03.08-.11.17-.23.25-.25.19-.25.25-.25.61v2.04c1.03,0,2.12-.05,3.97-.23.11,0,.2.03.22.2s.03.59.02.98c0,.42,0,.84-.03,1.06,0,.14-.17.14-.25.14-1.79-.2-2.94-.27-3.95-.3v2.69c.99,0,2.09-.07,3.94-.26.11,0,.22.06.25.23.03.17.03.56.02.98,0,.39,0,.81-.03,1.04,0,.14-.17.14-.25.14-1.76-.2-2.91-.24-3.92-.27l.04,3.42c1.54,0,3.42-.04,5.8-.25.31,0,.33.25.33,1.49,0,.36,0,.7-.03.92,0,.14-.23.17-.31.17-2.83-.27-5.29-.28-6.61-.28-1.18,0-3.19.01-4.62,0l.05,1.4ZM198.98,18.38c-.78,0-1.65,0-3.16.01,0,1.15-.01,2.3.01,3.36,1.01.03,2.13.04,3.11.04.03-.87.04-2.07.04-3.42ZM199,13.85c-.78,0-1.62.02-3.14.04,0,.84-.04,1.71-.04,2.6,1.46.04,2.35.04,3.16.04v-2.69ZM195.87,11.95c1.43.04,2.35.04,3.14.04,0-1.18-.02-2.21-.01-2.91-.76,0-1.65.02-3.05.04,0,.06-.06.25-.06,1.15v1.68Z"/>
      <path class="cls-1" d="M216.95,25.08c-.34.28-.42.67-.7.67-.53,0-2.29-2.25-2.28-2.36,0-.08.11-.14.28-.19,1.68-.64,3.29-1.78,4.44-2.72.09-2.16.16-4,.17-5.35v-.59s-2.04,0-3.33.26h-.06c-.36,0-.39-.2-.38-1.57,0-1.09.06-1.26.26-1.26h.06c1.09.12,1.79.23,3,.24.73,0,1.65-.05,3-.15h.06c.22,0,.31.14.31.34v.08c-.32,2.41-.39,4.39-.4,6.75v1.01c.91,2.61,4.66,3.07,8.49,3.12,1.76,0,7.76-.52,9.72-1.13.08-.03.14-.03.17-.03.08,0,.08.03.08.06,0,.06-.06.17-.08.22-.2.42-1.1,1.84-1.27,2.71-.03.11-.2.31-.39.33-1.63.3-6.92.44-8.4.44-4.76-.05-8.28-1.47-9.56-3.52l-3.15,2.64ZM220.45,7.12c-1.56-1.35-3.38-2.12-3.99-2.37-.11-.06-.17-.11-.17-.23,0-.06.91-1.98,1.27-1.98.42,0,4.61,1.73,4.61,2.29,0,.22-1.05,2.43-1.44,2.43-.08,0-.17-.06-.28-.14ZM226.71,20.84c0,.31.03.64.05.95,0,.14-.11.2-.25.22-.28.03-.73.02-1.18.02-1.12,0-1.43,0-1.43-.26v-.06c.35-3.5.43-7.53.5-11.25-.76,1-.99,1.09-1.1,1.09-.06,0-.08-.03-.14-.06-.59-.45-1.31-.51-1.9-.68-.14-.03-.25-.06-.25-.08s.03-.08.11-.14c3.6-3.17,4.83-7.65,5.08-8.85.03-.14.03-.17.17-.17.28.03,2.99.88,2.99,1.33,0,.14-.14.31-.45.45-.34.17-.42.14-.59.5-.23.5-.71,1.48-1.36,2.65,1.32.03,2.24.07,3.05.07.96-1.82,1.67-4.11,1.7-4.58.03-.2.06-.25.14-.25.42,0,3.02.77,3.02,1.27,0,.25-.53.45-.76.67-.31.28-.93,1.65-1.64,2.9,1.32,0,2.86-.01,4.93-.23.31,0,.31.2.3,1.43,0,.34,0,.67-.03.87,0,.14-.17.14-.25.14-1.96-.21-3.55-.27-4.84-.28q-.45.45-.45.78v1.29c1.06,0,2.23-.05,4.08-.23.11,0,.2.03.22.2.03.17.03.59.02.98,0,.42,0,.81-.03,1.04,0,.14-.17.14-.25.14-1.79-.2-3-.24-4.06-.27,0,.67.02,1.37.02,2.07,1.06,0,2.18-.05,4.03-.23.11,0,.22.03.25.2.03.17.03.59.02.98,0,.42,0,.81-.03,1.04,0,.03,0,.11-.25.11-1.76-.2-3-.24-4.03-.27,0,.92.02,1.79.04,2.49,1.54,0,3.5-.01,5.88-.22.34,0,.33.25.33,1.49,0,.34,0,.7-.03.9,0,.14-.22.14-.31.14-2.21-.21-4.23-.24-6.69-.26l-4.65-.02ZM229.87,16.32c-.81,0-1.71.02-3.22.04,0,.81,0,1.62.02,2.41,1.04.03,2.18.04,3.16.04,0-.67.04-1.54.04-2.49ZM229.89,12.43c-.81,0-1.71,0-3.22.01v2.02c1.45.04,2.37.04,3.21.04v-2.07ZM226.71,10.53c1.43.04,2.38.04,3.19.04,0-.81-.02-1.51-.02-2.07-.78,0-1.71.02-3.11.04,0,.03-.06.22-.06,1.06v.92Z"/>
      <path class="cls-1" d="M262.13,10.65c.11,0,.25,0,.25,1.37,0,.45-.03.87-.06,1.06-.03.11-.08.14-.25.14-1.88-.06-2.71-.21-4.42-.22-2.02,0-2.35.1-4.45.17-.39,0-.39-.06-.39-1.04,0-.39.03-.81.03-1.06-2.11,2.09-4.87,4.32-5.31,4.31-.08,0-.2-.03-.25-.11-.53-.67-2.09-1.3-2.68-1.55-.14-.08-.22-.14-.22-.2,0-.06.08-.11.2-.17,6.68-2.88,11.84-9.83,12.24-11.9.03-.14.06-.25.17-.25.17,0,3.05,1.02,3.04,1.61,0,.28-.42.5-.76.61,1.89,2.78,6.29,6.97,11.3,8.76.14.06.28.09.28.14,0,.08-.08.14-.31.28-.56.36-1.85,1-2.47,1.78-.08.11-.22.17-.34.17-.5,0-6.42-4.15-10.01-9.26-.88,1.23-2.34,3.18-4.39,5.3,1.88.15,2.41.21,4.34.22,1.43,0,2.63-.07,4.4-.17h.08ZM248.47,22.79c1.09,0,2.55-.1,4.2-.26.6-1.65,1.14-3.66,1.34-4.84-1.29.02-2.63.1-4.96.17-.36,0-.39-.14-.39-1.29,0-1.26.06-1.34.29-1.34h.11c4.2.24,5.4.28,8.57.29,3.11.02,4.73,0,9.07-.21.25,0,.33.09.33,1.37,0,.45-.03.9-.06,1.09-.03.11-.08.17-.25.17-4.14-.16-5.91-.28-8.96-.3-.03.11-.22.25-.48.36-.22.11-.36.14-.48.47-.29.95-.68,2.18-1.36,3.75,2.21-.27,4.43-.59,6.05-.84-.7-.73-1.23-1.24-1.42-1.44-.06-.06-.11-.14-.11-.2,0-.2,1.49-1.34,1.85-1.34.08,0,.14.06.22.11,4.18,3.55,5.41,5.65,5.41,5.71,0,.34-1.89,1.84-2.19,1.84-.11,0-.2-.08-.31-.28-.56-.87-1.14-1.74-1.75-2.47-2.1.35-12.11,2.13-13.03,2.26-.42.08-.67.39-.9.39-.45,0-1.7-2.7-1.69-3.09,0-.11.08-.11.34-.11h.56Z"/>
      <path class="cls-1" d="M282.72,8.51c-1.51,0-3.7.12-5.35.28-.11,0-.28-.11-.28-.23-.03-.25-.02-.67-.02-1.09,0-1.06.09-1.23.23-1.23h.06c.78.12,2.21.18,3.36.21,0-.92-.01-2.94-.29-4.54-.03-.08-.03-.11-.03-.17,0-.06.03-.08.11-.08.17,0,3.3.21,3.3.83,0,.28-.34.7-.48,1.31-.14.59-.21,1.9-.21,2.63,1.04-.05,1.82-.16,2.04-.3.11-.06.2-.11.31-.11.31,0,1.7,1.07,1.7,1.32,0,.11-.11.2-.37.39-.14.11-1.21,1.87-2.82,3.93.58.65,2.31,2.53,3.99,3.44.14.08.22.14.22.2s-.08.11-.22.17c-.59.31-1.49.86-1.69,1.11-.08.11-.22.22-.34.22-.31,0-1.03-.79-2.73-2.87,0,3.98.02,8.06.31,11.99,0,.2-.17.28-1.63.27-1.32,0-1.54-.06-1.54-.34.35-3.67.37-6.97.42-10.53-1.88,1.87-3.01,2.51-3.15,2.5-.08,0-.14-.03-.2-.08-.31-.51-1.42-1.07-2.07-1.35-.14-.06-.2-.11-.2-.17,0-.03.06-.08.17-.14,5.47-2.47,8.02-7.58,8.02-7.58h-.64ZM291.79,13.06c-.95.02-2.13.05-4.15.23-.34,0-.33-.25-.33-1.54,0-.95,0-1.15.23-1.15h.11c2.04.21,3.19.24,4.14.27.01-2.38,0-4.14,0-4.45-.02-1.85-.1-3-.26-4.23v-.11c0-.14.06-.17.23-.17,1.04.06,3.47.49,3.47,1.02,0,.22-.23.48-.42.81-.34.59-.31.87-.35,2.71,0,.25-.04,2.02-.05,4.42,1.15,0,2.44-.02,4.79-.23.28,0,.28.23.27,1.57,0,.36,0,.73-.03.92,0,.14-.17.2-.25.2-2.35-.24-3.55-.27-4.79-.28-.02,3.19-.03,6.89-.02,9.63,1.62,0,3.39-.04,6.3-.25.14,0,.25.08.25.28.03.25.02.81.02,1.32,0,.39,0,.76-.03.95,0,.14-.14.2-.25.2-3.05-.24-4.93-.28-6.66-.28-4.45-.02-5.91.06-8.23.21-.14,0-.25-.03-.28-.23,0-.28-.02-.73-.02-1.15,0-1.32.06-1.37.23-1.37h.08c3.05.24,4.45.3,5.96.31l.05-9.63Z"/>
      <path class="cls-1" d="M318.41,24.36c-.34,0-.73-.09-.95-.48-.36-.62-.92-1.04-1.34-1.43-.14-.14-.2-.23-.19-.28,0-.11.14-.14.31-.14,6.44-.11,9.48-3.37,9.5-6.62.01-2.58-1.88-5.16-5.35-5.93h-.08c-.25,0-.31.11-.45.36-.31.67-3.28,7.71-6.3,12.12-.48.7-1.04.97-1.63.97-1.4,0-4.3-1.98-4.28-6.12.03-5.4,4.81-9.72,10.99-9.69,5.46.03,9.98,3.32,9.96,8.48-.02,3.95-2.9,8.08-9.98,8.77h-.2ZM310.21,16.68c0,1.29.69,2.92,1.39,2.92.14,0,.25-.08.37-.22,2.2-3.1,4.49-8.57,4.98-9.94-3.81.68-6.71,4.03-6.73,7.25Z"/>
      <path class="cls-1" d="M336.09,6.16c2.55.29,4.12.3,4.87.3.64,0,2.55-.04,5.04-.31.22,0,.31.28.3,1.32,0,.42-.03.84-.06,1.12,0,.14-.17.2-.25.19-2.44-.29-4.39-.33-5.04-.33-2.55-.01-4.03.15-4.87.23-.25,0-.31-.09-.3-1.26,0-1.26.09-1.26.23-1.26h.08ZM344.96,25.38c0,.2-.28.31-1.43.3-.84,0-.98-.09-.98-.37.03-.48.03-.92.03-1.32-.39-.03-1.06-.03-1.6-.04-.53,0-1.29,0-1.68.02,0,.64.02,1.4.05,2.1,0,.39,0,.45-1.26.44-1.12,0-1.23-.12-1.23-.4v-.11c.15-1.48.18-3.02.19-3.95.01-2.6-.06-4.06-.09-4.7,0-.08-.03-.17-.03-.2,0-.11.06-.14.22-.14h.17c1.06.09,2.32.15,3.67.16,1.32,0,1.99-.02,3.64-.12h.08c.17,0,.22.09.22.23v.11c-.09.84-.09,1.62-.1,2.27,0,.9.02,1.57.02,1.96,0,1.74,0,1.99.02,2.55,2.3-.46,4.26-1.58,5.78-2.91-1.45-1.77-2.28-3.51-2.67-4.69,0-.03-.03-.06-.03-.08,0-.06.06-.14.14-.17.39-.19,1.74-.55,2.08-.55.14,0,.14.11.17.17.33.93.88,2.24,1.97,3.57,1.1-1.39,1.86-2.93,2.26-4.27-.25-.03-.42-.03-.59-.03-.36,0-.59.02-1.01.02h-.36c-.81,0-3.98.04-5.97.19-.28,0-.33-.09-.33-1.12,0-1.2.09-1.23.23-1.23h.11c1.99.15,5.04.22,6.02.23,1.29,0,1.62,0,2.88-.04.39-.03.53-.28.76-.28.25,0,1.95,1.27,1.95,1.6,0,.22-.23.36-.31.42-.45.28-.56.5-.76,1-.68,1.7-1.72,3.55-3.1,5.22,1.62,1.27,3.85,2.37,6.99,2.97.08,0,.14.06.14.08,0,.06-.06.11-.17.2-.56.36-1.71,1.06-2.42,1.92-.06.08-.14.11-.22.11-.14,0-3.33-1-6.06-3.44-2.39,2.23-5.34,3.36-5.84,3.36-.08,0-.17-.03-.22-.11-.33-.51-.89-.9-1.37-1.21l.03.08v.2ZM337.45,3.84c0-1.12.06-1.15.34-1.15,1.29.12,1.9.12,2.49.12,2.04,0,2.88-.01,4.2-.12.22,0,.31.2.3,1.15,0,1.09-.15,1.12-.31,1.12-1.74-.15-2.32-.18-3.47-.18-1.01,0-1.46,0-3.28.12-.22,0-.28-.09-.27-1.07ZM340.96,13.49c.98,0,1.65-.02,3.39-.15.08,0,.25.09.25.25.03.22.02.59.02.95,0,.34,0,.7-.03.9,0,.14-.2.17-.25.17-1.71-.15-2.27-.18-3.39-.18-1.01,0-1.43.02-3.19.15-.06,0-.25-.03-.25-.23-.03-.25-.02-.67-.02-1.04,0-.73.03-.98.31-.98,1.79.15,2.27.15,3.16.16ZM340.98,10.05c.98,0,1.65-.02,3.39-.15.08,0,.22.09.25.25.03.22.02.59.02.92,0,.36,0,.7-.03.92,0,.14-.2.17-.25.17-1.71-.15-2.27-.18-3.39-.18-1.01,0-1.43.02-3.19.15-.17,0-.28-.06-.27-1.09,0-.76,0-1.15.31-1.15,1.79.15,2.27.15,3.16.16ZM342.63,21.4c0-.59-.02-2.27-.02-2.27,0,0-.76-.03-1.62-.04-.87,0-1.62.02-1.62.02,0,0-.04,1.51-.04,2.3v.53c.42.03,1.17.03,1.65.04.48,0,1.26,0,1.65-.02v-.56ZM350.91,5.98c-.02,5.12-2.72,6.82-2.89,6.82-.14,0-.28-.08-.36-.17-.39-.37-1.54-.82-1.96-1.02-.08-.06-.11-.08-.11-.14s.03-.11.11-.14c2.27-1.14,2.79-3.65,2.8-5.64,0-.98-.13-1.85-.21-2.3,0-.06-.03-.11-.03-.14,0-.11.06-.11.14-.11h.14c1.48.15,2.41.21,3.19.21,1.71,0,2.69-.02,4.2-.12.28,0,.31.11.31.2,0,.06-.03.11-.03.17-.23,1.34-.32,3.19-.33,4.53,0,1.76,0,1.88.97,1.88,1.26,0,1.38-.64,1.38-2.29,0-.22,0-.31.06-.31.06,0,.11.06.17.14.72.93,1.79,1.35,1.92,1.44.14.08.14.2.14.28-.21,2.8-1.83,2.99-3.85,2.98-1.4,0-3.33-.21-3.32-2.42,0-.76.1-3.64.13-4.37-.42-.06-.9-.09-1.34-.09-.59,0-.84.02-1.23.05v.56Z"/>
      <path class="cls-1" d="M391.14,22.78c.25,0,.36.09.36,1.4,0,1.2-.03,1.4-.34,1.4-5.54-.25-8.4-.29-11.62-.31-2.97-.01-5.91,0-11.17.2-.34,0-.36-.03-.36-1.35,0-1.46.06-1.46.37-1.45,3.42.24,5.74.31,7.73.32,1.2,0,2.3-.02,3.42-.01,1.59-4.02,3.4-9.08,3.75-12.05.03-.17.11-.34.31-.33s3.52.97,3.52,1.7c0,.22-.31.42-.62.73-.28.28-.45.53-.59.92-.68,1.73-2.24,5.65-3.66,9.05,2.3-.02,4.7-.06,8.91-.21ZM381.16,7.55c2.24.01,3.42-.04,8.23-.21.25,0,.36.09.36,1.4,0,1.2-.04,1.4-.34,1.4-5.54-.25-6.58-.28-9.8-.3-2.97-.01-4.37,0-9.63.21-.34,0-.36-.03-.36-1.35,0-1.46.06-1.46.37-1.45,3.36.24,5.09.3,6.61.31.59,0,1.18-.02,1.79-.02v-1.46c.01-.7-.04-1.93-.28-3.36-.03-.08-.03-.14-.03-.17,0-.08.03-.11.14-.11.25,0,2.24.26,3.36.6.28.09.39.23.39.39,0,.36-.45.87-.59,1.37-.14.42-.17.75-.2,1.31v1.43ZM375.69,21.47c-.14,0-.25-.09-.28-.25-.54-3.64-2.15-7.35-2.98-8.86-.03-.03-.03-.08-.03-.11,0-.11.06-.25.17-.31.84-.36,2.02-.66,2.08-.66.98,0,3.77,8.25,3.76,8.98,0,.56-2.67,1.22-2.72,1.22Z"/>
    </g>
  </g>
</svg>