<?xml version="1.0" encoding="UTF-8"?>
<svg id="_レイヤー_2" data-name="レイヤー 2" xmlns="http://www.w3.org/2000/svg" viewBox="0 0 192.67 24.91">
  <defs>
    <style>
      .cls-1 {
        fill: #4477e9;
      }
    </style>
  </defs>
  <g id="_文字" data-name="文字">
    <g>
      <path class="cls-1" d="M13.64,9.65c2.16.01,4,0,7.87-.24.2,0,.22.09.22.28.03.25.02.7.02,1.18,0,.45,0,.9-.03,1.12,0,.14-.08.2-.22.19-3.39-.24-5.38-.28-7.28-.29,1.05,3,3.77,7.69,10.73,10.38.14.06.28.11.28.17s-.11.14-.34.25c-.87.44-1.94.94-2.7,1.61-.08.08-.17.11-.25.11-.22,0-6.48-2.8-9.39-10.29-2.67,7.46-8.98,10.34-9.29,10.34-.11,0-.2-.03-.28-.11-.64-.7-2.01-1.27-2.65-1.55-.25-.11-.33-.17-.33-.23s.14-.08.28-.14c5.5-1.85,8.85-5.53,10.16-10.56-1.79,0-3.33.01-6.78.22-.36,0-.39-.06-.39-1.4,0-1.2.04-1.37.29-1.37h.11c3.61.24,5.43.31,7.19.32.17-1.4.18-2.27.18-3.5,0-1.04,0-1.15-.02-1.32-2.55-.01-4.26,0-8.88.24-.45,0-.45-.23-.44-1.4,0-1.23.06-1.37.34-1.37h.11c4.62.27,6.77.31,9.01.32,6.92.03,7.98-.02,11.93-.22.22,0,.22.08.22.28.03.25.02.7.02,1.18,0,.45,0,.9-.03,1.12,0,.14-.06.2-.22.19-4.03-.24-6.36-.28-8.62-.29-.08.11-.25.22-.37.33-.2.2-.26.81-.29,1.29,0,1.34-.1,2.55-.18,3.11v.06Z"/>
      <path class="cls-1" d="M50.68,16.49c0,.25-.06.42-1.63.41-1.01,0-1.12-.09-1.12-.34v-.39c-.73,0-2.32-.04-3.55-.05-.25.5-.26.84-.26,2.04,2.86.01,5.24.03,10.22-.2.22,0,.25.06.25.25.03.25.03.67.02,1.09s0,.84-.03,1.06c0,.14-.09.2-.25.19-4.81-.28-7.45-.32-10.19-.33.02,1.15.1,2.8.23,4.34,0,.08-.11.28-.25.28-.34.03-.81.05-1.29.05-1.43,0-1.57-.12-1.57-.32v-.06c.23-1.31.35-3.08.38-4.31-2.86-.01-4.87,0-9.86.23-.22,0-.34-.06-.34-.25,0-.25-.02-.67-.02-1.06,0-1.23.06-1.29.23-1.29h.14c4.9.28,7.42.29,9.88.3,0-.62,0-1.37-.07-2.04-1.2,0-2.8.01-3.56.01v.2c0,.39-.11.42-1.4.41-1.23,0-1.37-.06-1.37-.31v-.14c.24-2.1.27-4.62.28-5.37,0-.95-.05-1.57-.18-3.84v-.14c0-.2.06-.22.28-.22h.22c1.2.12,5.63.17,7.14.18,1.46,0,5.4,0,7.28-.1h.08c.2,0,.28.09.28.28v.08c-.12,1.62-.15,2.63-.16,3.39-.01,2.41.06,4.34.17,5.74v.22ZM44.46,5.91c.09-.5.14-.84.17-1.23l-3.44-.02c.03.39.11.73.16,1.26,0,.17-.14.28-1.46.27-1.12,0-1.46-.06-1.45-.26v-.06c.09-.5.14-.81.17-1.2-1.54.02-3.3.07-6.25.19-.42,0-.45-.11-.44-1.29,0-1.12,0-1.32.34-1.31h.11c2.83.15,4.73.25,6.3.28,0-.62,0-1.32-.3-2.33,0-.03-.03-.06-.03-.08,0-.08.08-.14.22-.14,1.93.18,3.25.41,3.24.77,0,.2-.25.47-.45.78-.17.25-.17.53-.2.87v.17s3.53.02,3.53.02c0-.62,0-1.32-.3-2.35,0-.03-.03-.06-.03-.08,0-.08.08-.14.22-.14,1.93.18,3.25.41,3.25.77,0,.2-.25.47-.45.78-.17.25-.17.53-.2.87v.14c1.71-.02,3.7-.07,6.8-.22.22,0,.25.08.25.28.03.25.03.67.02,1.09s0,.84-.03,1.06c0,.14-.08.17-.25.17-3-.15-5.04-.25-6.77-.28.03.39.11.76.16,1.26,0,.28-.37.28-1.46.27-1.23,0-1.46-.12-1.45-.26v-.06ZM38,14.14c1.09.03,4.28.08,4.93.08.64,0,4,0,5.07-.03,0-.64.03-1.23.04-1.71-1.04,0-4.34-.05-5.1-.05-.73,0-3.86,0-4.93,0v1.71ZM48.02,8.89s-4.09-.08-5.07-.08c-.98,0-4.9.03-4.9.03,0,0-.03.81-.04,1.6,1.09,0,4.28.08,4.93.08.64,0,4.06-.04,5.1-.03,0-.76-.02-1.6-.02-1.6Z"/>
      <path class="cls-1" d="M72.54,9.6c1.79.32,2.41.43,2.41.71,0,.22-.34.59-.46,1.2-.17,1.04-.23,1.88-.24,2.91,0,1.62-.01,2.58.04,3.58,2.74-.04,5.46-.11,8.26-.27.25,0,.31.09.3,1.85,0,1.01-.06,1.06-.26,1.06-3.05-.18-6.1-.28-9.15-.3-3.39-.02-6.78.08-10.17.29-.22,0-.31-.06-.3-.98.01-2.1.12-2.13.26-2.13.03,0,.08.03.14.03.67.14,2.71.43,8.15.46.03-.53.03-1.04.04-1.6,0-.36.03-5.35-.19-6.78v-.06c-1.51,0-3.53.04-6.1.22-.14,0-.34-.03-.34-.23,0-.28-.02-.76-.02-1.23,0-1.37.06-1.4.23-1.4h.14c3.05.24,5.15.28,6.77.29,5.26.02,7.25-.11,8.65-.21.22,0,.34.03.33,1.43,0,.48-.03.98-.06,1.23,0,.14-.17.2-.28.2-1.88-.15-3.78-.27-7.75-.29h-.39Z"/>
      <path class="cls-1" d="M98.94,8.77c0-.22,0-.28.25-.28.5.03,2.63.35,3.47.63.33.11.5.28.5.48,0,.22-.2.48-.59.78-.37.28-.65.5-.76,1.12-1.44,7.64-7.17,12.4-7.82,12.39-.14,0-.28-.06-.42-.17-.92-.7-2.15-.99-2.68-1.22-.14-.06-.22-.14-.22-.23s.08-.14.22-.22c3.68-1.91,8.01-6.43,8.04-12.73v-.56ZM92.47,7.2c-.42,0-.47-.45-.46-2.24,0-.62.03-.92.34-.92h.08c2.55.26,5.09.31,7.64.32,6.52.03,8.74-.18,9.16-.43.2-.11.31-.17.39-.17.25,0,2.34,1.61,2.34,2.11,0,.39-.7.5-1.15,1.09-1.27,1.73-3.04,4.38-6.08,6.58-.14.11-.22.19-.34.19s-.2-.08-.33-.25c-.39-.48-1.17-.73-1.59-.99-.08-.06-.14-.11-.14-.2,0-.06.06-.14.14-.2,3.26-2.48,4.98-5.1,4.98-5.24,0-.08-.11-.14-.28-.14-.59,0-10.67.09-14.62.49h-.08Z"/>
      <path class="cls-1" d="M120.91,11.68c-.39,0-.42-.34-.41-1.29,0-1.74,0-1.76.4-1.76,2.63.26,5.21.31,7.84.32,2.07.01,6.24-.05,6.86-.41.17-.08.25-.14.34-.14s2.35,1.1,2.34,1.61c0,.39-.73.7-.99,1.4-2.15,5.45-7.39,10.72-12.94,12.23-.11.03-.22.11-.34.11s-.2-.03-.28-.14c-.7-.7-1.81-1.35-2.29-1.64-.2-.11-.28-.2-.28-.28,0-.08.11-.11.31-.17,9.22-1.94,12.48-9.54,12.48-10.16,0-.11-.06-.14-.22-.14-3.5-.02-10.22.2-12.77.47h-.06ZM123.47,3.46c2.58.24,3.72.27,4.87.28,2.94.01,4.45-.06,6.36-.22.22,0,.28.11.27,1.37,0,.48-.03.95-.06,1.2,0,.11-.14.2-.23.19-2.94-.27-4-.27-5.66-.28-2.83-.01-5.21.2-5.57.23-.11,0-.31-.03-.31-.23.01-2.46.04-2.55.24-2.55h.08Z"/>
      <path class="cls-1" d="M156.02,24.11c.38-4.03.37-7.81.42-11.79-4.14,4.1-7.48,6.07-7.87,6.07-.11,0-.22-.03-.31-.11-.61-.56-2.07-1.13-2.71-1.36-.25-.08-.34-.14-.33-.2,0-.06.11-.11.25-.17,6.87-2.85,11.32-8.37,13.35-11,.54-.7.99-1.48,1.27-2.21.06-.14.11-.22.2-.22.22,0,3.13,1.64,3.12,2.2,0,.36-.7.5-.9.64-.67.44-.87.7-1.38,1.28-.53.61-1.21,1.39-2,2.26.03,4.7-.08,10.05.27,14.7,0,.14-.09.28-1.54.27-1.51,0-1.85-.06-1.85-.32v-.06Z"/>
      <path class="cls-1" d="M177.48,22.62c-.9.42-1.15.81-1.49.8-.7,0-2.79-2.37-2.79-2.79,0-.11.11-.2.34-.22,1.12-.19,2.41-.52,3.28-.88,5.41-2.19,10.44-5.35,14.66-9.59.11-.11.2-.17.25-.17.06,0,.08.11.11.34.08.7.41,1.85.74,2.44.05.08.08.17.08.25,0,.17-.08.31-.23.42-3.29,2.76-7.76,6.18-14.97,9.39ZM179.38,11.93c-1.92-1.69-4.77-3.3-5.61-3.7-.11-.06-.2-.11-.19-.2,0-.45,1.38-2.09,1.58-2.09.56,0,6.09,2.94,6.09,3.47,0,.53-1.5,2.6-1.69,2.6-.06,0-.11-.03-.17-.08Z"/>
    </g>
  </g>
</svg>