<?xml version="1.0" encoding="UTF-8"?>
<svg id="_レイヤー_2" data-name="レイヤー 2" xmlns="http://www.w3.org/2000/svg" viewBox="0 0 199.57 26.28">
  <defs>
    <style>
      .cls-1 {
        fill: #4477e9;
      }
    </style>
  </defs>
  <g id="_文字" data-name="文字">
    <g>
      <path class="cls-1" d="M22.75,6.52c.14,0,.28,0,.27,1.29,0,.39-.03.81-.06,1.06,0,.11-.17.19-.25.19-.73-.09-1.82-.15-3-.18l.5.17c.22.08.31.2.31.34,0,.28-.31.61-.51.92-.25.42-.34.81-.48,1.43-.29,1.2-.94,3.64-2.49,6.15,1.59,1.88,3.9,3.69,7.25,5.02.06.03.11.08.11.14,0,.06-.06.11-.2.17-.5.19-1.74.8-2.55,1.42-.06.06-.14.08-.22.08-.08,0-.17-.03-.25-.06-2.46-1.27-4.27-2.9-5.66-4.65-3.24,3.79-7.61,5.06-8,5.06-.08,0-.17-.03-.25-.14-.61-.76-1.62-1.24-2.26-1.58-.2-.11-.28-.2-.28-.25,0-.08.17-.11.34-.14,4.18-.74,7.1-2.77,9.01-5.08-1.33-2.33-2.05-4.66-2.38-6.48-.79,1.56-1.02,1.79-1.21,1.79-.06,0-.08,0-.11-.03-.67-.4-1.37-.26-1.99-.35-.17-.03-.28-.03-.28-.08s.03-.08.08-.17c.25-.31.48-.61.7-.95-.03.03-.06.03-.11.03h-2.1c-.11-.01-.31-.07-.31-.29v-.36c-.7-.06-1.09-.06-1.79-.06-.78,0-1.01.02-1.74.05-.06,1.2-.13,2.91-.13,4.4,0,.92,0,1.76.04,2.35.03.53.36.87,2.38.88.64,0,1.29-.05,1.96-.21.5-.11,1.01-.33,1.02-2.46,0-.31,0-.64-.02-1.01,0-.06,0-.11.06-.11.03,0,.08.06.17.14.5.48,1.45,1.27,2.18,1.66.06.03.11.06.11.25-.15,2.8-.83,4.17-5.79,4.14-2.16-.01-4.76-.33-4.75-2.54v-.2c.12-1.68.21-3.7.22-5.15,0-.95-.12-3.64-.26-4.37,0-.06-.03-.11-.03-.14,0-.06.03-.06.11-.06h.11c1.65.18,2.71.29,4.37.3.64,0,1.06,0,1.82-.05,0-1.65-.01-3.02-.04-4.03h-1.6c-.73-.01-1.62-.02-4.37.22-.28,0-.28-.17-.27-1.79,0-.56,0-.84.26-.84h.08c2.04.21,3.08.27,4.31.27h.42c.76,0,1.76-.05,3.47-.18h.11c.14,0,.17.03.17.17v.11c-.12.84-.18,1.9-.18,3.02,0,1.88.12,3.95.22,5.6v.06c2.54-3.96,3.57-9.2,3.66-10.79,0-.14,0-.22.14-.22.59,0,3.19.52,3.19,1.02,0,.14-.14.31-.42.53-.31.25-.42.25-.54.67-.17.67-.65,2.24-1.34,4.08.36,0,.7.03,1.06.03.78,0,5.96,0,7.95-.21h.03ZM17.3,8.82c-1.23-.03-2.27-.04-2.58-.04-.45,0-.81.02-1.18.02.02,1.15.26,3.98,1.98,6.95.93-1.62,1.42-3.24,1.53-4.5.09-.7.23-1.6.23-2.21v-.22Z"/>
      <path class="cls-1" d="M31.72,24.68c.38-3.47.55-9.01.68-13.38-1.35,2.04-1.61,2.12-1.75,2.12-.06,0-.11,0-.17-.03-.56-.34-1.62-.46-2.24-.54-.17-.03-.25-.06-.25-.11,0-.03.03-.08.11-.17,3.94-3.73,6.38-10.02,6.5-11.81,0-.14.06-.22.14-.22.34,0,2.93,1.16,2.93,1.67,0,.17-.17.34-.48.53-.31.19-.48.14-.59.47-.11.34-.34.87-.65,1.54h.14c.5.03,1.79.29,2.63.57.22.08.28.17.28.34,0,.2-.14.45-.31.78-.2.39-.23.84-.23,1.29,2.25-1.98,4-6.06,4.09-7.18,0-.11.06-.17.2-.17.03,0,2.57.8,2.57,1.27,0,.11-.11.28-.37.45-.31.22-.42.14-.65.64l-.45,1.01h.84c5.01.03,5.21,0,7.67-.18.11,0,.17.08.2.23.03.14.02.56.02.98s0,.84-.03,1.04c0,.11-.11.17-.2.17-.62-.06-1.29-.09-1.96-.12,0,.03.03.03.03.06,0,.11-.14.22-.34.28-.31.11-.28.14-.54.67-.2.42-.71,1.56-1.89,2.88,1.57.68,3.63,1.19,6.41,1.26.11,0,.2.06.2.14,0,.03-.03.08-.08.14-.59.58-1.52,1.25-1.94,2.03-.06.14-.2.17-.31.17-.28,0-3.69-.75-6.07-2.1-2.05,1.5-5.08,2.52-5.64,2.52-.11,0-.2-.03-.28-.11-.5-.62-.97-1.07-1.53-1.38-.01,2.3.05,6.05.18,7.95,0,.14-.08.22-.22.22-.22.03-.5.03-.81.02-1.46,0-1.6,0-1.59-.32.15-2.44.25-6.02.26-8.2.02-3.84-.03-5.35-.3-7.11,0-.06-.03-.11-.03-.14-.31.7-.74,1.56-1.19,2.46l.39.14c.17.08.22.2.22.34,0,.17-.08.34-.23.53-.34.42-.31.64-.34,1.26-.1,3.36-.23,7.84-.25,11.45,0,1.4-.01,2.69.04,3.72,0,.25-.28.28-1.4.27-.48,0-.92,0-1.18-.06-.17-.03-.25-.08-.25-.2v-.06ZM38.42,11.95c2.41-.38,4.21-1.16,5.5-1.99-1.06-.93-1.67-1.88-2.06-2.7-.17.25-.93,1.42-1.18,1.42-.06,0-.11-.03-.17-.06-.56-.37-1.2-.48-1.93-.63-.06,0-.11-.06-.14-.06l-.02,4ZM52.63,18.99c-.39.11-.53.19-.81.5-3.24,3.68-10.25,5.8-10.84,5.8-.08,0-.17-.03-.22-.11-.28-.45-1.48-1.3-2.04-1.61-.06-.03-.14-.14-.14-.22,0-.03.03-.08.11-.08,5.97-.67,10.94-4.18,11.99-6.07.11-.2.14-.31.23-.31.14,0,2.29,1.33,2.29,1.69,0,.2-.23.33-.56.42ZM49.71,16.42c-.48.14-.45.05-.81.42-3.4,3.37-6.99,4.48-7.55,4.47-.11,0-.22-.03-.28-.14-.25-.48-1.17-1.04-1.7-1.38-.06-.03-.14-.11-.14-.17,0-.03.03-.08.14-.08,4.17-.51,7.46-3.35,8.51-4.92.11-.2.17-.28.25-.28.06,0,2.15,1.27,2.15,1.72,0,.17-.22.28-.56.36ZM47.11,13.89c-.36.11-.42.11-.67.39-2.36,2.51-5.03,3.39-5.22,3.39-.11,0-.2-.03-.25-.11-.28-.42-.98-.9-1.48-1.16-.06-.03-.14-.08-.14-.17,0-.03.03-.06.11-.08,3.36-.82,5.14-2.52,5.95-3.89.11-.17.14-.25.23-.25.28,0,2.09,1.13,2.09,1.52,0,.17-.28.25-.62.36ZM43.29,5.73c.36.79,1.03,1.85,2.34,2.84.17-.17,1.46-1.45,1.78-2.82l-4.12-.02Z"/>
      <path class="cls-1" d="M71.13,23.22c-.36.05-.48.08-.81.25-3.96,1.8-6.9,2.26-7.46,2.26-.14,0-.28-.03-.36-.17-.25-.45-1.45-1.38-1.95-1.72-.08-.06-.14-.11-.14-.14,0-.06.11-.08.22-.08,4.87-.26,8.1-1.78,8.8-2.25.11-.08.17-.11.22-.11.31,0,2.09,1.38,2.09,1.66,0,.17-.23.25-.62.3ZM80.07,21.25c0,.17-.14.2-.31.19-.31,0-.7.02-1.06.02-.39,0-.73-.03-.98-.03-.2,0-.34-.06-.33-.2v-.11c-.9,0-2.86-.04-4.68-.05-1.6,0-3.28.01-4.28,0v.28c0,.14-.06.22-1.43.22-1.26,0-1.37-.03-1.37-.2v-.03c.23-1.6.38-2.97.38-4.2,0-.62.03-1.18.04-1.76,0-.56-.02-1.18-.08-1.82-.95.3-2.47.6-2.86.6-.14,0-.31-.06-.36-.14-.39-.53-1.45-1.15-1.9-1.46-.08-.06-.14-.14-.14-.17,0-.06.03-.08.14-.08,4.65-.12,6.89-1.14,7.94-2.71l-3.72-.02-.34.84c-.03.06-.2.28-.37.28-.28.03-.59.02-.9.02-1.23,0-1.6,0-1.59-.26,0-.06,0-.08.03-.11.73-.95,2.12-3.41,2.12-5.39v-.11c0-.11.03-.22.25-.22.67.03,1.62.32,2.63.54.81,0,1.76.04,2.72.04,0-.42.03-.84.03-1.23-2.02.02-4.45.03-6.08.11-.34,0-.34-.06-.33-1.12,0-.7,0-.78.4-.78,1.62.09,4,.16,5.99.2-.03-.67-.08-1.4-.24-2.19,0-.06-.03-.08-.03-.11C69.37.08,69.37,0,69.62,0c.62.03,3,.32,2.99.74,0,.25-.34.56-.51.87-.14.25-.17.5-.2.81l1.15.03h1.34c-.02-.61-.11-1.28-.24-2.21v-.08s0-.11.23-.11c.5.03,2.99.29,2.99.74,0,.25-.31.56-.51.86-.11.2-.17.42-.23.78,1.99-.02,4.26-.04,5.43-.09h.11c.14,0,.2.03.2.14v.06c-.09.39-.12.95-.12,1.54,0,1.01.07,2.13.18,2.77v.08c0,.2-.17.28-1.49.27-1.26,0-1.26-.15-1.26-.34v-.11c-.75,0-1.93-.04-3.13-.04,0,.45.02.92.02,1.4,3.64.02,6.83,0,7.62-.02.2,0,.25,0,.25.06v.06c-.23.89-.12,2.16-.86,3.1-.65.87-1.66,1.22-3.39,1.22h-.2c-.12,1.26-.15,2.21-.16,3.39-.01,2.74.04,3.47.23,5.27v.06ZM69.41,8.09c.12-.45.14-.92.17-1.43-1.26,0-2.58.04-3.44.04-.14.34-.26.73-.45,1.23l-.06.14,3.78.02ZM72.75,18.5c-1.65,0-3.44.01-4.42,0,0,.39.03.73.02,1.12.98,0,2.72.04,4.34.05,1.88,0,3.92,0,4.79,0,0-.36.03-.73.03-1.12-.87,0-2.91-.04-4.76-.05ZM77.52,16.19c-.87,0-2.88-.07-4.76-.08-1.65,0-3.44.01-4.42,0v.98c.98,0,2.74.04,4.39.05,1.88,0,3.92,0,4.79,0v-.95ZM77.48,13.79s-2.46-.04-4.76-.05c-2.3-.01-4.31,0-4.31,0,0,0-.03.39-.03.98.98,0,2.74.04,4.37.05,1.85,0,3.89,0,4.76,0,0-.59-.02-.98-.02-.98ZM74.33,9.63l-3.16-.02c-.42,1.01-1.13,1.93-2.31,2.68,1.23.03,2.46.04,3.86.05,2.58.01,3.25.02,6.75-.08-.14-.42-.67-.98-1.06-1.38-.06-.06-.06-.08-.05-.11,0-.08.08-.11.17-.11.53.06,1.18.12,1.68.12,1.06,0,1.15-.27,1.35-1.09-.31,0-2.32-.04-4.93-.05.02.81.05,1.54.1,2.07,0,.22-.9.25-1.15.25-1.23,0-1.32-.09-1.31-.31l.07-2.02ZM74.38,6.69h-2.6c-.03.49-.09.94-.17,1.42h2.77s0-1.42,0-1.42ZM74.38,4.67c0-.25.03-.48.03-.7h-2.58s0,1.25,0,1.25h2.55s0-.55,0-.55ZM85.1,23.48s-.06.08-.2.17c-.62.33-1.85,1.2-2.36,1.78-.08.11-.14.14-.25.14-1.6,0-8.02-2.36-8.02-2.98,0-.03.03-.08.08-.14,1.41-1.11,1.57-1.11,1.66-1.11s.2.03.28.09c.73.42,4.11,1.62,8.56,1.94.14.03.25.06.25.11ZM76.57,3.98v1.23c1.23,0,2.4-.02,3.16-.01,0-.45-.02-.87-.02-1.2l-3.14-.02Z"/>
      <path class="cls-1" d="M98.87,16.04c-1.76,0-3.18-1.47-3.18-3.21,0-1.76,1.47-3.18,3.21-3.18,1.71,0,3.19,1.42,3.18,3.21,0,1.76-1.47,3.19-3.21,3.18Z"/>
      <path class="cls-1" d="M116.87,24.7c.41-3.53.6-9.21.74-13.58-.45.64-1.8,2.6-2.25,2.59-.06,0-.11-.03-.17-.06-.59-.34-1.59-.54-2.26-.65-.17-.03-.25-.06-.25-.11,0-.03.03-.08.11-.17,4.25-3.65,6.99-9.88,7.17-11.67,0-.17.03-.22.2-.22.17,0,3.02,1.02,3.02,1.58,0,.17-.17.36-.54.56-.36.19-.45.05-.62.47-.26.64-1.02,2.18-2.04,3.94.22.06.39.11.5.17.17.08.25.2.25.34,0,.17-.08.34-.25.53-.37.42-.37.64-.4,1.26-.1,3.33-.26,7.7-.28,11.28,0,.84,0,1.62.02,2.35,2.7-2.79,2.92-7.71,2.97-11.05,0-1.71-.07-2.91-.18-3.81v-.08c0-.14.06-.17.14-.17h.11c2.04.18,3.42.21,4.73.22,5.88.03,8.74-.1,10.67-.2.11,0,.28.09.31.25.03.22.02.7.02,1.15,0,.31,0,.64-.03.81,0,.11-.22.17-.31.17-3.98-.24-5.96-.28-8.34-.29-1.4,0-3.53-.02-4.82,0,0,.5-.03,1.06-.04,2.1-.05,9.58-2.89,12.39-3.25,12.39-.06,0-.14,0-.22-.06-.36-.17-1.06-.43-1.73-.54,0,.2.03.36.03.53,0,.22-.31.28-1.51.27-1.12,0-1.48-.04-1.48-.29v-.03ZM133.72,7.64c0,.14-.06.28-1.21.27-1.2,0-1.48-.06-1.48-.32l.15-1.6h-2.44s.1,1.67.1,1.67c0,.14-.06.28-1.21.27-1.46,0-1.46-.09-1.45-.31l.12-1.57c-.78.02-1.71.08-3,.15-.28,0-.42-.09-.41-1.07,0-1.23.09-1.26.43-1.26,1.32.09,2.27.15,3.05.18,0-.84-.02-1.62-.27-2.72v-.11c0-.06.03-.11.11-.11.2,0,3.11.24,3.1.77,0,.14-.08.34-.28.59-.17.22-.34.53-.34,1.68h2.55c0-.88,0-1.7-.27-2.84v-.11c0-.06.03-.11.11-.11.03,0,1.71.18,2.77.46.22.06.33.17.33.31,0,.14-.09.34-.28.59-.11.14-.34.45-.34,1.68.98-.02,2.13-.07,3.78-.18.11,0,.28.09.31.25.03.22.02.67.02,1.12,0,.31,0,.62-.03.78,0,.11-.22.17-.31.17-1.65-.09-2.77-.15-3.72-.19l.11,1.54ZM137.1,22.53c0,1.4-.66,2.71-3.18,2.7-.14,0-.28-.09-.33-.34-.11-.59-.58-1.32-1.08-1.99l.07,2.07c0,.14-.09.22-.2.25-.25.03-.73.05-1.15.05-.95,0-.95-.12-.95-.34.06-1.48.1-3.11.13-4.84-.7,0-1.57.02-2.24.02l.06,4.82c0,.17-.09.31-1.21.3-1.15,0-1.26-.12-1.26-.37.03-.5.31-5.68.32-8.93,0-1.26-.01-2.94-.15-4.26v-.2c0-.11.03-.17.23-.17h.14c1.93.15,3.89.19,5.18.19,1.26,0,3.25.02,5.35-.11h.08c.17,0,.22.09.22.25v.08c-.18,1.99-.21,3.72-.22,4.84,0,1.96.07,3.84.17,5.6v.36ZM130.43,16.64c-.73,0-1.65.02-2.27.02v1.51c.66,0,1.56.04,2.26.04v-1.57ZM130.39,13.23c-1.01,0-2.18.02-2.18.02,0,0-.03.67-.04,1.48.62,0,1.51.04,2.24.04,0-.5-.02-1.04-.02-1.54ZM134.83,16.72c-.59,0-1.57-.06-2.35-.07v1.57c.78,0,1.76-.02,2.34-.02v-1.48ZM134.81,20.14c-.59,0-1.54-.04-2.32-.04,0,.87,0,1.76.02,2.58h.14c.59.12,1.01.17,1.32.17.73,0,.84-.28.84-.89v-1.82ZM134.82,13.28s-.95-.03-1.9-.04c0,.08-.08.22-.23.33-.11.08-.17.2-.17.34v.87c.78,0,1.73-.02,2.32-.02l-.02-1.48Z"/>
      <path class="cls-1" d="M155.14,24.72c0,.34-.45.33-1.54.33-1.04,0-1.12-.12-1.12-.34v-.06c0-.34.06-.7.06-1.06-.53-.03-1.68-.06-2.27-.07-.59,0-1.74.02-2.27.05,0,.45.02.87.02,1.26,0,.45-.06.45-1.43.44-1.29,0-1.32-.09-1.31-.37v-.11c.21-1.96.28-4.73.28-5.43,0-1.32-.01-3.39-.12-4.76,0-.08-.03-.17-.03-.22,0-.11.06-.14.23-.14h.17c1.09.09,3.16.16,4.53.16,1.32,0,2.8-.01,4.48-.12h.06c.2,0,.28.11.28.28v.08c-.15,1.96-.16,4.17-.16,4.9,0,.64.01,2.94.14,4.96v.22ZM152.59,19.3c0-.62-.01-2.83-.01-2.83,0,0-1.4-.03-2.3-.04-.9,0-2.21.02-2.21.02,0,0-.04,2.1-.04,2.88v2.04c.55.03,1.7.06,2.23.07.53,0,1.76-.02,2.32-.04v-2.1ZM163.18,12.13c0,.36-.48.39-1.63.38-1.01,0-1.17-.09-1.17-.34v-.7c-.92,0-3.47-.07-4.17-.08-.67,0-2.91.01-3.78.04,0,.28.03.56.02.81,0,.39-.06.42-1.4.41-1.2,0-1.46,0-1.45-.4v-.08c.21-1.96.27-4.37.28-5.07,0-1.32-.01-3.11-.12-4.48,0-.08-.03-.17-.03-.22,0-.11.06-.14.25-.14h.17c1.79.15,4.7.19,6.16.2,1.4,0,3.89.02,6.53-.14h.08c.2,0,.25.09.25.23v.11c-.15,1.96-.16,3.92-.16,4.65,0,.64.04,2.63.17,4.65v.17ZM160.46,7.07c0-.62-.02-2.44-.02-2.44,0,0-3.25-.04-4.2-.05-.95,0-3.78,0-3.78,0,0,0-.04,1.68-.04,2.46v2.1c.83,0,3.18.07,3.8.07s3.33-.04,4.23-.04v-2.13ZM167.57,24.77c0,.25-.2.33-1.6.33-.95,0-1.12-.09-1.12-.34v-.06c0-.34.03-.7.03-1.06-.59-.03-1.85-.06-2.46-.07s-1.82.02-2.38.04c0,.45.02.87.02,1.26,0,.39-.14.48-1.38.47-1.2,0-1.34-.09-1.34-.4v-.11c.21-1.96.25-4.73.25-5.43,0-1.32.02-3.39-.09-4.76,0-.08-.03-.17-.03-.22,0-.11.06-.14.22-.14h.17c1.09.09,3.28.16,4.65.16,1.34,0,3.03-.01,4.73-.12h.06c.2,0,.28.11.28.28v.08c-.15,1.96-.19,4.17-.19,4.9,0,.64.04,2.94.17,4.96v.22ZM164.94,19.36c0-.62-.01-2.83-.01-2.83,0,0-1.57-.04-2.46-.04-.9,0-2.38.02-2.38.02,0,0-.04,2.1-.04,2.88v2.04c.58.03,1.87.06,2.4.07.56,0,1.9-.02,2.49-.04v-2.1Z"/>
      <path class="cls-1" d="M185.6,23.77c-.36.05-.48.08-.81.25-3.96,1.8-6.9,2.26-7.46,2.26-.14,0-.28-.03-.36-.17-.25-.45-1.45-1.38-1.95-1.72-.08-.06-.14-.11-.14-.14,0-.06.11-.08.22-.08,4.87-.26,8.1-1.78,8.8-2.25.11-.08.17-.11.22-.11.31,0,2.09,1.38,2.09,1.66,0,.17-.23.25-.62.3ZM194.54,21.8c0,.17-.14.2-.31.19-.31,0-.7.02-1.06.02-.39,0-.73-.03-.98-.03-.2,0-.34-.06-.33-.2v-.11c-.9,0-2.85-.04-4.67-.05-1.6,0-3.28.01-4.28,0v.28c0,.14-.06.22-1.43.22-1.26,0-1.37-.03-1.37-.2v-.03c.23-1.59.38-2.97.38-4.2,0-.62.03-1.18.04-1.76,0-.56-.02-1.18-.08-1.82-.95.3-2.47.6-2.86.6-.14,0-.31-.06-.36-.14-.39-.53-1.45-1.16-1.9-1.47-.08-.06-.14-.14-.14-.17,0-.06.03-.08.14-.08,4.65-.12,6.89-1.14,7.94-2.71l-3.72-.02-.34.84c-.03.06-.2.28-.37.28-.28.03-.59.03-.9.02-1.23,0-1.6,0-1.59-.26,0-.06,0-.08.03-.11.73-.95,2.12-3.41,2.13-5.39v-.11c0-.11.03-.22.25-.22.67.03,1.62.32,2.63.54.81,0,1.76.04,2.72.04,0-.42.03-.84.03-1.23-2.02.02-4.45.03-6.08.11-.34,0-.34-.06-.33-1.12,0-.7,0-.78.4-.78,1.62.09,4,.16,5.99.2-.03-.67-.08-1.4-.24-2.19,0-.06-.03-.08-.03-.11,0,0,0-.08.25-.08.62.03,2.99.32,2.99.74,0,.25-.34.56-.51.87-.14.25-.17.5-.2.81l1.15.03h1.34c-.03-.61-.11-1.28-.24-2.21v-.08s0-.11.22-.11c.5.03,2.99.29,2.99.74,0,.25-.31.56-.51.86-.11.2-.17.42-.23.78,1.99-.02,4.26-.04,5.43-.09h.11c.14,0,.2.03.2.14v.06c-.09.39-.12.95-.12,1.54,0,1.01.07,2.13.18,2.77v.08c0,.2-.17.28-1.49.27-1.26,0-1.26-.15-1.26-.34v-.11c-.75,0-1.93-.04-3.13-.04,0,.45.02.92.02,1.4,3.64.02,6.83,0,7.62-.02.2,0,.25,0,.25.06v.06c-.23.9-.12,2.16-.86,3.1-.65.86-1.66,1.22-3.39,1.22h-.2c-.12,1.26-.15,2.21-.16,3.39-.01,2.74.04,3.47.23,5.27v.06ZM183.88,8.64c.11-.45.14-.92.17-1.43-1.26,0-2.58.04-3.44.04-.14.33-.25.73-.45,1.23l-.06.14,3.78.02ZM187.22,19.04c-1.65,0-3.44.01-4.42,0,0,.39.02.73.02,1.12.98,0,2.72.04,4.34.05,1.88,0,3.92,0,4.79,0,0-.36.03-.73.03-1.12-.87,0-2.91-.04-4.76-.05ZM191.99,16.74c-.87,0-2.88-.07-4.76-.08-1.65,0-3.44.01-4.42,0v.98c.98,0,2.74.04,4.39.05,1.88,0,3.92,0,4.79,0v-.95ZM191.95,14.34s-2.46-.04-4.76-.05c-2.3-.01-4.31,0-4.31,0,0,0-.03.39-.03.98.98,0,2.74.04,4.37.05,1.85,0,3.89,0,4.76,0,0-.59-.02-.98-.02-.98ZM188.8,10.18l-3.16-.02c-.42,1.01-1.13,1.93-2.31,2.68,1.23.03,2.46.04,3.86.05,2.58.01,3.25.02,6.75-.08-.14-.42-.67-.98-1.06-1.38-.06-.06-.06-.08-.05-.11,0-.08.08-.11.17-.11.53.06,1.18.12,1.68.12,1.06,0,1.15-.27,1.35-1.08-.31,0-2.32-.04-4.93-.05.02.81.05,1.54.1,2.07,0,.22-.9.25-1.15.25-1.23,0-1.32-.09-1.31-.31l.07-2.02ZM188.84,7.24h-2.6c-.03.49-.09.94-.17,1.41h2.77s0-1.41,0-1.41ZM188.85,5.22c0-.25.03-.48.03-.7h-2.58s0,1.25,0,1.25h2.55s0-.55,0-.55ZM199.57,24.03s-.06.08-.2.17c-.62.33-1.85,1.2-2.36,1.78-.08.11-.14.14-.25.14-1.6,0-8.02-2.36-8.02-2.98,0-.03.03-.08.08-.14,1.41-1.11,1.57-1.11,1.66-1.11.08,0,.2.03.28.08.73.42,4.11,1.62,8.56,1.95.14.03.25.06.25.11ZM191.04,4.53v1.23c1.23,0,2.4-.02,3.16-.01,0-.45-.02-.87-.02-1.2l-3.14-.02Z"/>
    </g>
  </g>
</svg>