<?xml version="1.0" encoding="UTF-8"?>
<svg id="_レイヤー_2" data-name="レイヤー 2" xmlns="http://www.w3.org/2000/svg" viewBox="0 0 86.3 24.48">
  <defs>
    <style>
      .cls-1 {
        fill: #4477e9;
      }
    </style>
  </defs>
  <g id="_文字" data-name="文字">
    <g>
      <path class="cls-1" d="M4.69,13.25s-1.79,0-3.08.27h-.06c-.34,0-.39-.09-.38-1.54,0-1.06.06-1.23.26-1.23h.06c1.09.12,1.68.23,2.77.24.67,0,1.54-.05,2.88-.15h.08c.17,0,.22.06.22.2v.11c-.23,2.07-.3,3.41-.31,5.93,0,.53,0,1.09.02,1.62.88,2.64,4.77,3.1,8.64,3.15,1.76,0,7.95-.52,9.92-1.13.08-.03.14-.03.17-.03.08,0,.08.03.08.06,0,.06-.06.17-.08.22-.2.42-1.07,1.79-1.25,2.65-.03.11-.2.31-.39.33-1.62.3-7.14.5-8.63.49-4.65-.05-8.25-1.38-9.64-3.35-1.04.92-2.75,2.31-3.06,2.59-.34.28-.42.67-.67.67C1.81,24.35,0,22.33,0,21.99c0-.08.11-.11.25-.17,1.66-.69,3.12-1.69,4.24-2.61.09-2.16.19-3.89.19-5.24v-.73ZM2.02,3.19c0-.28.88-2.07,1.21-2.07.08,0,4.78,1.2,4.78,2.04,0,.25-.96,2.46-1.33,2.46-.08,0-.17-.06-.28-.14-1.62-1.27-3.58-1.84-4.19-2.06-.14-.03-.2-.11-.19-.23ZM23.34,17.71c0,1.46-.69,2.85-3.43,2.84-.17,0-.34-.11-.39-.37-.11-.62-.61-1.49-1.17-2.19-.06-.06-.08-.14-.08-.17,0-.06.03-.08.11-.08.03,0,.08.03.14.03.64.12,1.12.17,1.46.18.76,0,.87-.28.87-.89v-1.96c-.77,0-2.26-.07-3.35-.07.02,1.9.04,3.7.09,5.18,0,.17-.03.31-1.29.3-1.15,0-1.17-.15-1.17-.37.09-1.48.13-3.25.16-5.12-.95,0-2.3.05-3.19.04.02,2.44.1,3.3.12,5.07,0,.22-.42.31-1.32.3-1.26,0-1.32-.06-1.31-.26v-.08c.15-2.27.27-2.74.29-7.78,0-.87-.04-4.31-.19-6.5,0-.08-.03-.17-.03-.22,0-.11.06-.14.22-.14h.17c1.48.12,3.36.18,4.82.19-.95-.59-1.84-.99-2.07-1.07-.14-.06-.2-.08-.2-.14s1.18-1.48,1.29-1.48c.31,0,2.54,1.36,2.65,1.41.67-.47,1.55-1.2,1.83-1.5.03-.06.08-.08.08-.11s-.06-.03-.2-.03c-.59,0-1.65.05-2.74.04-1.48,0-3.22.07-5.15.17-.08,0-.28-.06-.31-.23,0-.22-.03-.53-.02-.87,0-.34.03-.67.03-.9,0-.03,0-.22.31-.22,1.57.09,3.39.24,5.07.25,2.1.01,3.92-.04,4.54-.03.22,0,.42-.33.65-.33.11,0,1.93.82,1.93,1.38,0,.11-.09.25-.37.36-.22.11-.48.25-.65.39-.7.58-1.91,1.61-3.48,2.62l.36.31c1.43-.02,3.19-.04,4.65-.12h.06c.2,0,.28.11.28.28v.08c-.18,1.85-.21,3.69-.22,5.01,0,1.51,0,3.64.16,6.44v.36ZM15.31,11.2c-.98,0-2.35.04-3.19.04v1.79c.89,0,2.23.04,3.18.04v-1.88ZM12.17,7.44v1.79c.83,0,2.17.04,3.13.04,0-.62-.02-1.23-.02-1.85h-3.11ZM20.88,11.29c-.78,0-2.3-.07-3.39-.07v1.88c1.08,0,2.6-.02,3.38-.01v-1.79ZM20.87,7.48s-1.57-.04-2.88-.04c0,.08-.11.2-.28.33-.11.08-.17.22-.17.36v1.15c1.09,0,2.57-.02,3.35-.01l-.02-1.79Z"/>
      <path class="cls-1" d="M34.93,24.06c.44-3.67.63-9.63.77-14.05-.11.17-1.97,2.9-2.48,2.9-.06,0-.11-.03-.17-.06-.59-.34-1.62-.57-2.29-.68-.17-.03-.25-.06-.25-.11,0-.03.03-.08.11-.17,4.25-3.65,6.99-9.88,7.17-11.67,0-.17.03-.22.2-.22.22,0,3.05,1.08,3.04,1.61,0,.17-.17.36-.53.56s-.45.05-.62.47c-.28.67-1.05,2.23-2.09,4.02.84.23,1.01.37,1,.59,0,.17-.08.34-.25.53-.37.42-.37.64-.4,1.26-.1,3.28-.26,7.48-.28,11,0,1.54.01,2.94.06,4.06,0,.22-.31.28-1.51.27-1.12,0-1.48-.03-1.48-.29v-.03ZM40.22,5.02c3.28.3,6.58.31,7.53.32.84,0,4.82.02,8.04-.24.31,0,.36.45.36,1.18,0,.42-.03.9-.06,1.18-.03.14-.23.2-.31.19-3.13-.3-7.19-.31-8.03-.32-.87,0-4.26-.02-7.53.24-.28,0-.39-.03-.39-1.26,0-.98,0-1.29.31-1.29h.08ZM51.08,23.92c0-.31.03-.62.03-.9-.78-.03-2.74-.07-3.42-.07-.67,0-2.66.02-3.47.04,0,.31.03.64.02.98,0,.45-.06.45-1.4.44-1.2,0-1.34-.06-1.34-.4v-.11c.21-1.93.21-3.53.22-4.23,0-1.32,0-2.04-.1-3.42,0-.08-.03-.14-.03-.2,0-.11.06-.14.25-.14h.17c1.18.09,4.31.16,5.77.17,1.43,0,3.86,0,5.68-.11h.08c.2,0,.25.09.25.23v.11c-.15,1.93-.15,2.83-.16,3.56,0,.64,0,1.9.15,3.89,0,.11.03.17.03.22,0,.17-.09.34-1.6.33-.92,0-1.15-.03-1.15-.34v-.06ZM47.79,3.63c-1.32,0-3.08.01-5.4.14-.31,0-.36-.09-.36-1.12,0-1.18.03-1.2.43-1.2,1.68.12,3.08.13,4.17.13,2.55.01,4.28,0,6.5-.14.31,0,.39.2.39,1.23,0,1.12-.12,1.15-.4,1.15-2.24-.15-3.86-.19-5.32-.19ZM47.74,14.41c-1.29,0-3.05-.01-5.32.11-.36,0-.36-.25-.36-1.26,0-.95.09-.98.42-.98,2.29.15,4.12.16,5.26.17,1.26,0,3-.01,5.24-.14.08,0,.34.09.33.25.03.25.02.7.02,1.12,0,.81-.03.9-.37.89-2.18-.15-3.81-.16-5.24-.17ZM47.76,10.91c-1.29,0-3.05.01-5.32.14-.28,0-.36-.14-.36-1.12,0-1.06.06-1.15.43-1.15,2.29.15,4.12.16,5.26.17,1.26,0,3-.01,5.24-.14.25,0,.39.03.39,1.21,0,1.09-.09,1.09-.4,1.09-2.18-.15-3.81-.19-5.24-.19ZM51.16,19.63c0-.59-.02-1.48-.02-1.48,0,0-2.46-.07-3.42-.07-.95,0-3.47.04-3.47.04,0,0-.03.76-.04,1.54v1.18c.78.03,2.88.07,3.49.07.62,0,2.66-.04,3.44-.04v-1.23Z"/>
      <path class="cls-1" d="M79.62,18.6c-.87,0-2.52-.04-3.95-.05v1.2c2.23.01,3.44.02,7.75-.16.28,0,.28.09.28,1.01,0,.31-.03.62-.06.81,0,.11-.06.17-.2.17-4.17-.19-5.63-.25-7.75-.26v1.18c2.91.01,5.15,0,10.3-.17.25,0,.31.09.3,1.12,0,.34-.03.7-.06.87-.03.11-.08.17-.25.17-5.57-.25-8.09-.26-11.34-.28-4.51-.02-6.19-.03-11.23.14-.22,0-.34-.03-.36-.2,0-.17-.02-.53-.02-.87q0-1.06.4-1.06c4.96.22,7.39.26,9.85.27v-1.18c-2.07,0-3.1.01-7.27.16-.2,0-.28-.03-.31-.17,0-.17-.03-.5-.02-.81q0-.98.34-.98c4.06.19,5.51.22,7.28.23v-1.2c-1.28,0-2.71.02-3.61.01v.17c0,.17-.06.25-1.37.25-1.12,0-1.29-.06-1.29-.2v-.03c.23-1.48.29-2.24.3-3.64,0-1.51-.05-1.79-.21-3.36,0-.08.11-.17.28-.17,1.99.12,5.07.16,7.17.17,2.27.01,5.21,0,7.34-.13h.06c.2,0,.25.11.25.2-.09,1.34-.18,2.32-.18,3.36,0,1.2.1,1.85.24,3.45,0,.14-.17.28-.34.28-.31,0-.67.02-1.04.02-1.12,0-1.26-.12-1.26-.29v-.03ZM86.01,10.93c-5.63-.22-9.18-.27-11.42-.28-2.07,0-5.49,0-11.17.17-.28,0-.34,0-.33-1.04,0-1.09.03-1.18.34-1.17,5.74.28,9.15.3,11.2.31,2.41.01,5.71,0,11.4-.2.14,0,.22.08.25.23.03.17.03.64.02,1.09,0,.34,0,.64-.03.78-.03.11-.14.11-.25.11ZM79.45,7.81c-1.09,0-4.17-.08-4.9-.08-.73,0-3.5.04-4.56.03v.06c0,.36-.03.39-1.43.39-1.32,0-1.37-.12-1.37-.31v-.11c.23-1.79.24-2.6.24-3.25,0-.81-.02-1.48-.15-3.42,0-.08-.03-.14-.03-.2,0-.08.06-.11.22-.11h.22c1.23.09,5.4.14,6.94.15,1.48,0,5.26,0,7.17-.08h.11c.2,0,.25.06.25.23v.08c-.12,1.12-.12,1.93-.12,2.57,0,1.76.04,2.72.15,3.89,0,.08.03.17.03.22,0,.2-.11.31-1.65.3-.84,0-1.12,0-1.12-.31v-.06ZM73.32,13.22c-1.79,0-3.72.04-3.72.04,0,0-.03.42-.03,1.12.92,0,2.44.04,3.75.05v-1.2ZM73.33,15.82c-1.34,0-2.86.04-3.75.04,0,.34,0,.7.02,1.15.9,0,2.38.04,3.7.05l.03-1.23ZM69.93,6.23c1.04,0,3.98.05,4.62.05.67,0,3.92,0,4.96,0,.03-.56.03-.87.03-1.12-1.01,0-4.23-.05-4.98-.05-.73,0-3.61.01-4.62,0v1.12ZM79.53,2.61s-3.95-.05-4.96-.05c-1.01,0-4.59,0-4.59,0,0,0-.03.5-.03,1.09,1.04,0,3.98.05,4.62.05.67,0,3.95-.04,4.98-.03,0-.56-.02-1.06-.02-1.06ZM75.68,17.06c1.48,0,3.19-.04,4.03-.04.03-.48.03-.81.03-1.12-.81,0-2.58-.07-4.06-.08v1.23ZM79.7,13.3s-1.79-.06-3.53-.07c-.03.06-.11.14-.2.19-.11.08-.22.14-.23.36,0,.2-.03.39-.03.64,1.48,0,3.19-.01,4,0-.02-.7-.02-1.12-.02-1.12Z"/>
    </g>
  </g>
</svg>