<?xml version="1.0" encoding="UTF-8"?>
<svg id="_レイヤー_2" data-name="レイヤー 2" xmlns="http://www.w3.org/2000/svg" viewBox="0 0 151.39 24.92">
  <defs>
    <style>
      .cls-1 {
        fill: #4477e9;
      }
    </style>
  </defs>
  <g id="_文字" data-name="文字">
    <g>
      <path class="cls-1" d="M2.99,23.5c-.34.28-.42.67-.7.67-.53,0-2.29-2.25-2.29-2.36,0-.08.11-.14.28-.19,1.68-.64,3.28-1.78,4.44-2.72.09-2.16.16-4,.17-5.35v-.59s-2.04,0-3.33.26h-.06c-.36,0-.39-.2-.38-1.57,0-1.09.06-1.26.26-1.26h.06c1.09.12,1.79.23,3,.24.73,0,1.65-.05,3-.15h.06c.22,0,.31.14.31.34v.08c-.32,2.41-.39,4.39-.4,6.75v1.01c.91,2.61,4.66,3.07,8.49,3.12,1.76,0,7.76-.52,9.72-1.13.08-.03.14-.03.17-.03.08,0,.08.03.08.06,0,.06-.06.17-.08.22-.2.42-1.1,1.84-1.27,2.71-.03.11-.2.31-.39.33-1.62.3-6.92.44-8.4.44-4.76-.05-8.28-1.47-9.56-3.52l-3.15,2.64ZM6.49,5.54c-1.56-1.35-3.38-2.12-3.99-2.37-.11-.06-.17-.11-.17-.23,0-.06.91-1.98,1.27-1.98.42,0,4.61,1.73,4.61,2.29,0,.22-1.05,2.43-1.44,2.43-.08,0-.17-.06-.28-.14ZM12.75,19.27c0,.31.03.64.05.95,0,.14-.11.2-.25.22-.28.03-.73.02-1.18.02-1.12,0-1.43,0-1.43-.26v-.06c.35-3.5.43-7.53.5-11.25-.76,1-.99,1.09-1.1,1.09-.06,0-.08-.03-.14-.06-.59-.45-1.31-.51-1.9-.68-.14-.03-.25-.06-.25-.09,0-.03.03-.08.11-.14C10.77,5.84,12,1.37,12.26.17c.03-.14.03-.17.17-.17.28.03,2.99.88,2.99,1.33,0,.14-.14.31-.45.45-.34.17-.42.14-.59.5-.23.5-.71,1.48-1.36,2.65,1.32.03,2.24.07,3.05.07.96-1.82,1.67-4.11,1.7-4.58.03-.2.06-.25.14-.25.42,0,3.02.77,3.02,1.27,0,.25-.53.45-.76.67-.31.28-.93,1.65-1.64,2.9,1.32,0,2.86-.01,4.93-.23.31,0,.31.2.3,1.43,0,.34,0,.67-.03.87,0,.14-.17.14-.25.14-1.96-.21-3.55-.27-4.84-.28q-.45.45-.45.78v1.29c1.06,0,2.23-.05,4.08-.23.11,0,.2.03.22.2s.03.59.02.98c0,.42,0,.81-.03,1.04,0,.14-.17.14-.25.14-1.79-.2-3-.24-4.06-.27,0,.67.02,1.37.02,2.07,1.06,0,2.18-.05,4.03-.23.11,0,.22.03.25.2.03.17.03.59.02.98,0,.42,0,.81-.03,1.04,0,.03,0,.11-.25.11-1.76-.2-3-.24-4.03-.27,0,.92.02,1.79.04,2.49,1.54,0,3.5-.01,5.88-.22.34,0,.33.25.33,1.49,0,.34,0,.7-.03.9,0,.14-.22.14-.31.14-2.21-.21-4.23-.24-6.69-.26l-4.65-.02ZM15.91,14.74c-.81,0-1.71.02-3.22.04,0,.81,0,1.62.02,2.41,1.04.03,2.18.04,3.16.04,0-.67.04-1.54.04-2.49ZM15.93,10.85c-.81,0-1.71,0-3.22.01v2.02c1.45.04,2.37.04,3.21.04v-2.07ZM12.75,8.96c1.43.04,2.38.04,3.19.04,0-.81-.02-1.51-.02-2.07-.78,0-1.71.02-3.11.04,0,.03-.06.22-.06,1.06v.92Z"/>
      <path class="cls-1" d="M51.17,18.86c.01-2.49-.01-2.94-.26-4.79v-.11c0-.11.03-.11.11-.11,1.01,0,3.53.52,3.52,1,0,.25-.34.61-.54,1.15-.25.64-.31.78-.32,2.88-.01,2.38.1,2.77.28,5.32,0,.17-.11.28-1.46.27-1.32,0-1.48-.04-1.48-.34,0-.5.06-.9.06-1.29-2.91-.13-4.14-.13-5.49-.14-1.26,0-6.72-.03-9.44.07,0,.39.02.84.05,1.34,0,.22-.25.28-1.49.27-1.4,0-1.46-.06-1.46-.34.15-2.18.35-3.69.36-5.43.01-2.32-.01-2.94-.26-4.73v-.11c0-.11.03-.11.08-.11.25,0,3.55.41,3.55,1,0,.25-.34.61-.54,1.15-.25.64-.31.56-.32,2.83v1.79c3.38.13,4.64.13,6.01.14.04-1.99.11-6.08.13-8.96-.92,0-1.9,0-4.73.09,0,.25.03.5.02.78,0,.14-.11.2-.25.22-.31.03-.76.02-1.18.02-1.26,0-1.46,0-1.45-.32.18-2.21.35-3.61.36-5.32.01-2.41-.07-3.16-.26-4.51v-.11c0-.08.03-.11.11-.11.22,0,3.44.41,3.44.97,0,.25-.31.61-.51,1.15-.23.64-.31.42-.32,2.63,0,.76.02,1.48.02,2.27,2.94.13,3.78.13,4.73.13-.01-3.67-.16-7.59-.38-8.77-.03-.08-.03-.14-.03-.17,0-.11.06-.14.22-.14.67.03,3.64.46,3.63,1,0,.22-.25.53-.42.89-.28.56-.43,1.65-.48,7.19,1.85,0,2.35.01,4.65-.06,0-.56.03-1.18.04-1.96.01-2.55-.07-3.28-.26-4.62v-.11c0-.11.03-.11.14-.11.92,0,3.41.52,3.41.97,0,.25-.31.61-.51,1.15-.23.64-.31.7-.32,2.74-.01,2.35.18,3.25.29,4.87,0,.14-.11.2-.25.22-.31.03-.76.02-1.18.02-1.26,0-1.46,0-1.45-.31l.03-.56c-3.3-.13-3.16-.13-4.59-.13-.01,2.97.02,7,.04,8.96,1.4,0,2.83.01,6.3-.08v-1.62Z"/>
      <path class="cls-1" d="M66.56,12.41c-.34,0-.33-.17-.33-1.57,0-.95.03-1.12.26-1.12h.11c2.49.21,5.18.22,6.78.23,0-.98.04-2.44.04-3.19-1.96,0-5.71.03-9.49.21-.28,0-.36-.09-.36-1.37,0-1.26,0-1.37.23-1.37h.14c3.81.21,7.5.29,9.46.33-.02-1.2-.07-2.52-.37-4.26-.03-.08-.03-.11-.03-.17s.03-.08.11-.08h.11c3.27.32,3.78.55,3.78.91,0,.28-.31.67-.54,1.03-.25.47-.34.95-.35,2.57,1.93-.02,5.77-.06,9.61-.23.34,0,.36.2.36,1.6,0,.36,0,.7-.03.92,0,.14-.17.22-.34.22-3.78-.21-7.7-.29-9.66-.3,0,.76.02,2.21.01,3.19,1.51-.02,3.28-.04,3.28-.04.53,0,.62-.33.87-.33.2,0,2.15,1.21,2.15,1.61,0,.25-.34.42-.42.5-.56.47-.7.67-.99,1.23-.82,1.65-2.26,3.77-4.37,5.78,2.46,1.69,5.98,2.97,11.16,3.02.11,0,.2.06.2.14,0,.06-.03.11-.08.2-.37.47-1.83,1.28-2.39,2.23-.11.14-.28.25-.42.25-.06,0-5.68-.22-10.54-4.08-5.03,3.78-10.13,4.38-10.32,4.37-.11,0-.22-.03-.28-.14-.5-.87-1.92-1.75-2.37-2.14-.17-.14-.25-.23-.25-.28,0-.06.11-.06.25-.08,4.76-.26,8.38-1.64,11.08-3.45-1.67-1.77-2.75-3.6-3.34-4.92,0-.06-.03-.11-.03-.17,0-.34,1.63-1.06,2.13-1.05.14,0,.2.09.22.14.61,1.21,1.5,2.81,3.06,4.36,1.74-1.59,2.9-3.32,3.64-4.88-7.7-.04-10.08.09-11.62.2h-.11Z"/>
      <path class="cls-1" d="M110,14.78c1.06,0,3.16-.07,3.16-.07.48,0,.53-.25.73-.25.28,0,1.9.99,1.9,1.38,0,.14-.14.25-.39.45-.28.22-.37.31-.68.75-.65.95-1.41,2.07-2.42,3.21,1.68,1.07,4.05,1.95,7.27,2.05.11,0,.17.03.17.11,0,.03-.03.08-.08.17-.34.42-1.63,1.06-1.97,1.98-.06.14-.2.17-.31.17-.25,0-3.64-.35-6.73-2.83-2.73,2.34-5.45,3.03-5.45,3.03-.11,0-.22-.06-.28-.14-.39-.62-1.62-1.04-2.15-1.35-.28.22-.56.42-.87.61-.08.06-.2.11-.28.11s-.17-.03-.22-.08c-.45-.42-1.09-.79-1.7-1.04-.76,1.4-3.06,1.44-3.17,1.44-.2,0-.36-.09-.42-.25-.19-.84-.75-1.77-1.25-2.39-.05-.06-.08-.14-.08-.17,0-.08.06-.11.11-.11h.03c.64.09,1.15.15,1.51.15.98,0,1.04-.33,1.07-1.14.06-1.68.1-3.86.11-5.8l-1.52.69c-.31.14-.56.5-.84.5-.45,0-1.64-2.5-1.64-2.56,0-.11.11-.11.28-.14.81-.11,2.24-.61,3.73-1.19l.02-4.23c-1.01.02-1.99.05-3,.1-.22,0-.28-.03-.28-1.09,0-.5,0-1.04.04-1.26.03-.17.11-.25.25-.25,1.01.09,1.99.18,2.97.21-.02-2.04-.12-4.09-.28-5.1v-.14c0-.08.03-.08.08-.08h.11c2.74.29,3.19.46,3.19.8,0,.25-.25.67-.43,1.31-.11.45-.2,1.76-.24,3.22.7-.02,1.32-.11,2.27-.19.14,0,.25.09.28.25.03.22.02.76.02,1.26,0,1.06-.06,1.09-.31,1.09l-2.32-.12-.02,3.44c1.07-.47,2.02-.89,2.5-1.14.08-.03.14-.06.17-.06.03,0,.03.03.03.22v1.04c1.93.15,3.41.21,4.61.25.11-.53.2-1.01.26-1.4-1.09.02-2.32.1-3.7.23-.08,0-.22-.06-.22-.25,0-.2-.03-.53-.02-.87,0-1.01.06-1.23.2-1.23h.06c.48.06.95.09,1.4.12-.44-1.09-1.31-2.02-1.53-2.27-.06-.08-.11-.14-.11-.2,0-.2,1.8-.89,1.88-.89.22,0,1.56,1.41,2,2.28.03.06.05.11.05.14,0,.14-.14.33-1.43,1,1.65.09,3.02.1,3.92.1h1.43c1.13-1.56,1.84-3.34,2.09-4.43.06-.22.06-.28.17-.28.48,0,2.91.85,2.91,1.25,0,.14-.23.28-.48.47-.31.22-.39.39-.62.7-.42.59-1.13,1.53-1.69,2.26.92-.02,1.9-.08,2.88-.18.11,0,.2.08.22.25.03.17.03.56.02.92,0,.39,0,.76-.03.98,0,.14-.11.2-.2.19-2.15-.23-4.51-.3-6.02-.31,0,.06-.06.14-.2.17-.36.08-.48.11-.56.36l-.26.92h.25c3.02.02,4.98.03,8.15-.21.14,0,.25.08.28.25.03.22.02.67.02,1.12,0,.81-.03.95-.28.95-3.47-.27-6.27-.28-8.17-.29h-.81s-.48,1.31-.48,1.31h1.34ZM102.59,13.68c-.34,0-.33-.25-.33-1.01-.62.33-1.43.72-2.3,1.14-.01,2.18.03,5.01.08,7.28,0,.36,0,.76-.06,1.15,3.76-2.22,5.74-5.85,6.73-8.76-1.12.02-2.44.1-4.12.2ZM102.84,2.2c5.79.03,10.95-1.1,11.79-1.57.14-.08.2-.14.25-.14.03,0,2.2,1.55,2.2,2.19,0,.22-.28.33-.73.33-.17,0-.34,0-.5-.03-.67,0-.98.05-1.15.11-1.43.39-6.89,1.28-10.45,1.46-.22,0-.45,0-.5-.25-.17-.62-.83-1.35-1.22-1.83-.08-.11-.11-.17-.11-.22,0-.06.08-.06.22-.06h.2ZM107.19,17.93c-.96,1.76-2.2,3.54-3.8,4.97,2.47-.55,4.26-1.49,5.58-2.55-.83-.93-1.42-1.8-1.78-2.42ZM109.31,8.11c-.11,0-.2-.08-.22-.2-.25-1.21-1.05-2.39-1.25-2.67-.06-.08-.08-.14-.08-.2,0-.17,1.71-.64,1.96-.63.34,0,1.75,2.33,1.75,2.67,0,.28-2.08,1.03-2.16,1.03ZM109.88,16.43c-.31,0-.73.02-1.15.02.33.65.89,1.52,1.78,2.39.76-.89,1.3-1.76,1.72-2.4h-2.35Z"/>
      <path class="cls-1" d="M139.56,2.37c2.03,2.7,6.46,6.47,11.52,8.29.17.06.31.06.31.14,0,.03-.08.11-.28.22-.56.36-1.77.83-2.39,1.61-.08.11-.23.17-.34.17-.5,0-7.04-4.29-10.32-8.73-4.17,5.52-9.76,9.67-10.24,9.67-.06,0-.11-.03-.17-.08-.53-.67-1.9-1.27-2.51-1.52-.22-.08-.31-.14-.31-.2,0-.06.14-.11.28-.17,6.59-2.85,11.67-9.74,12.07-11.48.06-.14.08-.25.2-.25.03,0,2.96,1.16,2.96,1.75,0,.25-.42.47-.76.58h-.03ZM139.86,21.98c1.38-1.7,2.57-4.27,2.77-4.8.03-.11.06-.17.17-.17.48,0,2.71,1.02,2.71,1.47,0,.28-.51.42-.81.64-.31.22-1.52,1.7-2.51,2.84,1.74-.02,3.78-.07,6.55-.19.31,0,.31.28.3,1.29,0,.42-.03.81-.06,1.04,0,.14-.11.2-.25.19-4.14-.24-6.86-.29-9.24-.3-5.4-.03-8.04.02-11.79.2-.28,0-.34-.06-.33-1.26,0-.98.03-1.26.17-1.26h.17c2.69.15,4.56.22,6.16.25l-.08-.14c-.58-1.18-2.2-2.98-2.62-3.4-.08-.08-.14-.14-.14-.2,0-.17,1.24-.95,1.66-1.08.03,0,.06-.03.11-.03.31,0,3.21,2.9,3.2,3.46,0,.25-1.01,1.03-1.77,1.39.92,0,1.76.04,2.63.04.04-1.51.05-3.92.06-5.82-1.85,0-5.01.03-7.06.19-.28,0-.34-.06-.33-1.37,0-1.23.04-1.26.34-1.26,2.1.21,5.21.25,7.05.26v-.17c-.02-1.18-.02-1.46-.13-2.3-.73.02-1.71.08-3,.21-.25,0-.31-.09-.3-1.35,0-1.23.09-1.23.31-1.23,1.99.21,3.02.24,3.89.24,2.58.01,3.67-.07,5.12-.2.11,0,.25.11.25.28.03.22.03.64.02,1.04,0,.42,0,.84-.03,1.06,0,.14-.2.2-.25.19-1.15-.12-2.01-.18-2.74-.21-.06.08-.17.14-.28.19-.36.19-.36.25-.37,2.24,1.88,0,5.01,0,7.17-.19.11,0,.25.11.28.28.03.22.03.64.02,1.06,0,.45,0,.87-.03,1.09,0,.14-.2.2-.28.19-2.07-.18-5.35-.25-7.2-.26,0,1.79,0,4.31.03,5.82h.45Z"/>
    </g>
  </g>
</svg>