<?xml version="1.0" encoding="UTF-8"?>
<svg id="_レイヤー_2" data-name="レイヤー 2" xmlns="http://www.w3.org/2000/svg" viewBox="0 0 115.96 25.08">
  <defs>
    <style>
      .cls-1 {
        fill: #4477e9;
      }
    </style>
  </defs>
  <g id="_文字" data-name="文字">
    <g>
      <path class="cls-1" d="M14.37,4.65c-.03,6.97,4.13,14.3,11.65,17.3.14.06.25.11.25.17,0,.08-.08.17-.34.28-.7.33-1.85.83-2.64,1.47-.08.06-.14.08-.22.08-.45,0-7.07-3.31-9.99-12.54-3.02,9.73-9.47,12.61-9.75,12.61-.08,0-.14,0-.22-.09-.64-.67-2.09-1.19-2.77-1.44-.25-.08-.33-.17-.33-.2,0-.06.11-.11.25-.17,8.36-3.04,11.2-11.29,11.31-17.78,0-.84-.02-1.82-.18-2.58-.03-.08-.03-.14-.03-.17,0-.11.03-.14.17-.14.2,0,3.64.44,3.64,1.03,0,.25-.25.53-.45.84-.14.25-.28.56-.34.98v.34Z"/>
      <path class="cls-1" d="M38.31,9.83c.17.17,2.42,2.42,4.27,3.35.2.11.31.2.31.31,0,.06-.03.11-.11.17-.22.2-1.26.69-1.63,1.14-.08.11-.2.2-.31.19-.11,0-.45-.14-2.56-2.67.01,3.14.12,9.07.33,11.93,0,.17-.17.25-1.49.24-1.62,0-1.71-.12-1.71-.32.35-3.67.46-8.62.5-11.56-1.19,2.57-2.91,5.05-3.52,5.05-.08,0-.17-.03-.22-.08-.45-.48-1.56-.88-2.12-1.07-.11-.06-.2-.08-.2-.17,0-.03.03-.08.11-.14,2.89-2,4.84-5.27,5.97-7.64v-.11c-1.15.02-2.74.07-4,.18-.22,0-.31-.06-.3-1.29,0-1.01,0-1.29.31-1.29,1.26.12,2.86.18,4,.22-.02-2.24-.12-4.62-.39-5.97,0-.06-.03-.08-.03-.11,0-.11.06-.11.14-.11h.11c2.8.29,3.33.41,3.33.8,0,.25-.25.67-.43,1.31-.17.7-.29,2.35-.36,4.09,1.09-.02,2.41-.07,3.53-.18.08,0,.31.03.31.2.03.17.02.62.02,1.06,0,.45,0,.9-.03,1.12,0,.14-.25.19-.31.19-1.09-.12-2.46-.18-3.55-.21,0,.48-.03.92-.03,1.32l.06.06ZM51.3,21.68c0,1.37-1.27,2.82-4.27,2.81-.17,0-.34-.11-.42-.39-.17-.62-1.06-1.57-1.67-2.33-.03-.06-.06-.11-.06-.14,0-.06.06-.11.17-.11.06,0,.11.03.17.03.7.12,1.31.2,1.79.2,1.01,0,1.57-.3,1.57-1.17v-1.26c.02-2.69-.02-5.71-.04-7.87-3.08,5.47-6.62,8.14-6.9,8.14-.08,0-.2-.03-.31-.14-.72-.68-1.56-.99-2.26-1.24-.14-.06-.25-.11-.25-.2,0-.06.06-.11.17-.17,4.1-2,7.48-6.71,8.98-9.37-1.09,0-2.21.05-4.73.23-.31,0-.33-.14-.33-1.26,0-1.37.06-1.4.23-1.4h.11c2.91.24,3.97.27,5.23.28-.05-1.99-.17-4.34-.45-5.83,0-.06-.03-.11-.03-.14,0-.08.06-.11.11-.11h.11c.53.03,2.27.35,3.16.63.25.08.33.2.33.36,0,.22-.2.53-.37.81-.31.53-.31,1.15-.34,1.82v2.46c.83-.02,1.72-.08,3.88-.23.14,0,.22.08.25.25.03.22.02.76.02,1.29,0,1.09-.06,1.12-.29,1.12-2.07-.18-3-.24-3.86-.27v.67c.01,2.07.12,9.46.27,12.38v.14Z"/>
      <path class="cls-1" d="M66.04,10.42c-.42.03-.67.28-.9.28-.56,0-1.64-2.39-1.64-2.64,0-.08.06-.11.17-.11.06,0,.11.03.2.03.39.03.9.03,1.43.03,1.09,0,2.41-.02,3.84-.09.37-.95.71-1.87.85-2.54-1.79.02-3.84.07-7.08.19-.2,0-.31-.06-.33-.23,0-.2-.03-.62-.02-1.04,0-1.26.03-1.26.37-1.26,4.65.25,6.8.26,9.27.27-.02-.73-.08-1.79-.29-3.05,0-.06-.03-.11-.03-.14,0-.08.06-.11.14-.11.31,0,2.24.26,3.3.6.25.08.36.2.36.37,0,.34-.45.84-.59,1.34-.09.34-.12.7-.14,1.01,2.6.01,5.01.02,9.75-.18.22,0,.31,0,.3,1.29,0,.42-.03.81-.06,1.04,0,.11-.08.2-.25.19-2.94-.15-5.09-.22-6.94-.26,4.11,1.9,6.03,3.61,6.03,3.72,0,.48-1.58,1.95-1.8,1.95-.11,0-.2-.06-.31-.17-.75-.7-1.59-1.35-2.4-1.92-2.18.24-12.24,1.34-13.19,1.42ZM80.68,22.27c0,1.43-.88,2.74-3.96,2.81-.17,0-.31-.11-.36-.37-.11-.59-1-1.52-1.58-2.19-.06-.06-.08-.11-.08-.17,0-.03.03-.06.08-.06.06,0,.11.03.17.03.76.12,1.32.2,1.76.2.98,0,1.32-.3,1.32-.92v-1.4c-1.14-.03-3.8-.05-4.45-.05-.56,0-2.86-.01-4.28,0,.02,2.04.07,2.91.09,4.51,0,.22-.08.31-1.09.3-1.4,0-1.68-.09-1.68-.29v-.06c.15-2.18.26-2.69.29-7.56,0-.84-.04-3.5-.2-5.6,0-.08-.03-.14-.03-.2,0-.11.06-.14.25-.14h.17c1.6.09,5.12.17,6.55.17,1.37,0,5.01-.03,6.78-.11h.08c.2,0,.25.09.25.25v.08c-.24,2.41-.27,4.31-.28,5.29,0,1.23.02,1.99.2,5.15v.28ZM78.04,16.72c-1.15-.03-3.84-.05-4.48-.05-.59,0-2.97-.01-4.28,0v1.54c1.42.03,3.77.05,4.28.05.56,0,3.33.02,4.51,0,0-.48-.02-.78-.02-.95v-.59ZM78.03,13.27s-3.53-.04-4.45-.05-4.26,0-4.26,0v1.48c1.34.03,3.72.05,4.25.05.56,0,3.3.02,4.48,0l-.02-1.48ZM73.54,5.35c-.08.06-.17.08-.31.14-.2.08-.37.11-.48.36-.2.5-.48,1.15-.85,1.9,1.71-.1,3.45-.24,4.85-.37-1.06-.59-1.06-.62-1.06-.7,0-.2,1.21-1.25,1.24-1.28-1.15,0-2.18-.04-3.25-.04h-.14Z"/>
      <path class="cls-1" d="M114.44,6.14c0,.56,0,1.23-.04,1.62,0,.2-.17.33-.34.33-3.25-.18-6.1-.28-7.95-.32.18,2.47.62,5.02,1.45,7.32,1.24-2.49,1.73-4.16,1.9-5.73.03-.17.03-.28.14-.28.17,0,3.3,1.16,3.3,1.75,0,.28-.4.53-.7.75-.42.31-.62.7-.85,1.26-.57,1.34-1.3,3.16-2.52,5.06,1.58,2.7,3.43,3.77,3.76,3.77.73,0,.85-1.59.99-2.96.03-.17.08-.22.14-.22.06,0,.11.06.17.11.31.34,1,1.32,1.87,1.83.14.08.2.25.19.48-.71,2.88-1.64,4-2.82,3.99-1.79,0-4.44-2.63-5.86-4.87-3.41,3.96-7.28,5.06-7.28,5.06-.06,0-.11-.03-.17-.08-.53-.79-1.79-1.44-2.4-1.8-.2-.11-.28-.2-.28-.25s.11-.08.28-.11c4.06-.76,6.73-2.82,8.57-5.25-1.38-3.17-2.01-6.73-2.33-9.84-2.16-.01-6.27,0-7.28,0,.02.92.05,1.93.04,3,.48,0,.95.03,1.43.03,1.43,0,2.83-.07,4.31-.2h.11c.17,0,.22.06.22.2v.11c-.12,1.32.12,4.98-.48,7.14-.51,1.76-1.69,2.79-3.79,2.78-.81,0-.92-.03-1.06-.4-.28-.81-.67-1.43-1.28-2.13-.72,4.06-2.5,6.65-2.86,6.65-.11,0-.2-.06-.31-.11-.42-.25-1.59-.48-2.35-.6-.17-.03-.25-.08-.25-.14,0-.06.06-.11.14-.2,2.93-2.79,3.68-7.93,3.7-12.16.01-2.69-.26-5.01-.47-6.16-.03-.08-.03-.14-.03-.2,0-.14.08-.17.22-.17h.14c1.93.21,6.86.31,9.66.33-.24-3.02-.32-4.12-.45-4.93-.03-.14-.03-.22-.03-.28,0-.11.03-.14.17-.14h.11c2.94.32,3.22.38,3.22.77,0,.31-.26.75-.37,1.09-.03.06-.14.39-.15,1.51v1.96c1.73,0,4.5,0,8.08-.21h.06c.2,0,.31.14.31.25v.62ZM96.43,12.94c-.06,1.62-.21,3.27-.47,4.9,1.01.23,1.68.34,2.16.35.9,0,1.71-.33,1.73-4.22,0-.36,0-.73-.02-1.01l-3.39-.02ZM110.35,4.89c-1.39-1.24-3.07-2.14-3.26-2.26-.11-.06-.22-.09-.22-.2,0-.34,1.3-1.76,1.44-1.76.31,0,3.77,1.81,3.77,2.2s-1.1,2.15-1.44,2.15c-.08,0-.17-.03-.28-.14Z"/>
    </g>
  </g>
</svg>