<?xml version="1.0" encoding="UTF-8"?>
<svg id="_レイヤー_2" data-name="レイヤー 2" xmlns="http://www.w3.org/2000/svg" viewBox="0 0 204.06 25.62">
  <defs>
    <style>
      .cls-1 {
        fill: #4477e9;
      }
    </style>
  </defs>
  <g id="_文字" data-name="文字">
    <g>
      <path class="cls-1" d="M3.15,13.79c-.08,0-.17-.03-.22-.11-.53-.67-2.01-1.35-2.62-1.61-.22-.08-.31-.14-.31-.2s.14-.11.28-.17C7.74,8.49,12.12,1.62,12.43.25,12.49.11,12.52,0,12.63,0c.34,0,2.96,1.25,2.96,1.75,0,.25-.39.45-.73.56,2,2.7,6.24,6.36,11.55,8.26.17.06.31.06.31.14,0,.03-.08.11-.28.22-.56.36-1.88,1.05-2.5,1.84-.08.11-.22.17-.34.17-.31,0-6.53-3.76-10.29-8.9C8.91,9.95,3.58,13.79,3.15,13.79ZM12.31,19.4c.01-2.88,0-6.3,0-6.83-.02-1.82-.1-2.97-.26-4.17v-.17c0-.11.03-.14.2-.14.95.03,3.47.44,3.47,1.02,0,.22-.23.48-.42.81-.34.59-.34.81-.38,2.66v1.68c1.53-.02,2.99-.07,5.56-.23.22,0,.34.03.33,1.35,0,1.26-.09,1.32-.34,1.31-2.43-.18-4.06-.24-5.6-.25l-.02,4.98c2.46.01,4.34-.03,8.99-.21.14,0,.25.08.28.25.03.22.02.78.02,1.29,0,1.01-.06,1.12-.29,1.12-5.26-.25-7.39-.29-10.47-.3-2.86-.01-5.43,0-10.42.2-.31,0-.33-.14-.33-1.26,0-1.26.04-1.4.34-1.4,1.57.12,2.86.18,4,.22,0-1.82,0-3.84,0-4.45-.02-1.82-.1-2.97-.26-4.17v-.17c0-.11.03-.14.2-.14,1.04.06,3.41.49,3.41,1.02,0,.22-.23.47-.42.81-.34.59-.34.84-.38,2.69,0,.42-.04,1.85-.04,3.33v1.15s2.82.01,2.82.01v-2.02Z"/>
      <path class="cls-1" d="M47.94,5.52c1.07-1.42,2.06-3.04,2.43-4.08.08-.2.08-.28.14-.28.34,0,2.51,1.36,2.51,1.69,0,.17-.22.25-.48.42-.31.19-.39.36-.65.64-.39.45-.9,1.06-1.38,1.59,1.43-.02,3.08-.1,5.1-.17.31,0,.31.09.3,1.18,0,.36-.03.73-.06.95,0,.11-.09.2-.25.19-3.22-.18-5.6-.25-7.64-.29.98.48,1.54.88,1.53,1.16,0,.2-.22.31-.56.44-.22.11-.65.31-1.01.84,1.48-.02,3-.07,5.46-.17.2,0,.31.06.3,1.09,0,.34-.03.67-.06.87,0,.11-.06.14-.22.14-3.39-.1-5.24-.17-7.5-.2-.03.08-.08.17-.22.25-.03.03-.17.11-.17.42,0,.2-.03.42-.03.67,1.93,0,2.77-.02,6.1-.17.28,0,.28.11.28,1.04,0,.31-.03.62-.06.81,0,.11-.08.17-.23.17-3.44-.16-4.34-.22-6.16-.23-.03.42-.06.84-.06,1.29,2.72.01,4.51,0,9.41-.18.28,0,.28.11.27,1.12,0,.36-.03.73-.06.92,0,.11-.06.17-.22.17-3.84-.19-5.93-.25-7.95-.26,2.01,1.49,5.61,3.7,10.14,4.33.2.03.28.09.28.17,0,.08-.11.22-.31.33-.76.44-1.8,1-2.39,1.61-.11.14-.23.17-.34.17-.64,0-5.81-2.41-8.85-5.42.05,1.9.18,3.86.28,5.6,0,.14,0,.2-.14.22-.28.03-.87.05-1.4.05-.45,0-.84-.03-.98-.06-.2-.03-.22-.11-.22-.25.12-1.62.27-3.53.33-5.4-4.22,4.04-8.45,5.42-8.68,5.42-.14,0-.25-.03-.42-.2-.64-.68-1.59-1.1-2.23-1.47-.14-.08-.22-.14-.22-.2,0-.06.08-.11.22-.14,4.43-.71,8.08-3.15,10.13-4.8-2.07,0-3.75.04-7.95.19-.2,0-.31-.06-.33-.23,0-.2-.03-.53-.02-.9q0-1.09.37-1.09c4.9.22,6.86.26,9.18.27,0-.45-.02-.87-.02-1.29-2.18-.01-3.22.04-6.75.16-.17,0-.25-.09-.28-.23,0-.17-.03-.48-.02-.81,0-.95.03-.98.31-.98,3.25.18,4.82.22,6.69.23-.03-.53-.05-1.01-.11-1.37-2.6-.01-4.03-.02-7.95.16-.2,0-.31,0-.33-.17,0-.2-.03-.53-.02-.87q0-1.06.37-1.06c2.41.1,4.03.16,5.43.19-.56-.7-1.2-1.21-1.28-1.29-.08-.06-.14-.11-.14-.2,0-.17.9-.75,1.21-.92-1.79.02-3.89.09-6.97.22-.28,0-.34-.11-.33-1.18,0-1.09.03-1.15.34-1.15,1.88.09,3.42.16,4.7.19-.61-1.07-1.92-2.28-2.14-2.47-.08-.08-.14-.14-.14-.2,0-.17,1.6-1.31,1.74-1.31.39,0,2.71,2.34,2.7,2.62,0,.22-.79.92-1.38,1.39.81.03,1.54.06,2.24.07,0-1.29.02-3.7-.2-5.21v-.14c0-.06,0-.08.08-.08.87,0,2.55.43,2.8.52.22.06.31.17.31.31,0,.31-.42.73-.51,1.17-.17.73-.18,2.41-.18,3.44h1.82c0-1.28,0-3.69-.23-5.2v-.11c0-.08.03-.11.08-.11.11,0,1.65.18,2.8.52.22.08.31.17.31.31,0,.31-.4.73-.48,1.17-.17.73-.18,2.41-.18,3.44l.42-.03ZM45.17,9.82c.79-.75,1.24-1.79,1.5-2.46-.81,0-1.54-.04-2.29-.04-1.12,0-2.16.02-3.28.01,1.67,1.24,2.12,1.94,2.12,2.17,0,.11-.08.17-.17.28l-.03.03h2.16Z"/>
      <path class="cls-1" d="M63.4,4.5c2.57.29,4.03.3,4.79.3.64,0,1.82,0,4.37-.26.2,0,.31.14.3,1.29,0,.39-.03.78-.06,1.06,0,.14-.17.19-.25.19-2.46-.29-3.72-.3-4.37-.3-.67,0-2.21-.01-4.79.26-.25,0-.31-.09-.3-1.26,0-1.18.06-1.29.23-1.29h.08ZM80.35,24.57c-.22,0-.42,0-.48-.2-.14-.53-1.03-1.8-1.39-2.19-.06-.06-.06-.08-.06-.11s.03-.06.06-.06c.06,0,.11.03.17.03.78.12,1.4.17,1.9.18,1.23,0,1.79-.33,2.19-.89.45-.67.85-1.96.97-2.96h-1.32c-.17.97-.2,1.08-.45,1.08h-.39c-.5,0-1.26-.04-1.54-.06-.08-.03-.28,0-.28-.17,0,0,.03-.06.03-.08.57-1.82.91-3.44,1.11-4.56h-1.01c.06.02.05.08.05.14,0,.14-.14.31-.37.42-.25.14-.39.5-.48,1.03-1.09,6.18-5.17,8.63-5.59,8.62-.06,0-.08,0-.14-.06-.31-.31-.73-.54-1.09-.73-.03.14-.14.25-1.18.25-.95,0-1.26-.06-1.26-.34v-.06c.03-.48.06-.92.06-1.32-.39-.03-1.06-.06-1.6-.06s-1.26.02-1.65.05c0,.67.02,1.4.05,2.1,0,.36-.03.45-1.18.44-1.34,0-1.4-.15-1.4-.4v-.11c.21-1.93.24-3.92.25-4.62,0-.87.01-2.77-.09-4.12,0-.08-.03-.17-.03-.2,0-.11.06-.14.22-.14h.17c1.09.09,2.35.15,3.72.16,1.32,0,1.96-.02,3.64-.12h.08c.17,0,.22.09.22.23v.11c-.06,1.06-.09,1.32-.1,4.26,0,.31-.03.7-.03,1.23,0,.39.02.9.05,1.48,3.2-1.75,4.62-5.33,4.63-8.18-.5.03-1.06.05-1.68.1-.08,0-.17-.03-.2-.17-.03-.22-.02-.81-.02-1.29v-.45c0-.2.12-.2.26-.19,2.18.21,3.08.24,4.31.24h1.74c.22,0,.37-.27.59-.27.2,0,1.9.91,1.9,1.16,0,.22-.45.36-.54.7-.17.67-.34,1.4-.49,2.13h1.12c.7,0,1.48-.02,2.58-.12-.09,1.6-.72,4.62-1.37,5.82-.85,1.59-2.14,2.29-4.44,2.27h-.25ZM68.22,3.1c-1.04,0-1.48.02-3.3.15-.28,0-.28-.11-.28-1.09,0-1.06.06-1.15.34-1.15,1.32.12,1.93.12,2.52.12,1.74,0,2.35-.02,4.14-.15.25,0,.31.25.3,1.18,0,1.01-.06,1.12-.31,1.12-1.76-.15-2.27-.18-3.42-.18ZM78.65,11.71c.12-.7.23-1.65.29-2.6-2.48,3.04-5.23,4.18-5.23,4.18-.06,0-.14-.03-.22-.11-.36-.37-1.2-.82-1.7-1.07v.5c0,.48,0,1.01-.04,1.26,0,.14-.2.17-.25.17-1.71-.15-2.21-.15-3.33-.16-1.01,0-1.43,0-3.22.12-.06,0-.25-.03-.25-.23-.03-.25-.03-.67-.02-1.04,0-.9.09-.98.34-.98,1.79.15,2.27.15,3.16.16.98,0,1.57-.02,3.33-.15h.03c3.06-.96,5.36-3,6.66-4.34-1.23.02-2.63.07-4.54.17-.14,0-.25-.03-.28-.17,0-.17-.03-.56-.02-.98,0-1.15.06-1.15.31-1.15,2.41.18,3.92.24,5.32.25-.03-.64-.08-1.26-.16-1.74-1.2.08-2.44.16-3.67.21-.14,0-.25-.11-.28-.25-.11-.56-.69-1.38-.94-1.71-.06-.06-.08-.14-.08-.17,0-.06.03-.08.14-.08.64.03,1.29.06,1.93.07,3.67.02,7.03-.53,8.24-1.02h.06c.28,0,1.42,1.77,1.42,2.08,0,.17-.14.2-.39.19h-.17c-.25-.03-.45-.03-.64-.03-.2,0-.39,0-.7.08-.78.16-1.62.3-2.49.41l.2.06c.17.06.22.11.22.2,0,.17-.23.36-.37.7-.08.22-.2.45-.26,1.04,1.6-.02,3.75-.07,6.02-.2.14,0,.25.08.25.2.03.14.02.56.02.98,0,.39,0,.81-.03.98,0,.08-.14.14-.25.14-1.99-.15-3.92-.21-5.51-.25,1.42,1.21,4.16,3.16,7.37,3.82.14.03.2.06.2.11s-.08.11-.2.2c-.48.28-1.57,1.03-1.88,1.56-.06.08-.14.11-.2.11-.39,0-3.63-1.64-5.83-4.17.05,1.01.16,1.96.24,2.72,0,.08-.06.31-.17.31-.22,0-.67.02-1.09.02-.45,0-.9-.03-1.12-.03-.11,0-.19-.2-.19-.31v-.03ZM68.19,8.42c.98,0,1.57-.02,3.33-.15.08,0,.22.09.25.25.03.22.03.59.02.95,0,.34,0,.7-.03.92,0,.14-.2.17-.25.17-1.71-.15-2.21-.18-3.33-.18-1.01,0-1.43.02-3.22.15-.17,0-.28-.11-.28-1.12,0-.87.06-1.15.34-1.15,1.79.15,2.27.15,3.16.16ZM66.65,20.45c.39.03,1.15.03,1.62.04.5,0,1.26,0,1.65-.02,0-.25-.03-.45-.02-.59,0-.59-.02-2.27-.02-2.27,0,0-.7-.06-1.6-.06-.9,0-1.6.05-1.6.05,0,0-.04,1.54-.04,2.32v.53Z"/>
      <path class="cls-1" d="M107.23,19.63c0,.2,0,.25-.23.33-1.38.55-8.61,2.51-9.7,2.84-.31.11-.56.39-.81.39-.48,0-1.75-2.47-1.75-2.58,0-.11.17-.11.34-.11.84,0,2.89-.43,5.1-.93v-3.08c-.94.02-1.92.05-3.85.21-.28,0-.31-.2-.3-1.15,0-1.23.03-1.23.31-1.23,1.93.15,2.91.21,3.83.24-.02-1.32-.1-2.21-.24-3.14v-.14c0-.08.03-.11.2-.11,3.14.16,3.13.66,3.13.72,0,.2-.23.39-.4.7-.28.45-.31.67-.35,1.99,1.09-.02,1.96-.05,4.09-.2.14,0,.22.08.25.25.03.2.03.67.02,1.12,0,.34,0,.67-.03.84-.03.11-.14.17-.22.17-2.01-.18-3.02-.21-4.11-.24v2.55c2.09-.49,3.97-1.02,4.58-1.21.06-.03.11-.03.14-.03.08,0,.08.06.08.22,0,.39-.09.92-.09,1.43v.17ZM97.25,11.1c-.34.08-.56.36-.76.36-.34,0-1.31-2.19-1.3-2.41,0-.14.06-.14.17-.14,1.04,0,2.04-.1,2.49-.16.59-1.29,1.19-3.1,1.36-4.19-.84.02-1.79.08-3.08.18-.28,0-.31-.2-.3-1.15,0-1.23.03-1.23.31-1.23,2.66.21,3.89.24,5.38.25,1.74,0,2.97-.04,5.68-.22.22,0,.25.25.25,1.37,0,.34,0,.67-.03.84,0,.11-.14.2-.22.2-2.07-.18-3.41-.24-4.7-.27-.06.17-.34.31-.59.56-.23.22-.34.53-.42.75-.23.59-.71,1.65-1.19,2.63,1.15-.13,2.24-.33,3.17-.46-.45-.53-.84-.9-1.06-1.12-.06-.06-.11-.11-.11-.17,0-.22,1.29-1.06,1.35-1.09.06-.03.08-.06.14-.06.31,0,3.4,3.04,3.4,3.68,0,.31-1.8,1.48-1.91,1.48-.06,0-.11-.03-.14-.08-.17-.34-.31-.67-.47-.95-1.65.3-6.98,1.28-7.4,1.42ZM118.83,6.78c.17,0,.28.22.27,1.26,0,.42-.03.81-.06,1.06,0,.11-.17.19-.25.19-.73-.09-1.76-.15-2.83-.18l.5.17c.25.09.36.23.36.34,0,.2-.25.45-.42.73-.25.42-.45,1.01-.62,1.62-.34,1.26-.88,3.58-2.32,6.04,1.5,1.94,3.71,3.77,6.92,5.13.08.03.11.08.11.14,0,.06-.03.14-.17.17-.5.19-1.74.8-2.53,1.42-.08.06-.17.08-.25.08-.14,0-3.07-1.47-5.55-4.81-3.29,3.93-7.39,5.06-7.5,5.06-.11,0-.22-.03-.31-.14-.61-.76-1.65-1.24-2.26-1.58-.2-.11-.28-.2-.28-.25,0-.08.17-.11.31-.14,4.09-.9,6.85-2.94,8.62-5.19-1.08-2.02-1.66-4.01-2.02-5.67-.51.92-.71,1.09-.9,1.09-.03,0-.08,0-.11-.03-.64-.4-1.31-.31-1.93-.4-.14-.03-.25-.03-.25-.09s.03-.08.08-.17c3.21-3.93,4.64-10.03,4.79-11.79,0-.14,0-.2.14-.2,0,0,3.08.41,3.07,1.13,0,.14-.11.31-.39.5-.31.22-.45.22-.56.64-.2.64-.74,2.24-1.48,4.05.22,0,.48.03.7.03.76,0,5.12,0,7.08-.22h.03ZM113.61,9.05c-.92-.03-1.65-.04-1.93-.04-.56,0-.98.02-1.43.02.02,1.12.23,3.81,1.73,6.67,1.5-2.85,1.62-5.87,1.63-6.27v-.39Z"/>
      <path class="cls-1" d="M132.79,15.98c-1.76,0-3.19-1.47-3.18-3.21,0-1.76,1.47-3.19,3.21-3.18,1.71,0,3.19,1.42,3.18,3.21,0,1.76-1.47,3.19-3.21,3.18Z"/>
      <path class="cls-1" d="M160.71,25.32c0,.11-.11.25-.25.25-.31.03-.76.05-1.2.05-1.09,0-1.46-.03-1.46-.34v-.06c.17-1.12.35-3.61.42-5.32-4.64,4.21-8.68,5.28-8.82,5.28-.14,0-.25-.03-.42-.2-.64-.65-1.59-1.07-2.23-1.41-.14-.06-.22-.14-.22-.2s.06-.11.2-.14c4.73-.73,8.58-3.32,10.58-4.91-2.1-.01-4.51.03-8.68.18-.45,0-.48-.06-.47-1.15,0-1.18.09-1.18.34-1.17h.14c4.76.25,7.28.32,9.6.33-.03-.53-.11-1.06-.24-1.63v-.08c-1.15,0-2.52.02-3.95,0,0,.11.03.22.03.34,0,.11-.11.17-.25.19-.28.03-.73.02-1.2.02-.45,0-.9,0-1.2-.03-.17-.03-.25-.09-.25-.2v-.06c.29-1.79.44-4.2.51-6.41-.48.61-2,2.51-2.45,2.51-.06,0-.11-.03-.17-.06-.56-.39-1.45-.62-2.12-.77-.17-.03-.28-.06-.28-.11,0-.03.03-.08.11-.14,4.21-3.12,6.5-7.81,6.71-9.38.03-.11.06-.17.14-.17.22,0,2.91.97,2.91,1.55,0,.17-.17.33-.53.45-.37.11-.48.08-.62.39l-.71,1.28c1.37,0,2.66.04,3.7.05.68-1.23,1.19-2.46,1.44-3.27.06-.22.06-.28.17-.28.17,0,2.88.71,2.88,1.13,0,.14-.23.28-.51.47-.39.28-.53.45-1.63,1.95,1.88,0,5.18,0,7.59-.22.28,0,.34.06.33,1.23,0,.31,0,.59-.03.76,0,.11-.2.11-.28.11-2.1-.21-5.01-.25-6.94-.26-.03.06-.11.14-.22.2-.25.17-.25.22-.25.5v.7c1.54,0,3.67-.04,5.65-.2.11,0,.2.03.22.17s.03.48.02.78c0,.34,0,.64-.03.84,0,.11-.17.11-.25.11-1.93-.18-4.09-.24-5.63-.25v1.43c1.53,0,3.63-.04,5.62-.2.11,0,.22.03.25.17.03.14.03.48.02.78,0,.34,0,.64-.03.84,0,.11-.17.11-.25.11-1.9-.18-4.06-.22-5.6-.22,0,.5.05,1.01.05,1.43,1.99,0,5.57-.06,8.01-.21.31,0,.36.03.36,1.26,0,.34,0,.62-.03.78,0,.11-.22.14-.31.14-2.83-.21-7.53-.26-8.85-.27h-.73c.5.05,1.65.26,1.65.51,0,.17-.23.36-.48.56-.14.11-.2.31-.23.61,2.3.01,5.21,0,9.97-.2.22,0,.33.11.36.25.03.22.03.67.02,1.12,0,.31,0,.62-.03.78,0,.11-.2.17-.37.17-4-.19-6.63-.26-8.85-.27,1.95,1.44,5.72,3.81,10.59,4.48.22.03.31.09.31.17,0,.08-.11.2-.31.31-.79.44-1.8.94-2.42,1.56-.14.14-.22.17-.36.17-.48,0-5.79-2.27-8.94-5.25.05,1.68.23,4.23.39,5.52v.03ZM158.56,11.68c-1.2,0-2.86-.01-4.62,0,0,.45.02.9.02,1.34,1.68.04,3.3.07,4.56.08,0-.42.03-.9.04-1.43ZM158.58,8.77c-1.2,0-2.83.01-4.59.03,0,.42-.03.87-.03,1.34,1.74.04,3.42.04,4.62.05v-1.43ZM153.99,7.26c1.74.04,3.39.04,4.59.05,0-.53-.02-1.01-.02-1.4-1.23,0-2.8-.01-4.51,0,0,.03-.06.2-.06.95v.39Z"/>
      <path class="cls-1" d="M200.26,21.09c-1.76-.09-3.13-.13-4.93-.14-.78,0-1.54.02-2.27.02.53.25,1.93,1.1,1.92,1.47,0,.17-.25.31-.59.33-.34.03-.42.05-.73.25-3.57,2.31-6,2.6-6,2.6-.11,0-.22-.06-.28-.14-.39-.59-1.34-1.27-1.92-1.72l-.03-.03.08,1.26c0,.14-.11.17-.25.19-.28.03-.81.05-1.32.05-1.43,0-1.48-.09-1.48-.31.32-3.39.49-7.73.53-10.44-1.41,2.6-2.79,4.05-3.07,4.05-.06,0-.14-.03-.2-.08-.36-.34-1.59-.88-2.12-1.05-.11-.03-.2-.06-.2-.11s.03-.08.11-.14c2.47-1.67,4.45-4.77,5.49-6.89v-.31c-.98.02-2.29.07-3.47.18-.25,0-.31-.09-.3-1.26q0-1.23.31-1.23c1.18.12,2.46.18,3.44.21,0-.73-.02-1.43-.02-1.99,0-.5-.02-.84-.05-1.12-1.49.27-2.13.35-2.16.35-.11,0-.17-.06-.25-.2-.25-.53-.95-1.32-1.28-1.77-.08-.08-.11-.14-.11-.2s.08-.06.2-.06c3.64-.07,6.08-1.01,6.78-1.45.11-.06.17-.08.25-.08.17,0,1.87,1.6,1.87,2.22,0,.14-.14.22-.42.22-.14,0-.34,0-.56-.06h-.03s-.06,0-1.32.3c0,.03.03.03.03.06,0,.11-.14.25-.34.45-.22.19-.25.59-.35,3.33.67-.02,1.37-.08,2.33-.19.08,0,.28.03.28.2.03.17.03.62.02,1.04,0,.45,0,.87-.03,1.09,0,.14-.23.17-.28.17-.95-.12-1.68-.18-2.35-.21v.7c.16.2,1.86,2.25,3.82,3.21.14.08.22.14.22.23,0,.06-.06.11-.14.2-.2.19-1.12.81-1.43,1.23-.08.11-.14.2-.25.19-.31,0-1.56-1.32-2.23-2.17.02,2.35.08,6.97.23,10.02.03,0,.06-.03.11-.03,4.04-.57,6.2-1.71,7.04-2.54l.06-.03c-.76,0-1.54.02-2.38.04-.25,0-.34-.09-.33-.23v-.06c.21-1.96.24-3.33.24-4.2,0-2.02.01-2.8-.09-4.9,0-.17.03-.2.17-.2h.17c1.74.09,3.53.16,5.01.17,1.43,0,2.35.01,4.98-.12h.06c.22,0,.28.14.28.28-.12,1.9-.16,3.69-.16,4.81,0,.87.01,3.11.09,4.17v.06c0,.17-.09.28-.31.28h-.08ZM196.48,8.81c1.74,0,3.61-.01,6.61-.19.25,0,.36.09.36,1.04,0,.31-.03.64-.06.84-.03.11-.17.19-.28.19-3.02-.24-4.9-.25-7.81-.26-1.82,0-5.01.14-6.69.19-.25,0-.28-.14-.28-.22-.03-.22-.03-.53-.02-.84,0-.92.12-.95.23-.95.81.06,3.67.16,5.65.2v-1.23c-.83,0-1.79.05-3.8.21-.11,0-.31-.06-.33-.23,0-.2-.03-.45-.02-.7,0-.84.09-.92.34-.92,2.04.18,3,.24,3.83.24v-1.18c-1.11,0-2.15.05-4.95.23-.34,0-.33-.31-.33-1.01q0-1.06.34-1.06c2.8.21,3.81.21,4.9.22-.02-.87-.1-1.54-.27-2.35,0-.06-.03-.11-.03-.14,0-.11.08-.17.22-.17.78.03,3.25.49,3.24.91,0,.2-.23.45-.45.73-.23.28-.31.33-.34,1.03,1.48,0,2.86.01,5.71-.17.22,0,.34.06.33,1.01,0,.34-.03.67-.06.87-.03.11-.14.2-.25.19-2.8-.21-4.28-.27-5.77-.28v1.18c.97,0,1.98-.05,4.05-.2.11,0,.28.08.28.22.03.2.03.5.02.81,0,.64-.03.81-.31.81-2.01-.18-3.05-.24-4.06-.24v1.23ZM192.38,18.2c0,.78.02,1.15.02,1.15,0,0,.95.06,2.94.07,2.24.01,2.91-.04,2.91-.04,0,0,.03-.36.03-1.15l-5.91-.03ZM198.32,15.73l-5.94-.03v1.09s5.93.03,5.93.03v-1.09ZM198.31,13.18s-.48-.03-2.91-.04c-2.3-.01-2.97.01-2.97.01v1.15s5.87.03,5.87.03v-1.15ZM204.06,23.24c0,.06-.06.11-.2.2-.56.36-1.74,1.17-2.14,1.84-.06.11-.17.14-.31.14-1.06,0-5.28-2.83-5.28-3.3,0-.22,1.35-1.03,1.54-1.03.08,0,.14.03.22.08.67.45,2.85,1.72,5.93,1.99.14.03.22.03.22.08Z"/>
    </g>
  </g>
</svg>