<?xml version="1.0" encoding="UTF-8"?>
<svg id="_レイヤー_2" data-name="レイヤー 2" xmlns="http://www.w3.org/2000/svg" viewBox="0 0 219.55 24.56">
  <defs>
    <style>
      .cls-1 {
        fill: #4477e9;
      }
    </style>
  </defs>
  <g id="_文字" data-name="文字">
    <g>
      <path class="cls-1" d="M12.82,4.32c1.85,0,3.67-.04,4.09-.29.2-.08.28-.14.39-.14.28,0,2.46,1.38,2.46,1.8,0,.34-.67.58-1.04,1.25-7.23,12.99-15.7,15.13-15.81,15.13-.08,0-.17-.03-.25-.11-.67-.7-1.9-1.24-2.37-1.52-.2-.11-.28-.2-.28-.25,0-.08.14-.17.34-.22,10.24-3.11,15.13-13.14,15.13-13.31,0-.11-.08-.14-.25-.14-.84,0-3.3.04-5.12.06-3.32,4.16-6.28,6.52-7.06,6.52-.14,0-.28-.03-.36-.09-.64-.48-1.45-.76-1.96-1.02-.11-.06-.17-.14-.17-.2,0-.06.03-.11.11-.17C4.98,9.21,9.21,4.02,10.2.86c.06-.17.11-.22.22-.22.39,0,3.24,1.47,3.24,1.98,0,.22-.31.45-.67.67-.31.19-.67.47-.93.81l-.2.22h.95Z"/>
      <path class="cls-1" d="M38.84,1c0-.14.06-.2.25-.19.5,0,2.38.32,3.27.6.28.09.36.23.36.39,0,.34-.28.7-.37.84-.4.78-.48.98-.49,2.52,0,.76.02,1.85.04,2.86,0,.25.03.5.02.78-.02,3.42-.86,10.05-6.96,14.13-.08.06-.2.08-.34.08-.11,0-.22-.03-.31-.09-.92-.65-2.4-1.1-2.91-1.3-.25-.11-.33-.17-.33-.23s.14-.11.28-.17c7.38-2.77,7.69-10.13,7.71-13.77,0-1.37-.04-2.55-.04-3.64,0-.9-.1-1.9-.21-2.72v-.11ZM31.42,13.45c.18-1.79.32-3.47.34-6.02.01-2.97-.04-4.12-.36-5.99-.03-.08-.03-.14-.03-.17,0-.08.03-.11.11-.11.2,0,2.35.24,3.36.58.22.08.31.17.31.34,0,.28-.23.67-.48,1.34-.28.75-.32,1.96-.32,3.05-.02,3.39.04,4.31.25,7.09,0,.2-.14.28-1.57.27-1.29,0-1.6-.04-1.59-.32v-.06Z"/>
      <path class="cls-1" d="M62.26,8.34c1.79.32,2.41.43,2.4.71,0,.22-.34.59-.45,1.2-.17,1.04-.23,1.88-.24,2.91,0,1.62-.01,2.58.04,3.58,2.74-.04,5.46-.11,8.26-.27.25,0,.31.09.3,1.85,0,1.01-.06,1.06-.26,1.06-3.05-.18-6.1-.28-9.15-.3-3.39-.02-6.78.08-10.17.29-.22,0-.31-.06-.3-.98,0-2.1.12-2.13.26-2.13.03,0,.08.03.14.03.67.14,2.71.43,8.15.46.03-.53.03-1.04.04-1.6,0-.36.03-5.35-.19-6.78v-.06c-1.51,0-3.53.04-6.11.22-.14,0-.34-.03-.33-.23,0-.28-.02-.76-.02-1.23,0-1.37.06-1.4.23-1.4h.14c3.05.24,5.15.28,6.78.29,5.26.03,7.25-.11,8.65-.21.22,0,.34.03.33,1.43,0,.48-.03.98-.06,1.23,0,.14-.17.2-.28.19-1.88-.15-3.78-.27-7.75-.29h-.39Z"/>
      <path class="cls-1" d="M91.5,22.59c.38-4.03.37-7.81.42-11.79-4.14,4.1-7.48,6.07-7.87,6.07-.11,0-.22-.03-.31-.11-.61-.56-2.07-1.13-2.71-1.36-.25-.09-.34-.14-.33-.2,0-.06.11-.11.25-.17,6.87-2.85,11.32-8.37,13.35-11,.54-.7.99-1.48,1.27-2.21.06-.14.11-.22.2-.22.22,0,3.13,1.64,3.13,2.2,0,.36-.7.5-.9.64-.67.44-.87.7-1.38,1.28-.54.61-1.21,1.39-2,2.26.03,4.7-.08,10.05.27,14.7,0,.14-.09.28-1.54.27-1.51,0-1.85-.06-1.85-.32v-.06Z"/>
      <path class="cls-1" d="M119.11,4.75c2.07,0,4.51-.03,5.07-.31.2-.08.28-.14.36-.14.17,0,2.24,1.08,2.23,1.61,0,.34-.76.56-1.13,1.28-1.1,2.07-2.43,4.16-3.98,6.11,1,.76,2.96,2.31,2.96,2.7,0,.42-1.86,2.12-2.11,2.12-.06,0-.11-.03-.17-.08-.72-.87-1.59-1.74-2.54-2.53-5.4,5.77-10.39,6.92-10.45,6.92-.08,0-.17-.03-.25-.14-.56-.76-1.7-1.13-2.12-1.44-.14-.11-.2-.2-.19-.25,0-.08.11-.17.34-.22,4.4-1.16,7.97-3.71,10.62-6.5-1.28-.93-2.46-1.69-3.1-2.06-.06-.03-.11-.11-.11-.23,0-.22,1.27-1.56,1.66-1.56.14,0,1.68.76,3.32,1.81,2.14-2.73,3.07-4.8,3.07-4.8,0-.11-.08-.14-.22-.14-.87,0-3.36.07-5.12.09-3.83,4.6-6.5,6.63-7.14,6.63-.11,0-.2-.03-.28-.09-.61-.45-1.37-.65-1.87-.88-.11-.03-.17-.11-.17-.2,0-.06.03-.11.11-.17,4.33-2.61,8.66-7.85,9.83-10.98.06-.2.14-.25.25-.25.22,0,3.16,1.25,3.16,1.86,0,.25-.34.45-.76.64-.37.17-.67.5-.96.81l-.31.39Z"/>
      <path class="cls-1" d="M154.38,10.6c.17,0,.2.11.19.28.03.36.02,1.01.02,1.62,0,.45,0,.87-.03,1.09,0,.14-.09.22-.25.22-4.06-.33-6.83-.37-8.45-.38-5.74-.03-8.06.1-10.45.29h-.06c-.17,0-.25-.09-.25-.28,0-.36-.02-.9-.02-1.4,0-1.4.06-1.54.2-1.54h.14c3.89.33,6.41.37,7.95.38,6.47.03,7.76-.05,10.95-.28h.06Z"/>
      <path class="cls-1" d="M162.46,3.86c2.57.29,4.03.3,4.79.3.64,0,1.82,0,4.37-.26.2,0,.31.14.3,1.29,0,.39-.03.78-.06,1.06,0,.14-.17.19-.25.19-2.46-.29-3.72-.3-4.37-.3-.67,0-2.21-.01-4.79.26-.25,0-.31-.09-.3-1.26,0-1.18.06-1.29.23-1.29h.08ZM179.42,23.94c-.22,0-.42,0-.47-.2-.14-.53-1.03-1.8-1.39-2.19-.06-.06-.05-.08-.05-.11s.03-.06.06-.06c.06,0,.11.03.17.03.78.12,1.4.17,1.9.18,1.23,0,1.79-.33,2.19-.89.45-.67.85-1.96.97-2.96h-1.32c-.17.97-.2,1.08-.45,1.08h-.39c-.5,0-1.26-.04-1.54-.06-.08-.03-.28,0-.28-.17,0,0,.03-.06.03-.08.57-1.82.91-3.44,1.11-4.56h-1.01c.06.02.06.08.06.14,0,.14-.14.31-.37.42-.25.14-.39.5-.48,1.03-1.09,6.18-5.17,8.63-5.58,8.63-.06,0-.08,0-.14-.06-.31-.31-.73-.54-1.09-.73-.03.14-.14.25-1.18.25-.95,0-1.26-.06-1.26-.34v-.06c.03-.48.06-.92.06-1.32-.39-.03-1.06-.06-1.6-.06-.53,0-1.26.02-1.65.05,0,.67.02,1.4.05,2.1,0,.36-.03.45-1.18.44-1.34,0-1.4-.15-1.4-.4v-.11c.21-1.93.24-3.92.25-4.62,0-.87.01-2.77-.09-4.12,0-.08-.03-.17-.03-.2,0-.11.06-.14.22-.14h.17c1.09.09,2.35.15,3.72.16,1.32,0,1.96-.02,3.64-.12h.08c.17,0,.22.09.22.23v.11c-.06,1.06-.09,1.32-.11,4.26,0,.31-.03.7-.03,1.23,0,.39.02.9.05,1.48,3.2-1.75,4.62-5.33,4.63-8.18-.5.03-1.06.05-1.68.1-.08,0-.17-.03-.19-.17-.03-.22-.02-.81-.02-1.29v-.45c0-.2.12-.2.25-.19,2.18.21,3.08.24,4.31.24h1.74c.22,0,.37-.27.59-.27.2,0,1.9.91,1.9,1.16,0,.22-.45.36-.54.7-.17.67-.34,1.4-.49,2.13h1.12c.7,0,1.48-.02,2.58-.12-.09,1.6-.72,4.62-1.37,5.82-.85,1.59-2.14,2.29-4.44,2.27h-.25ZM167.28,2.46c-1.04,0-1.48.02-3.3.15-.28,0-.28-.11-.28-1.09,0-1.06.06-1.15.34-1.15,1.32.12,1.93.12,2.52.12,1.74,0,2.35-.02,4.14-.15.25,0,.31.25.3,1.18,0,1.01-.06,1.12-.31,1.12-1.76-.15-2.27-.18-3.42-.18ZM177.71,11.08c.12-.7.23-1.65.29-2.6-2.48,3.04-5.23,4.17-5.23,4.17-.06,0-.14-.03-.22-.11-.36-.37-1.2-.82-1.7-1.07v.5c0,.48,0,1.01-.04,1.26,0,.14-.2.17-.25.17-1.71-.15-2.21-.15-3.33-.16-1.01,0-1.43,0-3.22.12-.06,0-.25-.03-.25-.22-.03-.25-.02-.67-.02-1.04,0-.9.09-.98.34-.98,1.79.15,2.27.15,3.16.16.98,0,1.57-.02,3.33-.15h.03c3.06-.97,5.36-3,6.66-4.34-1.23.02-2.63.07-4.54.17-.14,0-.25-.03-.28-.17,0-.17-.03-.56-.02-.98,0-1.15.06-1.15.31-1.15,2.41.18,3.92.24,5.32.25-.02-.64-.08-1.26-.16-1.74-1.2.08-2.44.16-3.67.21-.14,0-.25-.11-.28-.25-.11-.56-.69-1.38-.94-1.71-.06-.06-.08-.14-.08-.17,0-.06.03-.08.14-.08.64.03,1.29.06,1.93.07,3.67.02,7.03-.53,8.24-1.02h.06c.28,0,1.42,1.77,1.42,2.08,0,.17-.14.2-.39.19h-.17c-.25-.03-.45-.03-.64-.03s-.39,0-.7.08c-.79.16-1.63.3-2.49.41l.2.06c.17.06.22.11.22.2,0,.17-.23.36-.37.7-.08.22-.2.45-.26,1.03,1.6-.02,3.75-.07,6.02-.2.14,0,.25.09.25.2.03.14.03.56.02.98,0,.39,0,.81-.03.98,0,.08-.14.14-.25.14-1.99-.15-3.92-.21-5.51-.25,1.42,1.21,4.16,3.16,7.37,3.82.14.03.2.06.2.11,0,.06-.08.11-.2.2-.48.28-1.57,1.03-1.88,1.56-.06.08-.14.11-.2.11-.39,0-3.63-1.64-5.83-4.17.05,1.01.16,1.96.24,2.72,0,.08-.06.31-.17.31-.22,0-.67.02-1.09.02-.45,0-.9-.03-1.12-.03-.11,0-.2-.2-.19-.31v-.03ZM167.26,7.78c.98,0,1.57-.02,3.33-.15.08,0,.22.09.25.25.03.22.02.59.02.95,0,.34,0,.7-.03.92,0,.14-.2.17-.25.17-1.71-.15-2.21-.18-3.33-.18-1.01,0-1.43.02-3.22.15-.17,0-.28-.11-.28-1.12,0-.87.06-1.15.34-1.15,1.79.15,2.27.15,3.16.16ZM165.72,19.81c.39.03,1.15.03,1.62.04.5,0,1.26,0,1.65-.02,0-.25-.03-.45-.03-.59,0-.59-.02-2.27-.02-2.27,0,0-.7-.06-1.6-.06-.9,0-1.6.05-1.6.05,0,0-.04,1.54-.04,2.32v.53Z"/>
      <path class="cls-1" d="M206.29,19c0,.2,0,.25-.23.33-1.37.55-8.61,2.51-9.7,2.84-.31.11-.56.39-.81.39-.48,0-1.75-2.47-1.75-2.58,0-.11.17-.11.34-.11.84,0,2.89-.43,5.1-.93v-3.08c-.94.02-1.92.05-3.85.21-.28,0-.31-.2-.3-1.15,0-1.23.03-1.23.31-1.23,1.93.15,2.91.21,3.83.24-.02-1.32-.1-2.21-.24-3.14v-.14c0-.08.03-.11.2-.11,3.14.16,3.13.66,3.13.72,0,.2-.23.39-.4.7-.28.45-.31.67-.34,1.99,1.09-.02,1.96-.05,4.09-.2.14,0,.22.08.25.25.03.2.02.67.02,1.12,0,.34,0,.67-.03.84-.03.11-.14.17-.22.17-2.02-.18-3.02-.21-4.12-.24v2.55c2.09-.49,3.97-1.02,4.59-1.21.06-.03.11-.03.14-.03.08,0,.08.06.08.22,0,.39-.09.92-.09,1.43v.17ZM196.31,10.46c-.34.08-.56.36-.76.36-.34,0-1.31-2.19-1.3-2.41,0-.14.06-.14.17-.14,1.04,0,2.04-.1,2.49-.16.59-1.29,1.19-3.1,1.36-4.19-.84.02-1.79.08-3.08.18-.28,0-.31-.2-.3-1.15,0-1.23.03-1.23.31-1.23,2.66.21,3.89.24,5.38.25,1.74,0,2.97-.04,5.69-.22.22,0,.25.25.25,1.37,0,.34,0,.67-.03.84,0,.11-.14.2-.22.19-2.07-.18-3.42-.24-4.7-.27-.06.17-.34.31-.59.56-.22.22-.34.53-.42.75-.23.59-.71,1.65-1.19,2.63,1.15-.13,2.24-.33,3.17-.46-.45-.53-.84-.9-1.06-1.12-.06-.06-.11-.11-.11-.17,0-.22,1.29-1.06,1.35-1.09.06-.03.08-.06.14-.06.31,0,3.4,3.04,3.4,3.68,0,.31-1.8,1.48-1.91,1.48-.06,0-.11-.03-.14-.08-.17-.34-.3-.67-.47-.95-1.65.3-6.98,1.28-7.4,1.42ZM217.89,6.14c.17,0,.28.23.27,1.26,0,.42-.03.81-.06,1.06,0,.11-.17.19-.25.19-.73-.09-1.76-.15-2.83-.18l.5.17c.25.08.36.23.36.34,0,.2-.25.45-.42.73-.25.42-.45,1.01-.62,1.62-.34,1.26-.88,3.58-2.32,6.04,1.5,1.94,3.71,3.77,6.92,5.13.08.03.11.08.11.14,0,.06-.03.14-.17.17-.5.19-1.74.8-2.53,1.42-.08.06-.17.08-.25.08-.14,0-3.07-1.47-5.55-4.81-3.29,3.93-7.39,5.06-7.5,5.06s-.22-.03-.31-.14c-.61-.76-1.65-1.24-2.26-1.58-.2-.11-.28-.2-.28-.25,0-.08.17-.11.31-.14,4.09-.9,6.85-2.94,8.62-5.2-1.08-2.02-1.66-4.01-2.02-5.67-.51.92-.71,1.09-.9,1.09-.03,0-.08,0-.11-.03-.64-.4-1.31-.31-1.93-.4-.14-.03-.25-.03-.25-.08,0-.06.03-.08.08-.17,3.21-3.93,4.64-10.03,4.79-11.79,0-.14,0-.2.14-.2,0,0,3.08.41,3.07,1.13,0,.14-.11.31-.39.5-.31.22-.45.22-.56.64-.2.64-.74,2.24-1.48,4.05.22,0,.48.03.7.03.76,0,5.12,0,7.08-.22h.03ZM212.67,8.42c-.92-.03-1.65-.04-1.93-.04-.56,0-.98.02-1.43.02.02,1.12.23,3.81,1.73,6.67,1.5-2.85,1.62-5.87,1.63-6.26v-.39Z"/>
    </g>
  </g>
</svg>