<?xml version="1.0" encoding="UTF-8"?>
<svg id="_レイヤー_2" data-name="レイヤー 2" xmlns="http://www.w3.org/2000/svg" viewBox="0 0 245.34 25.17">
  <defs>
    <style>
      .cls-1 {
        fill: #4477e9;
      }
    </style>
  </defs>
  <g id="_文字" data-name="文字">
    <g>
      <path class="cls-1" d="M10.8,22.64c.38-4.03.37-7.81.42-11.79-4.14,4.1-7.48,6.07-7.87,6.07-.11,0-.22-.03-.31-.11-.61-.56-2.07-1.13-2.71-1.36-.25-.09-.34-.14-.34-.2s.11-.11.25-.17c6.87-2.85,11.32-8.37,13.35-11,.54-.7.99-1.48,1.27-2.21.06-.14.11-.22.2-.22.22,0,3.13,1.64,3.12,2.2,0,.36-.7.5-.9.64-.67.44-.87.7-1.38,1.28-.53.61-1.21,1.39-2,2.26.03,4.7-.08,10.05.27,14.7,0,.14-.08.28-1.54.27-1.51,0-1.85-.06-1.85-.32v-.06Z"/>
      <path class="cls-1" d="M32.26,21.15c-.9.42-1.15.81-1.49.81-.7,0-2.79-2.37-2.79-2.79,0-.11.11-.2.34-.22,1.12-.19,2.41-.52,3.28-.88,5.41-2.19,10.44-5.35,14.66-9.59.11-.11.2-.17.25-.17.06,0,.08.11.11.34.08.7.41,1.85.74,2.44.06.08.08.17.08.25,0,.17-.09.31-.23.42-3.29,2.76-7.76,6.18-14.97,9.39ZM34.16,10.46c-1.92-1.69-4.77-3.3-5.61-3.69-.11-.06-.2-.11-.19-.2,0-.45,1.38-2.09,1.58-2.09.56,0,6.09,2.94,6.09,3.47s-1.5,2.6-1.69,2.6c-.06,0-.11-.03-.17-.08Z"/>
      <path class="cls-1" d="M67.53,4.93c2.07.01,4.51-.03,5.07-.31.2-.08.28-.14.36-.14.17,0,2.24,1.07,2.23,1.61,0,.34-.76.56-1.13,1.28-1.1,2.07-2.43,4.16-3.98,6.11,1,.76,2.96,2.31,2.96,2.7,0,.42-1.86,2.12-2.11,2.12-.06,0-.11-.03-.17-.08-.72-.87-1.59-1.74-2.54-2.53-5.4,5.77-10.39,6.92-10.45,6.92-.08,0-.17-.03-.25-.14-.56-.76-1.7-1.13-2.12-1.44-.14-.11-.19-.2-.19-.25,0-.08.11-.17.34-.22,4.4-1.15,7.97-3.71,10.62-6.5-1.28-.93-2.46-1.69-3.1-2.06-.06-.03-.11-.11-.11-.22,0-.22,1.27-1.56,1.66-1.56.14,0,1.68.76,3.32,1.81,2.14-2.73,3.07-4.8,3.07-4.8,0-.11-.08-.14-.22-.14-.87,0-3.36.07-5.12.09-3.83,4.6-6.5,6.63-7.14,6.63-.11,0-.2-.03-.28-.08-.61-.45-1.37-.65-1.87-.88-.11-.03-.17-.11-.17-.2,0-.06.03-.11.11-.17,4.32-2.61,8.66-7.85,9.82-10.98.06-.2.14-.25.25-.25.22,0,3.16,1.25,3.16,1.86,0,.25-.34.45-.76.64-.37.17-.67.5-.96.81l-.31.39Z"/>
      <path class="cls-1" d="M102.8,10.79c.17,0,.2.11.19.28.03.36.02,1.01.02,1.62,0,.45,0,.87-.03,1.09,0,.14-.08.22-.25.22-4.06-.33-6.83-.37-8.45-.38-5.74-.03-8.06.1-10.45.29h-.06c-.17,0-.25-.09-.25-.28,0-.36-.02-.9-.02-1.4,0-1.4.06-1.54.2-1.54h.14c3.89.33,6.41.37,7.95.37,6.47.03,7.76-.05,10.95-.28h.06Z"/>
      <path class="cls-1" d="M120.1,23.47c.17-1.46.24-4.26.25-6.22,0-.67,0-1.37-.02-2.1-3.82,2.7-7.13,3.77-7.33,3.77-.11,0-.22-.06-.39-.23-.39-.39-1.62-1.13-2.01-1.33-.11-.06-.17-.11-.17-.2,0-.08.06-.14.17-.17,7.46-2.32,10.7-5.8,12.67-7.72.06-.06.08-.08.08-.11,0-.08-.11-.08-.25-.08-3.5-.02-7.14.22-8.57.38h-.06c-.34,0-.42-.42-.41-2.16,0-.67.09-.7.37-.7,2.18.21,4.37.27,6.58.28,1.93,0,3.95-.04,4.54-.37.17-.11.25-.14.34-.14.31,0,2.07,1.55,2.06,1.97,0,.31-.56.42-1.01.89-1.32,1.34-2.84,2.9-4.67,4.4.28.06,1.37.23,1.37.57,0,.28-.45.7-.57,1.06-.09.39-.15,1.34-.15,1.99,0,2.02.09,4.82.22,6.27,0,.11-.11.2-.25.19-.31.03-.78.05-1.26.05-.48,0-.95-.03-1.29-.06-.17-.03-.25-.08-.25-.2v-.06ZM123.75,5.96c-1.62-1.18-4.69-2.21-5.5-2.43-.14-.03-.2-.06-.2-.14,0-.36.99-1.84,1.3-1.84.42,0,5.85,1.4,5.84,2.18,0,.17-.99,2.29-1.33,2.29-.03,0-.08-.03-.11-.06ZM130.6,18.59c-1.95-1.66-5.22-3.05-6.06-3.36-.11-.06-.2-.08-.2-.17,0-.31,1.33-1.73,1.58-1.73.39,0,6.51,2.41,6.51,3.11,0,.31-1.55,2.2-1.72,2.2-.03,0-.06,0-.11-.06Z"/>
      <path class="cls-1" d="M143.58,15.52c-.11,0-.22-.06-.25-.25-.33-1.54-1.19-3.28-1.49-3.84-.06-.08-.06-.14-.06-.2,0-.45,1.68-.8,1.82-.8.53,0,2.08,3.71,2.08,3.99,0,.45-1.71,1.11-2.11,1.11ZM145.36,23.45c-.31-.34-1.31-.85-1.76-1.02-.31-.11-.45-.2-.45-.28s.14-.19.42-.31c4.71-1.96,7.33-5.54,8.89-9.62.25-.64.43-1.43.63-2.21.06-.25.14-.34.25-.34.34,0,2.99,1.02,2.99,1.61,0,.17-.2.31-.42.5-.28.25-.67.5-.82.86-3.85,8.83-9.26,11.02-9.35,11.02-.14,0-.25-.06-.39-.23ZM146.15,10.41c-.06-.08-.05-.17-.05-.22,0-.39,1.54-.69,1.82-.69.17,0,.25.06.33.23.47.73,1.63,3.48,1.63,4.01,0,.5-2.16.97-2.24.97-.14,0-.22-.08-.28-.28-.27-1.57-.94-3.42-1.21-4.01Z"/>
      <path class="cls-1" d="M172.6,23.36c0,.31-.17.36-1.65.36-.53,0-1.06-.03-1.34-.06-.17-.03-.25-.14-.25-.34.3-4.79.36-10.53.36-10.53,0,0,.03-6.52-.34-9.97v-.11c0-.17.06-.25.25-.25h.06c3.47.41,3.75.49,3.75.75,0,.36-.79.98-.85,1.7-.21,2.1-.22,5.15-.23,6.77.2-.56.48-1.23.71-1.59.06-.08.17-.19.31-.19.31,0,4,1,7.24,2.53.08.06.11.11.11.2,0,.11-.77,2.63-1.13,2.63-.03,0-.08,0-.11-.03-2.85-1.67-5.95-2.74-7.01-3.03-.03,0-.08-.03-.11-.03,0,.39.03.64.03.64,0,0-.03,5.57.23,10.47v.08Z"/>
      <path class="cls-1" d="M193.48,23.91c0,.36-.17.36-1.57.36-1.51,0-1.51-.15-1.51-.34.36-4.51.38-9.27.39-11.28-.02-2.18-.03-5.96-.2-10.17,0-.11.03-.25.2-.25h.03c2.15.18,7.87.23,10.22.25,2.58.01,7.9-.02,10.19-.2h.06c.2,0,.25.17.25.31-.16,3.53-.2,6.55-.21,8.62,0,1.18-.02,5.1.28,12.41,0,.2-.2.42-.37.42-.39.03-.95.02-1.43.02-.87,0-1.29-.03-1.29-.37,0-.31.06-.64.06-.98-1.51-.04-5.68-.08-7.62-.09-1.79,0-5.68,0-7.5.02l.02,1.29ZM208.74,12.89c0-1.71.01-8.12.01-8.12,0,0-5.52-.08-7.73-.09s-7.59.02-7.59.02c0,0-.06,6.36-.07,8.04,0,.84.04,4.06.08,7.56,1.79.04,5.71.11,7.5.12,1.96,0,6.22-.03,7.7-.05.07-3.3.09-6.69.09-7.48ZM205.5,17.55c0,.14-.03.31-1.49.3-.87,0-1.15,0-1.15-.34,0-.31.03-.67.03-1.06-.48-.03-1.32-.06-1.9-.07-.62,0-1.57.02-2.1.05v1.57c0,.34-.07.39-1.35.39-1.18,0-1.29-.09-1.29-.37v-.08c.18-2.16.22-4.87.22-5.49,0-.9-.01-3.47-.09-4.54,0-.08-.03-.14-.03-.2,0-.08.06-.11.25-.11h.17c1.15.09,2.83.13,4.31.13,1.46,0,2.3-.05,4.09-.12h.08c.2,0,.25.09.25.25v.08c-.12,1.09-.16,3.75-.16,4.4,0,.56.04,3.14.14,5.01v.2ZM203,12.36c0-.53-.02-2.6-.02-2.6,0,0-1.01-.03-1.99-.04-.98,0-2.1.02-2.1.02,0,0-.04,1.96-.04,2.66,0,.28.02,1.06.02,2.02.53.03,1.54.06,2.1.07.53,0,1.48-.02,1.99-.05.03-1.01.04-1.85.04-2.07Z"/>
      <path class="cls-1" d="M221.4,22.61c-.36-.14-1.04-.17-1.54-.18-.7,0-.78-.03-.78-.12,0-.03,0-.06.03-.11,1.07-1.93,1.84-4.47,1.88-6.26,0-.34.09-.34.14-.34.22,0,2.49.43,2.49.71,0,.14-.2.28-.37.56-.17.28-.23.45-.28.78-.2,1.01-.69,3.41-1.25,4.75-.03.08-.11.2-.22.19h-.08ZM226.57,13.62s.03.06.03.08c0,.08-.08.2-.25.31-.03.03-.17.11-.17.48.01,3.7,0,5.38.29,9.97,0,.31-.14.31-1.46.3-1.37,0-1.37-.12-1.37-.37.36-4.76.31-6.38.36-10.41-1.23.19-2.3.35-2.49.41-.34.08-.56.33-.76.33-.39,0-1-2.08-1-2.55,0-.06,0-.14.31-.14.28,0,.59.03.95.03.48,0,1.01-.02,1.57-.05.37-.53.79-1.2,1.24-1.95-1.03-1.18-2.98-2.53-3.6-2.96-.11-.06-.17-.11-.17-.17,0-.11,1.1-1.45,1.27-1.45.03,0,.08,0,.64.37.9-1.65,1.78-3.77,2.01-5.23.03-.17-.03-.31.14-.31.53,0,2.77.88,2.77,1.38,0,.2-.23.39-.54.64-.25.22-.39.53-.51.75-.42.89-1.41,2.71-2.12,3.91.45.31.89.68,1.26,1.01.93-1.76,1.75-3.49,1.92-4.3.03-.14,0-.28.17-.28.34,0,2.66.91,2.65,1.47,0,.2-.25.36-.56.59-.28.19-.37.36-.54.67-.65,1.06-2.4,3.82-3.64,5.69.87-.05,1.71-.1,2.41-.18l-.69-1.35c-.03-.08-.08-.14-.08-.2,0-.14,1.4-.67,1.68-.66.34,0,2.19,3.9,2.19,4.21,0,.28-1.29.83-1.71.97-.03,0-.06.03-.08.03-.08,0-.2-.08-.22-.2-.08-.36-.19-.73-.33-1.09l-1.57.24ZM230.15,20.25c-.42.08-1.29.27-1.82.52-.03,0-.06.03-.08.03-.08,0-.17-.08-.22-.17-.8-1.85-1.27-4.68-1.27-4.68,0-.06.03-.11.17-.14.31-.11,1.09-.3,1.4-.33.06,0,.08-.03.11-.03.08,0,.14.06.17.14.17.76.71,2.78,1.71,4.4.03.03.03.06.03.08,0,.08-.06.14-.2.17ZM232.16,16.42c-.9,0-1.26,0-2.58.16h-.03c-.2,0-.25-.2-.25-.31,0-1.62.04-1.85.23-1.85h.06c.87.12,1.6.12,2.02.12.67,0,1.48-.02,1.48-.02.22,0,.25-.25.45-.25.17,0,1.68.9,1.67,1.27,0,.08-.08.17-.17.28-.08.11-.28.25-.31.39-1.71,5.96-4.77,7.82-5.08,7.82-.06,0-.14-.03-.2-.08-.42-.45-1.23-.73-1.76-.93-.17-.08-.28-.14-.28-.23,0-.06.08-.14.25-.22,2.92-1.41,4.16-4.15,4.76-6.14h-.28ZM237.62,22.55c0,1.32-1.08,2.51-3.62,2.61-.17,0-.33-.09-.39-.28-.14-.53-1.03-1.54-1.61-2.16-.06-.06-.11-.14-.11-.2s.03-.08.14-.08h.06c.67.09,1.23.15,1.71.15.92,0,1.4-.22,1.43-.89.04-1.51.04-2.58.04-3.44.02-3.86,0-5.29-.03-6.22-.7,0-1.32.05-1.79.05,0,.17.03.31.03.48,0,.28-.17.28-1.26.27-.34,0-1.2,0-1.2-.26.09-.59.26-2.35.28-6.19,0-1.04-.02-1.9-.18-3.16,0-.08.08-.2.25-.2,1.17.06,2.1.12,3.05.15.4-1.12.57-2.15.6-2.88,0-.28.06-.31.14-.31.36,0,3.05.57,3.05,1.05,0,.2-.23.42-.48.67-.2.19-.39.61-.79,1.51,1.68,0,2.38-.04,4.59-.15.25,0,.28.14.28.23-.09.95-.16,4-.16,4.56,0,1.29.07,2.88.2,4.54,0,.14-.14.28-.31.28-.31,0-.64.02-.98.02-1.15,0-1.2-.12-1.2-.29l.03-.31c-.31,0-.78-.03-1.29-.03,0,.11-.08.25-.31.36-.22.11-.25.33-.25.53v.17c.22.79.66,1.96,1.38,3.23,1.32-.97,2.64-2.4,3.07-2.98.06-.08.08-.11.14-.11.11,0,2.01,1.44,2,2.08,0,.22-.25.31-.65.39-.39.08-.53.25-.87.47-.62.39-1.85,1.14-2.72,1.64,1.2,1.6,2.9,3.23,5.27,4.31.14.06.2.11.2.14,0,.08-.14.14-.31.19-.56.19-1.71.52-2.22,1.08-.06.08-.14.11-.2.11-.34,0-2.99-1.81-5.23-6.58.02,1.51.15,3.58.23,5.29v.14ZM236.48,8.49c-1.18,0-2.41-.01-3.14.01,0,.5,0,1.12.02,1.76.73.03,1.93.07,3.08.07,1.29,0,2.44-.02,3.02-.04.03-.67.03-1.26.04-1.76-.59-.03-1.74-.04-3.02-.04ZM239.46,5.09s-1.26-.06-3-.07c-1.74,0-3.08.04-3.08.04,0,0-.03.56-.04,1.65.76.03,1.96.04,3.11.04,1.29,0,2.44.01,3.02-.01,0-1.06-.02-1.65-.02-1.65Z"/>
    </g>
  </g>
</svg>