<?xml version="1.0" encoding="UTF-8"?>
<svg id="_レイヤー_2" data-name="レイヤー 2" xmlns="http://www.w3.org/2000/svg" viewBox="0 0 152.2 25.18">
  <defs>
    <style>
      .cls-1 {
        fill: #4477e9;
      }
    </style>
  </defs>
  <g id="_文字" data-name="文字">
    <g>
      <path class="cls-1" d="M11.25,24c0,.11-.08.2-.22.22-.28.03-.7.05-1.15.05-.42,0-.84-.03-1.15-.06-.17-.03-.25-.09-.25-.2v-.06c.32-2.66.39-4.76.45-7.03-.25.33-.51.64-.76.92-.08.08-.14.11-.25.11-.03,0-.08,0-.14-.03-.5-.28-.98-.4-1.45-.48-1.19,3.89-3,5.98-3.36,5.98-.11,0-.22-.06-.36-.14-.42-.28-1.17-.43-2.38-.77-.14-.06-.22-.08-.22-.14,0-.03.08-.11.2-.19,3.74-2.78,4.63-8.35,4.65-12.75,0-2.1-.18-3.92-.34-5.07,0-.08-.03-.14-.03-.17,0-.11.06-.14.2-.14h.17c2.94.21,4.09.22,8.68.24,1.15,0,2.13.04,3.22.04,1.43,0,3.05-.01,5.43-.14.2,0,.34.03.33.23v.06c-.09.87-.15,1.88-.15,2.83,0,1.15.07,2.24.21,3.02,0,.06.03.11.03.14,0,.14-.03.28-1.46.27-.98,0-1.34,0-1.34-.34v-.06c0-.14.03-.28.03-.42-1.29-.03-3.86-.07-6.27-.09-2.41-.01-4.93,0-6.16.03v.76c-.01,1.51-.22,3.47-.7,5.51,2-2.12,3.24-5.11,3.25-6.03,0-.11.08-.17.22-.17.17,0,2.57.66,2.57,1.02,0,.11-.11.25-.39.45-.56.36-.59.42-.76.89,1.32,0,2.35.04,3.25.04.26-.84.43-1.62.46-2.24,0-.11.08-.14.2-.14h.11c.17.06,1.4.37,2.32.71.31.11.42.25.42.37,0,.2-.25.39-.51.56-.42.31-.48.33-.62.64l-.06.11c1.54,0,3.56.02,5.91-.2.31,0,.34.03.33,1.29,0,.31,0,.62-.03.78,0,.11-.17.11-.25.11-2.1-.21-4.09-.24-5.57-.25-.03.08-.11.14-.22.2-.25.17-.25.19-.25.5v.59c1.29,0,2.77-.01,4.81-.2.11,0,.2.03.22.17.03.14.03.5.02.84,0,.36,0,.7-.03.9,0,.11-.17.11-.25.11-1.96-.18-3.53-.24-4.79-.25v1.32c1.25,0,2.77-.01,4.78-.2.11,0,.22.03.25.17.03.14.03.5.02.84,0,.36,0,.7-.03.9,0,.11-.17.11-.25.11-1.96-.18-3.5-.24-4.76-.25,0,.53.05,1.01.05,1.43,1.76,0,4.54-.03,7.06-.22.34,0,.33.17.33,1.32,0,.31,0,.64-.03.81,0,.11-.22.11-.31.11-2.83-.24-6.33-.25-7.64-.26-1.29,0-2.86.01-5.29.03.03.17.03.31.03.48v.48ZM2.79.47c4.96.25,6.8.28,9.16.3,6.69.03,8.46-.01,12.46-.19.22,0,.34.03.33,1.51,0,1.09-.12,1.12-.31,1.12-5.65-.28-7.81-.29-11-.3-4.62-.02-6.69.02-10.64.2-.36,0-.39-.09-.39-1.29,0-1.34.12-1.34.29-1.34h.11ZM13.55,6.29c-3.42.01-6.16.03-6.16.03,0,0,.02.59.02,1.48,1.23.03,3.75.07,6.08.09,2.35.01,5.04,0,6.36-.03,0-.84-.02-1.48-.02-1.48,0,0-2.1-.07-4.84-.08h-1.43ZM11.15,21.2c1.46.04,2.66.04,3.67.05,0-.42.03-.9.04-1.43-.95,0-2.1-.01-3.7,0v1.37ZM14.87,16.94c-.95,0-2.1-.01-3.7,0v1.23c1.53.04,2.71.07,3.69.07v-1.32ZM11.21,15.29c1.51.04,2.69.07,3.67.07,0-.48-.02-.92-.02-1.29-.95,0-2.07-.01-3.58.01-.06.14-.06.25-.06.95v.25Z"/>
      <path class="cls-1" d="M54.37,21.38c0,1.46-1.08,3.07-4.27,3.06-.17,0-.28-.14-.39-.39-.3-.73-1.31-1.66-1.89-2.39-.05-.08-.11-.14-.11-.17,0-.06.06-.06.14-.06h.11c.7.09,1.43.18,2.04.18.84,0,1.48-.16,1.54-.83.09-1.01.1-3.3.11-5.35-1.4-.03-3.89-.1-5.66-.11.01,2.77.08,5.99.16,7.98,0,.14-.17.25-1.32.25-1.32,0-1.6-.06-1.59-.32.09-1.93.22-5.12.29-7.89-1.74,0-3.98,0-5.24.03-1.01,6.21-3.49,8.89-3.79,8.89-.08,0-.17-.03-.28-.11-.64-.42-1.9-.6-2.52-.74-.14-.03-.25-.11-.25-.2,0-.06.06-.14.14-.2,3.71-3.06,4.61-9.22,4.63-14.29.02-3.16-.31-5.91-.5-7.17,0-.08-.03-.17-.03-.22,0-.14.06-.17.17-.17h.17c2.27.21,5.35.28,7.62.29,1.09,0,7.95.01,10.53-.12h.08c.17,0,.2.06.2.2v.2c-.18,2.16-.22,4.12-.23,6.64-.02,3.42-.02,9.49.13,12.91v.11ZM43.62,9.57c-1.54,0-3.5-.02-4.82,0-.03,1.12-.1,2.35-.21,3.55,1.32.03,3.39.07,4.98.08.03-1.09.04-2.04.04-2.6v-1.04ZM38.69,3.64c.02.92.07,2.21.09,3.72,1.32.03,3.3.07,4.84.08,0-1.29-.04-2.72-.07-3.78l-4.87-.02ZM51.65,9.64c-1.4-.03-3.89-.07-5.66-.08l-.02,3.67c1.79,0,4.26,0,5.66-.03l.02-3.56ZM46.03,7.45c1.76,0,4.2,0,5.6-.03-.02-1.71-.07-2.63-.09-3.64-1.57-.06-3.47-.1-4.96-.11-.06.08-.14.14-.25.22-.14.11-.22.17-.23.53l-.07,3.02Z"/>
      <path class="cls-1" d="M87.58,22.41c.2,0,.28.03.28.11s-.11.2-.34.33c-.7.44-1.54,1.11-2.11,1.78-.17.2-.31.25-.5.25-.2,0-6.5-.2-9.88-6.43-2.83,6.12-10.11,6.73-10.14,6.73-.11,0-.25-.03-.31-.14-.53-.73-1.67-1.44-2.17-1.8-.17-.11-.22-.2-.22-.28,0-.08.14-.11.31-.14,5.94-.31,8.75-2.48,9.99-4.63-2.16-.01-4.06.04-8.29.21-.22,0-.34-.06-.36-.23,0-.2-.03-.59-.02-.95,0-1.12,0-1.18.4-1.17,4.56.22,6.77.26,8.99.27.08-.36.14-.73.14-1.04,0-.59,0-.7-.05-1.29v-.08c0-.11.06-.14.25-.14.39.03,3.05.46,3.05.85,0,.14-.14.28-.34.47-.11.11-.34.33-.4.67-.03.2-.06.36-.11.56,3.02.01,5.04.02,10.33-.17.28,0,.31.2.3,1.21,0,.39-.03.76-.06.98-.03.11-.08.17-.25.17-4.17-.19-6.52-.28-8.79-.29,1.2,1.66,3.98,4.16,10,4.19h.31ZM68.62,6.44c0-.7.06-1.54.07-2.46,0-1.06-.05-2.24-.29-3.44,0-.06-.03-.08-.03-.14s.06-.08.11-.08h.11c.25,0,3.13.21,3.13.71,0,.25-.28.61-.45,1.23-.2.78-.26,1.68-.26,2.49,0,.64.02,1.23.02,1.71-.01,2.16,0,5.43.24,8.49,0,.11-.08.17-.23.19-.28.03-.81.02-1.32.02-1.29,0-1.51,0-1.51-.29.18-1.82.3-3.25.36-4.48-1.15.78-2.81,1.83-3.12,2.06-.34.19-.45.5-.67.5-.34,0-2.09-2-2.09-2.22,0-.11.14-.14.28-.17,1.91-.52,4.24-1.72,5.64-2.52v-1.6ZM66.91,6.88c-1.37-1.13-2.99-2-3.18-2.09-.11-.06-.22-.08-.22-.2,0-.11.96-1.4,1.24-1.62.03-.03.06-.08.17-.08.56,0,3.66,2.01,3.66,2.2s-1.04,1.93-1.38,1.93c-.08,0-.17-.06-.28-.14ZM72.11,1.81c5.35.03,10.09-1.1,10.87-1.57.11-.08.2-.14.25-.14.14,0,2.04,1.66,2.03,2.19,0,.22-.23.33-.67.33-.11,0-.28,0-.45-.03-.73,0-1.06.11-1.09.11-1.32.39-6.36,1.29-9.64,1.47-.2,0-.42,0-.47-.25-.14-.62-.78-1.35-1.14-1.83-.08-.11-.11-.17-.11-.2,0-.08.11-.08.22-.08h.2ZM83.64,10.27v.31c0,1.12.05,1.82.07,2.49v.11c0,1.2-.85,2.54-3.79,2.53-.17,0-.28-.11-.39-.31-.47-.9-.81-1.24-1.36-1.77-.06.14-.11.25-.28.25-.08,0-.14-.06-.25-.11-1.26-.96-2.51-1.58-2.99-1.81-.08-.03-.14-.08-.14-.17,0-.06.03-.11.06-.17.17-.31.93-1.26,1.15-1.25.25,0,3.41,1.22,3.41,1.7,0,.14-.28.64-.68,1.2.67.09,1.18.15,1.6.15.81,0,1.15-.22,1.21-.81,0-.08.03-.36.04-2.41-1.48,0-5.99,0-8.99.15-.25,0-.28-.14-.27-1.04,0-.98.03-1.15.29-1.15,1.01.09,3.16.21,8.96.24,0-.25,0-.48-.02-.7-.25-.14-.53-.23-.92-.4-.06-.03-.11-.06-.11-.11,0-.03,0-.06.06-.11,1.43-1.28,2.48-2.96,2.99-3.99.08-.17.09-.25.17-.25.31,0,2.4,1.38,2.4,1.8,0,.17-.25.28-.56.42-.34.17-.42.31-.7.56-.34.31-.79.75-1.27,1.17.89.2.95.2.95.4,0,.11-.08.25-.25.42-.25.28-.31.22-.34.56v.22c.73-.02,1.71-.08,3.3-.18.14,0,.2.08.22.23.03.17.03.64.02,1.06,0,.31,0,.62-.03.78-.03.11-.22.17-.22.17l-3.3-.18ZM74.46,8.15c-.08,0-.17-.06-.2-.14-.39-1.15-1.31-2.22-1.53-2.47-.05-.08-.11-.14-.11-.2,0-.2,1.63-.89,1.8-.89.28,0,1.98,2.03,1.98,2.42,0,.36-1.77,1.28-1.94,1.28ZM78.1,7.58c-.11,0-.2-.08-.22-.2-.22-1.21-.97-2.38-1.16-2.67-.06-.08-.08-.14-.08-.2,0-.2,1.65-.64,1.88-.64.25,0,1.64,2.25,1.64,2.7,0,.31-1.99,1-2.05,1Z"/>
      <path class="cls-1" d="M102.47,23.54c-.28,0-.42-.03-.42-.25,0-.5-.41-1.29-.78-1.85-.48,1.03-1.38,2.57-1.69,2.57-.06,0-.08,0-.14-.03-.75-.45-1.54-.6-2.24-.74-.17-.03-.25-.06-.25-.14,0-.03.03-.11.11-.2,3.57-3.71,4.36-10.28,4.38-13.7v-.73s-1.9.13-1.9.13c-.14,4.98-.67,10.69-2.76,14.18-.08.14-.17.2-.28.19-.08,0-.2-.06-.31-.11-.42-.23-1.48-.37-2.21-.46-.14-.03-.22-.06-.22-.14,0-.06.06-.11.11-.19,2.59-2.98,3.32-8.66,3.34-13.37.01-2.74-.2-5.18-.47-6.58-.03-.08-.03-.14-.03-.2,0-.08.03-.11.14-.11h.17c1.82.21,3.36.27,5.12.28h.98c1.37.01,3.08,0,5.57-.22h.06c.2,0,.25.11.25.23.03.28.03.67.02,1.04,0,.39,0,.76-.03,1.01,0,.14-.11.25-.25.25h-.06c-2.41-.24-4.12-.24-5.6-.25-1.43,0-2.41.02-3.53.01,0,.7.02,1.43.02,2.21,1.96.18,2.01.18,3.16.18,1.54,0,2.04-.05,4.84-.23.28,0,.31.11.3,1.21,0,.39,0,.81-.03,1.01,0,.11-.2.2-.28.19-1.51-.15-2.41-.21-3.13-.24v.03c0,.11-.11.2-.34.33-.22.11-.23.28-.23.45l-.12,1.79c.87,0,2.24.01,3.64-.09h.08c.11,0,.14.03.14.11v.11c-.23,1.57-.26,7.33-1.28,9.65-.79,1.79-1.83,2.68-3.62,2.67h-.25ZM103.59,12.91c-.29,2.43-.89,5.32-2.05,7.94.45.09.78.14,1.09.14.81,0,1.18-.36,1.57-1.25.79-1.84.92-5.65.93-6.77-.64-.06-1.04-.06-1.54-.06ZM119.01,7.36c-.38,2.88-.05,10.33-1.36,14.22-.65,1.93-1.72,2.93-3.68,2.92-.9,0-1.06-.06-1.15-.4-.19-.9-.78-1.57-1.39-2.33-.08-.08-.11-.17-.11-.2,0-.06.06-.06.11-.06.06,0,.14,0,.2.03,1.06.26,1.76.4,2.24.4.84,0,1.07-.36,1.32-.95,1.08-2.63,1.22-9.35,1.23-11.64h-.5c-.7,0-1.37.02-2.04.04-.81,11.9-6.63,15.62-6.91,15.62-.11,0-.22-.06-.33-.2-.33-.37-1.09-.65-2.15-1.19-.11-.06-.2-.11-.19-.17,0-.06.08-.11.22-.17,4.8-1.94,6.51-8.48,6.93-13.85-.81.02-1.82.1-2.94.15-.11,0-.22-.03-.25-.2,0-.2-.03-.62-.02-1.01,0-.42.03-.81.03-.98s.11-.25.25-.25c1.09.09,2.16.12,3.02.13v-1.12c.02-2.3-.12-4.17-.22-5.24v-.14c0-.14.03-.2.14-.2.28,0,3.39.35,3.38.91,0,.14-.11.31-.25.53-.45.75-.54,1.2-.61,5.26,1.09-.02,2.83-.1,4.73-.26h.11c.17,0,.2.03.19.17v.14Z"/>
      <path class="cls-1" d="M140.36,2.33c2.03,2.7,6.46,6.47,11.52,8.29.17.06.31.06.31.14,0,.03-.08.11-.28.22-.56.36-1.77.83-2.39,1.61-.08.11-.23.17-.34.17-.5,0-7.04-4.29-10.32-8.73-4.17,5.52-9.76,9.67-10.24,9.67-.06,0-.11-.03-.17-.08-.53-.67-1.9-1.27-2.51-1.52-.22-.09-.31-.14-.31-.2,0-.06.14-.11.28-.17,6.59-2.85,11.67-9.74,12.07-11.48.06-.14.08-.25.2-.25.03,0,2.96,1.16,2.96,1.75,0,.25-.42.47-.76.58h-.03ZM140.66,21.94c1.38-1.7,2.57-4.27,2.77-4.8.03-.11.06-.17.17-.17.48,0,2.71,1.02,2.71,1.47,0,.28-.51.42-.81.64-.31.22-1.52,1.7-2.51,2.84,1.74-.02,3.78-.07,6.55-.19.31,0,.31.28.3,1.29,0,.42-.03.81-.06,1.04,0,.14-.11.19-.25.19-4.14-.24-6.86-.28-9.24-.3-5.4-.03-8.04.02-11.79.2-.28,0-.34-.06-.33-1.26,0-.98.03-1.26.17-1.26h.17c2.69.15,4.56.22,6.16.25l-.08-.14c-.58-1.18-2.2-2.98-2.62-3.4-.08-.08-.14-.14-.14-.2,0-.17,1.24-.95,1.66-1.08.03,0,.06-.03.11-.03.31,0,3.21,2.9,3.2,3.46,0,.25-1.01,1.03-1.77,1.39.92,0,1.76.04,2.63.04.04-1.51.05-3.92.06-5.82-1.85,0-5.01.03-7.06.19-.28,0-.34-.06-.33-1.37,0-1.23.04-1.26.34-1.26,2.1.21,5.21.25,7.05.26v-.17c-.02-1.18-.02-1.46-.13-2.3-.73.02-1.71.08-3,.21-.25,0-.31-.09-.3-1.35,0-1.23.09-1.23.31-1.23,1.99.21,3.02.24,3.89.24,2.58.01,3.67-.07,5.12-.2.11,0,.25.11.25.28.03.22.03.64.02,1.04,0,.42,0,.84-.03,1.06,0,.14-.2.2-.25.19-1.15-.12-2.01-.18-2.74-.21-.06.08-.17.14-.28.2-.36.19-.36.25-.37,2.24,1.88,0,5.01,0,7.17-.19.11,0,.25.11.28.28.03.22.03.64.02,1.06,0,.45,0,.87-.03,1.09,0,.14-.2.2-.28.2-2.07-.18-5.35-.25-7.2-.26,0,1.79,0,4.31.03,5.82h.45Z"/>
    </g>
  </g>
</svg>