<?xml version="1.0" encoding="UTF-8"?>
<svg id="_レイヤー_2" data-name="レイヤー 2" xmlns="http://www.w3.org/2000/svg" viewBox="0 0 37.35 12.87">
  <defs>
    <style>
      .cls-1 {
        fill: #141414;
      }
    </style>
  </defs>
  <g id="_文字" data-name="文字">
    <g>
      <path class="cls-1" d="M5.76,7.92c-.02.5-.03,1.26-.03,1.92,0,1.22.06,1.5.66,2.27.05.05.08.1.08.13,0,.05-.05.1-.18.14-.4.14-.8.18-1.15.32-.1.05-.18.06-.24.06-.16,0-.34-.32-.42-.58-.03-.08-.06-.11-.1-.11-.06,0-.13.05-.22.11-.69.45-1.42.67-2.07.67-1.54,0-2.1-1.17-2.1-2.03,0-1.38,1.22-1.76,2.9-2.23.46-.13.88-.24,1.2-.38.05-.02.14-.08.14-.16v-.27c0-.69-.53-.93-1.04-.93-.58,0-1.62.34-2.18,1.04-.05.06-.1.1-.14.1-.06,0-.11-.1-.13-.19-.06-.43-.03-.78-.1-1.18-.02-.05-.02-.1-.02-.13,0-.1.03-.19.18-.26,1.22-.58,2.16-.61,2.48-.61,1.39,0,2.46.67,2.46,2.19v.1ZM4.23,9.52c0-.06-.03-.1-.08-.1-.13,0-1.76.59-1.92.66-.46.19-.64.45-.64.72,0,.05.03.78.88.78.77,0,1.76-.62,1.76-.96v-1.1Z"/>
      <path class="cls-1" d="M7.93,12.31c.02-.16.18-4.75.18-7.92,0-1.9-.05-2.85-.27-3.68-.02-.06-.03-.11-.03-.14,0-.08.05-.11.16-.13.48-.06.96-.18,1.49-.4.05-.02.1-.03.14-.03.1,0,.16.06.16.22-.02.64-.06,1.52-.08,2.37-.02,1.04-.02,2.19-.05,3.14v.3c0,.1.02.13.03.13.03,0,.06-.03.11-.06.51-.27.99-.5,1.82-.5,1.99,0,3.27,1.57,3.27,3.49s-1.31,3.65-3.54,3.65c-.87,0-1.52-.22-2.15-.61-.05-.03-.1-.05-.14-.05-.02,0-.26.05-.69.4-.11.1-.19.13-.26.13-.11,0-.16-.11-.16-.26v-.05ZM13.19,9.43c0-.88-.34-2.51-1.94-2.51s-1.68,1.2-1.68,1.22c0,.1-.02.42-.02.75,0,1.15.03,2.63,1.76,2.63.91,0,1.87-.59,1.87-2.08Z"/>
      <path class="cls-1" d="M19.91,12.82c-2.3,0-3.62-1.75-3.62-3.57,0-2,1.54-3.63,3.65-3.63s3.58,1.63,3.58,3.63-1.34,3.57-3.62,3.57ZM21.83,9.41c0-1.01-.4-2.53-1.94-2.53-.96,0-1.94.58-1.94,2.13,0,1.38.61,2.53,2.03,2.53,1.62,0,1.84-1.41,1.84-2.13Z"/>
      <path class="cls-1" d="M31.4,5.84c-.08,1.22-.16,2.42-.16,3.54,0,1.47.11,1.82.72,2.59.03.03.05.06.05.1,0,.06-.08.13-.18.18-.32.13-1.01.24-1.25.4-.1.06-.14.1-.21.1-.16,0-.4-.54-.45-.66-.03-.05-.05-.08-.1-.08-.03,0-.08.02-.13.06-.58.42-1.17.75-2.06.75-1.3,0-2.32-.82-2.37-2.35v-.43c0-2.47-.02-2.98-.22-3.79-.02-.06-.03-.11-.03-.16,0-.08.03-.11.14-.13.4-.02,1.01-.13,1.5-.27.06-.02.11-.02.14-.02.08,0,.11.03.11.13v.05c-.03.48-.14,2.24-.14,3.04,0,1.81.02,2.64,1.17,2.64.7,0,1.7-.58,1.78-1.3.03-.32.05-.7.05-1.1,0-.64-.03-2.1-.22-2.88-.02-.06-.03-.11-.03-.16,0-.08.03-.11.14-.13.4-.02.98-.13,1.47-.27.06-.02.11-.02.14-.02.08,0,.13.03.13.14v.03Z"/>
      <path class="cls-1" d="M37.22,12.29c0,.1-.03.19-.1.22-.24.11-.62.26-1.41.26-1.18,0-1.84-.58-1.84-1.89v-.1c.02-.94.05-1.81.05-2.59,0-.32,0-.61-.02-.9,0-.16,0-.19-.29-.19-.21,0-.51.02-.64.02-.1,0-.14-.05-.14-.13v-.03c.02-.16.02-.3.02-.43,0-.16,0-.32-.03-.48v-.05c0-.11.08-.14.14-.14.14.02.34.02.51.02.34,0,.42-.03.42-.34,0-.27-.06-.64-.1-.9v-.03c0-.11.06-.21.19-.22.56-.06,1.06-.35,1.46-.42h.02c.11,0,.14.08.14.16v.03c-.05.42-.06,1.28-.06,1.5,0,.16.03.21.19.21.61-.02.67,0,1.26-.1h.06c.08,0,.11.05.11.14v.06c-.02.18-.03.35-.03.53,0,.11,0,.22.02.34v.05c0,.16-.06.26-.13.26-.46-.03-.82-.03-1.04-.03-.45,0-.5.02-.5.16-.03.53-.05,1.42-.05,2.19,0,1.62.08,2.06.7,2.06.35,0,.74-.21.98-.42.05-.05.1-.06.13-.06.06,0,.1.08.1.14v.02c-.06.34-.13.66-.13.93v.14Z"/>
    </g>
  </g>
</svg>