<?xml version="1.0" encoding="UTF-8"?>
<svg id="_レイヤー_2" data-name="レイヤー 2" xmlns="http://www.w3.org/2000/svg" viewBox="0 0 107.94 14.39">
  <defs>
    <style>
      .cls-1 {
        fill: #141414;
      }
    </style>
  </defs>
  <g id="_文字" data-name="文字">
    <g>
      <path class="cls-1" d="M8.16,2.9c0,3.99,2.4,8.16,6.71,9.86.08.03.14.06.14.1,0,.05-.05.1-.19.16-.4.19-1.06.48-1.5.85-.05.03-.08.05-.13.05-.26,0-4.05-1.87-5.75-7.14-1.7,5.57-5.38,7.23-5.54,7.23-.05,0-.08,0-.13-.05-.37-.38-1.2-.67-1.58-.82-.14-.05-.19-.1-.19-.11,0-.03.06-.06.14-.1,4.77-1.76,6.37-6.48,6.42-10.2,0-.48-.02-1.04-.11-1.47-.02-.05-.02-.08-.02-.1,0-.06.02-.08.1-.08.11,0,2.08.24,2.08.58,0,.14-.14.3-.26.48-.08.14-.16.32-.19.56v.19Z"/>
      <path class="cls-1" d="M19.94,5.79c.1.1,1.39,1.38,2.45,1.9.11.06.18.11.18.18,0,.03-.02.06-.06.1-.13.11-.72.4-.93.66-.05.06-.11.11-.18.11s-.26-.08-1.47-1.52c.02,1.79.1,5.19.22,6.82,0,.1-.1.14-.85.14-.93,0-.98-.06-.98-.18.19-2.1.24-4.93.26-6.61-.67,1.47-1.65,2.9-2,2.9-.05,0-.1-.02-.13-.05-.26-.27-.9-.5-1.22-.61-.06-.03-.11-.05-.11-.1,0-.02.02-.05.06-.08,1.65-1.15,2.75-3.03,3.39-4.39v-.06c-.66.02-1.57.05-2.29.11-.13,0-.18-.03-.18-.74,0-.58,0-.74.18-.74.72.06,1.63.1,2.29.11-.02-1.28-.08-2.64-.24-3.41,0-.03-.02-.05-.02-.06,0-.06.03-.06.08-.06h.06c1.6.16,1.9.22,1.9.45,0,.14-.14.38-.24.75-.1.4-.16,1.34-.19,2.34.62-.02,1.38-.05,2.02-.11.05,0,.18.02.18.11.02.1.02.35.02.61s0,.51-.02.64c0,.08-.14.11-.18.11-.62-.06-1.41-.1-2.03-.11,0,.27-.02.53-.02.75l.03.03ZM27.4,12.53c0,.78-.72,1.62-2.43,1.62-.1,0-.19-.06-.24-.22-.1-.35-.61-.9-.96-1.33-.02-.03-.03-.06-.03-.08,0-.03.03-.06.1-.06.03,0,.06.02.1.02.4.06.75.11,1.02.11.58,0,.9-.18.9-.67v-.72c0-1.54-.03-3.27-.05-4.5-1.75,3.14-3.76,4.67-3.92,4.67-.05,0-.11-.02-.18-.08-.42-.38-.9-.56-1.3-.7-.08-.03-.14-.06-.14-.11,0-.03.03-.06.1-.1,2.34-1.15,4.26-3.86,5.11-5.38-.62,0-1.26.03-2.71.14-.18,0-.19-.08-.19-.72,0-.78.03-.8.13-.8h.06c1.66.13,2.27.14,2.99.14-.03-1.14-.11-2.48-.27-3.33,0-.03-.02-.06-.02-.08,0-.05.03-.06.06-.06h.06c.3.02,1.3.19,1.81.35.14.05.19.11.19.21,0,.13-.11.3-.21.46-.18.3-.18.66-.19,1.04v1.41c.48-.02.99-.05,2.22-.14.08,0,.13.05.14.14.02.13.02.43.02.74,0,.62-.03.64-.16.64-1.18-.1-1.71-.13-2.21-.14v.38c.02,1.18.1,5.41.19,7.07v.08Z"/>
      <path class="cls-1" d="M37.41,13.97c.19-1.92.22-4.07.26-6.07-.5.54-.58.59-.69.59-.05,0-.08,0-.11-.03-.27-.19-.51-.32-.75-.42v.43c0,.74.03,1.7.08,2.72,0,.27,0,.32-.66.32-.53,0-.74-.03-.74-.24,0-.19.02-.38.02-.61-.14,0-.34-.02-.53-.02s-.38.02-.53.02c0,.69,0,1.33.02,1.71,0,.22-.05.26-.7.26-.53,0-.74-.02-.74-.22v-.05c.14-1.26.24-4.43.24-5.14-.61,1.18-.67,1.22-.75,1.22-.05,0-.1-.02-.14-.03-.37-.21-.7-.3-1.09-.35-.1-.02-.16-.02-.16-.06,0-.02.03-.05.06-.1,1.46-1.62,2.4-4.31,2.64-5.31-.4.02-.88.06-1.46.13-.16,0-.19-.02-.19-.74,0-.67.02-.75.14-.75h.05c1.31.14,1.99.14,2.42.14.37,0,1.18-.03,2.31-.16.11,0,.18.06.18.75,0,.24-.02.5-.03.64,0,.08-.1.11-.14.11-.74-.08-1.31-.11-1.75-.13.02.02.02.03.02.05,0,.06-.06.14-.16.24-.16.16-.16.27-.24.51-.11.29-.32.82-.59,1.46.19,0,.4.02.62.02.61,0,.9-.02,1.68-.06h.03c.11,0,.16.06.16.16v.05c-.06.77-.06,1.68-.06,2.46,1.44-1.06,2.43-2.82,3.03-4.19-.32,0-.66.02-1.02.03,0,.4.03.91.06,1.62,0,.08-.05.13-.13.14-.18.02-.48.03-.75.03-.59,0-.66-.06-.66-.16v-.03c.08-.53.16-1.18.16-1.76,0-.3-.02-.53-.05-.94v-.06c0-.08.02-.1.1-.1h.06c.96.08,1.92.1,2.67.1.34-1.07.43-1.55.45-1.98,0-.1.02-.16.08-.16.05,0,1.78.5,1.78.72,0,.1-.13.19-.24.27-.22.18-.45.61-.54.93-.02.08-.05.14-.08.22,2.21,0,3.09-.06,3.6-.1h.03c.08,0,.1.05.1.14-.03.56-.06.86-.06,1.09,0,.1,0,.14.11,1.62,0,.08-.05.13-.13.14-.18.02-.48.03-.75.03-.53,0-.64-.05-.64-.14v-.05c.06-.59.06-1.3.06-1.57-.43-.03-.83-.03-1.2-.03-.56,0-1.02.02-1.34.02h-.22c-.34.77-.78,1.63-1.33,2.48.53,0,.86.02,1.18.02.32-.62.5-1.23.58-1.7.02-.05.05-.06.1-.06.06,0,1.52.54,1.52.77,0,.1-.16.19-.3.27-.19.11-.29.18-.59.72.67,0,1.41-.02,2.58-.14.06,0,.14.02.16.11.02.1.02.34.02.58s0,.48-.02.61c0,.08-.1.08-.14.08-1.04-.11-1.79-.13-2.43-.14-.02.05-.08.08-.13.13-.13.08-.13.11-.13.32v.72c.51,0,1.02-.03,2.02-.14.06,0,.13.02.13.11.02.1.02.3.02.51s0,.42-.02.54c0,.06-.08.08-.13.08-.96-.1-1.5-.13-2.02-.14v1.1c.5,0,1.01-.03,2-.14.06,0,.14.02.14.11.02.1.02.3.02.51,0,.22,0,.43-.02.56,0,.06-.08.06-.13.06-.94-.1-1.5-.13-2-.14,0,.46.02.91.02,1.28.82,0,1.78-.05,3.07-.16.18,0,.19.06.19.83,0,.21,0,.4-.02.51,0,.08-.13.08-.18.08-1.54-.13-2.79-.14-3.51-.14s-1.1.02-2.27.03c0,.18.02.34.03.5,0,.08-.06.13-.14.14-.14.02-.4.03-.64.03-.61,0-.8-.02-.8-.18v-.03ZM34.85,8.05c0-.66-.02-1.79-.02-2.02-.26-.02-.4-.02-.53-.02-.14,0-.29,0-.54.02,0,.21-.02,1.23-.02,2.08v1.28c.14,0,.35.02.53.02s.42-.02.58-.02v-1.34ZM40.38,9.01c-.35,0-.74,0-1.47.02v1.07c.7.02,1.1.02,1.47.02v-1.1ZM40.38,11.08c-.35,0-.74.02-1.47.03,0,.42,0,.82.02,1.22.62,0,1.07.02,1.44.02,0-.35.02-.78.02-1.26ZM38.93,8.02c.69.02,1.09.03,1.46.03,0-.45-.02-.86-.02-1.17-.34,0-.72,0-1.39.02-.05.19-.05.38-.05.61v.51Z"/>
      <path class="cls-1" d="M48.85,14.05c.19-2.02.29-5.23.34-7.71-.34.42-.69.82-1.06,1.2-.05.05-.1.06-.14.06s-.1-.02-.13-.05c-.29-.24-.96-.48-1.31-.59-.08-.03-.13-.05-.13-.08s.03-.06.08-.1c2.66-1.94,4.21-5.63,4.24-6.29,0-.06.02-.1.08-.1.1,0,1.87.66,1.87.99,0,.1-.11.21-.34.29-.21.08-.29.05-.4.27-.16.29-.61,1.2-1.3,2.29.06.03.13.05.18.06.13.05.18.11.18.18,0,.08-.08.19-.18.3-.21.24-.21.38-.21.74-.02,1.84-.1,4.16-.1,6.15v.82c2.18-1.04,3.7-2.91,4.4-3.92-.78.02-1.73.05-3.23.13-.18,0-.21-.03-.21-.59,0-.8.02-.85.21-.85,1.83.1,2.8.14,3.67.14-.03-.51-.08-1.04-.16-1.5v-.03c0-.06.03-.1.1-.1,0,0,1.79.14,1.79.43,0,.11-.14.27-.24.53-.05.14-.11.3-.14.66.96-.02,2.26-.03,4.02-.13.1,0,.16.05.16.13.02.1.02.35.02.62,0,.26,0,.51-.02.62,0,.06-.1.06-.16.06-1.6-.08-2.77-.11-3.71-.13.77.94,2.37,2.66,4.58,3.49.1.03.13.06.13.1s-.05.06-.14.11c-.35.14-1.1.58-1.36.9-.03.05-.06.06-.1.06-.14,0-2.06-1.2-3.47-3.35.03,1.2.13,3.01.19,4.27,0,.06-.05.1-.11.1-.14.02-.43.03-.72.03-.78,0-.82-.05-.82-.14.1-1.66.18-3.17.21-4.24-1.33,2.21-3.15,3.47-3.25,3.47-.03,0-.08-.02-.13-.06-.34-.26-1.17-.56-1.49-.66.02.53.02,1.01.05,1.42,0,.13-.11.16-.86.16-.29,0-.58,0-.72-.03-.1-.02-.14-.05-.14-.11v-.03ZM57.83,5.94c0-.13.02-.26.02-.38-.42-.02-1.39-.03-1.78-.03s-1.33.02-1.73.03c0,.16.02.34.02.51,0,.22-.05.26-.8.26s-.77-.05-.77-.22v-.06c.11-1.14.13-2.18.13-2.59,0-.77,0-1.5-.06-2.32,0-.05-.02-.1-.02-.13,0-.06.03-.08.14-.08h.1c.67.05,2.18.08,3.01.08s2.05-.02,3.07-.08h.05c.11,0,.14.05.14.14v.06c-.08,1.15-.08,1.98-.08,2.42,0,.38.02,1.12.1,2.31,0,.06.02.11.02.14,0,.1-.13.18-.9.18-.66,0-.66-.1-.66-.19v-.03ZM57.87,3.39c0-.35-.02-1.17-.02-1.17,0,0-1.25-.02-1.79-.02s-1.71.02-1.71.02c0,0-.02.74-.02,1.2v.88c.4.02,1.39.02,1.73.02s1.39-.02,1.81-.03v-.9Z"/>
      <path class="cls-1" d="M69.75,13.11c-.19,0-.42-.05-.54-.27-.21-.35-.53-.59-.77-.82-.08-.08-.11-.13-.11-.16,0-.06.08-.08.18-.08,3.68-.08,5.41-1.95,5.41-3.81,0-1.47-1.09-2.94-3.07-3.38h-.05c-.14,0-.18.06-.26.21-.18.38-1.86,4.42-3.57,6.95-.27.4-.59.56-.93.56-.8,0-2.47-1.12-2.47-3.49,0-3.09,2.72-5.57,6.26-5.57,3.12,0,5.71,1.87,5.71,4.82,0,2.26-1.63,4.63-5.68,5.04h-.11ZM65.04,8.74c0,.74.4,1.66.8,1.66.08,0,.14-.05.21-.13,1.25-1.78,2.54-4.91,2.82-5.7-2.18.4-3.83,2.32-3.83,4.16Z"/>
      <path class="cls-1" d="M79.46,7.28c-.19,0-.19-.1-.19-.9,0-.54.02-.64.14-.64h.06c1.42.11,2.96.11,3.87.11,0-.56.02-1.39.02-1.82-1.12,0-3.27.03-5.43.14-.16,0-.21-.05-.21-.78s0-.78.13-.78h.08c2.18.11,4.29.14,5.41.16-.02-.69-.05-1.44-.22-2.43-.02-.05-.02-.06-.02-.1s.02-.05.06-.05h.06c1.87.18,2.16.3,2.16.51,0,.16-.18.38-.3.59-.14.27-.19.54-.19,1.47,1.1-.02,3.3-.05,5.49-.16.19,0,.21.11.21.91,0,.21,0,.4-.02.53,0,.08-.1.13-.19.13-2.16-.11-4.4-.14-5.52-.14,0,.43.02,1.26.02,1.82.86-.02,1.87-.03,1.87-.03.3,0,.35-.19.5-.19.11,0,1.23.69,1.23.91,0,.14-.19.24-.24.29-.32.27-.4.38-.56.7-.46.94-1.28,2.16-2.48,3.31,1.41.96,3.43,1.68,6.39,1.7.06,0,.11.03.11.08,0,.03-.02.06-.05.11-.21.27-1.04.74-1.36,1.28-.06.08-.16.14-.24.14-.03,0-3.25-.11-6.03-2.31-2.87,2.18-5.78,2.53-5.89,2.53-.06,0-.13-.02-.16-.08-.29-.5-1.1-.99-1.36-1.22-.1-.08-.14-.13-.14-.16s.06-.03.14-.05c2.72-.16,4.79-.96,6.32-2-.96-1.01-1.58-2.05-1.92-2.8,0-.03-.02-.06-.02-.1,0-.19.93-.61,1.22-.61.08,0,.11.05.13.08.35.69.86,1.6,1.76,2.48.99-.91,1.65-1.9,2.06-2.8-4.4,0-5.76.08-6.64.14h-.06Z"/>
      <path class="cls-1" d="M102.36,8.52c.61,0,1.81-.05,1.81-.05.27,0,.3-.14.42-.14.16,0,1.09.56,1.09.78,0,.08-.08.14-.22.26-.16.13-.21.18-.38.43-.37.54-.8,1.18-1.38,1.84.96.61,2.32,1.1,4.16,1.15.06,0,.1.02.1.06,0,.02-.02.05-.05.1-.19.24-.93.61-1.12,1.14-.03.08-.11.1-.18.1-.14,0-2.08-.19-3.86-1.6-1.55,1.34-3.11,1.75-3.11,1.75-.06,0-.13-.03-.16-.08-.22-.35-.93-.59-1.23-.77-.16.13-.32.24-.5.35-.05.03-.11.06-.16.06s-.1-.02-.13-.05c-.26-.24-.62-.45-.98-.59-.43.8-1.74.83-1.81.83-.11,0-.21-.05-.24-.14-.11-.48-.43-1.01-.72-1.36-.03-.03-.05-.08-.05-.1,0-.05.03-.06.06-.06h.02c.37.05.66.08.86.08.56,0,.59-.19.61-.66.03-.96.05-2.21.05-3.31l-.86.4c-.18.08-.32.29-.48.29-.26,0-.94-1.42-.94-1.46,0-.06.06-.06.16-.08.46-.06,1.28-.35,2.13-.69v-2.42c-.58.02-1.14.03-1.71.06-.13,0-.16-.02-.16-.62,0-.29,0-.59.02-.72.02-.1.06-.14.14-.14.58.05,1.14.1,1.7.11-.02-1.17-.08-2.34-.18-2.91v-.08s.02-.05.05-.05h.06c1.57.16,1.82.26,1.82.45,0,.14-.14.38-.24.75-.06.26-.11,1.01-.13,1.84.4-.02.75-.06,1.3-.11.08,0,.14.05.16.14.02.13.02.43.02.72,0,.61-.03.62-.18.62l-1.33-.06v1.97c.61-.27,1.15-.51,1.42-.66.05-.02.08-.03.1-.03.02,0,.02.02.02.13v.59c1.1.08,1.95.11,2.64.13.06-.3.11-.58.14-.8-.62.02-1.33.06-2.11.14-.05,0-.13-.03-.13-.14s-.02-.3-.02-.5c0-.58.03-.7.11-.7h.03c.27.03.54.05.8.06-.26-.62-.75-1.15-.88-1.3-.03-.05-.06-.08-.06-.11,0-.11,1.02-.51,1.07-.51.13,0,.9.8,1.15,1.3.02.03.03.06.03.08,0,.08-.08.19-.82.58.94.05,1.73.05,2.24.05h.82c.64-.9,1.04-1.92,1.18-2.54.03-.13.03-.16.1-.16.27,0,1.66.48,1.66.7,0,.08-.13.16-.27.27-.18.13-.22.22-.35.4-.24.34-.64.88-.96,1.3.53-.02,1.09-.05,1.65-.11.06,0,.11.05.13.14.02.1.02.32.02.53,0,.22,0,.43-.02.56,0,.08-.06.11-.11.11-1.23-.13-2.58-.16-3.44-.16,0,.03-.03.08-.11.1-.21.05-.27.06-.32.21l-.14.53h.14c1.73,0,2.85,0,4.66-.14.08,0,.14.05.16.14.02.13.02.38.02.64,0,.46-.02.54-.16.54-1.99-.14-3.59-.14-4.67-.14h-.46l-.27.75h.77ZM98.11,7.91c-.19,0-.19-.14-.19-.58-.35.19-.82.42-1.31.66,0,1.25.03,2.87.06,4.16,0,.21,0,.43-.03.66,2.15-1.28,3.27-3.36,3.83-5.03-.64.02-1.39.06-2.35.13ZM98.23,1.34c3.31,0,6.26-.66,6.74-.93.08-.05.11-.08.14-.08.02,0,1.26.88,1.26,1.25,0,.13-.16.19-.42.19-.1,0-.19,0-.29-.02-.38,0-.56.03-.66.06-.82.22-3.94.75-5.97.86-.13,0-.26,0-.29-.14-.1-.35-.48-.77-.7-1.04-.05-.06-.06-.1-.06-.13s.05-.03.13-.03h.11ZM100.76,10.32c-.54,1.01-1.25,2.03-2.16,2.85,1.41-.32,2.43-.86,3.19-1.47-.48-.53-.82-1.02-1.02-1.38ZM101.94,4.71c-.06,0-.11-.05-.13-.11-.14-.69-.61-1.36-.72-1.52-.03-.05-.05-.08-.05-.11,0-.1.98-.37,1.12-.37.19,0,1.01,1.33,1.01,1.52,0,.16-1.18.59-1.23.59ZM102.29,9.46c-.18,0-.42.02-.66.02.19.37.51.86,1.02,1.36.43-.51.74-1.01.98-1.38h-1.34Z"/>
    </g>
  </g>
</svg>