<?xml version="1.0" encoding="UTF-8"?>
<svg id="_レイヤー_2" data-name="レイヤー 2" xmlns="http://www.w3.org/2000/svg" viewBox="0 0 79.7 12.84">
  <defs>
    <style>
      .cls-1 {
        fill: #141414;
      }
    </style>
  </defs>
  <g id="_文字" data-name="文字">
    <g>
      <path class="cls-1" d="M6.19,12.63c.21-2.31.19-4.47.21-6.74-2.35,2.35-4.26,3.49-4.48,3.49-.06,0-.13-.02-.18-.06-.35-.32-1.18-.64-1.55-.77-.14-.05-.19-.08-.19-.11s.06-.06.14-.1c3.92-1.65,6.45-4.82,7.6-6.32.3-.4.56-.85.72-1.26.03-.08.06-.13.11-.13.13,0,1.79.93,1.79,1.25,0,.21-.4.29-.51.37-.38.26-.5.4-.78.74-.3.35-.69.8-1.14,1.3.03,2.69-.02,5.75.19,8.4,0,.08-.05.16-.88.16s-1.06-.03-1.06-.18v-.03Z"/>
      <path class="cls-1" d="M16.57,11.72c-.51.24-.66.46-.85.46-.4,0-1.6-1.34-1.6-1.58,0-.06.06-.11.19-.13.64-.11,1.38-.3,1.87-.51,3.09-1.26,5.96-3.09,8.36-5.52.06-.06.11-.1.14-.1s.05.06.06.19c.05.4.24,1.06.43,1.39.03.05.05.1.05.14,0,.1-.05.18-.13.24-1.87,1.58-4.42,3.55-8.53,5.41ZM17.63,5.6c-1.1-.96-2.74-1.87-3.22-2.1-.06-.03-.11-.06-.11-.11,0-.26.78-1.2.9-1.2.32,0,3.49,1.66,3.49,1.97s-.85,1.49-.96,1.49c-.03,0-.06-.02-.1-.05Z"/>
      <path class="cls-1" d="M34.77,2.35c1.18,0,2.58-.03,2.9-.19.11-.05.16-.08.21-.08.1,0,1.28.61,1.28.91,0,.19-.43.32-.64.74-.62,1.18-1.38,2.38-2.26,3.51.58.43,1.7,1.31,1.7,1.54,0,.24-1.06,1.22-1.2,1.22-.03,0-.06-.02-.1-.05-.42-.5-.91-.99-1.46-1.44-3.07,3.31-5.92,3.99-5.95,3.99-.05,0-.1-.02-.14-.08-.32-.43-.98-.64-1.22-.82-.08-.06-.11-.11-.11-.14,0-.05.06-.1.19-.13,2.51-.67,4.55-2.14,6.05-3.75-.74-.53-1.41-.96-1.78-1.17-.03-.02-.06-.06-.06-.13,0-.13.72-.9.94-.9.08,0,.96.43,1.9,1.02,1.22-1.57,1.75-2.75,1.75-2.75,0-.06-.05-.08-.13-.08-.5,0-1.92.05-2.93.06-2.18,2.64-3.7,3.81-4.07,3.81-.06,0-.11-.02-.16-.05-.35-.26-.78-.37-1.07-.5-.06-.02-.1-.06-.1-.11,0-.03.02-.06.06-.1,2.46-1.5,4.93-4.51,5.59-6.31.03-.11.08-.14.14-.14.13,0,1.81.7,1.81,1.06,0,.14-.19.26-.43.37-.21.1-.38.29-.54.46l-.18.22Z"/>
      <path class="cls-1" d="M51.96,10.48c-.03.21-.26,1.01-.3,1.44-.02.1-.14.21-.24.22-.93.1-2.03.14-3.06.14-2.74,0-4.8-.02-4.8-2.27v-.18c.06-1.25.13-4.59.13-6.07v-.37c0-.46-.03-1.47-.11-1.92,0-.05-.02-.08-.02-.11,0-.06.03-.1.13-.1.19,0,2.26.24,2.26.67,0,.16-.18.37-.37.59-.24.27-.24.48-.35,3.35,2.16-.75,4.58-2.08,4.83-2.42.05-.06.1-.11.14-.11.14,0,1.44,1.33,1.44,1.58,0,.14-.19.22-.66.24-.21.02-.5.14-.79.27-.72.32-3.39,1.44-5.03,1.95-.02.66-.03,1.25-.03,1.71,0,1.23.1,1.57,2.29,1.57,1.18,0,2.95-.08,4.43-.32h.03s.06.02.06.06v.05ZM52.31,3.59s-.1-.03-.14-.1c-.4-.51-1.26-1.36-1.65-1.7-.03-.03-.05-.06-.05-.1,0-.1.59-.64.78-.64s1.87,1.47,1.87,1.75c0,.24-.66.78-.82.78ZM54.01,2.51s-.1-.03-.14-.1c-.4-.51-1.26-1.34-1.65-1.68-.03-.03-.05-.06-.05-.1,0-.19.74-.64.78-.64.19,0,1.89,1.47,1.89,1.74s-.74.77-.83.77Z"/>
      <path class="cls-1" d="M65.26,11.44c-1.36-.08-2.83-.11-4.32-.11s-2.95.06-4.29.16h-.05c-.16,0-.16-.11-.16-.66,0-.86.03-.86.18-.86h.06c1.22.13,2.51.18,3.76.18h.51c.21,0,.4-.02.61-.02.06-.48.16-.99.22-1.55.05-.43.11-.94.14-1.42,0-.05,0-.06-.05-.06-.3-.02-.59-.02-.9-.02-.96,0-1.5,0-2.77.1h-.06c-.11,0-.18-.05-.18-.19q0-1.22.14-1.22h.1c1.2.08,1.78.1,2.3.1,1.22,0,1.42-.02,2.64-.1h.03c.13,0,.34.1.34.29v.05c-.03.22-.14.98-.53,4,.77-.03,1.52-.06,2.24-.11h.03c.14,0,.19.03.19.77,0,.66-.03.69-.16.69h-.05Z"/>
      <path class="cls-1" d="M79.57,5.6c.1,0,.11.06.11.16.02.21.02.58.02.93,0,.26,0,.5-.02.62,0,.08-.05.13-.14.13-2.32-.18-3.91-.19-4.83-.19-3.28,0-4.61.08-5.97.19h-.03c-.1,0-.14-.05-.14-.16,0-.21-.02-.51-.02-.8,0-.8.03-.88.11-.88h.08c2.22.18,3.67.19,4.55.19,3.7,0,4.43-.05,6.26-.19h.03Z"/>
    </g>
  </g>
</svg>