<?xml version="1.0" encoding="UTF-8"?>
<svg id="_レイヤー_2" data-name="レイヤー 2" xmlns="http://www.w3.org/2000/svg" viewBox="0 0 146.17 14.33">
  <defs>
    <style>
      .cls-1 {
        fill: #141414;
      }
    </style>
  </defs>
  <g id="_文字" data-name="文字">
    <g>
      <path class="cls-1" d="M1.83,12.21c-.22.14-.27.4-.43.4-.26,0-1.39-1.26-1.39-1.44,0-.06.08-.08.18-.11,1.95-.67,4.58-2.24,5.27-2.71.05-.03.1-.05.13-.05.05,0,.06.05.06.13,0,.24.08.7.18,1.02.02.03.02.06.02.1,0,.06-.03.14-.14.21-.16.1-3.36,2.15-3.86,2.45ZM7.7,12.45c0,1.73-1.95,1.83-2.26,1.83-.11,0-.24-.03-.27-.19-.1-.37-.53-1.07-.83-1.38-.06-.06-.1-.11-.1-.13,0-.03.03-.03.06-.03h.06c.42.03.74.06.98.06.61,0,.74-.14.75-.59.05-1.23.08-3.11.08-4.8,0-.8,0-1.54-.02-2.18v-.45c-1.09,0-3.17.03-5.31.14-.18,0-.21-.1-.21-.8s0-.8.13-.8h.08c2.16.11,4.23.14,5.31.16,0-1.07-.03-2.27-.13-3.04v-.1s.02-.06.06-.06c.1,0,1.1.11,1.78.3.16.05.21.11.21.21,0,.19-.26.46-.32.75-.1.43-.13,1.18-.13,1.94,1.06-.02,3.22-.05,5.43-.16.21,0,.21.13.21.93,0,.22,0,.42-.02.54,0,.08-.1.13-.19.13-2.11-.11-4.24-.14-5.35-.14.21.67.54,1.54,1.06,2.47,1.02-.74,2.03-1.6,2.38-2.15.06-.1.08-.14.13-.14.14,0,1.41,1.18,1.41,1.49,0,.13-.16.18-.38.24-.22.05-.45.1-.64.22-.38.26-1.31.83-2.24,1.38,1.01,1.42,2.51,2.82,4.67,3.55.08.03.16.05.16.08s-.05.06-.18.14c-.38.21-1.06.48-1.47.86-.05.05-.13.06-.19.06-.11,0-2.93-1.22-4.85-5.52v.77c0,.8.02,1.62.05,2.42.05,1.01.08,1.76.08,1.86v.13ZM3.97,7.99c-.86-.86-2.16-1.55-2.27-1.62-.08-.05-.14-.06-.14-.13s.64-1.04.85-1.04c.18,0,2.56,1.3,2.56,1.62,0,.14-.66,1.26-.85,1.26-.03,0-.08-.03-.14-.1ZM10.29,2.96c-.75-.75-1.66-1.33-1.78-1.39-.06-.05-.13-.08-.13-.13,0-.11.66-.82.78-.91.02-.02.03-.05.1-.05.21,0,2.08,1.23,2.08,1.42,0,.05-.03.11-.06.16-.16.3-.67.99-.82.99-.05,0-.11-.03-.18-.1Z"/>
      <path class="cls-1" d="M21.7,9.41c.21.21.43.4.69.58.05.03.06.08.06.14,0,.03,0,.06-.03.1-.22.27-.96,1.04-1.15,1.04-.1,0-.5-.45-.53-.48-.54.7-1.3,1.58-2.26,1.58-1.09,0-1.97-1.17-1.97-2.71,0-1.95,1.39-3.28,1.82-3.67-.24-.85-.61-2.43-.61-2.61,0-.08.02-.19.1-.22.29-.18.83-.58,1.2-.7.02,0,.05-.02.06-.02.06,0,.1.05.11.18.1.83.21,1.7.4,2.51.86-.45,1.83-.72,2.79-.78.21-.74.37-1.44.43-2.1.02-.1.02-.19.13-.19.14,0,1.94.27,1.94.61,0,.21-.45.46-.53.74-.08.3-.19.64-.32,1.02,2.67.43,4.03,2.16,4.03,4.05,0,3.7-4.45,4.79-5.52,4.79-.13,0-.27-.03-.35-.16-.21-.34-.62-.64-.79-.82-.03-.05-.06-.08-.06-.11s.03-.06.16-.08c3.67-.4,4.91-2.13,4.91-3.67,0-1.25-.86-2.43-2.85-2.75-.48,1.18-1.12,2.51-1.87,3.73ZM18.79,7.41c-.83.99-.94,1.78-.94,2.18,0,1.09.62,1.26.75,1.26.26,0,.56-.21,1.26-1.25-.45-.7-.8-1.46-1.07-2.19ZM19.91,6.45c.22.69.48,1.34.85,1.92.48-.83.9-1.76,1.25-2.69-.75.11-1.46.37-2.1.77Z"/>
      <path class="cls-1" d="M39.67,9.35c0-.8-.69-1.49-1.87-1.49-1.49,0-2.88.93-3.46,1.5-.5.5-.56.66-.75.94-.14.19-.34.29-1.01.29-.56,0-.58-.05-.58-1.04,0-1.15.18-2.75.35-4.13.05-.45.08-.82.08-1.12,0-.11.05-.13.18-.13.16,0,1.52.1,1.52.34,0,.14-.18.32-.22.56-.16.74-.38,2.29-.4,2.93,0,.08.02.13.03.13.03,0,.06-.03.13-.08,2.03-1.57,3.86-1.62,4.21-1.62,2.08,0,3.54,1.38,3.54,2.95,0,2.37-3.17,4.16-6.58,4.16-.29,0-.37-.13-.5-.34-.22-.38-.42-.51-.59-.72-.08-.1-.11-.14-.11-.19s.06-.05.16-.06c3.99-.21,5.87-1.55,5.87-2.88ZM37.02,3.7c-.46-.14-1.7-.34-3.22-.34-.26,0-.51,0-.78.02-.1,0-.16-.05-.16-.14.02-.16.11-1.31.37-1.31.32-.02.67-.02,1.02-.02,1.17,0,2.38.08,3.15.21.11.02.13.06.13.14,0,.37-.29,1.25-.32,1.31-.05.06-.06.13-.14.13h-.05Z"/>
      <path class="cls-1" d="M48.86,13.59c0,.14-.06.19-.83.19-.27,0-.54-.02-.7-.03-.1-.02-.14-.08-.14-.19,0-1.34.02-2.53.03-3.55-.66.99-1.15,1.89-1.44,2.43-.03.06-.1.1-.16.1s-1.34-.51-1.34-.75c0-.05.02-.1.08-.16.34-.37.7-.78,1.06-1.23,0,0,1.34-1.94,1.91-3.52,0-.14,0-.32.02-.48-.27.13-1.01.5-1.57.8-.08.05-.13.06-.19.06-.37,0-.83-1.06-.83-1.17,0-.08.06-.13.21-.18.59-.21,1.63-.66,2.48-1.02.08-1.12.16-2.34.19-3.41,0-.13.03-.19.14-.19h.03c1.49.19,1.78.24,1.78.45s-.37.54-.46.96c-.11.56-.19,1.14-.26,1.71l.08.06c.06.05.4.37.4.58,0,.05-.02.1-.05.19l-.56.98-.02.21c2.51-2.67,4.08-2.74,4.39-2.74,1.06,0,1.68.83,1.68,2.24v.24c-.03.8-.38,2.69-.45,3.44-.02.14-.02.29-.02.42,0,.78.24,1.1.61,1.1.5,0,1.23-.56,1.97-1.3.08-.1.14-.13.18-.13.05,0,.08.08.1.19.08.48.18.7.27.86.05.08.06.14.06.22,0,.37-1.26,1.79-2.79,1.79-1.07,0-1.95-.75-1.95-2.42,0-.19,0-.4.03-.61.14-1.31.42-2.85.43-3.54v-.14c0-.7-.18-.99-.48-.99-.48,0-2.08.93-4.08,3.3v.85c0,1.15.03,2.62.21,4.31v.06Z"/>
      <path class="cls-1" d="M65.22,6.13c.37-.06.74-.11,1.12-.11,2.38,0,3.7,1.55,3.7,3.22,0,2.06-2,4.15-4.98,4.15-1.9,0-3.23-.94-3.23-2.16,0-.75.58-1.7,2.1-1.7,1.23,0,2.53.64,2.64,2.27.66-.27,1.91-1.18,1.91-2.56,0-1.12-.94-2-2.56-2-1.02,0-2.14.35-2.9.99-.93.8-1.22,1.09-1.78,1.62-.05.03-.08.05-.11.05-.1,0-1.23-.86-1.23-1.04,0-.05.02-.1.05-.11,2.11-1.58,5.89-4.99,5.89-5.28,0,0-.02-.02-.03-.02-.03,0-.06.02-.13.03-1.5.5-3.41.7-3.57.7-.11,0-.14-.03-.22-.16-.03-.05-.4-1.01-.4-1.3,0-.1.03-.14.14-.14h.1c.18.02.38.03.61.03,1.46,0,3.95-.38,4.43-.66.05-.03.08-.03.13-.03.24,0,1.44.82,1.44,1.06,0,.18-.3.32-.4.42-.46.45-1.66,1.54-2.77,2.59-.03.03-.06.06-.06.1s.02.05.08.05h.05ZM65.09,12.07c0-1.02-.64-1.34-1.12-1.34-.72,0-.72.48-.72.51,0,.45.74.86,1.73.86h.11v-.03Z"/>
      <path class="cls-1" d="M80.17,2.82c0,3.99,2.4,8.16,6.71,9.86.08.03.14.06.14.1,0,.05-.05.1-.19.16-.4.19-1.06.48-1.5.85-.05.03-.08.05-.13.05-.26,0-4.05-1.87-5.75-7.14-1.7,5.57-5.38,7.23-5.54,7.23-.05,0-.08,0-.13-.05-.37-.38-1.2-.67-1.58-.82-.14-.05-.19-.1-.19-.11,0-.03.06-.06.14-.1,4.77-1.76,6.37-6.48,6.42-10.2,0-.48-.02-1.04-.11-1.47-.02-.05-.02-.08-.02-.1,0-.06.02-.08.1-.08.11,0,2.08.24,2.08.58,0,.14-.14.3-.26.48-.08.14-.16.32-.19.56v.19Z"/>
      <path class="cls-1" d="M91.95,5.71c.1.1,1.39,1.38,2.45,1.9.11.06.18.11.18.18,0,.03-.02.06-.06.1-.13.11-.72.4-.93.66-.05.06-.11.11-.18.11s-.26-.08-1.47-1.52c.02,1.79.1,5.19.22,6.82,0,.1-.1.14-.85.14-.93,0-.98-.06-.98-.18.19-2.1.24-4.93.26-6.61-.67,1.47-1.65,2.9-2,2.9-.05,0-.1-.02-.13-.05-.26-.27-.9-.5-1.22-.61-.06-.03-.11-.05-.11-.1,0-.02.02-.05.06-.08,1.65-1.15,2.75-3.03,3.39-4.39v-.06c-.66.02-1.57.05-2.29.11-.13,0-.18-.03-.18-.74,0-.58,0-.74.18-.74.72.06,1.63.1,2.29.11-.02-1.28-.08-2.64-.24-3.41,0-.03-.02-.05-.02-.06,0-.06.03-.06.08-.06h.06c1.6.16,1.9.22,1.9.45,0,.14-.14.38-.24.75-.1.4-.16,1.34-.19,2.34.62-.02,1.38-.05,2.02-.11.05,0,.18.02.18.11.02.1.02.35.02.61s0,.51-.02.64c0,.08-.14.11-.18.11-.62-.06-1.41-.1-2.03-.11,0,.27-.02.53-.02.75l.03.03ZM99.41,12.45c0,.78-.72,1.62-2.43,1.62-.1,0-.19-.06-.24-.22-.1-.35-.61-.9-.96-1.33-.02-.03-.03-.06-.03-.08,0-.03.03-.06.1-.06.03,0,.06.02.1.02.4.06.75.11,1.02.11.58,0,.9-.18.9-.67v-.72c0-1.54-.03-3.27-.05-4.5-1.75,3.14-3.76,4.67-3.92,4.67-.05,0-.11-.02-.18-.08-.42-.38-.9-.56-1.3-.7-.08-.03-.14-.06-.14-.11,0-.03.03-.06.1-.1,2.34-1.15,4.26-3.86,5.11-5.38-.62,0-1.26.03-2.71.14-.18,0-.19-.08-.19-.72,0-.78.03-.8.13-.8h.06c1.66.13,2.27.14,2.99.14-.03-1.14-.11-2.48-.27-3.33,0-.03-.02-.06-.02-.08,0-.05.03-.06.06-.06h.06c.3.02,1.3.19,1.81.35.14.05.19.11.19.21,0,.13-.11.3-.21.46-.18.3-.18.66-.19,1.04v1.41c.48-.02.99-.05,2.22-.14.08,0,.13.05.14.14.02.13.02.43.02.74,0,.62-.03.64-.16.64-1.18-.1-1.71-.13-2.21-.14v.38c.02,1.18.1,5.41.19,7.07v.08Z"/>
      <path class="cls-1" d="M109.61,13.03c-.19,0-.42-.05-.54-.27-.21-.35-.53-.59-.77-.82-.08-.08-.11-.13-.11-.16,0-.06.08-.08.18-.08,3.68-.08,5.41-1.95,5.41-3.81,0-1.47-1.09-2.94-3.07-3.38h-.05c-.14,0-.18.06-.26.21-.18.38-1.86,4.42-3.57,6.95-.27.4-.59.56-.93.56-.8,0-2.47-1.12-2.47-3.49,0-3.09,2.72-5.57,6.26-5.57,3.12,0,5.71,1.87,5.71,4.82,0,2.26-1.63,4.63-5.68,5.04h-.11ZM104.9,8.66c0,.74.4,1.66.8,1.66.08,0,.14-.05.21-.13,1.25-1.78,2.54-4.91,2.82-5.7-2.18.4-3.83,2.32-3.83,4.16Z"/>
      <path class="cls-1" d="M119.52,5.97c-.24.02-.38.16-.51.16-.32,0-.94-1.36-.94-1.5,0-.05.03-.06.1-.06.03,0,.06.02.11.02.22.02.51.02.82.02.62,0,1.38-.02,2.19-.06.21-.54.4-1.07.48-1.46-1.02.02-2.19.05-4.05.13-.11,0-.18-.03-.19-.13,0-.11-.02-.35-.02-.59,0-.72.02-.72.21-.72,2.66.13,3.89.13,5.3.13-.02-.42-.05-1.02-.18-1.74,0-.03-.02-.06-.02-.08,0-.05.03-.06.08-.06.18,0,1.28.14,1.89.34.14.05.21.11.21.21,0,.19-.26.48-.34.77-.05.19-.06.4-.08.58,1.49,0,2.87,0,5.57-.13.13,0,.18,0,.18.74,0,.24-.02.46-.03.59,0,.06-.05.11-.14.11-1.68-.08-2.91-.11-3.97-.13,2.35,1.07,3.46,2.05,3.46,2.11,0,.27-.9,1.12-1.02,1.12-.06,0-.11-.03-.18-.1-.43-.4-.91-.77-1.38-1.09-1.25.14-6.99.8-7.54.85ZM127.92,12.71c0,.82-.5,1.57-2.26,1.62-.1,0-.18-.06-.21-.21-.06-.34-.58-.86-.91-1.25-.03-.03-.05-.06-.05-.1,0-.02.02-.03.05-.03s.06.02.1.02c.43.06.75.11,1.01.11.56,0,.75-.18.75-.53v-.8c-.66-.02-2.18-.02-2.54-.02-.32,0-1.63,0-2.45.02.02,1.17.05,1.66.06,2.58,0,.13-.05.18-.62.18-.8,0-.96-.05-.96-.16v-.03c.08-1.25.14-1.54.14-4.32,0-.48-.03-2-.13-3.2,0-.05-.02-.08-.02-.11,0-.06.03-.08.14-.08h.1c.91.05,2.93.08,3.75.08s2.87-.03,3.87-.08h.05c.11,0,.14.05.14.14v.05c-.13,1.38-.14,2.47-.14,3.03,0,.7.02,1.14.13,2.95v.16ZM126.4,9.54c-.66-.02-2.19-.02-2.56-.02-.34,0-1.7,0-2.45.02v.88c.82.02,2.16.02,2.45.02.32,0,1.9,0,2.58-.02,0-.27-.02-.45-.02-.54v-.34ZM126.39,7.57s-2.02-.02-2.54-.02-2.43.02-2.43.02v.85c.77.02,2.13.02,2.43.02.32,0,1.89,0,2.56-.02l-.02-.85ZM123.79,3.06s-.1.05-.18.08c-.11.05-.21.06-.27.21-.11.29-.27.66-.48,1.09.98-.06,1.97-.14,2.77-.22-.61-.34-.61-.35-.61-.4,0-.11.69-.72.7-.74-.66,0-1.25-.02-1.86-.02h-.08Z"/>
      <path class="cls-1" d="M145.25,3.39c0,.32,0,.7-.02.93,0,.11-.1.19-.19.19-1.86-.1-3.49-.14-4.55-.16.11,1.41.37,2.87.85,4.18.7-1.42.98-2.39,1.07-3.28.02-.1.02-.16.08-.16.1,0,1.89.66,1.89.99,0,.16-.22.3-.4.43-.24.18-.35.4-.48.72-.32.77-.74,1.81-1.42,2.9.91,1.54,1.97,2.14,2.16,2.14.42,0,.48-.91.56-1.7.02-.1.05-.13.08-.13s.06.03.1.06c.18.19.58.75,1.07,1.04.08.05.11.14.11.27-.4,1.65-.93,2.29-1.6,2.29-1.02,0-2.54-1.49-3.36-2.77-1.94,2.27-4.15,2.91-4.15,2.91-.03,0-.06-.02-.1-.05-.3-.45-1.02-.82-1.38-1.02-.11-.06-.16-.11-.16-.14s.06-.05.16-.06c2.32-.45,3.84-1.63,4.88-3.03-.8-1.81-1.17-3.84-1.36-5.62-1.23,0-3.59.02-4.16.02.02.53.03,1.1.03,1.71.27,0,.54.02.82.02.82,0,1.62-.05,2.46-.13h.06c.1,0,.13.03.13.11v.06c-.06.75.08,2.85-.26,4.08-.29,1.01-.96,1.6-2.16,1.6-.46,0-.53-.02-.61-.22-.16-.46-.38-.82-.74-1.22-.4,2.32-1.41,3.81-1.62,3.81-.06,0-.11-.03-.18-.06-.24-.14-.91-.27-1.34-.34-.1-.02-.14-.05-.14-.08s.03-.06.08-.11c1.66-1.6,2.08-4.55,2.08-6.96,0-1.54-.16-2.87-.29-3.52-.02-.05-.02-.08-.02-.11,0-.08.05-.1.13-.1h.08c1.1.11,3.92.16,5.52.16-.14-1.73-.19-2.35-.27-2.82-.02-.08-.02-.13-.02-.16,0-.06.02-.08.1-.08h.06c1.68.18,1.84.21,1.84.43,0,.18-.14.43-.21.62-.02.03-.08.22-.08.86v1.12c.99,0,2.58-.02,4.63-.14h.03c.11,0,.18.08.18.14v.35ZM134.98,7.33c-.03.93-.11,1.87-.26,2.8.58.13.96.19,1.23.19.51,0,.98-.19.98-2.42,0-.21,0-.42-.02-.58h-1.94ZM142.92,2.69c-.8-.7-1.76-1.22-1.87-1.28-.06-.03-.13-.05-.13-.11,0-.19.74-1.01.82-1.01.18,0,2.16,1.02,2.16,1.25s-.62,1.23-.82,1.23c-.05,0-.1-.02-.16-.08Z"/>
    </g>
  </g>
</svg>