<?xml version="1.0" encoding="UTF-8"?>
<svg id="_レイヤー_2" data-name="レイヤー 2" xmlns="http://www.w3.org/2000/svg" viewBox="0 0 101.72 80">
  <defs>
    <style>
      .cls-1 {
        fill: #fff;
      }
    </style>
  </defs>
  <g id="_画像" data-name="画像">
    <g>
      <path class="cls-1" d="M96.68,9.86c2.91,3.53,4.76,9.09,5,13.63,1.21,22.7-20.51,44.48-40.87,51-3.59,1.15-7.6,2.11-11.36,2.25,1.37-.57,2.74-1.19,4.06-1.9,12.33-6.59,24.53-18.62,28.48-32.42,6.32-22.1-12.77-29.67-31.21-24.91-11.74,3.03-26.37,12.95-33.64,22.36l-1.88,2.76c.48-3.17,1.57-6.22,2.86-9.13C27.72,11.89,53.26-2.17,76.75.28c7.13.74,15.28,3.95,19.93,9.58Z"/>
      <path class="cls-1" d="M60.11,57.71c-8.75,9.46-24.99,19.11-37.96,20.46-.27.03-1.34.2-1.44-.08l7.2-3.85c7.77-4.74,18.41-14.48,19.82-23.9,1.76-11.81-11.11-11.6-18.85-8.31-.88.37-1.66.95-2.55,1.27-.19-.18.7-.96.85-1.11,6.53-6.19,17.05-12.41,25.99-13.81,25.15-3.95,17.79,17.6,6.95,29.32Z"/>
      <path class="cls-1" d="M18.43,61.06c10.32,9.8-4.37,25.68-14.91,15.85-10.41-9.71,4.57-25.66,14.91-15.85Z"/>
    </g>
  </g>
</svg>