<?xml version="1.0" encoding="UTF-8"?>
<svg id="_レイヤー_2" data-name="レイヤー 2" xmlns="http://www.w3.org/2000/svg" viewBox="0 0 528.92 208.9">
  <defs>
    <style>
      .cls-1 {
        fill: #fff;
      }
    </style>
  </defs>
  <g id="_文字" data-name="文字">
    <g>
      <path class="cls-1" d="M56.19,63.96c-1.19-3.57-3.57-9.52-6.89-18.7-2.12-5.27-3.91-10.46-5.7-17.34-.25-1.02-.42-1.53-.6-1.53s-.34.51-.59,1.53c-2.04,7.48-4,11.65-6.8,18.96-3.15,8.59-5.19,13.26-6.21,16.75-.25.6-.59,1.11-1.44,1.11l-2.13-.09c-.34,0-.68,0-1.02.09-.34.08-.59.08-.85.08-.68,0-1.02-.26-1.19-.94-.77-2.98-2.04-7.06-4.59-13.86l-8.93-24.31C6.72,18.91,3.4,10.58.6,3.61c-.17-.42-.34-.85-.34-1.1,0-.6.43-.85,1.19-.85.25,0,.59,0,.94.08,1.1.17,2.21.25,3.31.25,2.04,0,4.17-.25,6.46-.34,1.28,0,2.13,0,2.64,1.96.68,2.89,2.72,9.69,5.27,18.62,2.64,8.67,4,12.67,5.87,19.21.08.34.25.42.42,0l6.46-17.68c3.23-9.1,6.12-18.02,6.8-21.76.34-1.44.59-1.44,2.29-1.27h.68c.6,0,1.19-.08,2.04-.25.17,0,.34-.08.43-.08.68,0,.94.34,1.1,1.27.51,2.98,3.32,11.82,6.8,21.93,2.3,6.72,4.51,13.86,6.21,19.13.17.43.34.6.6,0,1.7-4.93,3.31-9.44,6.38-18.79,2.29-7.31,6.21-18.62,6.8-20.83.34-1.28.94-1.79,2.21-1.53,1.36.25,3.23.42,5.1.42,1.7,0,3.49-.17,4.85-.34.34-.08.68-.08.94-.08.59,0,.85.17.85.68,0,.25-.17.68-.34,1.27-7.82,18.02-14.71,36.55-21.17,52.79-1.96,4.85-1.96,5.1-2.72,7.4-.25.77-.77,1.36-1.87,1.19-1.19-.17-2.04-.17-2.47-.08-.34.08-.68.17-1.02.17-.51,0-.85-.25-1.1-1.02Z"/>
      <path class="cls-1" d="M108.18,61.41c.94-4.85,1.44-9.44,1.53-12.67.17-5.1.26-10.12.26-15.05l-.08-12.33c0-5.78-.43-14.11-1.28-17.94-.08-.34-.08-.68-.08-.94,0-.77.43-.94,1.36-.77,3.23.34,7.99.43,13.01.43,9.27,0,19.13-.34,20.15-.43h.51c.94,0,1.36.25,1.36,1.28,0,.85-.08,1.7-.08,2.46,0,1.87.17,3.66.43,5.61v.43c0,.85-.26,1.1-1.36,1.02-4.25-.51-7.99-.77-14.03-.94l-3.91-.08c-1.02,0-2.04,0-3.4.25-.85.08-1.28.68-1.36,1.53-.42,4-.6,7.82-.6,11.31,0,.85.34,1.28,1.28,1.36.85.08,1.7.08,2.46.08l4.68-.17c3.31-.08,5.53-.51,8.93-1.19.25-.08.42-.08.59-.08,1.1,0,1.1.85,1.02,2.04-.17,1.19-.25,2.89-.25,4.59,0,1.36.08,2.64.25,3.66v.34c0,.85-.51,1.36-1.53,1.1-2.89-.68-6.38-1.02-9.44-1.19l-3.91-.08c-1.1,0-2.12,0-2.89.08-.94.08-1.19.34-1.19,1.36v3.66l.17,10.97c.17,1.79.08,2.38,2.21,2.72,1.02.17,2.98.17,5.02.17,2.81,0,5.7-.08,6.21-.17,4.85-.43,10.29-1.11,13.18-2.3.25-.08.42-.17.6-.17.68,0,.76.77.68,1.19-.59,3.23-.51,6.46-.51,9.78,0,.85-.34,1.36-1.79,1.36-2.98,0-12.07-.51-21.17-.51-5.44,0-10.88.17-14.96.51-.85.09-2.21-1.53-2.04-2.29Z"/>
      <path class="cls-1" d="M170.35,61.41c.94-4.85,1.44-9.44,1.53-12.67.17-5.1.26-10.03.26-14.96l-.08-12.16c0-5.87-.43-13.69-1.36-18.02-.08-.42-.08-.68-.08-.94,0-.77.34-.94,1.53-.85,1.53.17,3.31.26,4.93.26,1.79,0,3.57-.09,4.85-.26.51-.08.94-.08,1.36-.08.94,0,1.45.25,1.36,1.7-.94,7.57-.94,12.24-1.19,18.02-.25,5.87-.42,11.82-.42,17.77,0,4,.08,7.99.25,11.9.08,1.79.34,2.38,2.47,2.72,1.02.17,2.55.17,4.08.17,2.04,0,4.17-.08,5.02-.17,4.76-.43,9.86-1.11,12.58-2.3.17-.08.34-.08.51-.08.6,0,.94.42.77,1.1-.6,3.23-.51,6.46-.51,9.18,0,1.45-.68,1.96-2.04,1.96-2.64,0-10.54-.51-18.79-.51-5.27,0-10.63.17-14.96.51-.77.09-2.21-1.53-2.04-2.29Z"/>
      <path class="cls-1" d="M226.91,32C226.91,15.17,241.45.12,261.51.12c5.87,0,10.8,1.19,14.62,2.47,3.4,1.19,6.04,2.38,7.82,2.81,1.28.25,1.87,1.02,1.87,1.96,0,.43-.08.85-.34,1.36-1.53,3.06-1.62,8.08-2.3,11.48-.17.77-.59,1.11-1.02,1.11-.51,0-.94-.34-1.27-.94-3.23-6.21-11.14-10.12-19.81-10.12-10.37,0-21.42,6.46-21.42,21.85s10.97,22.7,24.4,22.7c7.91,0,14.88-5.27,18.87-11.31.51-.77,1.1-1.1,1.62-1.1.85,0,1.44.85,1.19,2.21-.85,4.25-2.29,7.82-2.29,12.41-.08,1.7-.51,2.55-2.13,3.57-4.76,2.81-12.67,4.51-18.28,4.51-19.3,0-36.13-10.71-36.13-33.07Z"/>
      <path class="cls-1" d="M307.15,33.02c0-18.53,15.05-32.64,33.15-32.64,19.47,0,32.3,14.62,32.3,32.64s-11.56,31.96-32.73,31.96-32.73-14.62-32.73-31.96ZM342.77,54.44c12.5-1.1,17.09-10.2,17.09-20.49l-.17-3.66c-1.1-9.86-6.8-19.47-19.72-19.47-.94,0-1.87.08-2.81.17-11.14,1.11-17.17,10.71-17.17,20.74,0,.77,0,1.62.09,2.47,1.19,10.97,6.38,20.32,20.06,20.32.85,0,1.7,0,2.64-.08Z"/>
      <path class="cls-1" d="M393.48,63.03c0-1.79,1.45-3.91,3.32-18.87.85-6.8,1.96-15.22,2.81-22.78.77-6.55,1.36-12.41,1.36-16.24,0-1.1-.08-2.04-.17-2.81,0-.34-.09-.68-.09-.94,0-.85.26-1.53,1.62-1.19.6.17,1.28.17,1.96.17.51,0,1.02,0,1.45-.08.25-.09.51-.09.68-.09.68,0,.94.43,1.19,1.11,1.1,3.15,2.12,5.44,3.06,7.4,7.4,15.73,13.18,23.12,17,31.28.51,1.02.94,1.62,1.45,1.62.42,0,.85-.51,1.45-1.53,6.46-11.39,10.54-16.92,18.96-31.96.77-1.27,2.21-4.17,3.49-6.89.34-.94.76-1.36,1.96-1.19,1.02.17,1.87.17,2.46.08.26-.08.51-.08.77-.08.76,0,1.28.34,1.19,1.53l-.08,5.61c0,11.31.85,21.42,2.12,33.24,1.02,9.95,2.04,17,3.06,20.49.08.51.26.94.26,1.28,0,.94-.6,1.36-2.3,1.27-.76-.17-3.06-.34-5.36-.34-1.53,0-3.06.08-4.17.34-.42.08-.76.17-1.11.17-.85,0-1.19-.42-1.1-1.53.34-2.72.51-6.21.51-9.95,0-8.67-.76-18.7-1.11-24.65,0-.43-.25-.6-.42-.17-5.1,11.39-14.45,24.14-19.47,33.32-.76,1.36-1.53,2.21-2.21,2.21s-1.36-.77-1.87-2.38c-1.96-5.44-6.46-13.6-10.63-21.42-2.55-4.76-5.02-9.44-6.63-13.26-.17-.43-.34-.43-.34.08-.68,9.27-1.02,15.3-1.27,20.66-.17,4.17-.26,6.97-.17,9.01,0,1.96.17,5.19.26,6.46,0,1.27-.6,1.7-2.13,1.53-1.79-.25-3.57-.34-5.35-.34-1.62,0-3.23.08-4.93.34-.34,0-.6.08-.77.08-.42,0-.68-.17-.68-.59Z"/>
      <path class="cls-1" d="M488.43,61.41c.94-4.85,1.45-9.44,1.53-12.67.17-5.1.25-10.12.25-15.05l-.08-12.33c0-5.78-.42-14.11-1.27-17.94-.08-.34-.08-.68-.08-.94,0-.77.42-.94,1.36-.77,3.23.34,7.99.43,13.01.43,9.27,0,19.13-.34,20.15-.43h.51c.93,0,1.36.25,1.36,1.28,0,.85-.08,1.7-.08,2.46,0,1.87.17,3.66.42,5.61v.43c0,.85-.25,1.1-1.36,1.02-4.25-.51-7.99-.77-14.03-.94l-3.91-.08c-1.02,0-2.04,0-3.4.25-.85.08-1.27.68-1.36,1.53-.43,4-.6,7.82-.6,11.31,0,.85.34,1.28,1.28,1.36.85.08,1.7.08,2.46.08l4.68-.17c3.32-.08,5.53-.51,8.93-1.19.25-.08.42-.08.59-.08,1.11,0,1.11.85,1.02,2.04-.17,1.19-.25,2.89-.25,4.59,0,1.36.08,2.64.25,3.66v.34c0,.85-.51,1.36-1.53,1.1-2.89-.68-6.38-1.02-9.44-1.19l-3.91-.08c-1.1,0-2.12,0-2.89.08-.94.08-1.19.34-1.19,1.36v3.66l.17,10.97c.17,1.79.08,2.38,2.21,2.72,1.02.17,2.98.17,5.02.17,2.81,0,5.7-.08,6.21-.17,4.84-.43,10.29-1.11,13.18-2.3.25-.08.42-.17.59-.17.68,0,.77.77.68,1.19-.6,3.23-.51,6.46-.51,9.78,0,.85-.34,1.36-1.79,1.36-2.97,0-12.07-.51-21.17-.51-5.44,0-10.88.17-14.96.51-.85.09-2.21-1.53-2.04-2.29Z"/>
      <path class="cls-1" d="M21.93,134.43c.94-6.63,1.7-15.9,1.79-22.36l.17-11.56-.08-5.27c0-1.36-.08-7.06-.42-9.86-.26-1.45-.6-2.21-2.38-2.3-.77-.08-2.04-.08-3.4-.08-2.21,0-4.68.08-6.38.34l-8.93,1.19h-.34c-.77,0-1.19-.34-1.19-1.1,0-.25,0-.51.08-.77.6-2.81,1.1-5.19,1.44-8.08.09-1.19.6-1.53,1.79-1.27,2.47.51,7.48.85,9.35.94l16.58.17,13.09-.17c6.21-.17,11.22-.77,13.94-1.45.17,0,.25-.08.42-.08.68,0,1.02.68.94,1.45-.34,2.72-.77,6.04-.59,8.76v.34c0,.85-.43,1.1-.94,1.1-.26,0-.6,0-.85-.08-4.34-.6-6.97-.68-10.97-1.1-2.21-.17-4.34-.26-6.89-.17-2.21,0-2.47.94-2.55,2.38-.25,2.72-.34,3.74-.51,10.12l-.08,3.83c0,3.83.17,7.65.17,12.92,0,4.59.34,13.52,1.44,22.1v.25c0,.85-.85,1.1-1.27,1.02-1.36-.25-4-.51-6.72-.51-1.87,0-3.83.08-5.44.51-.17.08-.34.08-.51.08-.51,0-.85-.25-.77-1.27Z"/>
      <path class="cls-1" d="M75.71,105.02c0-18.53,15.05-32.64,33.15-32.64,19.47,0,32.3,14.62,32.3,32.64s-11.56,31.96-32.73,31.96-32.73-14.62-32.73-31.96ZM111.33,126.44c12.5-1.1,17.09-10.2,17.09-20.49l-.17-3.66c-1.1-9.86-6.8-19.47-19.72-19.47-.94,0-1.87.08-2.81.17-11.14,1.11-17.17,10.71-17.17,20.74,0,.77,0,1.62.09,2.47,1.19,10.97,6.38,20.32,20.06,20.32.85,0,1.7,0,2.64-.08Z"/>
      <path class="cls-1" d="M0,207.2c0-.34.17-.85.6-1.53,1.87-3.06,6.72-12.5,10.54-21.59,3.06-7.4,6.89-15.9,9.86-23.04,3.06-7.14,5.27-12.92,5.36-15.05.08-.76.51-1.02,1.62-1.02.77,0,1.96-.68,2.64-1.1.25-.17.51-.17.77-.17.68,0,1.19.68,1.36,1.44,1.27,4.08,2.04,6.21,3.57,10.12,2.38,5.87,7.23,16.75,11.99,27.8,3.66,8.42,7.65,16.32,10.88,21.93.43.77.68,1.45.68,1.87,0,.59-.51.85-1.45.76-1.53-.25-3.23-.34-4.93-.34-2.12,0-4.25.17-5.95.25h-1.1c-.77,0-1.36-.17-1.62-1.27-.51-2.81-1.19-5.1-2.12-7.65-1.27-3.15-2.21-5.27-3.06-7.14-.34-.77-1.36-1.19-2.38-1.28-2.72-.17-4.76-.25-6.72-.25-2.47,0-4.85.08-8.25.25-1.28.08-2.47.25-2.98,2.04-1.36,3.91-2.64,6.97-4.08,13.86-.26.94-.6,1.87-2.3,1.53-1.36-.25-3.23-.42-5.27-.42s-4.08.17-5.95.42c-.34.08-.68.08-.94.08-.51,0-.77-.17-.77-.51ZM35.19,180.93c.34,0,.77-.43.59-.94-1.27-3.83-3.57-9.35-5.53-14.11-.25-.51-.42-.85-.68-.85s-.51.26-.77.94c-1.96,5.1-4,10.71-5.02,14.28-.08.34.68.68,1.02.68l5.02.17,5.36-.17Z"/>
      <path class="cls-1" d="M80.55,207.03c0-1.79,1.45-3.91,3.32-18.87.85-6.8,1.96-15.22,2.81-22.78.77-6.55,1.36-12.41,1.36-16.24,0-1.1-.08-2.04-.17-2.81,0-.34-.09-.68-.09-.94,0-.85.26-1.53,1.62-1.19.6.17,1.28.17,1.96.17.51,0,1.02,0,1.45-.08.25-.09.51-.09.68-.09.68,0,.94.43,1.19,1.11,1.1,3.15,2.12,5.44,3.06,7.4,7.4,15.73,13.18,23.12,17,31.28.51,1.02.94,1.62,1.45,1.62.42,0,.85-.51,1.44-1.53,6.46-11.39,10.54-16.92,18.96-31.96.77-1.27,2.21-4.17,3.49-6.89.34-.94.77-1.36,1.96-1.19,1.02.17,1.87.17,2.47.08.25-.08.51-.08.77-.08.77,0,1.27.34,1.19,1.53l-.08,5.61c0,11.31.85,21.42,2.12,33.24,1.02,9.95,2.04,17,3.06,20.49.08.51.25.94.25,1.28,0,.94-.6,1.36-2.3,1.27-.76-.17-3.06-.34-5.35-.34-1.53,0-3.06.08-4.17.34-.42.08-.77.17-1.1.17-.85,0-1.19-.42-1.1-1.53.34-2.72.51-6.21.51-9.95,0-8.67-.77-18.7-1.1-24.65,0-.43-.25-.6-.43-.17-5.1,11.39-14.45,24.14-19.47,33.32-.77,1.36-1.53,2.21-2.21,2.21s-1.36-.77-1.87-2.38c-1.96-5.44-6.46-13.6-10.63-21.42-2.55-4.76-5.02-9.44-6.63-13.26-.17-.43-.34-.43-.34.08-.68,9.27-1.02,15.3-1.27,20.66-.17,4.17-.26,6.97-.17,9.01,0,1.96.17,5.19.26,6.46,0,1.27-.6,1.7-2.13,1.53-1.79-.25-3.57-.34-5.35-.34-1.62,0-3.23.08-4.93.34-.34,0-.6.08-.77.08-.42,0-.68-.17-.68-.59Z"/>
      <path class="cls-1" d="M172.69,207.2c0-.34.17-.85.6-1.53,1.87-3.06,6.72-12.5,10.54-21.59,3.06-7.4,6.89-15.9,9.86-23.04,3.06-7.14,5.27-12.92,5.36-15.05.08-.76.51-1.02,1.62-1.02.77,0,1.96-.68,2.64-1.1.25-.17.51-.17.77-.17.68,0,1.19.68,1.36,1.44,1.27,4.08,2.04,6.21,3.57,10.12,2.38,5.87,7.23,16.75,11.99,27.8,3.66,8.42,7.65,16.32,10.88,21.93.43.77.68,1.45.68,1.87,0,.59-.51.85-1.45.76-1.53-.25-3.23-.34-4.93-.34-2.12,0-4.25.17-5.95.25h-1.1c-.77,0-1.36-.17-1.62-1.27-.51-2.81-1.19-5.1-2.12-7.65-1.27-3.15-2.21-5.27-3.06-7.14-.34-.77-1.36-1.19-2.38-1.28-2.72-.17-4.76-.25-6.72-.25-2.47,0-4.85.08-8.25.25-1.28.08-2.47.25-2.98,2.04-1.36,3.91-2.64,6.97-4.08,13.86-.26.94-.6,1.87-2.3,1.53-1.36-.25-3.23-.42-5.27-.42s-4.08.17-5.95.42c-.34.08-.68.08-.94.08-.51,0-.77-.17-.77-.51ZM207.89,180.93c.34,0,.77-.43.59-.94-1.27-3.83-3.57-9.35-5.53-14.11-.25-.51-.42-.85-.68-.85s-.51.26-.77.94c-1.96,5.1-4,10.71-5.02,14.28-.08.34.68.68,1.02.68l5.02.17,5.36-.17Z"/>
      <path class="cls-1" d="M288.5,206.69c-.59-1.87-.94-3.06-2.89-5.61-5.02-6.72-10.12-13.09-17.09-20.74-.42-.42-.85-.85-1.27-1.1-.43-.34-.77-.42-1.02-.25-.17.17-.26.51-.26,1.02l-.08,6.89.08,6.21c.08,3.15.43,8.59.85,12.84v.42c0,.94-.51,1.36-1.44,1.27-.94-.17-3.91-.34-6.72-.34-1.1,0-2.21,0-3.15.08h-.51c-1.02,0-1.19-.25-1.02-1.62.77-5.36,1.19-17.94,1.28-21.93l.08-6.55-.17-13.77c0-4.51,0-10.46-1.02-15.81-.08-.34-.08-.68-.08-.94,0-.59.26-1.02,1.02-1.02,1.02,0,2.81.25,4.93.25,1.96,0,4.17-.08,6.12-.25.25,0,.42-.08.59-.08.85,0,1.19.43,1.02,1.36-.85,5.02-1.61,11.31-1.7,16.32-.08,1.44-.25,2.98-.25,4.68,0,.85.6,1.02.85,1.02.51-.08.85,0,1.53-.51,3.57-2.38,16.83-18.36,19.04-22.1.17-.43.51-.51,1.02-.51.34,0,.77,0,1.19.08.77.17,2.21.17,4,.17,2.64,0,6.04-.08,8.93-.43h.17c.77,0,1.27.34,1.27.77,0,.17-.08.42-.34.68-7.06,6.21-13.52,12.92-19.98,19.55-3.06,3.15-4.51,4.85-5.78,6.38-.25.34-.34.6-.34.94s.17.68.6,1.19c4.68,5.36,20.74,23.38,24.23,26.86,1.36,1.36,2.81,2.64,4.25,3.66.68.43,1.02.85,1.02,1.19,0,.51-.6.76-1.7.59-2.81-.25-5.61-.59-8.42-.59-2.21,0-4.34.17-6.38.68-.25.08-.6.08-.85.08-.77,0-1.45-.25-1.62-1.02Z"/>
      <path class="cls-1" d="M326.59,182.54l.17-16.15.26-11.05c0-2.89-.17-5.02-.68-7.91v-.42c0-.77.42-1.02,1.1-1.02.25,0,.51,0,.85.09,1.1.25,2.21.34,3.49.34,2.21,0,4.68-.34,7.4-.77h.43c.76,0,1.27.25,1.02,1.87-.94,4.68-.94,5.78-1.62,18.87-.34,4.17-.34,10.03-.34,15.3,0,9.69,3.66,17.6,14.2,17.6s14.79-5.78,14.96-16.24l.17-10.29-.17-6.04c-.68-13.26-.68-14.54-1.45-19.3v-.42c0-.77.34-1.11.94-1.11.25,0,.51,0,.77.08.94.09,2.04.17,3.32.17,2.21,0,4.76-.17,7.14-.43l.85-.08c.85,0,1.45.25,1.28,1.79-.25,2.04-.94,5.02-.94,14.2l.08,5.02.08,10.63v5.95c-.17,17.17-10.63,25.67-27.03,25.67s-26.61-9.18-26.27-26.35Z"/>
      <path class="cls-1" d="M410.17,208.22c-1.96-.17-3.74-.6-5.44-1.19-1.19-.43-1.87-.94-1.87-1.87,0-.26,0-.51.08-.77.94-3.4,1.1-6.63,1.27-10.03.09-.85.34-1.28.77-1.28.34,0,.68.26,1.02.6,1.36,1.53,2.72,2.98,5.44,4.17,2.55,1.1,4.93,1.61,7.06,1.61,3.83,0,6.8-1.61,8.42-4,.77-1.19,1.19-2.64,1.19-4.08,0-2.72-1.36-5.61-4.59-7.99-3.74-2.72-7.48-5.27-11.14-8.25-4.85-3.91-7.14-9.01-7.14-13.94,0-8.59,7.14-16.66,19.72-16.66,2.47,0,4.76.34,6.72.68l3.66.76c1.36.26,1.87.68,1.87,1.19,0,.25-.08.51-.17.77-1.28,2.89-1.62,6.38-2.38,9.44-.09.6-.43,1.02-.77,1.02-.25,0-.51-.17-.76-.51-1.53-1.96-5.53-4.34-9.61-4.34s-7.4,2.72-7.4,6.04c0,2.13,1.19,4.42,3.91,6.55,3.57,2.72,7.48,5.27,11.22,7.82,5.95,4.17,8.84,9.95,8.84,15.64,0,9.78-8.42,19.04-23.8,19.04-1.96,0-4-.08-6.12-.42Z"/>
      <path class="cls-1" d="M457.28,207.2c0-.34.17-.85.6-1.53,1.87-3.06,6.71-12.5,10.54-21.59,3.06-7.4,6.88-15.9,9.86-23.04,3.06-7.14,5.27-12.92,5.36-15.05.08-.76.51-1.02,1.62-1.02.76,0,1.96-.68,2.63-1.1.25-.17.51-.17.77-.17.68,0,1.19.68,1.36,1.44,1.27,4.08,2.04,6.21,3.57,10.12,2.38,5.87,7.23,16.75,11.99,27.8,3.66,8.42,7.65,16.32,10.88,21.93.42.77.68,1.45.68,1.87,0,.59-.51.85-1.44.76-1.53-.25-3.23-.34-4.93-.34-2.12,0-4.25.17-5.95.25h-1.11c-.76,0-1.36-.17-1.62-1.27-.51-2.81-1.19-5.1-2.12-7.65-1.28-3.15-2.21-5.27-3.06-7.14-.34-.77-1.36-1.19-2.38-1.28-2.72-.17-4.76-.25-6.72-.25-2.46,0-4.84.08-8.25.25-1.28.08-2.47.25-2.98,2.04-1.36,3.91-2.63,6.97-4.08,13.86-.25.94-.59,1.87-2.29,1.53-1.36-.25-3.23-.42-5.27-.42s-4.08.17-5.95.42c-.34.08-.68.08-.93.08-.51,0-.77-.17-.77-.51ZM492.47,180.93c.34,0,.76-.43.59-.94-1.27-3.83-3.57-9.35-5.53-14.11-.25-.51-.42-.85-.68-.85s-.51.26-.77.94c-1.96,5.1-4,10.71-5.01,14.28-.08.34.68.68,1.02.68l5.02.17,5.36-.17Z"/>
    </g>
  </g>
</svg>