<?xml version="1.0" encoding="UTF-8"?>
<svg id="_レイヤー_2" data-name="レイヤー 2" xmlns="http://www.w3.org/2000/svg" viewBox="0 0 302.17 125.06">
  <defs>
    <style>
      .cls-1 {
        fill: #141414;
      }
    </style>
  </defs>
  <g id="_文字" data-name="文字">
    <g>
      <path class="cls-1" d="M8.12,50.92c-1.45-1.45-4.52-2.84-6.21-3.42-.46-.17-.7-.35-.7-.52s.17-.29.52-.41c17.57-6.38,22.39-23.55,22.85-35.67,0-2.09-.12-4.35-.58-5.97-.06-.12-.06-.29-.06-.35,0-.29.12-.41.52-.41,3.07.23,5.63.81,8.12,1.62.81.29,1.1.58,1.1.99,0,.58-.64,1.28-1.1,2.09-.35.64-.7,1.39-.87,2.32.12,13.69,8.47,28.59,24.07,34.74.41.12.58.29.58.46s-.23.35-.75.58c-1.86.87-4.23,2.15-6.03,3.54-.35.29-.64.41-.99.41-.23,0-.46-.06-.75-.17-9.63-4.87-16.07-14.91-19.31-24.19-3.19,9.34-8.93,19.08-18.91,24.65-.23.12-.41.17-.64.17-.29,0-.58-.12-.87-.46Z"/>
      <path class="cls-1" d="M74.4,51.9c-.46-.06-.52-.23-.46-.58.7-6.84.93-15.78.99-21.58-1.22,2.67-2.84,5.39-5.1,7.89-.23.23-.58.41-.93.41-.29,0-.52-.12-.75-.35-.99-1.04-3.65-2.32-5.05-2.78-.52-.17-.81-.41-.29-.75,5.86-3.83,9.69-10.09,12.06-14.96-2.38.06-5.34.23-7.66.46h-.12c-.17,0-.52-.12-.58-.52-.06-.46-.12-1.45-.12-2.44,0-1.22.06-2.55.12-3.07.06-.64.41-.52.7-.52,2.38.29,5.39.41,7.77.46-.06-4.52-.35-9.34-.99-12.06-.06-.17-.06-.29-.06-.41,0-.17.12-.17.52-.12,1.45.12,5.39.41,7.83,1.16.52.17.7.41.7.75,0,.7-.7,1.74-1.1,3.42-.29,1.39-.52,4.23-.64,7.25,2.32-.06,4.87-.17,6.9-.46.23,0,.7.06.7.46.06.52.06,1.97.06,3.31,0,.99,0,1.91-.06,2.38,0,.23-.35.46-.64.41-2.09-.29-4.81-.41-7.13-.46l-.06,2.78.17.12c.93.93,4.76,4.18,9.22,6.15.35.17.46.29.46.41,0,.17-.17.29-.41.52-.58.46-3.19,1.97-4.18,3.19-.17.23-.41.35-.7.35-.17,0-.41-.06-.58-.23-.99-.93-2.55-2.67-3.94-4.23l.23,9.4.12-.06c8.47-4.12,14.91-13.05,18.04-18.39-1.86.06-4.23.23-8.64.64-.29,0-.64-.12-.7-.58l-.06-2.73.06-2.9c.06-.64.29-.64.7-.64,5.39.46,7.71.58,9.8.64-.17-4-.52-8.87-1.16-12.01-.06-.17-.06-.29-.06-.35,0-.17.06-.23.23-.23.64,0,5.92.75,8.41,1.57.64.17.81.52.81.93,0,.58-.46,1.39-.87,2.09-.81,1.28-.75,2.78-.81,4.41v3.6c1.45-.06,3.07-.23,7.66-.64.29,0,.58.23.58.64.06.52.12,1.86.12,3.13,0,1.1-.06,2.09-.12,2.61,0,.29-.35.46-.58.46-4.29-.41-6.09-.58-7.6-.64v.99c.06,3.36.46,19.84.87,25.23.23,2.84-2.15,6.44-9.45,6.61-.52,0-.93-.35-1.1-.99-.46-1.62-2.55-3.77-4.12-5.68-.12-.12-.17-.23-.17-.29,0-.23.35-.35.87-.29,1.68.17,3.02.35,4.06.35,2.09,0,2.96-.52,2.96-2.2,0-4.99-.12-11.31-.17-16.01-3.25,5.68-7.13,10.44-11.95,14.73-.35.29-.64.41-.93.41s-.52-.12-.75-.35c-1.8-1.86-4-2.67-5.74-3.31l-.23-.12c.17,4.99.41,10.09.7,13.22v.06c0,.23-.23.35-.52.35-.75.06-2.26.12-3.71.12s-2.78-.06-3.42-.12Z"/>
      <path class="cls-1" d="M150.4,51.84c-.46-.06-.64-.35-.58-.64.7-6.73.81-13.69.99-20.47l-.35.35c-.17.23-.52.46-.87.46-.17,0-.35-.06-.46-.17-1.1-.81-2.09-1.39-3.07-1.8v.64c0,2.9.06,6.38.29,10.56,0,.75,0,1.1-.75,1.28-.46.12-1.39.12-2.32.12-.7,0-1.45,0-1.86-.06-.52-.06-1.04-.23-1.04-.93l.06-1.8-1.22-.06-1.33.06c0,2.67.06,5.22.12,6.5,0,.81-.17.87-.99,1.04-.41.06-1.33.06-2.26.06s-1.8,0-2.2-.06c-.75-.17-1.1-.29-.99-1.16.52-4,.75-12.59.87-15.49l.06-1.74-1.33,2.44c-.12.23-.35.35-.64.35-.17,0-.35-.06-.52-.17-1.1-.81-2.26-1.22-4.35-1.74-.58-.12-.7-.29-.41-.7,4.99-5.63,7.83-13.86,8.82-18.1l-4.52.46h-.06c-.23,0-.58-.17-.58-.52-.06-.52-.06-1.68-.06-2.78,0-1.16,0-2.26.06-2.78.06-.58.35-.64.64-.58,6.79.81,8.47.58,9.57.58,1.39,0,3.89-.12,7.6-.58h.06c.23,0,.46.23.52.58.06.52.12,1.45.12,2.44,0,1.22-.06,2.55-.12,3.25-.06.29-.41.46-.58.41l-5.8-.58c0,.29-.23.64-.7,1.1s-.64,1.22-.87,1.8l-1.74,4.29h1.57c2.44,0,2.96-.12,6.26-.29h.12c.58,0,.75.35.7.93-.12,1.97-.17,4.18-.17,6.26v2.03c2.78-2.15,4.99-4.93,6.73-7.77-.81.12-1.97.17-3.07.17-.93,0-1.8-.06-2.2-.17-.41-.06-.52-.29-.46-.64.35-1.74.7-3.71.7-6.84,0-1.1-.12-1.8-.23-3.42v-.35c0-.41.12-.41.64-.35,3.36.29,6.79.41,9.57.41l.17-.7c.52-1.86,1.22-4.52,1.28-6.32,0-.46.06-.75.58-.58,1.28.41,5.1,1.28,7.25,2.61.29.17.41.35.41.52,0,.41-.64.81-1.04,1.16-.81.64-1.68,2.09-2.15,3.31h1.74c2.61,0,6.32-.06,10.9-.41h.12c.35,0,.41.23.41.58-.17,2.44-.29,3.48-.29,4.35,0,2.32.29,3.42.46,6.03,0,.29-.23.58-.52.58-.75.12-2.09.17-3.36.17-1.04,0-2.03-.06-2.44-.17-.46-.06-.46-.29-.41-.64.29-2.09.23-4.47.23-5.28-1.45-.12-2.78-.12-4-.12l-4.12.06h-.64c-1.1,2.44-2.55,5.34-4.35,8.29h2.96c1.16-2.38,1.57-4.35,1.74-6.09.06-.29.52-.29.81-.17.29.12,3.31,1.28,5.45,2.38.64.29.87.58.87.87,0,.46-.64.87-1.28,1.28-1.04.58-.81.23-1.51,1.33l-.29.46c2.2-.06,4.47-.17,8.82-.7.23,0,.64.12.64.52.06.52.12,1.91.12,3.13l-.06,1.97c-.06.52-.46.52-.58.52-3.89-.46-6.38-.64-8.47-.7-.06.17-.23.29-.41.41-.58.41-.52.41-.52,1.16v1.86c1.57-.06,3.25-.23,6.9-.64.17,0,.41.06.41.46.06.46.12,1.62.12,2.73l-.06,1.8c-.06.29-.35.46-.52.41-3.42-.41-5.28-.58-6.84-.64l.06,3.42c1.51-.06,3.19-.23,6.73-.64.29,0,.52.17.52.46.06.46.12,1.62.12,2.73l-.06,1.74c-.06.35-.29.52-.52.46-3.36-.41-5.16-.58-6.73-.64l.06,3.71c2.73-.06,5.63-.17,10.61-.64h.12c.17,0,.52.12.52.46.06.46.12,1.57.12,2.73s-.06,2.26-.12,2.84c0,.29-.52.29-.64.29-5.97-.58-9.74-.64-12.18-.64s-3.36.12-8,.17l.06,1.39c0,.29-.23.46-.52.52-.7.06-1.8.12-2.96.12s-2.26-.06-3.02-.12ZM140.54,33.63v-3.25l-.06-7.42c-.58-.06-2.09-.06-2.67,0v10.67l1.39.06,1.33-.06ZM155.86,12.81l-2.78.06c0,1.22.12,2.67.23,5.1,1.04-1.8,1.86-3.6,2.55-5.16ZM160.84,33.52l-4.35.12v3.13l4.35.06v-3.31ZM160.79,25.98l-4.12.12c-.12.64-.06,1.28-.12,2.09v1.04l4.29.06-.06-3.31ZM160.84,41.06l-4.29.12.06,3.48,4.18.06.06-3.65Z"/>
      <path class="cls-1" d="M198.31,52.19c-.46-.06-.64-.23-.58-.58.7-6.38,1.1-17.34,1.28-26.39l-2.09,2.32c-.17.17-.35.29-.58.29s-.41-.12-.58-.23c-1.22-1.04-4.35-2.2-5.92-2.67-.35-.12-.58-.17-.58-.35,0-.06.12-.17.35-.35,10.21-7.48,14.79-19.55,15.2-22.27,0-.35.12-.52.64-.35,1.91.58,4.99,1.97,6.9,3.19l-.06-.64c0-.12-.06-.23-.06-.35,0-.46.29-.58.99-.52,1.74.23,8.53.35,11.72.35,2.96,0,8-.12,11.6-.35h.17c.52,0,.7.29.64.81-.41,4.23-.35,7.83-.35,9.22,0,1.22.06,3.77.41,8.12v.29c0,.7-.23.87-1.1.99-.99.06-3.65.17-4.93.06-.81-.12-1.04-.17-.99-.87l.06-1.1-5.63-.12-5.74.12.06,1.51v.29c0,.58-.17.64-1.1.75-.75.06-1.62.06-2.49.06s-1.68,0-2.38-.06c-.99-.12-1.28-.12-1.16-1.16.52-4.18.52-8.06.52-9.28v-1.74l-.06-4.23-.52.23c-.81.35-1.28.58-1.86,1.45-.29.35-1.8,3.36-4.29,7.37l.58.23c.52.23.7.46.7.75,0,.41-.29.87-.7,1.33-.81.93-.87,1.33-.87,2.26,0,7.77-.41,17.17-.35,24.24,6.61-3.31,11.14-8.18,14.33-12.76l-10.61.52h-.23c-.29,0-.41-.12-.46-.41-.06-.41-.06-1.57-.06-2.73s0-2.38.06-2.78c.06-.46.23-.52.7-.46,6.67.35,9.69.52,12.53.52-.12-1.57-.35-3.19-.58-4.76v-.17c0-.23.17-.35.41-.35.7,0,5.34.58,7.31,1.28.52.23.81.46.81.81,0,.41-.46,1.04-1.22,2.09-.23.35-.41.64-.52,1.1,3.25-.06,7.48-.17,13.92-.52h.12c.35,0,.46.23.52.46.06.41.06,1.62.06,2.78s0,2.32-.06,2.73c-.06.29-.23.46-.58.41-5.68-.29-9.45-.46-12.53-.52,3.36,3.83,8.29,8.64,15.72,11.31.41.17.58.29.58.41,0,.17-.23.29-.64.46-1.62.64-4.64,2.49-5.68,3.83-.29.35-.46.52-.7.52-.17,0-.41-.12-.64-.29-3.89-2.61-7.6-6.15-10.32-10.15.17,4.12.52,9.16.75,13.63,0,.29-.12.46-.46.52-.64.06-1.97.06-3.25.06s-2.61,0-3.25-.06c-.29-.06-.46-.17-.46-.52l.87-13.46c-2.32,3.94-4.93,6.96-9.11,10.38-.29.17-.52.29-.7.29-.23,0-.41-.12-.7-.29-1.1-.93-4.12-2.09-5.86-2.67.06,2.15.12,4.06.29,5.57v.17c0,.23-.12.35-.52.41-.7.12-2.03.17-3.36.17s-2.61-.06-3.31-.17ZM230.5,15.19v-2.49l-.06-3.54-5.68-.06-5.68.06-.06,3.65v2.38l5.74.06,5.74-.06Z"/>
      <path class="cls-1" d="M279.15,47.03c-.87-1.45-2.32-2.61-3.48-3.65-.23-.23-.41-.46-.41-.64s.23-.29.7-.29c13.57-.7,18.73-7.13,18.73-13.05,0-2.78-1.1-5.39-2.96-7.37-1.62-1.8-3.83-3.13-6.26-3.89h-.12c-.46,0-.64.29-.93.87-3.25,8.06-7.48,18.68-12.47,24.59-1.04,1.28-2.38,1.74-3.83,1.74-2.9,0-6.21-2.2-7.83-4.47-1.68-2.32-2.61-5.39-2.61-8.7,0-5.68,2.78-12.06,9.28-16.41,3.94-2.61,8.87-3.94,13.8-3.94,6.03,0,12.12,1.97,16.41,5.97,3.02,2.73,4.99,7.31,4.99,12.18,0,7.89-5.28,16.36-20.07,18.33-1.04.06-2.26,0-2.96-1.28ZM268.01,36.76c4.35-5.74,8.35-16.99,9.05-18.91-2.2.46-4.35,1.45-6.38,2.9-4.47,3.25-6.55,7.83-6.55,11.43,0,1.62.46,3.02,1.28,4,.64.64,1.22,1.1,1.74,1.1.35,0,.64-.17.87-.52Z"/>
      <path class="cls-1" d="M6.26,124.71c-1.28-2.26-4.52-4.64-5.63-5.68-.46-.35-.64-.58-.64-.7,0-.17.29-.17.58-.17,9.8-.58,17.11-3.07,22.45-6.38-3.25-3.6-5.22-7.02-6.21-9.16-.06-.17-.12-.35-.12-.52,0-.12.06-.29.17-.41.87-.7,3.83-1.91,5.05-2.15.12-.06.23-.06.29-.06.23,0,.41.12.52.29,1.1,1.86,2.73,4.93,5.68,7.89,3.13-2.96,5.22-6.09,6.5-8.82h-7.31c-1.97.12-9.98.12-15.89.64h-.35c-.46,0-.7-.12-.75-.46-.06-.58-.12-1.97-.12-3.25,0-1.1.06-2.15.12-2.67.06-.35.35-.52.87-.46,4.87.41,10.09.46,13.51.52v-5.51c-4.35.06-11.72.17-19.02.64-.46,0-.75-.12-.81-.58-.06-.64-.12-1.74-.12-2.9s.06-2.26.12-2.84c.06-.7.12-.75.81-.7,7.13.41,14.56.58,18.97.64-.12-2.32-.41-4.99-1.04-8.47,0-.17-.06-.29-.06-.35,0-.35.17-.29.52-.23,1.51.12,6.38.46,8.87,1.28.64.23.87.58.87.99,0,.75-.81,1.74-1.33,2.67-.52.99-.64,1.97-.75,3.54l-.06.58c4.35-.06,12.01-.23,19.26-.7.52,0,.7.29.75.7.06.7.06,2.09.06,3.42,0,.93,0,1.86-.06,2.44-.06.29-.35.52-.75.52-7.37-.46-15.08-.64-19.37-.7v5.57l5.86-.17c1.33-.12,1.57-.81,2.15-.81.64,0,3.02,1.62,4.81,3.07.46.35.64.64.64.93,0,.46-.46.81-1.1,1.33-1.45,1.22-1.74,1.62-2.44,3.07-1.45,2.9-4.23,6.96-8.35,11.02,4.81,2.96,11.89,5.28,22.33,5.28.46,0,.87,0,.87.29,0,.87-4.18,3.54-5.86,6.38-.23.46-.75.7-1.1.7-9.57-.93-16.59-4.18-21.69-8.06-5.34,3.89-12.12,7.25-20.47,8.82-.12,0-.23.06-.41.06-.29,0-.64-.06-.81-.35Z"/>
      <path class="cls-1" d="M91.62,123.84c-.64-.87-1.97-1.97-3.31-2.84-1.16,1.1-2.32,2.09-3.6,2.9-.23.12-.46.23-.7.23s-.41-.06-.52-.23c-.93-.93-2.2-1.68-3.48-2.26-1.1.99-2.96,1.8-6.03,2.2h-.23c-.58,0-.93-.23-1.04-.7-.46-2.15-1.97-4.29-3.25-5.86-.23-.35-.17-.7.12-.64l2.67.06c2.38,0,2.67-.35,2.73-1.97l.23-9.74c-.87.46-1.57.81-1.68.93-.75.35-1.45,1.22-2.15,1.22-.17,0-.41-.12-.64-.35-.99-1.28-2.78-4.76-3.36-5.74-.06-.12-.12-.23-.12-.35,0-.29.35-.35.75-.41,1.51-.17,4.47-1.22,7.25-2.26v-7.54l-5.68.29c-.23,0-.58-.23-.64-.46-.06-.52-.12-1.57-.12-2.61,0-1.28.06-2.55.12-3.07.06-.41.29-.64.64-.64,2.03.23,3.77.41,5.57.52-.06-4.35-.29-8.82-.7-11.02-.06-.12-.06-.23-.06-.29,0-.17.06-.23.29-.23,1.04,0,5.1.41,7.6,1.22.52.17.7.41.7.75,0,.64-.64,1.68-1.04,3.36-.23.99-.41,3.42-.46,6.15l4.18-.41h.12c.23,0,.46.23.52.58.06.52.06,1.97.06,3.31,0,.93,0,1.86-.06,2.32-.06.35-.41.52-.64.52l-4.35-.29v5.51l4.52-2.03c.17-.06.29-.12.35-.12.17,0,.17.17.17.52v1.33c3.65.29,6.55.41,8.87.46l.46-2.2c-2.09.06-4.52.23-7.19.52h-.12c-.23,0-.35-.23-.41-.52l-.06-2.03.06-2.2c.06-.64.23-.64.52-.64l2.09.23c-.93-1.91-2.44-3.36-2.61-3.6-.17-.17-.29-.35-.29-.46s.12-.23.41-.35c1.04-.58,2.96-1.45,3.83-1.8.12-.06.23-.06.29-.06.17,0,.29.06.52.23.41.29,2.96,2.55,3.71,4.06.06.17.12.29.12.41s-.06.29-.29.46c-.41.35-1.22.87-2.03,1.33,3.02.17,5.45.17,7.19.17h2.9c2.49-3.42,3.36-6.73,3.77-8.93l.12-.41c-4.7.81-12.88,2.03-18.21,2.32h-.41c-.41,0-.75-.12-.87-.58-.35-1.62-2.15-3.54-3.13-4.76-.23-.23-.29-.41-.29-.52s.23-.12.58-.12c13.4,0,23.66-2.44,24.82-3.13.35-.17.52-.35.7-.35.12,0,.23.12.52.35.87.7,3.54,2.73,4.58,4.06.29.41.46.75.46,1.04,0,.58-.7.81-1.91.81-.35,0-.75,0-1.22-.06-.12,0-1.57.06-2.44.29l-2.15.46c1.22.29,4.35,1.39,6.03,2.32.41.23.58.41.58.64,0,.35-.52.7-1.16,1.22-.75.58-.81.93-1.39,1.68-.75,1.04-1.8,2.38-2.73,3.42,1.57-.06,3.19-.23,4.81-.41h.12c.35,0,.46.23.52.58.06.41.12,1.28.12,2.15s-.06,1.74-.12,2.26c0,.35-.23.46-.41.41-4.41-.52-9.05-.64-12.24-.64.17.12.23.23.23.35,0,.23-.23.46-.58.64-.87.29-1.1.58-1.16.99l-.12.41c4.23,0,9.69,0,16.82-.58h.12c.29,0,.52.23.58.58.06.52.06,1.74.06,2.9,0,.87,0,1.62-.06,2.09-.06.29-.41.46-.64.46-7.42-.7-13.63-.7-17.52-.7h-.99l-.87,2.38c5.16-.06,7.66-.12,8.35-.17,1.22-.12,1.33-.58,1.8-.58.12,0,.29,0,.52.12.81.41,2.15,1.28,3.48,2.38.52.41.75.7.75.93,0,.29-.35.58-.99,1.04-.7.52-.99.81-1.62,1.97-.87,1.45-2.15,3.65-4.18,5.97,3.42,1.68,8.06,2.9,14.27,3.02.35,0,.64.23.23.64-1.1,1.28-3.83,3.94-4.52,5.22-.23.35-.7.41-1.04.35-5.74-.64-10.15-2.61-13.51-4.87-2.55,1.97-5.8,3.83-9.8,5.16-.12.06-.23.06-.35.06-.46,0-.7-.29-1.04-.75ZM93.77,101.11c-2.15.12-4.7.29-7.83.58-.35,0-.7-.12-.75-.58v-.58l-3.89,1.97c0,4.23.06,9.34.23,13.63,0,.64.06,1.28,0,1.97,6.55-4.64,10.21-11.43,12.24-16.99ZM98.41,115.55c-1.33-1.45-2.32-2.84-3.07-4-1.39,2.49-3.07,5.05-4.93,7.25,3.25-.75,5.86-1.97,8-3.25ZM99.22,89.16c-.41-2.61-2.2-4.87-2.44-5.16-.12-.17-.17-.35-.17-.46s.12-.23.41-.35c1.1-.41,3.13-.99,4.06-1.16h.23c.17,0,.29.06.52.29.41.29,2.67,2.9,3.13,4.52.06.12.06.23.06.35,0,.17-.06.29-.41.52-.81.52-3.25,1.39-4.64,1.86-.06,0-.17.06-.23.06-.23,0-.46-.17-.52-.46ZM105.77,107.43l-6.73.12c.7,1.39,1.86,2.96,3.65,4.52,1.8-1.97,2.78-3.71,3.07-4.64Z"/>
      <path class="cls-1" d="M143.68,119.09c0-2.73,2.2-4.87,4.99-4.87s4.93,2.15,4.93,4.87-2.2,4.87-4.93,4.87-4.99-2.2-4.99-4.87ZM146.52,109.58c-.52-.06-.7-.41-.7-.81-.17-1.68-.99-9.69-1.28-13.46-.06-1.57-.46-16.01-.58-18.15,0-.52.41-.93.81-.99.93-.12,2.44-.17,3.94-.17,1.33,0,2.61.06,3.54.12.46,0,.87.41.87.99-.17,1.8-.58,16.36-.7,18.15-.35,3.83-.87,11.14-1.16,13.57-.06.52-.29.7-.7.75-.52.06-1.22.06-1.97.06-.7,0-1.45,0-2.09-.06Z"/>
    </g>
  </g>
</svg>