<?xml version="1.0" encoding="UTF-8"?>
<svg id="_レイヤー_2" data-name="レイヤー 2" xmlns="http://www.w3.org/2000/svg" viewBox="0 0 621.14 52.62">
  <defs>
    <style>
      .cls-1 {
        fill: #141414;
      }
    </style>
  </defs>
  <g id="_文字" data-name="文字">
    <g>
      <path class="cls-1" d="M5.45,46.19c-1.1-.75-3.54-3.36-5.28-5.74-.12-.17-.17-.35-.17-.46,0-.23.29-.29.7-.41,7.42-2.38,16.53-7.54,18.85-9.05.23-.12.35-.23.52-.23s.29.17.29.58c.06,1.04.35,3.13.75,4.64.06.12.06.29.06.41,0,.29-.12.58-.58.87-.81.41-12.06,7.66-12.64,8.06-.99.58-1.22,1.62-1.86,1.62-.17,0-.35-.12-.64-.29ZM17.86,51.75c-.41-1.51-2.44-4.41-3.77-5.68-.29-.29-.41-.46-.41-.58,0-.17.23-.23.46-.17,1.28.12,2.38.17,3.25.17,3.19,0,4.29-.7,4.41-2.26.23-4.41.35-11.37.35-18.1l-.06-6.79v-.64c-4.29.06-11.48.23-18.73.64h-.17c-.35,0-.58-.12-.64-.52-.06-.64-.06-1.8-.06-2.96s0-2.38.06-2.96c.12-.64.12-.7.87-.7,7.08.41,14.33.58,18.62.64-.06-3.77-.12-8.06-.52-10.85-.06-.17-.06-.29-.06-.41,0-.17.06-.23.29-.23,1.28,0,5.39.52,8,1.28.7.17.93.52.93.87,0,.81-1.1,1.97-1.39,3.07-.46,1.39-.58,3.83-.58,6.26l9.05-.17c-2.73-2.84-5.51-4.7-6.32-5.34-.41-.35-.64-.58-.29-.99.52-.87,2.84-3.25,3.31-3.65.12-.12.23-.17.41-.17.12,0,.29.06.58.23,1.39.7,5.74,3.42,7.08,4.87.12.12.17.23.17.35,0,.23-.12.52-.29.81-.58.99-1.97,2.9-2.78,3.83l8.35-.41h.12c.41,0,.58.29.64.7.06.7.06,2.15.06,3.48,0,.99,0,1.97-.06,2.49-.06.29-.35.52-.75.46-7.37-.41-14.96-.58-19.14-.64.75,2.38,1.91,5.22,3.6,8.18,3.31-2.49,6.32-5.22,7.54-7.08.23-.41.35-.64.52-.64.12,0,.29.12.64.41.99.75,3.83,3.48,5.1,5.28.29.35.41.7.41.93,0,.52-.64.81-1.62.99-.99.17-1.74.35-2.32.75-1.28.87-4.06,2.44-7.02,4.12,3.71,4.52,8.93,8.82,16.24,11.14.35.12.64.23.64.41,0,.12-.17.29-.75.64-1.62.93-4.47,2.32-5.92,3.71-.46.46-.81.64-1.16.64-.17,0-.35-.06-.58-.17-7.66-4.23-12.64-10.9-15.83-17.28,0,2.78.06,5.63.29,8.35.29,3.54.35,4.41.35,6.03,0,3.94-1.74,7.83-9.51,8.53h-.35c-.52,0-1.04-.17-1.22-.87ZM14.38,31.05c-2.73-2.78-8.18-5.57-9.51-6.21-.58-.23-.81-.46-.46-.99.41-.75,2.2-3.42,2.78-4.06.23-.23.41-.35.7-.35.12,0,.29.06.52.12,3.25,1.22,7.77,3.48,10.03,5.57.23.17.35.35.35.58,0,.17-.12.41-.23.75-.41.99-2.2,3.77-2.96,4.58-.23.23-.41.41-.58.41s-.35-.12-.64-.41Z"/>
      <path class="cls-1" d="M88.17,48.04c-.93-1.51-2.03-2.38-3.48-3.65-.17-.17-.29-.35-.29-.46,0-.17.17-.29.52-.35,6.09-.7,10.38-2.38,13.63-5.16,2.44-2.09,3.6-4.87,3.6-7.54s-1.22-5.34-3.54-6.9c-1.68-1.1-3.48-1.8-5.39-2.2-1.62,3.89-3.77,8.35-6.44,12.59.75.64,1.51,1.22,2.32,1.8.23.17.41.35.41.52,0,.12-.12.29-.29.52-1.1,1.33-3.6,3.89-4.41,4.47-.29.17-.52.23-.75.23-.17,0-.35,0-.46-.12l-1.22-1.16-1.16,1.39c-2.44,2.73-4.87,3.83-7.02,3.83-3.89,0-6.96-3.6-7.66-8.35-.06-.58-.12-1.22-.12-1.8,0-3.94,1.51-8.06,4.7-11.83.58-.64,1.22-1.28,1.86-1.8-.99-3.6-1.62-6.73-2.15-8.7-.06-.17-.06-.29-.06-.41,0-.35.17-.58.46-.81,1.28-1.04,3.77-2.67,5.45-3.25.12,0,.17-.06.23-.06.29,0,.41.23.52.75.35,2.9.75,5.8,1.39,8.64,2.84-1.33,5.92-2.15,9.05-2.44.75-2.55,1.22-5.1,1.39-7.48,0-.41.06-.93.64-.87,1.86.17,5.8,1.1,7.77,1.91.58.23.81.52.81.87,0,.87-1.91,1.97-2.26,3.25l-.87,2.73c1.86.41,3.71.99,5.45,1.8,5.86,2.67,8.82,7.77,8.82,13.05,0,4.52-2.15,9.16-6.44,12.59-3.42,2.78-8.93,4.7-13.11,5.16-.17,0-.35.06-.52.06-.64,0-.99-.23-1.39-.81ZM76.34,38.07l2.09-2.78c-1.33-2.15-2.38-4.47-3.31-6.79-1.8,2.49-2.67,4.52-2.67,6.55,0,2.38,1.04,3.94,2.26,3.94.52,0,1.1-.29,1.62-.93ZM86.2,21.77c-2.2.46-4.23,1.22-6.09,2.32.64,1.97,1.39,3.89,2.38,5.63,1.39-2.55,2.67-5.22,3.71-7.95Z"/>
      <path class="cls-1" d="M138.63,48.45c-1.04-1.74-1.91-2.38-2.78-3.42-.17-.23-.29-.41-.29-.58s.17-.29.64-.35c4.35-.35,10.96-1.04,16.59-4.41,2.49-1.62,3.65-3.65,3.65-5.45,0-2.49-2.2-4.64-5.97-4.76-3.71,0-8.53,2.26-11.14,4.7-2.2,2.09-2.38,2.78-3.19,3.94-.41.58-.87.87-1.39.99-1.33.29-3.07.41-4.29.29-.81-.12-1.04-.41-1.16-1.45-.06-.75-.12-1.57-.12-2.55,0-4.12.64-9.98,1.22-14.67.17-1.86.29-3.25.29-4.41,0-.52.17-.64.7-.64.75,0,4.18.46,6.03.87.52.12.75.35.75.58,0,.52-.7,1.33-.87,2.32-.46,1.91-1.22,6.84-1.33,8.41,0,.29.06.46.17.46.06,0,.23-.12.46-.29,4.64-3.36,9.57-4.99,13.98-4.99,7.71.06,13.63,5.28,13.63,11.43,0,3.77-2.26,7.83-7.71,11.25-4.99,3.13-10.79,3.94-15.37,4.18-1.51.06-1.91-.41-2.49-1.45ZM135.26,13.48l-2.2.06c-.35,0-.64-.17-.64-.52,0-1.22.52-4,.87-5.34.12-.46.35-.64.7-.64l4.06-.12c4.23,0,8.58.29,11.19.75.64.12.58.35.58,1.16-.06.87-1.04,4.58-1.45,5.45-.23.35-.41.64-.93.46-1.22-.41-5.92-1.28-12.18-1.28Z"/>
      <path class="cls-1" d="M191.01,50.71c-.41-.06-.58-.35-.58-.87l.12-10.96c-1.8,2.96-3.02,5.45-3.65,7.02-.12.23-.35.35-.58.35s-.46-.06-.75-.17c-1.16-.52-3.83-1.74-4.93-2.49-.29-.23-.46-.46-.46-.7,0-.17.12-.41.41-.7,1.39-1.45,2.67-3.02,4-4.64l-.12.12c-.41.52,4.81-6.84,6.5-12.64v-.46c-.23.29-.46.75-.58.87l.12-.64s-1.45.7-4.06,2.2c-.41.23-.7.35-.99.35s-.52-.12-.81-.35c-.75-.64-2.2-3.19-2.44-3.94-.17-.46-.35-.75-.35-.99,0-.29.23-.52.87-.75,1.97-.7,5.51-2.15,8.53-3.42.17-4,.41-8.41.52-12.59,0-.64.12-.87.75-.81,1.68.23,5.28.75,7.02,1.16.7.17.93.46.93.81,0,.93-1.62,2.44-1.97,4.23-.46,2.03-.75,4.06-.99,5.97.46.46.93,1.1,1.22,1.62.12.29.17.41.17.58s-.06.35-.23.87l-1.51,2.55c3.13-3.31,6.26-5.97,9.8-7.66,2.03-.99,3.83-1.45,5.39-1.45,4.64,0,6.96,4.06,6.67,10.03-.06,1.57-1.45,9.4-1.68,11.14-.06.64-.06,1.28-.06,1.8,0,2.67.7,3.65,1.8,3.65,1.57,0,4-1.97,6.5-4.29.35-.35.58-.52.75-.52.23,0,.29.29.41.81.41,2.26.81,3.19,1.22,3.83.23.35.35.7.35.99,0,.52-.29,1.04-.7,1.57-2.55,3.31-6.21,5.16-9.51,5.16-4.23,0-7.89-3.02-7.89-9.74,0-.81.06-1.68.17-2.61.58-4.23,1.68-10.21,1.68-11.48,0-2.67-.35-3.94-1.45-3.94-.58,0-1.33.29-2.38.99-4.12,2.49-7.71,6.21-11.14,10.32v2.84c0,4.12.12,9.57.87,15.95v.29c0,.46-.12.64-.64.75-.58.06-1.86.12-3.13.12s-2.49-.06-3.19-.12Z"/>
      <path class="cls-1" d="M254.87,47.69c-3.25-1.74-4.76-4.29-4.76-6.67,0-3.25,2.61-6.21,7.02-6.67.58-.06,1.16-.12,1.74-.12,4.12,0,8.87,1.57,10.21,7.13,2.67-2.03,4.18-4.81,4.18-7.37,0-2.15-1.04-4.12-3.19-5.39-1.45-.87-3.31-1.28-5.34-1.28-3.48,0-7.31,1.28-9.92,3.6-3.89,3.36-4,3.6-6.21,5.68-.29.35-.52.29-.87.12-.87-.52-4.41-3.36-5.05-4.18-.12-.12-.17-.23-.17-.41s.12-.35.29-.46c6.9-5.05,17.28-13.46,20.36-17.46.17-.23.23-.41.23-.46s0-.06-.06-.06c-.12,0-.29.12-.58.17-3.89,1.33-7.25,1.97-10.96,2.49-.17,0-.35.06-.52.06-.41,0-.58-.17-.87-.7-.52-.75-1.74-4.81-1.8-5.51,0-.87.12-1.1,1.1-.99.7.12,1.62.17,2.67.17,5.34,0,14.04-1.33,15.37-2.38.17-.12.35-.17.52-.17.35,0,.75.17,1.04.35.81.46,3.71,2.38,4.99,3.65.23.23.35.46.35.7,0,.75-1.33,1.39-1.74,1.8-1.97,1.91-3.48,2.9-8.58,7.77-.06.06-.17.23-.17.35,0,.17.12.29.46.23,3.36-.17,5.86.35,8.24,1.22,4.7,1.86,7.54,6.21,7.54,11.02,0,4.12-2.09,8.53-6.84,11.95-2.96,2.15-7.19,3.42-11.31,3.42-2.61,0-5.22-.52-7.37-1.62ZM258.75,39.52c-.35,0-.58,0-.75.06-1.04.23-1.51.81-1.51,1.45,0,.7.52,1.39,1.51,1.8,1.33.58,3.07.81,4.76.7-.35-3.31-2.67-4-4-4Z"/>
      <path class="cls-1" d="M300.36,50.59c-1.45-1.45-4.52-2.84-6.21-3.42-.46-.17-.7-.35-.7-.52s.17-.29.52-.41c17.57-6.38,22.39-23.55,22.85-35.67,0-2.09-.12-4.35-.58-5.97-.06-.12-.06-.29-.06-.35,0-.29.12-.41.52-.41,3.07.23,5.63.81,8.12,1.62.81.29,1.1.58,1.1.99,0,.58-.64,1.28-1.1,2.09-.35.64-.7,1.39-.87,2.32.12,13.69,8.47,28.59,24.07,34.74.41.12.58.29.58.46s-.23.35-.75.58c-1.86.87-4.23,2.15-6.03,3.54-.35.29-.64.41-.99.41-.23,0-.46-.06-.75-.17-9.63-4.87-16.07-14.91-19.31-24.19-3.19,9.34-8.93,19.08-18.91,24.65-.23.12-.41.17-.64.17-.29,0-.58-.12-.87-.46Z"/>
      <path class="cls-1" d="M366.64,51.58c-.46-.06-.52-.23-.46-.58.7-6.84.93-15.78.99-21.58-1.22,2.67-2.84,5.39-5.1,7.89-.23.23-.58.41-.93.41-.29,0-.52-.12-.75-.35-.99-1.04-3.65-2.32-5.05-2.78-.52-.17-.81-.41-.29-.75,5.86-3.83,9.69-10.09,12.06-14.96-2.38.06-5.34.23-7.66.46h-.12c-.17,0-.52-.12-.58-.52-.06-.46-.12-1.45-.12-2.44,0-1.22.06-2.55.12-3.07.06-.64.41-.52.7-.52,2.38.29,5.39.41,7.77.46-.06-4.52-.35-9.34-.99-12.06-.06-.17-.06-.29-.06-.41,0-.17.12-.17.52-.12,1.45.12,5.39.41,7.83,1.16.52.17.7.41.7.75,0,.7-.7,1.74-1.1,3.42-.29,1.39-.52,4.23-.64,7.25,2.32-.06,4.87-.17,6.9-.46.23,0,.7.06.7.46.06.52.06,1.97.06,3.31,0,.99,0,1.91-.06,2.38,0,.23-.35.46-.64.41-2.09-.29-4.81-.41-7.13-.46l-.06,2.78.17.12c.93.93,4.76,4.18,9.22,6.15.35.17.46.29.46.41,0,.17-.17.29-.41.52-.58.46-3.19,1.97-4.18,3.19-.17.23-.41.35-.7.35-.17,0-.41-.06-.58-.23-.99-.93-2.55-2.67-3.94-4.23l.23,9.4.12-.06c8.47-4.12,14.91-13.05,18.04-18.39-1.86.06-4.23.23-8.64.64-.29,0-.64-.12-.7-.58l-.06-2.73.06-2.9c.06-.64.29-.64.7-.64,5.39.46,7.71.58,9.8.64-.17-4-.52-8.87-1.16-12.01-.06-.17-.06-.29-.06-.35,0-.17.06-.23.23-.23.64,0,5.92.75,8.41,1.57.64.17.81.52.81.93,0,.58-.46,1.39-.87,2.09-.81,1.28-.75,2.78-.81,4.41v3.6c1.45-.06,3.07-.23,7.66-.64.29,0,.58.23.58.64.06.52.12,1.86.12,3.13,0,1.1-.06,2.09-.12,2.61,0,.29-.35.46-.58.46-4.29-.41-6.09-.58-7.6-.64v.99c.06,3.36.46,19.84.87,25.23.23,2.84-2.15,6.44-9.45,6.61-.52,0-.93-.35-1.1-.99-.46-1.62-2.55-3.77-4.12-5.68-.12-.12-.17-.23-.17-.29,0-.23.35-.35.87-.29,1.68.17,3.02.35,4.06.35,2.09,0,2.96-.52,2.96-2.2,0-4.99-.12-11.31-.17-16.01-3.25,5.68-7.13,10.44-11.95,14.73-.35.29-.64.41-.93.41s-.52-.12-.75-.35c-1.8-1.86-4-2.67-5.74-3.31l-.23-.12c.17,4.99.41,10.09.7,13.22v.06c0,.23-.23.35-.52.35-.75.06-2.26.12-3.71.12s-2.78-.06-3.42-.12Z"/>
      <path class="cls-1" d="M442.02,46.71c-.87-1.45-2.32-2.61-3.48-3.65-.23-.23-.41-.46-.41-.64s.23-.29.7-.29c13.57-.7,18.73-7.13,18.73-13.05,0-2.78-1.1-5.39-2.96-7.37-1.62-1.8-3.83-3.13-6.26-3.89h-.12c-.46,0-.64.29-.93.87-3.25,8.06-7.48,18.68-12.47,24.59-1.04,1.28-2.38,1.74-3.83,1.74-2.9,0-6.21-2.2-7.83-4.47-1.68-2.32-2.61-5.39-2.61-8.7,0-5.68,2.78-12.06,9.28-16.41,3.94-2.61,8.87-3.94,13.8-3.94,6.03,0,12.12,1.97,16.41,5.97,3.02,2.73,4.99,7.31,4.99,12.18,0,7.89-5.28,16.36-20.07,18.33-1.04.06-2.26,0-2.96-1.28ZM430.88,36.44c4.35-5.74,8.35-16.99,9.05-18.91-2.2.46-4.35,1.45-6.38,2.9-4.47,3.25-6.55,7.83-6.55,11.43,0,1.62.46,3.02,1.28,4,.64.64,1.22,1.1,1.74,1.1.35,0,.64-.17.87-.52Z"/>
      <path class="cls-1" d="M517.45,22.99c-1.57-1.39-3.13-2.67-4.64-3.71l-26.62,3.19c-1.04.12-1.68.64-2.2.64-.29,0-.52-.12-.81-.46-.75-.93-2.49-3.48-3.31-5.86,0-.12-.06-.17-.06-.23,0-.35.41-.23.87-.23,1.04.12,2.32.12,3.77.12,2.15,0,4.64-.06,7.25-.17.52-1.51.99-2.96,1.22-4.12-3.25.06-7.31.23-14.04.52h-.17c-.35,0-.58-.17-.58-.46-.06-.52-.06-1.57-.06-2.67s0-2.15.06-2.61q.06-.58.75-.58c10.21.46,14.21.52,18.5.52-.06-1.33-.23-3.25-.75-6.21,0-.12-.06-.23-.06-.35,0-.23.17-.29.58-.29,1.45.12,5.68.75,8.24,1.51.64.23.87.52.87.93,0,.87-1.04,2.15-1.39,3.31l-.29,1.1c4.58,0,9.34-.06,19.6-.52h.17c.35,0,.35.23.41.52.06.52.12,1.62.12,2.73s-.06,2.15-.12,2.67c0,.29-.17.46-.58.41l-11.95-.46c2.26,1.1,5.92,3.13,9.98,6.21.17.12.23.23.23.35,0,.17-.17.41-.35.7-.58,1.04-2.32,3.02-3.36,3.77-.17.12-.35.17-.46.17-.29,0-.52-.12-.81-.41ZM506.72,51.75c-.29-1.28-2.2-3.48-3.77-5.16-.12-.17-.23-.29-.23-.41s.17-.17.64-.12c1.22.12,2.26.17,3.13.17,2.26,0,3.19-.46,3.19-1.62l.06-1.97-8.58-.12-8.06.12c.12,5.63.29,4.93.35,8.99,0,.35-.41.58-.87.64-.64.06-1.57.12-2.61.12l-2.84-.12c-.52-.06-.75-.17-.75-.7.41-4.93.64-2.2.64-14.56,0-1.45-.12-8.06-.58-12.99,0-.23-.06-.41-.06-.52,0-.35.17-.41.99-.35,3.6.23,11.14.35,13.75.35s10.5-.12,14.67-.35h.17c.58,0,.7.29.64.81-.75,5.8-.64,10.79-.64,11.95s.12,3.65.58,9.98c.23,3.02-1.28,6.5-8.58,6.73h-.17c-.52,0-.93-.29-1.04-.87ZM509.73,37.89v-2.44l-8.58-.06-8.06.06v2.44l8.06.12,8.58-.12ZM509.67,30.76v-2.38l-8.7-.06-7.77.12-.06,2.26,7.95.12,8.58-.06ZM507.06,15.1l-1.33-.81c-.23-.12-.35-.29-.35-.41,0-.17.12-.29.29-.46.35-.35,1.04-.87,1.62-1.33h-5.51l-.52.23c-.52.17-.87.17-1.1.75-.29.81-.7,1.68-1.16,2.73l8.06-.7Z"/>
      <path class="cls-1" d="M553.56,51.87c-1.1-1.51-2.38-2.73-4.58-4.06-.29-.17-.46-.35-.46-.52s.17-.29.46-.35c8.82-1.39,14.5-5.57,18.33-10.56-2.78-6.38-4.06-13.46-4.81-19.6l-13.92.06.12,5.1,2.49.06c3.13,0,5.86-.23,9.4-.58h.23c.41,0,.58.12.58.58l-.06,2.49v2.96c0,3.25-.06,7.13-.87,10.09-1.1,4.23-4.18,6.61-9.16,6.21-.93-.06-1.28-.23-1.62-1.22-.58-1.57-.87-2.26-2.09-3.83-.93,4.81-2.44,9.34-5.1,12.76-.29.41-.52.58-.87.58-.17,0-.41-.12-.7-.23-1.74-.81-3.71-1.22-5.68-1.51-.35-.06-.58-.12-.58-.29s.12-.35.35-.52c5.86-5.63,7.42-16.01,7.42-24.71,0-6.03-.75-11.31-1.28-13.63-.06-.17-.06-.29-.06-.41,0-.35.23-.46.81-.41,3.6.41,13.86.58,20.01.64l-.23-3.31c-.17-2.78-.46-5.05-.75-6.55-.06-.35-.12-.58-.12-.75,0-.35.17-.41.75-.35,2.73.29,5.51.52,7.54,1.04.52.12.7.46.7.87,0,.81-.7,1.91-.93,2.78-.35,1.1-.29,1.86-.35,2.9l-.06,3.31c2.2,0,5.1-.06,8.64-.23-3.07-2.67-4.7-3.83-6.96-5.05-.46-.29-.64-.46-.35-.99.52-.87,2.61-3.42,2.96-3.77.17-.17.41-.23.58-.23s.35,0,.52.12c1.51.64,5.97,3.13,7.48,4.47.17.12.17.29.17.46,0,.23-.06.46-.17.7-.52,1.22-1.97,3.42-2.73,4.23l6.26-.35h.17c.41,0,.7.23.7.75v5.68c0,.41-.29.81-.99.75-6.32-.35-12.06-.58-16.01-.64.35,4.35,1.16,8.82,2.49,12.93.87-1.86,1.57-3.71,2.15-5.45.64-1.86,1.1-3.94,1.22-5.63,0-.35,0-.58.29-.58.12,0,.29.06.52.12,2.55.93,4.99,1.97,7.19,3.31.52.29.7.64.7.99,0,.75-1.04,1.45-1.8,1.97-.99.7-1.39,1.39-1.86,2.44-.93,2.26-2.44,5.97-5.05,10.03,1.68,2.73,3.89,5.1,6.55,6.79.17.12.35.17.46.17,1.16,0,1.33-3.13,1.33-6.03,0-.46.35-.52.7-.23,1.86,1.74,3.19,2.9,4.7,3.83.52.29.81.7.81,1.28,0,.12,0,.35-.06.52-1.68,6.38-3.71,8.87-6.26,8.87-1.04,0-2.2-.41-3.42-1.16-3.71-2.26-6.67-5.28-8.93-8.7-3.6,3.83-8.47,7.54-15.25,10.15-.29.12-.46.17-.64.17-.41,0-.7-.29-1.04-.75ZM553.62,35.98c.7-1.28.81-3.83.81-6.44v-1.97c-.7-.06-1.22-.06-2.03-.06l-3.77.06c-.06,3.07-.29,6.26-.75,9.34,1.33.12,2.32.23,3.13.23,1.51,0,2.15-.35,2.61-1.16Z"/>
      <path class="cls-1" d="M611.22,46.77c0-2.73,2.2-4.87,4.99-4.87s4.93,2.15,4.93,4.87-2.2,4.87-4.93,4.87-4.99-2.2-4.99-4.87ZM614.06,37.25c-.52-.06-.7-.41-.7-.81-.17-1.68-.99-9.69-1.28-13.46-.06-1.57-.46-16.01-.58-18.15,0-.52.41-.93.81-.99.93-.12,2.44-.17,3.94-.17,1.33,0,2.61.06,3.54.12.46,0,.87.41.87.99-.17,1.8-.58,16.36-.7,18.15-.35,3.83-.87,11.14-1.16,13.57-.06.52-.29.7-.7.75-.52.06-1.22.06-1.97.06-.7,0-1.45,0-2.09-.06Z"/>
    </g>
  </g>
</svg>