<?xml version="1.0" encoding="UTF-8"?>
<svg id="_レイヤー_2" data-name="レイヤー 2" xmlns="http://www.w3.org/2000/svg" viewBox="0 0 620.76 54.22">
  <defs>
    <style>
      .cls-1 {
        fill: #141414;
      }
    </style>
  </defs>
  <g id="_文字" data-name="文字">
    <g>
      <path class="cls-1" d="M28.96,53c-.17-.99-.58-1.91-1.16-2.73l-3.71-.06c-.46-.06-.58-.35-.58-.52l.17-1.1H7.38l.12,1.97c0,.12-.23.46-.52.46-.81.06-2.03.06-3.25.06s-2.38,0-3.19-.06c-.46,0-.58-.41-.52-.58.46-2.67.64-4.35.7-6.61,0-1.62,0-3.07-.41-4.81-.06-.12-.06-.23-.06-.29,0-.17.12-.29.52-.29,1.39.12,5.04.41,7.37.93.75.17,1.04.46,1.04.81,0,.52-.52,1.04-1.16,1.45-.7.41-.64,1.04-.7,1.97v.41l5.16.06c0-1.86,0-4.64-.29-6.5l-.52.06c-.81.06-1.68.06-2.49.06s-1.62,0-2.38-.06c-1.04-.06-1.39-.12-1.28-.93.64-4.64.58-15.37.64-16.53v-1.91c0-3.31-.06-8.41-.46-11.02,0-.17-.06-.35-.06-.46,0-.17.17-.23,1.1-.17,1.62.12,5.16.17,8.53.17.99-2.32,1.33-4.41,1.57-6.03.06-.75-.12-.81.93-.7,1.33.23,5.1,1.1,7.25,1.97.52.23.7.46.7.7,0,.52-.64,1.1-1.45,1.74-.7.58-.7.99-1.16,1.68l-.46.7c3.54-.06,8.76-.12,12.41-.29h.17c.7,0,.87.29.75.7-.41,2.49-.35,4.64-.35,6.38,0,1.51.06,7.71.41,9.86.06.23.06.41.06.52,0,.35-.23.41-1.22.52-.7.06-1.91.12-3.07.12-.7,0-1.33,0-1.8-.06-.64-.06-1.45.12-1.39-.64l-8-.12-7.83.12v1.97l10.73.06c3.42,0,16.59-.12,23.32-.58.29,0,.58.17.58.52.06.46.12,1.51.12,2.55,0,.81-.06,1.62-.12,2.09,0,.23-.41.41-.58.35-6.15-.46-19.89-.58-23.32-.58-3.6,0-7.25,0-10.67.17v1.91l13.75.06c4.06,0,12.3-.06,18.97-.35h.29c.46,0,.58.17.41.7-.7,2.15-1.28,10.21-3.71,14.56-2.49,4.41-5.86,6.73-12.18,6.44h-.23c-.58,0-1.04-.06-1.16-.81ZM28.84,19.59v-2.09l-8.24-.17-7.83.17v2.09l7.77.12,8.29-.12ZM28.84,13.21l-.06-2.03-7.71-.06-8.12.06-.06,2.03,7.66.12,8.29-.12ZM36.03,44.82c1.16-2.03,1.97-5.28,2.15-7.6H14.51c1.68.17,3.83.35,4.81.58.64.12.93.35.93.7,0,.29-.35.7-.93,1.1-.29.17-.29.46-.35.75-.12.75-.17,2.38-.17,3.71h5.28c-.06-1.45-.17-3.07-.58-4.93v-.12c0-.17.12-.35.35-.35,1.33,0,4.81.35,7.13.75.75.17,1.1.41,1.1.75,0,.41-.58.93-1.22,1.28-.7.35-.58.99-.64,1.97l-.06,1.45.12,2.49.99.06c2.67,0,3.77-.87,4.76-2.61Z"/>
      <path class="cls-1" d="M69.07,53.06c-.93-.06-1.04-.35-.99-.93.41-3.25.41-6.03.41-7.13v-.93c-1.1,2.09-2.49,4.06-4.41,5.86-.23.23-.46.35-.7.35-.17,0-.35-.06-.58-.17-1.1-.58-3.65-1.28-5.28-1.45-.52-.06-.58-.23-.17-.52,7.25-5.1,8.82-14.56,8.82-21.11,0-2.09-.17-3.83-.35-5.1l-1.04.7c-.23.17-.46.23-.7.23s-.52-.12-.75-.35c-.81-.87-2.9-2.09-4.29-2.61-.58-.23-.87-.58-.35-.87,9.98-5.34,15.2-14.21,16.24-16.94.23-.52.46-.58.99-.46,1.68.46,3.25,1.1,5.22,2.26.46.23.64.46.64.7,0,.35-.46.7-.99,1.04,2.09,1.8,7.54,6.44,11.89,8.41-.12-2.15-.35-4.41-.75-6.32,0-.12-.06-.23-.06-.35,0-.29.17-.41.52-.41,2.2.17,5.51.93,7.31,1.45.58.17.81.46.81.81,0,.52-.41,1.16-.93,2.03-.64,1.16-.64,2.55-.7,4.47v7.37c0,4.76.29,12.3.64,16.24v.12c0,.29-.29.46-.58.46-.81.06-1.91.06-3.02.06-1.16,0-2.26,0-3.07-.06-.46-.06-.58-.23-.58-.58.41-5.16.58-11.6.58-16.24v-2.55c0-1.51,0-3.42-.12-5.39-2.15.93-3.88,1.8-5.34,3.48-.17.23-.35.35-.58.35-.12,0-.29-.06-.46-.23-.7-.58-1.51-1.28-2.32-2.09l-.12,1.45c0,.23-.23.35-.52.29-3.19-.29-3.88-.29-6.44-.29-2.26,0-2.55,0-5.8.29h-.12c-.23,0-.35-.12-.41-.41v-.23l-2.26,2.15c2.96.17,5.63.23,8.35.23,3.02-.06,7.66-.17,10.79-.41h.17c.41,0,.52.23.52.7-.23,2.73-.23,6.21-.23,8.06,0,2.15.12,4.64.41,8.24v.17c0,.41-.23.64-.81.64-.75.06-1.86.06-2.84.06-.75,0-1.39,0-1.8-.06-.75-.06-.81-.29-.81-.7v-.41l-5.39-.12-5.63.12-.52,2.26c2.26.12,6.03.17,8.18.17,2.49,0,6.73-.12,9.74-.29h.17c.41,0,.52.23.52.64-.35,4.23-.23,4.87-.23,6.15,0,1.1,0,1.74.35,5.97v.23c0,.64-.23.75-.93.87-.52.06-1.68.12-2.67.12-.64,0-1.22,0-1.57-.06-.75-.12-.81-.29-.81-.81l.06-1.22-4.64-.12-4.7.12.06,1.74v.23c0,.52-.17.58-.93.64-.64.06-1.39.06-2.09.06-.75,0-1.45,0-2.03-.06ZM82.3,32.41v-2.2l-5.51-.12-4.99.06-.17,2.2,5.16.12,5.51-.06ZM82.3,26.15l-.06-1.91h-5.51l-4.93.06v1.86l4.99.06,5.51-.06ZM83.46,45.52v-.7c0-.93-.06-1.28-.06-1.28l-4.64-.06-4.7.06s-.06,0-.06,1.39v.58l4.76.12c1.45,0,2.78,0,4.7-.12ZM76.96,13.5c1.51,0,2.44,0,3.89-.12-1.33-1.45-2.61-2.9-3.48-4-.75,1.1-1.74,2.55-2.96,4.12h2.55ZM99.76,52.19c-.41-1.68-1.62-3.48-3.71-5.92-.12-.17-.17-.29-.17-.35,0-.17.17-.29.46-.23,1.68.17,3.02.35,4.06.35,1.68,0,2.49-.41,2.55-1.68l.06-9.05-.06-13.92c0-2.03.12-12.06-1.04-17.75,0-.12-.06-.23-.06-.29,0-.29.17-.46.58-.46.87,0,5.57.7,8.06,1.51.64.17.87.52.87.87,0,.58-.52,1.33-.99,2.09-.87,1.33-.81,2.84-.87,4.47-.12,2.15-.12,4.52-.12,6.5v3.07c0,4.29.12,19.66.46,25.87.17,3.02-3.07,5.92-9.11,5.92-.41,0-.81-.29-.99-.99Z"/>
      <path class="cls-1" d="M136.47,46.5l-5.92,5.16c-.81.7-1.04,1.57-1.62,1.57-.17,0-.41-.12-.64-.29-.93-.7-3.42-3.19-5.04-5.34-.12-.17-.17-.35-.17-.46,0-.23.29-.29.64-.41,3.42-1.22,6.61-3.31,8.99-5.22.17-5.05.46-9.11.35-11.37-.64-.06-1.22-.06-1.74-.06-1.62,0-3.02.17-4.7.7-.17.06-.35.12-.46.12-.35,0-.46-.23-.46-.64-.12-1.16-.17-4.58-.12-5.92.06-.64.29-.87.87-.75,2.2.29,3.42.58,5.74.58,1.68,0,3.94-.17,7.48-.46h.12c.52,0,.75.46.7.99-.41,2.26-.75,5.97-.81,9.05l-.12,7.13c1.86,5.28,9.51,6.03,15.95,6.03h1.8c3.07-.06,15.6-1.39,19.54-2.73.12-.06.23-.06.29-.06.29,0,.35.23.17.64-1.51,2.84-2.49,4.81-2.84,6.61-.12.7-.52,1.16-1.33,1.33-3.54.7-16.7.81-17.4.87-8.76-.12-16.36-2.96-19.26-7.08ZM137.52,14.84c-2.55-2.2-5.97-3.83-8.82-5.05-.46-.17-.52-.52-.35-.99.46-.99,2.15-3.89,2.55-4.35.29-.35.46-.41.99-.23,2.55.64,6.5,1.62,9.69,4.18.23.17.29.35.29.58,0,.17-.06.41-.12.64-.35.87-2.32,4.41-2.96,5.22-.17.23-.35.41-.52.41-.23,0-.46-.17-.75-.41ZM141.29,25.57c-.06-.52-.06-1.51-.06-2.44,0-.99,0-1.97.06-2.44,0-.52.12-.64.58-.58,5.92.41,9.16.52,13.05.58l.06-4.47-5.16.12c-.64,1.33-1.33,2.55-1.86,3.42-.17.17-.41.29-.64.29-.17,0-.29-.06-.46-.12-1.8-.93-3.02-1.45-4.81-1.8-.58-.12-.87-.17-.41-.64,3.36-3.94,5.74-9.51,5.86-10.96,0-.35.06-.64.52-.52,2.15.7,3.71,1.28,5.04,2.26.58.41.99.7.99,1.04,0,.29-.41.64-1.33,1.22-.35.23-.46.41-.58.75l2.84.06c-.06-2.55-.29-5.28-.99-8.18-.06-.17-.06-.29-.06-.35,0-.29.17-.35.58-.29,2.84.23,4.99.64,7.54,1.33.58.17.81.41.81.75,0,.41-.41,1.04-.93,1.86-.64,1.16-.87,2.44-.93,3.65l-.06,1.22c2.15-.06,4.99-.23,9.63-.64.29,0,.52.12.58.58.12.52.12,1.51.12,2.49s0,1.97-.12,2.61c0,.23-.23.41-.52.35-4.47-.35-7.48-.46-9.74-.52l.06,4.47c3.6-.06,7.02-.23,13.28-.58h.17c.23,0,.46.12.52.46.06.46.12,1.28.12,2.15,0,1.1-.06,2.26-.12,2.96-.06.23-.29.41-.7.41-7.31-.58-11.25-.7-16.01-.7-5.1,0-9.51.35-16.12.7-.52,0-.81-.12-.81-.52ZM147.21,45.05c-.93-.06-1.22-.12-1.1-1.04.46-3.77.46-7.37.46-8.41.06-2.49,0-4.58-.23-7.08,0-.23-.06-.41-.06-.52,0-.29.17-.35.93-.29,1.62.17,8,.35,11.02.35s7.31-.17,10.73-.35h.17c.52,0,.64.23.58.7-.35,3.83-.35,6.5-.35,7.66,0,.93.06,3.25.41,7.19,0,.23.06.41.06.52,0,.41-.17.46-1.1.64-.52.06-1.57.12-2.61.12-.87,0-1.74-.06-2.26-.12-.64-.12-.87-.17-.87-.75v-.29l-4.81-.12-5.28.12.06.75c0,.75-.12.87-1.04.93-.7.06-1.57.06-2.44.06-.81,0-1.62,0-2.26-.06ZM163.15,38.09v-2.67l-.06-2.26-4.99-.12-5.22.12-.06,2.38v2.49l5.28.12,5.04-.06Z"/>
      <path class="cls-1" d="M205.33,52.48c-.46-1.51-2.2-3.48-3.83-5.34-.12-.12-.12-.17-.12-.29,0-.23.29-.35.87-.29,1.8.17,3.13.29,4.12.29,2.61,0,2.96-.64,2.96-2.09l.06-2.2c-3.6.06-6.15.29-15.02.58h-.12c-.23,0-.35-.17-.35-.52-.06-.46-.06-1.28-.06-2.15,0-.81,0-1.62.06-2.09.06-.58.23-.52.58-.52,9.46.58,11.19.58,14.96.58v-2.26c-5.57,0-11.02,0-21.58.52-.46,0-.7-.12-.75-.46-.06-.46-.06-1.33-.06-2.26s0-1.86.06-2.26c.06-.52.06-.58.81-.52,10.55.46,15.78.52,21.52.52v-1.86c-2.32,0-7.08.12-15.08.46-.17,0-.46-.12-.46-.52-.12-1.1-.17-2.49-.12-3.65.06-.64.41-.64.75-.64,8.06.46,12.59.52,14.91.52v-2.26l-6.73.06c-.06.46-.29.58-.87.7-.41.06-1.45.06-2.55.06s-2.2,0-2.67-.06c-.87-.12-.99-.23-.87-1.04.46-3.19.41-4.12.41-5.68,0-.52-.12-.99-.29-4.12v-.52c0-.29.12-.29.12-.29,0,.06,8.29.29,13.34.29l-.06-2.09c-4.93,0-10.61.06-19.2.58h-.12c-.35,0-.46-.17-.46-.52-.06-.52-.06-1.45-.06-2.44s0-1.97.06-2.44c.06-.58-.06-.58.58-.52,7.13.41,12.24.52,16.65.52h2.38c-.12-1.97-.29-3.65-.52-4.93,0-.17-.06-.23-.06-.35,0-.35.23-.23.81-.23,1.68,0,5.45.52,7.71,1.39.52.23.75.52.75.87,0,.41-.35.93-.87,1.51-.52.58-.75,1.1-.93,1.74,4.87,0,9.74-.06,18.44-.52.46,0,.46.17.52.52.06.58.12,1.57.12,2.55s-.06,1.91-.12,2.49c-.06.23-.17.41-.52.35-8.64-.52-13.98-.58-18.73-.58v2.15c4-.06,10.44-.23,12.76-.35.58,0,.7.17.64.64-.12,1.51-.12,2.73-.12,3.77v1.74c0,1.1.17,2.67.35,4.23v.35c0,.35-.12.58-.87.7-.52.06-2.15.17-3.48.17-.75,0-1.45-.06-1.8-.12-.46-.06-.7-.17-.75-.52l-6.84-.12v2.32c4.58-.06,11.54-.17,14.09-.46h.17c.35,0,.35.17.29.64-.29,1.22-.41,3.07-.46,5.28l7.6-.29h.12c.41,0,.35.23.35.52.12.46.12,1.39.12,2.32s0,1.86-.12,2.38c0,.23-.06.41-.46.35l-7.54-.29c.12,2.15.23,4.35.41,6.21,0,.58-.41.81-.81.87-.81.12-1.97.23-3.02.23-.87,0-1.62-.06-2.15-.17-.46-.06-.75-.46-.7-.81v-.29h-2.2l-5.28.06.17,3.07c.23,4-.46,7.66-9.86,7.83-.46,0-.81-.29-.99-.99ZM209.45,17.16l-6.79.06-.06,1.51v.99l6.84.06v-2.61ZM222.62,19.71v-2.49l-6.96-.06v2.67l6.96-.12ZM223.78,31.89v-2.09h-8.12v2.2l8.12-.12ZM223.72,38.38l.06-2.26-8-.12.06,2.44,7.89-.06Z"/>
      <path class="cls-1" d="M271.86,52.94c-.41-.06-.46-.29-.46-.64.29-3.54.58-6.61.75-10.21-4.41,4.23-9.22,7.71-16.59,10.38-.23.12-.46.23-.75.23s-.58-.17-.93-.52c-1.62-1.74-3.77-3.02-5.45-3.94-.29-.17-.46-.35-.46-.52,0-.12.12-.23.41-.23,9.05-1.39,16.18-5.57,20.59-8.93-3.65.06-6.79.17-15.31.58-.46,0-.75-.12-.81-.46l-.06-2.26.06-2.26c.12-.52.12-.58.87-.52,10.38.46,13.98.52,18.5.52l-.06-2.15c-4.64,0-6.03.12-13.57.52-.41,0-.58-.12-.64-.46l-.06-1.97.06-1.91q.06-.52.64-.46c6.79.35,9.63.46,13.4.46l-.23-2.32c-5.74,0-7.6,0-16.18.52-.41,0-.7,0-.75-.41-.06-.46-.06-1.28-.06-2.15s0-1.68.06-2.09c.06-.52.23-.52.81-.52l10.27.41-1.62-1.62c-.29-.35-.46-.58-.06-.93l2.32-1.57c-3.6.12-7.89.29-14.5.64-.46,0-.7-.12-.75-.52l-.06-2.44.06-2.44c.06-.58,0-.58.75-.52l8.47.41c-1.28-1.8-3.19-3.77-3.94-4.47-.35-.29-.46-.46-.06-.81.87-.7,3.19-2.44,3.94-2.84.12-.06.17-.12.29-.12s.23.06.46.17c1.16.81,4.41,3.71,5.34,5.1.12.17.17.29.17.41,0,.17-.06.29-.23.52-.35.41-1.33,1.33-2.32,2.15l3.36.06c0-2.61-.06-7.02-.58-10.5v-.23c0-.12.23-.17.64-.17,1.33,0,4.58.58,6.73,1.22.58.17.75.46.75.81,0,.75-.93,1.8-1.22,2.84-.35,1.28-.41,4.12-.41,6.09h2.84c0-2.61-.06-6.96-.58-10.56v-.23c0-.17.06-.23.23-.23,1.04,0,4.81.58,7.13,1.28.58.17.75.46.75.81,0,.75-.93,1.8-1.22,2.84-.41,1.33-.41,4.06-.41,6.03h.23c2.15-3.07,3.77-6.15,4.35-8.12.17-.46.23-.7.41-.7.12,0,.29.06.58.17,1.04.46,3.83,2.09,5.34,3.36.35.29.46.52.46.7,0,.41-.52.64-1.16,1.04-.81.46-.93.87-1.57,1.57l-1.68,1.8,9.28-.41c.52,0,.52.17.58.58.06.58.12,1.51.12,2.49,0,.93-.06,1.86-.12,2.44,0,.23-.17.41-.58.41-6.84-.41-11.66-.58-15.72-.64,1.22.64,2.49,1.33,2.96,1.91.23.23.29.46.29.64,0,.46-.58.75-1.45,1.1-.46.17-.75.29-.99.52l10.32-.46h.12c.41,0,.41.23.46.52.06.46.12,1.33.12,2.15,0,.87-.06,1.68-.12,2.15-.06.23-.17.35-.52.35l-15.02-.52c-.12.17-.23.29-.46.46-.35.23-.41.46-.41.81l-.06,1.04c4.12,0,5.1-.06,12.41-.52.46,0,.46.17.46.46.06.46.12,1.28.12,2.03,0,.81-.06,1.57-.12,2.03,0,.23-.17.35-.46.35-7.66-.41-8.82-.52-12.64-.52l-.12,2.15c5.34,0,8.58,0,18.85-.52.52,0,.52.17.58.52.06.52.12,1.45.12,2.38,0,.87-.06,1.8-.12,2.26-.06.23-.17.35-.58.35-7.19-.35-11.25-.52-14.79-.52,4.41,2.96,11.48,6.61,20.42,7.6.46,0,.7.17.7.35,0,.23-.29.58-.75.87-1.97,1.1-4.52,2.67-6.09,4.29-.29.29-.52.41-.81.41-.17,0-.41-.06-.7-.17-5.57-2.09-12.35-6.03-16.76-10.27.12,3.77.46,6.96.7,10.79.06.29,0,.46-.29.46-.75.12-2.2.17-3.54.17-1.22,0-2.26-.06-2.67-.17ZM276.5,21.74c1.39-1.39,1.97-3.07,2.32-4.29h-3.83l-5.51.06c1.04.75,2.49,2.09,3.42,3.36.12.17.17.29.17.41,0,.17-.12.35-.23.46h3.65Z"/>
      <path class="cls-1" d="M334.99,47.95c-.87-1.45-2.32-2.61-3.48-3.65-.23-.23-.41-.46-.41-.64s.23-.29.7-.29c13.57-.7,18.73-7.13,18.73-13.05,0-2.78-1.1-5.39-2.96-7.37-1.62-1.8-3.83-3.13-6.26-3.89h-.12c-.46,0-.64.29-.93.87-3.25,8.06-7.48,18.68-12.47,24.59-1.04,1.28-2.38,1.74-3.83,1.74-2.9,0-6.21-2.2-7.83-4.47-1.68-2.32-2.61-5.39-2.61-8.7,0-5.68,2.79-12.06,9.28-16.41,3.94-2.61,8.87-3.94,13.8-3.94,6.03,0,12.12,1.97,16.41,5.97,3.02,2.73,4.99,7.31,4.99,12.18,0,7.89-5.28,16.36-20.07,18.33-1.04.06-2.26,0-2.96-1.28ZM323.86,37.69c4.35-5.74,8.35-16.99,9.05-18.91-2.2.46-4.35,1.45-6.38,2.9-4.47,3.25-6.55,7.83-6.55,11.43,0,1.62.46,3.02,1.28,4,.64.64,1.22,1.1,1.74,1.1.35,0,.64-.17.87-.52Z"/>
      <path class="cls-1" d="M390.98,53.17c-.46-.06-.64-.17-.64-.52.23-3.19.41-8.24.46-13.11-5.92,2.09-11.43,4.12-13.22,4.64-.81.23-1.51.93-2.15.93-.29,0-.52-.12-.75-.41-.93-1.22-2.84-4.76-3.31-5.74-.06-.12-.12-.23-.12-.29,0-.29.41-.35.81-.35,1.22-.06,3.25-.41,5.62-.93.12-3.83.17-9.8.17-15.54,0-4.47-.06-8.76-.17-11.72l-3.89.35h-.12c-.35,0-.52-.17-.58-.58l-.06-2.61.06-2.61c.06-.52.29-.7.7-.64,6.38.7,12.82.58,13.98.64,1.04,0,7.37,0,13.51-.7.52,0,.64.23.75.64.06.58.12,1.62.12,2.67s-.06,2.09-.12,2.78c-.06.29-.35.46-.64.46l-2.84-.29-.75.58c-.35.29-.46.41-.58,1.86-.12,1.68-.12,8.53-.12,12.82,0,3.77.35,14.33.7,21.98,3.94-2.49,7.02-5.45,9.34-8.41-3.6-6.67-4.93-13.17-5.57-16.99v-.29c0-.35.06-.52.29-.64.93-.41,3.48-.7,4.87-.7.64,0,.99.06.99.41.23,2.96,1.1,7.37,3.31,11.95,3.02-6.15,3.65-11.77,4.06-14.09l-5.57.06c-4.29,0-6.32.06-9.92.35h-.17c-.41,0-.52-.23-.52-.52-.06-.35-.06-1.8-.06-3.07,0-.99,0-1.8.06-2.09.06-.41.12-.64.7-.58,3.77.35,5.51.46,9.98.46l7.66-.06c1.22-.06,1.33-.58,1.8-.58.17,0,.35.06.58.17.64.35,2.38,1.68,3.31,2.55.41.41.58.7.58.93,0,.29-.29.46-.58.81-.58.7-.93,1.22-1.1,2.38-.52,3.13-2.03,11.31-6.84,19.55,2.9,3.6,6.9,6.96,12.35,9.28.46.17.64.35.64.46,0,.23-.35.35-.93.64-2.44,1.04-4.52,2.15-6.03,3.42-.23.23-.52.29-.75.29s-.52-.06-.75-.23c-3.48-2.38-6.26-5.16-8.53-8-2.26,2.78-5.04,5.45-8.35,7.77-.12.12-.35.23-.58.23-.17,0-.35-.06-.46-.23-1.16-1.22-2.44-1.86-3.65-2.32l.12,2.15v.12c0,.29-.29.46-.58.52-.81.06-2.09.06-3.3.06s-2.44,0-3.19-.06ZM390.98,24.46v-4.18l-3.31-.12-3.71.12-.06,4.23,3.71.06,3.36-.12ZM390.92,33.92l.06-3.77-3.31-.12-3.77.12.06,5.74c2.67-.7,5.22-1.45,6.96-1.97ZM390.98,14.6v-1.57c-.06-1.28-.06-2.15-.23-3.19l-2.96-.06-3.07.06-.12.06c-.7.46-.64.58-.64,1.22v3.54l3.65.06,3.36-.12Z"/>
      <path class="cls-1" d="M440.06,48.13h-.23c-.35,0-.52-.12-.35-.52,2.26-4.12,3.6-8.93,3.48-12.82v-.46c0-.23.06-.41.41-.41.87,0,3.89.64,5.74,1.1.58.17.81.35.81.58,0,.35-.52.81-.93,1.51-.41.7-.41,1.04-.58,1.86-.29,1.74-.99,6.5-1.97,9.05-.17.46-.52.64-1.04.46-1.04-.41-4-.41-5.34-.35ZM449.86,52.94c-.46-.12-.52-.29-.52-.7.7-9.05.75-14.09.87-21.29l-5.34.93c-.87.17-1.45.7-1.91.7-.23,0-.41-.12-.64-.46-.58-.99-1.33-3.25-1.86-5.8,0-.12-.06-.17-.06-.29,0-.35.35-.29.81-.23h3.65c.81-.81,1.8-2.03,2.84-3.36-2.38-2.44-5.57-4.58-6.73-5.39-.41-.23-.58-.41-.23-.81.7-.81,2.03-2.44,2.67-3.02.29-.23.41-.29.75-.12l.46.29c2.15-3.6,3.89-7.71,4.47-11.25.12-.35,0-.75.52-.7,1.22.17,4.47,1.57,5.86,2.49.7.46.99.81.99,1.16,0,.52-.64.99-1.45,1.62-.52.52-.75.87-.99,1.39-.99,1.86-3.31,5.51-4.93,8.06.7.46,1.39.99,2.03,1.51,2.44-3.54,4.58-7.08,5.05-8.82.12-.41.06-.75.58-.64,1.16.35,4.12,2.09,5.34,3.19.64.58.93.99.93,1.33,0,.58-.7.93-1.62,1.39-.7.41-1.1.81-1.62,1.45-1.45,1.86-5.34,6.61-8.12,9.98l5.39-.41-1.28-2.32c-.12-.23-.17-.41-.17-.52,0-.17.12-.29.41-.41.93-.46,2.78-1.28,3.65-1.45.12-.06.23-.06.29-.06.17,0,.29.06.46.29,1.51,2.03,3.94,6.21,4.87,8.58.06.12.06.23.06.35,0,.23-.06.35-.29.52-.87.58-3.07,1.68-4.41,2.2-.06.06-.17.06-.23.06-.23,0-.46-.17-.52-.41-.17-.75-.46-1.57-.75-2.32l-2.38.29c.06.06.06.12.06.23,0,.17-.17.41-.52.75-.35.29-.41.64-.41,1.22.12,6.55.12,10.15.93,20.18v.12c0,.29-.12.46-.35.46-.81.12-2.2.17-3.54.17s-2.55-.06-3.07-.17ZM458.97,44.88c-1.1-2.96-2.2-8.53-2.32-9.98v-.23c0-.23.06-.35.35-.41.87-.29,3.02-.81,3.83-.93h.29c.17,0,.35.06.41.46.17,1.16,1.45,5.8,3.65,9.51.06.06.06.12.06.17,0,.17-.12.35-.46.41-1.16.23-3.6.75-4.87,1.33-.12.06-.23.12-.35.12-.23,0-.46-.17-.58-.46ZM459.26,51.61l-.06-2.73.06-2.49c.12-.7.17-.81.7-.75l6.38.46.06-6.96v-9.28c0-10.03-.41-19.14-.75-23.43,0-.41.06-.64.52-.58,3.54.29,8.7.41,10.67.41,1.86-.06,6.79-.06,10.73-.41h.23c.46,0,.58.17.58.75-.52,7.83-.7,13.63-.7,23.03s.06,11.89.17,16.3l4.47-.35c.35,0,.52.17.58.58.06.58.12,1.91.12,3.25l-.06,2.32c0,.35-.41.46-.64.46-8.24-.7-13.69-.7-16.24-.7-3.07,0-7.71,0-16.18.7h-.12c-.23,0-.46-.17-.52-.58ZM477.47,31.95l4.12.06v-7.37h-9.16v7.37l5.05-.06ZM476.08,46.33l5.39-.06.12-8.93h-9.16l.12,8.99h3.54ZM481.53,19.19l-.12-7.6-4.52-.12-4.35.12-.06,7.6h9.05Z"/>
      <path class="cls-1" d="M509.57,52.77c-.41-.06-.46-.23-.46-.58.64-6.15.93-14.5,1.04-19.95-.58,1.45-1.28,2.84-2.15,4-.17.23-.46.46-.81.46-.12,0-.29-.06-.41-.17-1.04-.99-3.6-1.86-4.87-2.26-.46-.12-.75-.29-.29-.64,4.41-3.54,6.96-9.05,8.53-13.4-1.39.06-3.07.23-4.87.46-.12,0-.46-.12-.52-.58-.06-.58-.06-1.62-.06-2.67,0-1.1,0-2.15.06-2.61.06-.64.35-.58.52-.52,1.8.23,3.54.35,4.87.46-.06-4.87-.29-9.86-.75-12.35v-.17c0-.29.17-.35.46-.35,1.04,0,4.35.35,6.79,1.22.46.17.64.41.64.75,0,.64-.64,1.68-.99,3.36-.29,1.45-.46,4.35-.58,7.42l2.78-.35h.17c.17,0,.35.06.35.41.06.46.12,1.57.12,2.67,0,1.04-.06,2.2-.12,2.84,0,.29-.29.52-.75.41l-2.67-.35c.7.81,2.15,3.02,4.47,4.64v-5.86c0-5.45-.12-7.71-.52-12.12-.06-.29-.06-.46-.06-.64,0-.23.17-.29.93-.23,2.32.29,4.76.41,6.67.35,2.09-.12,3.42-.12,7.08-.35h.17c.52,0,.64.23.58.81-.29,3.31-.41,6.15-.41,8.76l.06,3.13c.06,3.83.06,6.67.52,10.32v.58c0,.52-.12.81-.99.93-.58.06-1.28.06-1.91.06-.75,0-1.45,0-1.97-.12-.46-.06-.93-.06-.87-.99v-.75c-.52,0-1.39-.12-2.2-.12l-1.51.12.06,9.34,3.48-1.39c-.81-.87-1.45-1.39-1.74-1.62-.23-.17-.35-.29-.35-.46,0-.12.06-.23.23-.41.7-.7,2.38-2.03,3.02-2.49.29-.17.35-.17.7,0,1.04.64,4.93,3.54,7.08,6.79.17.29.35.41,0,.81-.99,1.28-2.55,2.61-3.89,3.6-.23.17-.52.17-.7-.12l-1.1-1.97c-2.9,1.16-8.58,3.83-10.38,4.99-.75.46-1.16,1.16-1.68,1.16-.17,0-.35-.12-.52-.29-.75-.7-2.55-2.78-3.6-4.87-.06-.17-.12-.23-.12-.35,0-.23.29-.29.64-.35l2.96-.87.29-12.88c-.81.64-1.8,1.45-2.26,2.03-.17.23-.41.41-.64.41-.12,0-.29-.06-.41-.29-.35-.58-.75-1.33-1.16-2.2,0,3.13.41,18.62,1.04,25,0,.29-.17.35-.46.41-.64.06-1.86.12-3.02.12-1.45,0-2.96-.06-3.54-.12ZM530.74,52.71c-1.28-1.57-2.96-2.15-4.93-3.42-.23-.12-.29-.23-.29-.35,0-.17.17-.29.58-.41,9.74-2.67,16.24-12.3,18.15-20.53-1.86,0-3.13.06-8.12.58-.17,0-.35-.12-.41-.52l-.06-2.49.06-2.38c.06-.58.12-.64.41-.64l1.51.12.06-4c0-3.19-.06-5.63-.29-7.54l-1.04.12c-.17,0-.35-.12-.41-.52l-.06-2.49.06-2.26c.06-.58.12-.7.41-.64,4.52.41,6.32.52,8.93.52s4,0,8.99-.46c.17-.06.35.23.35.64,0,.93.06,3.77,0,4.81,0,.29-.23.41-.35.41l-3.71-.41c.52.17.93.29,1.22.46.41.23.58.41.58.64,0,.29-.29.64-.64,1.1-.64.7-.81,1.45-.87,2.03-.23,2.32-.41,4.23-.87,8,1.39-.12,3.13-.23,5.45-.52.23,0,.35.29.35.64.06.52.06,1.74.06,2.9,0,.87,0,1.62-.06,2.09,0,.29-.17.41-.35.41-2.84-.29-4.76-.41-6.26-.52l-.81,3.07.81.35c.41.23.64.52.64.93,0,.35-.23.81-.58,1.39-.41.75-.41,1.16-.46,2.2-.12,2.38-.17,4.47-.17,6.32,0,1.28,0,2.49.12,3.65.06.52.23.75.7.87.29.06.52.06.81.06.41,0,.81-.06,1.16-.23.64-.29.93-.58.87-5.05,0-.17.06-.29.17-.29.06,0,.17.06.35.29,1.62,2.09,3.31,2.84,4.29,3.19.41.12.46.29.46.81-.23,4.06-1.74,6.03-4.64,6.55-1.1.17-2.2.29-3.31.29-1.04,0-2.15-.12-3.25-.35-2.61-.64-3.42-2.96-3.31-5.05l.23-4.76c-2.84,4.52-6.55,8.47-11.14,10.96-.17.12-.35.12-.46.12-.41,0-.58-.29-.93-.7ZM529.34,15.18l-.06-4.18-2.26-.06-1.33.06-.06,4.23,1.39.06,2.32-.12ZM529.4,24.17l-.06-4.47c-.58-.06-1.51-.17-2.26-.17l-1.45.12v4.58l1.45.06,2.32-.12ZM544.95,23.07c.41-4.18.58-7.89.58-10.5l-.06-1.97h-1.68c-.06.17-.17.35-.35.52-.23.29-.35.75-.41,2.26-.06.87-.12,4.99-.12,9.69h2.03Z"/>
      <path class="cls-1" d="M611.95,53.93c-3.65-3.25-8-5.57-12.24-7.13-3.6,3.42-10.15,6.67-23.2,7.13-1.28.06-1.51-.12-1.91-1.1-.46-1.16-2.03-3.07-4.12-4.99-.12-.12-.23-.29-.23-.35,0-.12.17-.23.52-.17,2.38.17,4.52.29,6.5.29,7.31,0,12.06-1.28,15.2-2.9-1.57-.35-3.02-.58-4.35-.7l-.35.87c-.12.35-.35.46-.7.46-1.91-.06-4.64-.35-6.32-.7-.52-.12-.75-.35-.52-.7,2.32-3.25,4.18-6.61,4.93-8.12-3.71.06-7.95.23-14.56.58-.52,0-.81-.12-.87-.52l-.06-2.67.06-2.67c.06-.52.17-.64.87-.58,7.42.35,12.53.52,16.7.58.41-1.39.75-2.78.7-4l-4.81.06.06,1.51c0,.35-.12.64-.75.7-.75.06-1.97.06-3.19.06s-2.32,0-2.96-.06c-.35-.06-.52-.17-.46-.46.58-3.83.75-5.8.75-8.58,0-2.09-.12-3.71-.58-6.96v-.17c0-.35.17-.46.64-.46,2.38.17,6.5.29,10.44.35l-.06-3.36c-4.35.12-8.93.29-13.98.58h-.17c-.35,0-.52-.17-.58-.52-.06-.58-.06-1.62-.06-2.67,0-1.1,0-2.15.06-2.61.06-.64.17-.7.75-.64,10.61.52,14.79.58,19.43.58h5.74c5.22,0,8.7-.06,18.85-.58.35,0,.52.06.58.41.06.7.12,1.8.12,2.9s-.06,2.15-.12,2.73c-.06.29-.17.46-.52.41-4.76-.29-9.05-.46-13.17-.58-.17.17-.41.41-.81.7-.29.23-.35.41-.35.81v1.8c3.83-.06,7.71-.23,10.38-.41h.12c.35,0,.58.23.58.64-.23,3.25-.41,4.87-.41,7.54,0,3.31.12,4,.64,7.66v.12c0,.35-.17.58-.7.64-.75.06-1.91.06-3.02.06-1.16,0-2.26,0-2.9-.06-.46-.06-.64-.23-.64-.64l.12-1.39-13.8-.12c.93.17,1.91.41,2.78.7.52.17.7.41.7.64,0,.46-.58.99-1.28,1.33-.87.52-1.04.7-1.39,1.39h4.23c5.92,0,11.31-.06,21.81-.64.41,0,.52.12.58.64.12.58.12,1.62.12,2.73,0,1.04,0,2.15-.12,2.73,0,.23-.17.41-.58.41-5.74-.35-10.21-.52-13.98-.58.7.17,1.04.41,1.04.7,0,.52-.75,1.16-1.91,2.03-.41.35-.46.41-.75.99l-1.1,2.26c4.52,1.45,9.16,3.6,13.57,6.67.23.17.35.35.35.52s-.06.29-.17.52c-.81,1.28-3.07,3.83-4,4.47-.23.17-.41.23-.58.23s-.35-.06-.58-.29ZM587.12,17.04l-4.18.06-.06,3.94v.81l4.18.06.06-4.87ZM598.61,37.75c.23-.64.35-1.39.41-2.03h-7.25l-.46,1.16-1.1,2.44c2.2.12,4.7.41,7.31.93.52-.87.87-1.8,1.1-2.49ZM597.27,12.57l-.06-3.54h-3.42c-.06.23-.29.46-.75.81-.29.23-.41.41-.41.81v1.91h4.64ZM597.27,21.97v-4.99h-4.64l.06,4.99h4.58ZM607.13,21.85l-.06-4.76-4.23-.06.06,4.87,4.23-.06Z"/>
    </g>
  </g>
</svg>