<?xml version="1.0" encoding="UTF-8"?>
<svg id="_レイヤー_2" data-name="レイヤー 2" xmlns="http://www.w3.org/2000/svg" viewBox="0 0 467.82 51.85">
  <defs>
    <style>
      .cls-1 {
        fill: #141414;
      }
    </style>
  </defs>
  <g id="_文字" data-name="文字">
    <g>
      <path class="cls-1" d="M25.09,51.33c-.93-1.04-2.2-1.97-3.65-2.9-1.04.7-2.09,1.28-3.07,1.8-.17.12-.41.17-.52.17-.29,0-.52-.17-.75-.41-.81-.99-1.57-1.57-2.44-2.15l.12,2.61v.12c0,.35-.17.46-.58.52-.64.06-1.91.12-3.13.12s-2.49-.06-3.13-.12c-.46-.06-.58-.23-.58-.64.87-6.96,1.16-16.65,1.33-25.06l-1.39,1.91c-.23.29-.41.41-.64.41-.17,0-.35-.06-.58-.17-1.57-.87-3.07-1.22-5.57-1.74-.46-.12-.7-.29-.29-.64C8.5,17.17,12.27,4,12.5.58c.06-.41.29-.58.64-.46,2.38.7,4.87,1.8,6.79,3.02l.06.06.06-.46c.06-.52.29-.64.81-.58,5.39.46,11.72.64,14.15.64,3.07,0,10.15-.23,15.14-.64h.23c.35,0,.41.12.52.52.06.41.06,1.33.06,2.32,0,.93,0,1.86-.06,2.38-.06.35-.29.46-.75.41-4.06-.46-9.11-.58-12.47-.64-.23.17-.46.35-.81.52-.64.35-.64.41-.99.99l-.29.46h.23c2.61,0,5.51-.12,9.05-.23h.23c.41,0,.46.17.41.52-.17,2.2-.17,3.6-.17,5.28,0,1.86.12,5.28.17,6.21,2.32-.06,4.87-.17,7.66-.35h.12c.17,0,.23.17.23.41-.17,1.51-.29,2.49-.29,3.6.06,1.1.17,2.2.46,3.77v.17c0,.23-.12.29-.52.29l-4,.12c1.28.99,2.55,2.03,3.19,2.84.23.29.17.41,0,.64-1.04,1.22-2.44,2.67-3.48,3.36-.23.12-.46.17-.64-.06-.87-1.45-2.55-3.25-3.95-4.52-.41,2.03-1.57,3.36-4.93,3.77-.87.12-2.49.12-4.18.12l-.35.23c-.41.41-.41-.06-.58.41l-.29.58,5.05-.23c1.04,0,1.16-.75,1.86-.75.12,0,.29.06.46.12.81.29,2.44,1.22,3.31,1.86.46.29.64.58.64.81,0,.29-.29.52-.81.87-.75.46-.99.7-1.68,1.57-.99,1.28-2.26,2.78-3.77,4.23,2.44.75,5.63,1.22,9.86,1.22,1.8,0,3.77-.12,5.97-.29h.17c.23,0,.35.06.35.23,0,.12-.06.29-.23.46-1.62,1.68-2.9,3.25-4.06,4.93-.35.46-.7.52-1.33.46-6.73-.35-11.48-1.8-14.79-3.6-2.49,1.74-5.28,3.13-8.29,3.65-.23.06-.41.06-.52.06-.41,0-.7-.12-1.04-.52ZM28.98,34.34c-.93-.52-1.62-1.45-1.45-2.55l.23-2.09-.41.23c-.29.23-.46.41-.93,1.22-.75,1.39-1.97,3.19-3.83,4.99-.23.23-.64.41-1.04.17-.99-.64-3.13-1.57-4.23-1.91-.29-.12-.35-.29-.06-.46,1.68-.93,3.89-3.19,5.16-5.05l-2.73.06c-.99,0-1.97-.06-2.55-.12-.41-.06-.52-.17-.46-.58.35-1.62.58-3.13.58-4.93,0-.75-.06-1.22-.23-2.26v-.17c0-.35.12-.41.52-.35l6.21.23c.06-1.51.17-4.12.17-5.8,0-2.44-.06-3.54-.29-5.68v-.17c0-.23.12-.29.46-.29l5.63.23.46-1.86c-2.78.06-6.15.23-9.34.58h-.17c-.35,0-.52-.17-.58-.52l-.17-2.03-.41.23c-.87.41-1.16.64-1.28.93-.41.93-1.74,4.29-3.6,8.18l1.22.46c.52.23.75.46.75.75,0,.35-.29.75-.81,1.33-.75.87-.87,1.1-.87,1.86-.23,5.51-.46,12.41-.46,19.49l.12,7.71c6.61-2.78,12.24-8.47,14.38-11.83ZM27.82,28.25c0-.7-.06-1.28-.29-2.26-.06-.23,0-.35.29-.29,1.45.06,2.73.17,4.23.52.41-.58.99-1.39,1.45-1.91l-10.38.12c0,.52,0,1.39.17,2.9l.06-.29c.12-.41.12-.58.29-.58.12,0,.29.06.52.17.87.46,2.55,1.22,3.65,1.86v-.23ZM30.54,44.83c-.81-.87-1.39-1.62-1.8-2.38-1.62,1.62-3.48,3.25-5.39,4.64,2.73-.46,5.1-1.28,7.19-2.26ZM39.76,16.99v-1.62h-10.27v1.62l5.97.06,4.29-.06ZM39.71,13.11v-1.39l-4.06-.06-6.03.06-.06,1.39,5.92.06,4.23-.06ZM39.71,20.94l.06-1.62h-10.21v1.62h10.15ZM37.62,39.5h-3.13l-2.26.12c.35.87.99,1.91,2.15,2.84,1.28-.99,2.38-1.97,3.25-2.96ZM38.66,30.86c.7-.23.87-.93.81-2.55,0-.23.12-.29.29-.17l2.38,1.22c-.23-.17-.23-.29,0-.52.64-.64,2.2-2.15,2.78-2.55.23-.12.35-.17.58,0l1.62,1.16c.12-1.28.12-2.73.12-3.02l-11.43-.12c1.28.46,2.96,1.16,3.89,1.86.29.23.35.35.12.81-.29.7-1.33,2.44-2.03,3.19-.17.23-.46.23-.64.06-.87-.87-2.67-1.86-3.94-2.49l-.23.29c-.46.52-.46.75-.52,1.1l-.06,1.22c0,.41.17.64.75.7.46.06,1.1.06,1.86.06,1.51,0,3.19-.06,3.65-.23Z"/>
      <path class="cls-1" d="M81,44.6l-5.92,5.16c-.81.7-1.04,1.57-1.62,1.57-.17,0-.41-.12-.64-.29-.93-.7-3.42-3.19-5.04-5.34-.12-.17-.17-.35-.17-.46,0-.23.29-.29.64-.41,3.42-1.22,6.61-3.36,8.99-5.22.23-5.05.46-9.05.35-11.31,0,0-4.41,0-6.38.64h-.17c-.23,0-.7-.12-.75-.46-.06-.7-.12-2.2-.12-3.54l.06-2.38c0-.7.29-.87.64-.81,2.44.23,3.65.52,6.21.52,1.62,0,3.77-.12,7.13-.41.64,0,.87.46.81.99-.35,2.61-.75,6.38-.81,9.74l-.12,6.32c2.15,5.92,10.96,5.86,17.75,5.86,2.67,0,15.43-1.16,19.14-2.38.17-.06.29-.06.35-.06.17,0,.23.06.23.17s-.06.29-.17.46c-.52,1.04-2.9,4.7-3.31,6.9,0,.29-.46.75-.87.87-3.02.58-16.41.81-16.82.87-8.87-.12-16.41-2.78-19.37-7.02ZM81.7,13.11c-3.48-3.02-7.37-4.7-8.24-5.05-.35-.17-.46-.35-.46-.58,0-.12.06-.29.12-.46.46-.99,2.09-3.83,2.49-4.35.29-.29.52-.35,1.04-.23,2.15.41,6.44,2.2,9.16,4.18.23.17.29.41.29.64,0,.17-.06.41-.12.64-.35.87-2.38,4.41-2.96,5.22-.17.23-.41.35-.58.35-.23,0-.46-.12-.75-.35ZM109.89,41.82c-.7-1.86-2.03-3.13-3.6-4.81-.17-.17-.29-.35-.29-.46,0-.17.17-.35.64-.29,1.91.17,3.25.35,4.12.35,1.28,0,1.62-.35,1.57-1.33v-.52c-.64.29-1.33.64-2.09.87-.06.06-.17.06-.23.06-.23,0-.41-.12-.46-.35-.12-.7-.35-1.39-.58-2.03-2.2.46-9.57,2.03-11.48,2.67-.75.29-1.28.81-1.74.81-.17,0-.41-.12-.58-.41-.46-.64-1.39-2.26-2.09-3.77l.46,9.28c0,.23-.46.46-.93.46-.64.06-1.51.06-2.49.06l-2.78-.06c-.52-.06-.75-.12-.7-.58.46-5.16.52-9.16.58-12.59,0-.81-.12-4.7-.58-6.84-.06-.23-.06-.35-.06-.46,0-.23.17-.29.99-.23,3.42.29,8.53.35,11.95.35l.06-2.67-3.89.06.06.41c0,.41-.23.41-.75.46-.64.06-1.68.06-2.61.06-.99,0-1.91,0-2.49-.06-.52-.06-.81-.23-.75-.46.35-3.48.52-3.83.52-7.89,0-2.78-.06-4.81-.46-8.99,0-.17.23-.41.7-.41,4.18.23,8.06.35,12.93.35,5.39,0,7.77-.17,12.18-.46h.12c.46,0,.58.29.58.46-.23,3.65-.35,5.8-.35,8.99,0,2.9.23,4.29.52,7.66v.06c0,.29-.29.64-.58.64l-2.78.06-2.49-.06c-.46-.06-.81-.17-.81-.58v-.23l-4.29-.06.06,2.67c3.6-.06,9.28-.12,13.22-.29h.17c.58,0,.7.23.58.64-.35,2.32-.52,4.93-.52,6.96,0,2.49.23,4.87.41,7.08.17,2.32-.81,6.09-7.89,6.26-.41,0-.81-.23-1.04-.81ZM93.3,30.86c1.86-.06,4-.23,6.21-.46v-3.89l-6.32.06-.17,4.06v.23h.29ZM99.45,7.08l-4.06.12-.06,2.15,4.23.06-.12-2.32ZM99.56,12.88l-4.23.06.12,2.32,4.12.06v-2.44ZM109.42,15.25v-2.32l-4.52-.06v2.44l4.52-.06ZM109.42,9.34l-.12-2.15-3.19-.12c-.06.23-.35.41-.81.64-.23.06-.35.35-.35.64v1.04l4.47-.06ZM112.32,29.35l-.12-2.78-7.25-.06v3.25l2.15-.29-.46-.81c-.06-.17-.17-.29-.17-.41s.12-.17.41-.29c.93-.35,1.74-.75,2.49-.87.12,0,.17-.06.29-.06s.23.12.41.29c.35.58,1.33,1.86,2.26,3.42v-1.39Z"/>
      <path class="cls-1" d="M138.73,49.94c-.46-1.8-1.51-3.42-3.31-5.68-.12-.17-.17-.29-.17-.41s.12-.23.41-.23l2.03.06c2.15,0,2.78-.46,2.84-2.03l.23-9.16-1.8.87c-.81.41-1.51,1.22-2.15,1.22-.29,0-.52-.12-.75-.41-1.04-1.22-2.84-4.76-3.42-5.74-.12-.17-.12-.29-.12-.35,0-.29.35-.35.75-.41,1.51-.12,4.58-1.16,7.54-2.26v-7.48l-5.92.29c-.35,0-.58-.06-.64-.46-.06-.52-.12-1.57-.12-2.61,0-1.28.06-2.55.12-3.07.06-.52.17-.64.64-.58,2.09.23,3.89.41,5.8.52-.12-4.41-.35-8.99-.75-11.25,0-.12-.06-.23-.06-.35,0-.35.23-.41.58-.41,2.15.06,5.1.46,7.48,1.22.52.17.7.41.7.75,0,.64-.64,1.68-1.1,3.36-.23,1.04-.41,3.71-.52,6.67,1.51-.12,2.73-.23,4.7-.52h.12c.41,0,.58.29.64.64.06.46.12,1.57.12,2.73s-.06,2.32-.12,2.9c-.06.29-.41.46-.81.46-1.91-.23-3.19-.29-4.76-.35v5.68l4.76-2.09c.17-.12.35-.17.41-.17s.12.12.12.29l-.06,1.86c0,.99.06,1.91.17,2.84v.29c0,.46-.12.81-.75,1.1-1.1.64-2.84,1.51-4.64,2.38l.23,13.17.06,1.39c0,2.55-.75,5.51-7.13,6.32h-.23c-.58,0-.87-.23-1.1-.99ZM168.71,25.29h-3.25c-2.67,0-6.26.06-11.37.58h-.17c-.35,0-.52-.12-.64-.52-.06-.52-.12-1.51-.12-2.49,0-1.04.06-2.03.12-2.49.12-.52.35-.64.87-.58l4.99.41.17-5.68-4.35.41h-.17c-.29,0-.46-.12-.52-.52-.12-.52-.17-1.45-.17-2.44,0-1.04.06-2.2.17-2.73.06-.58.29-.64.75-.58l4.29.41c-.06-3.19-.29-6.21-.81-8.24-.06-.12-.06-.23-.06-.29,0-.41.29-.46.7-.46,1.39.12,5.16.75,7.54,1.51.64.17.87.46.87.81,0,.64-.81,1.45-1.33,2.38-.46.87-.58,1.86-.64,3.19l-.06,1.28h4.58c-.06-3.25-.35-6.32-.93-8.35,0-.12-.06-.17-.06-.29,0-.41.35-.52.75-.52,1.39.12,5.16.75,7.54,1.51.64.17.87.46.87.81,0,.64-.81,1.45-1.33,2.38-.52.87-.58,1.86-.7,3.25l-.06,1.04c1.8-.06,3.71-.17,5.68-.41h.12c.35,0,.52.17.58.58.06.52.06,1.86.06,3.02,0,.87,0,1.68-.06,2.03-.06.58-.35.7-.99.64-1.8-.23-3.65-.35-5.39-.46l.06,5.8c2.73-.06,5.68-.23,8.29-.52.46,0,.75.17.75.64.06.41.12,1.45.12,2.49s-.06,2.09-.12,2.67c0,.23-.29.46-.7.41-5.1-.58-12.01-.64-15.89-.64ZM156.41,51.44c-.52-.06-.64-.29-.58-.75.64-4.81,1.04-10.09,1.04-14.09,0-2.2-.12-4.81-.46-8.06v-.12c0-.46.29-.64.64-.64,2.26.29,6.79.64,11.25.64,4.12,0,8.29-.35,10.61-.52h.17c.35,0,.58.17.52.58-.46,4.35-.52,4.93-.52,8.35,0,3.13.58,8.99.99,13.57v.12c0,.46-.29.64-.81.7l-3.6.06c-.93,0-1.74,0-2.26-.06-.46-.06-.58-.17-.58-.7l.06-1.91-4.81-.12-5.39.06.06,2.15c0,.58-.23.7-.75.75-.7.06-1.8.06-2.84.06-1.1,0-2.15,0-2.73-.06ZM173.06,43.38l.06-2.67-4.99-.12c-1.62-.06-3.13,0-5.45.06l-.06,2.73,5.51.12,4.93-.12ZM173.12,35.67l-.06-2.32-4.81-.12-5.33.12-.06,2.32,5.34.12,4.93-.12ZM169.93,20.36l.17-6.09h-4.64l.06,6.09h4.41Z"/>
      <path class="cls-1" d="M214.5,43.04c-.58,0-.93-.23-.87-.58.81-5.22.93-6.44.93-8.82,0-3.65,0-5.97-.64-10.9v-.12c0-.29.17-.41.58-.41,2.9.12,4.7.23,7.02.23l.12-.75.12-1.22c-5.8,0-9.74,0-21.57.52-.41,0-.7-.06-.75-.46-.06-.46-.06-1.39-.06-2.38,0-.93,0-1.86.06-2.32.06-.52.35-.52.99-.52,11.48.52,16.65.52,21.4.52l-.29-2.73-10.96.12.06.29v.12c0,.29-.23.35-.7.41l-2.84.06-2.67-.06c-.7-.06-.87-.17-.7-.81.46-1.51.58-2.78.58-5.16,0-2.09-.17-3.48-.58-6.5,0-.17.29-.35.64-.35,4,.29,14.79.35,19.31.35,4.93,0,14.96-.12,19.37-.46h.12c.46,0,.58.23.58.41-.23,3.19-.41,4.06-.41,6.55,0,3.02.23,4.06.58,5.22v.17c0,.29-.23.52-.75.52-.81.06-1.86.06-2.78.06-.99,0-1.91,0-2.49-.06-.46,0-.87-.12-.87-.58v-.17l-10.15-.12c1.16.17,2.2.41,3.02.64.52.17.75.35.75.58,0,.46-.7.99-1.28,1.51,4.12-.06,8.41-.17,17.69-.58h.12c.46,0,.41.29.46.58.06.52.12,1.45.12,2.38s-.06,1.86-.12,2.38c0,.23-.12.41-.46.41-9.98-.46-14.56-.52-19.08-.52l-.23,1.51-.06.52c5.45,0,3.02,0,11.48-.35.58,0,.7.12.58.75-.41,4.29-.46,6.32-.46,10.79,0,1.91.35,4.18.75,8.53v.17c0,.46-.41.46-.7.52l-2.96.06-2.61-.06c-.46-.06-.81-.17-.81-.52v-.23c-.99-.06-2.73-.12-5.92-.12l-6.26.06v.35c0,.35-.23.58-.81.58-.7.06-1.8.06-2.9.06-1.04,0-2.09,0-2.67-.06ZM202.9,51.04c-.52-.06-.64-.29-.58-.58.87-7.13.81-10.15.81-14.09v-3.48c0-2.67-.06-5.92-.7-9.28v-.17c0-.46.23-.58.7-.52,1.45.17,5.1.64,7.6,1.45.7.23.93.52.93.81,0,.64-.87,1.45-1.39,2.67-.52,1.28-.7,2.03-.7,8.53l-.06,7.42c8.12.29,15.25.29,19.95.29,3.83,0,4.81,0,17.92-.58.29,0,.58.17.64.52.06.41.12,1.74.12,2.96,0,1.04-.06,2.03-.12,2.44-.06.17-.41.29-.64.29-12.99-.52-14.67-.52-18.04-.52-4.7,0-10.96.12-19.6.23l.06,1.22c0,.23-.29.41-.64.41l-3.13.12c-1.16,0-2.26-.06-3.13-.12ZM215.2,5.86l-4.81.06s-.06.58-.06,2.26v.64l4.87.06v-3.02ZM233.29,28.07c-.06-1.45-.06-1.8-.12-1.91,0,0-.35-.06-6.15-.06s-6.15.06-6.38.06c-.06.17-.06.52-.12,1.91l6.61.06,6.15-.06ZM233.29,33.06v-1.86l-6.09-.06-6.67.06v1.86l6.61.06,6.15-.06ZM233.23,38.4l.06-2.15-6.09-.06-6.67.06.12,2.15,6.44.06,6.15-.06ZM226.1,8.93v-3.13h-3.83v.06c0,.23-.17.52-.7.87-.29.17-.35.52-.41.87v1.33h4.93ZM237.24,8.82v-.46c0-1.97-.12-2.44-.12-2.44l-3.89-.06c0,.23-.23.52-.75.87-.23.17-.35.52-.35.99l.06,1.16,5.05-.06Z"/>
    </g>
    <g>
      <path class="cls-1" d="M275.3,49.83c-3.33-1.79-7.03-6.22-7.03-13.1s3.7-10.86,7.05-12.74c.11-.06.2-.08.28-.08s.2.06.31.17c.39.39.76,1.01.92,1.51.03.08.06.14.06.2,0,.17-.11.28-.34.39-2.66,1.62-4.96,5.88-4.96,10.56,0,5.12,2.29,9.3,4.96,10.89.17.11.25.22.25.39,0,.06,0,.14-.03.22-.17.62-.45,1.09-.87,1.54-.11.08-.22.14-.34.14s-.2-.03-.28-.08Z"/>
      <path class="cls-1" d="M287.24,49.29c-.5-.9-1.88-1.74-2.41-2.18-.08-.08-.17-.25.06-.31,3.64-.9,6.19-3.02,6.83-3.98.11-.14.17-.2.36-.11.42.2,1.88,1.26,2.49,1.96.11.14.14.22.14.31,0,.2-.31.28-.7.39-.42.11-.5.2-.76.39-.42.31-2.24,2.3-5.38,3.58-.11.06-.22.08-.37.08-.11,0-.22-.03-.28-.14ZM295.94,49.55c-.22-.06-.25-.17-.22-.34.11-1.57.22-3.39.22-5.15l-.06-2.1h-1.21l-4.31.08.06.84v.03c0,.11-.11.14-.25.17-.34.03-.9.06-1.48.06-.7,0-1.4-.03-1.74-.06-.22-.03-.28-.11-.28-.28.5-4.31.48-6.55.48-8.46l.03-2.21c0-1.51-.06-3.39-.36-5.04v-.11c0-.14.06-.17.22-.17.7.06,2.58.22,3.75.59.25.08.36.22.36.42,0,.36-.34.81-.5,1.15-.14.31-.34.53-.36,1.57-.06,2.04-.11,3.05-.11,3.81,0,1.23,0,3,.06,4.93,1.01.06,2.27.06,4.45.06h1.4c2.97,0,6.83-.03,12.07-.31h.08c.17,0,.2.11.2.28.06.31.06.87.06,1.4s0,1.06-.06,1.37c0,.14-.08.22-.25.22-3.28-.2-6.21-.28-8.62-.31-.06.06-.14.14-.22.2-.17.11-.2.22-.2.39-.03,1.65.08,4.31.28,6.69v.08c0,.11-.06.2-.28.22-.31.03-.9.06-1.51.06-.7,0-1.43-.03-1.68-.08ZM292.14,38.52c-.28-.03-.45,0-.42-.25.31-2.55.53-3.67.53-5.26,0-2.38,0-4.31-.34-7.59,0-.2.08-.17.28-.17,2.3.14,3.39.2,6.24.2,3.11,0,1.9,0,6.19-.22.28,0,.34.06.31.28-.22,2.91-.25,4.65-.25,7.5,0,1.29.17,2.16.39,4.98v.06c0,.36-.2.36-.36.39l-1.62.03c-.42,0-.78,0-1.04-.03-.22-.03-.39-.11-.39-.34v-.2c-.48-.03-1.34-.06-3.16-.06-1.51,0-2.52.03-3.19.06v.42c0,.17-.11.17-.37.2-.34.03-.9.06-1.46.06s-1.06-.03-1.34-.06ZM301.77,32.19v-1.06c-.5-.03-1.34-.06-3.25-.06l-3.36.03v1.12l3.33.03c1.9,0,2.77-.03,3.28-.06ZM301.74,35.58l.03-1.2c-.48-.03-1.34-.06-3.25-.06l-3.36.03.03,1.23c.67.03,1.71.06,3.25.06,1.96,0,2.83-.03,3.3-.06ZM301.74,28.97l-.03-1.12s-.62-.06-3.28-.06-3.22.06-3.22.06l-.03,1.12,3.3.03,3.25-.03ZM305.77,48.88c-1.9-.84-5.07-4.2-5.29-4.82-.03-.06-.03-.11-.03-.14,0-.08.06-.14.2-.22.25-.14,1.85-.92,2.13-1.01.11-.03.17-.03.22-.03.08,0,.14.03.25.17.08.17,2.94,3,5.91,3.7.11.03.2.08.2.17,0,.06-.05.14-.22.22-.9.5-2.1,1.23-2.74,1.82-.17.14-.28.2-.39.2-.06,0-.14-.03-.22-.06Z"/>
      <path class="cls-1" d="M316.94,45.21c-.11-.08-.2-.14-.2-.22s.03-.17.11-.28c.31-.42,1.34-1.51,1.71-1.76.08-.08.14-.17.25-.17.06,0,.11.03.22.08.34.11,3.08,1.76,5.07,3.5.11.08.17.17.17.25,0,.11-.06.2-.11.28-.34.59-1.57,1.99-2.02,2.38-.14.14-.28.22-.45.06-1.71-1.88-4.37-3.86-4.76-4.12Z"/>
      <path class="cls-1" d="M331.28,31.82c-.03-.28-.03-.84-.03-1.37,0-.56,0-1.12.03-1.4.05-.34.05-.36.42-.34,3.58.2,7.42.28,9.55.31,0-1.46-.06-3.25-.31-4.2-.03-.08-.03-.14-.03-.2,0-.08.06-.11.14-.11.64,0,2.72.28,3.98.67.34.08.45.25.45.42,0,.42-.56,1.01-.73,1.65-.08.42-.11,1.09-.14,1.76,2.18-.03,6.02-.08,9.55-.31h.06c.2,0,.28.14.31.34.03.34.03,1.01.03,1.62,0,.48,0,.92-.03,1.18-.03.14-.2.25-.36.25-4.82-.31-9.24-.34-10.75-.34h-1.51c-1.9,0-5.43.03-10.22.34-.22,0-.36-.06-.39-.28ZM341.22,49.52c-.25-.06-.25-.17-.25-.36.22-2.49.34-6.16.34-9.46l-.03-2.63-3.84.03-.03,1.85c0,2.16.14,6.38.17,7.7v.06c0,.31-.17.42-.45.45-.36.03-.95.06-1.54.06-.48,0-.98-.03-1.34-.06-.25-.03-.36-.11-.34-.39.11-1.71.25-5.85.25-8.06,0-.81-.03-1.37-.25-4,0-.08-.03-.17-.03-.22,0-.28.14-.34.5-.28,1.76.11,4.79.14,6.78.17-.06-.92-.14-1.62-.25-1.99-.03-.08-.03-.14-.03-.2,0-.14.08-.2.28-.2.62,0,2.77.31,3.64.48.28.06.39.17.39.34s-.08.34-.28.53c-.31.28-.39.42-.42.78v.25c1.96-.03,5.15-.06,7.08-.17h.08c.28,0,.31.14.28.45-.14,1.32-.14,2.21-.14,3.22,0,1.06.14,5.8.14,6.22,0,1.68-.98,3.08-4.17,3.14-.22,0-.42-.14-.48-.48-.14-.78-.95-1.82-1.71-2.72-.05-.08-.11-.14-.11-.2,0-.08.11-.11.34-.08.64.06,1.15.11,1.54.11.9,0,1.2-.22,1.2-.98-.03-.31-.06-4.37-.06-4.7l.03-1.06-4.06-.03v1.65c0,3.36.08,7.45.34,10.53,0,.17,0,.25-.17.28-.42.06-1.23.08-1.96.08-.64,0-1.23-.03-1.46-.08Z"/>
      <path class="cls-1" d="M376.33,46.41c-1.23,1.12-2.91,2.13-5.18,2.88-.06.03-.11.03-.2.03-.14,0-.31-.06-.45-.25-.42-.67-1.34-1.37-2.02-1.88l.08,1.82c0,.11-.14.2-.28.2-.31.06-.95.08-1.57.08s-1.23-.03-1.54-.08c-.22-.03-.31-.08-.28-.25.42-3.53.56-8.62.67-12.85l-1.15,1.57c-.14.17-.39.25-.59.14-.73-.42-1.99-.7-2.77-.78-.28-.06-.48-.08-.22-.34,4.23-3.95,6.64-10.28,6.64-11.9,0-.17.03-.28.17-.25.5.08,2.58.76,3.47,1.37.22.17.37.34.37.5,0,.22-.2.42-.62.64-.45.2-.59.22-.73.56-.22.59-.9,2.04-1.82,3.78.31.08.59.17.76.25.2.08.28.22.28.39,0,.2-.11.42-.31.64-.42.5-.42.81-.42,1.32-.11,3.08-.17,6.38-.17,9.38l.03,3.28c2.66-.48,4.48-1.34,5.74-2.41-.25-.34-.45-.7-.64-1.09-.11.25-.22.48-.28.7-.06.2.03.7-.45.56-.67-.22-2.02-1.18-2.3-1.43-.11-.11-.08-.2,0-.25,1.2-.73,2.63-2.58,2.88-3.19l.08-.2-.78.03c-.36,0-.73-.03-.95-.06-.47-.06-.62-.08-.56-.5.25-1.9.28-2.52.28-3.22,0-.9,0-1.62-.11-3.02,0-.08-.03-.17-.03-.22,0-.17.11-.2.48-.17.95.06,3.33.14,5.12.17v-1.43c-1.85.03-4.62.11-6.33.28-.08,0-.36-.06-.39-.28-.03-.28-.03-.81-.03-1.34s0-1.06.03-1.32c.03-.31.22-.31.42-.31,1.65.17,4.37.25,6.19.28-.08-1.06-.2-2.16-.39-3.28,0-.08-.03-.14-.03-.2,0-.11.06-.11.14-.11.56,0,2.58.22,3.86.67.34.11.48.25.48.48,0,.34-.34.84-.7,1.51-.06.14-.11.48-.17.95,1.99-.03,4.93-.11,6.5-.31h.03c.14,0,.31.14.34.31.03.28.03.92.03,1.54,0,.45,0,.87-.03,1.12-.03.22-.14.31-.36.28-1.62-.2-4.68-.28-6.69-.31l-.06,1.43c1.65,0,3.7-.08,5.18-.14h.11c.25,0,.31.11.31.36-.14,1.76-.14,2.52-.14,3.25,0,.67,0,2.46.11,3.67.03.11.03.2.03.25,0,.2-.11.25-.53.31-.25.03-.62.06-.98.06s-.73-.03-1.04-.06c-.25-.03-.56-.06-.53-.48v-.34l-2.52-.03c-.11,1.4-.48,3.33-1.68,5.18,2.18,1.26,5.1,1.71,7.62,1.71.84,0,1.62-.06,2.32-.14h.14c.17,0,.22.06.22.11,0,.08-.08.2-.2.31-.39.39-1.37,1.99-1.57,2.69-.08.31-.31.48-.7.45-3.44-.11-7.08-1.18-9.63-3.08ZM376.95,39.16l-2.55.06c-.06.06-.17.06-.34.11h.03c.34.11.81.34,1.23.59.2.14.28.25.28.36s-.08.22-.17.34c-.11.14-.25.2-.25.45.17.48.42.92.7,1.32.67-1.12.95-2.27,1.06-3.22ZM377,34.71l-2.55.03s-.03.28-.03.84v1.2l2.58.06v-2.13ZM382.38,36.78v-1.23l-.03-.81-2.55-.03v2.1l2.58-.03Z"/>
      <path class="cls-1" d="M413.19,48.9c-.31-.78-.95-1.88-1.99-3-.06-.06-.08-.14-.08-.17,0-.08.06-.14.2-.11.7.08,1.4.2,1.96.2.81,0,1.4-.22,1.48-.92.08-.78.11-2.49.11-4.51l-4.93-.06c.03,2.6.11,5.71.2,7.7v.06c0,.17-.11.22-.25.25l-1.6.03c-.59,0-1.15,0-1.46-.03-.25-.03-.31-.11-.31-.28.11-1.96.22-5.1.28-7.73l-4.45.06c-.48,3.11-1.46,6.22-3.36,8.54-.11.14-.22.2-.39.2-.08,0-.2-.03-.31-.08-.81-.5-2.16-.81-3.13-.98-.17-.03-.25-.08-.25-.14s.03-.11.14-.2c3.72-3.02,4.62-9.04,4.62-14.03,0-3.3-.39-6.13-.62-7.42,0-.08-.03-.14-.03-.2,0-.22.11-.31.36-.28,2.6.25,5.66.31,7.9.31h1.4c2.97-.03,6.05-.03,9.18-.2h.14c.25,0,.31.08.28.45-.25,3-.28,5.4-.28,8.54v1.79c0,2.41.17,7.31.28,9.18.06,1.29-.87,3.42-4.51,3.44-.39,0-.48-.11-.59-.42ZM406.84,28.85l-4.14.03.11,3.08,4.12.06-.08-3.16ZM406.92,35.83v-1.18l-4.12.08c0,.92-.06,1.9-.11,2.91l4.2.06.03-1.88ZM414.84,37.65v-.42l-.03-2.49-4.93-.08v1.18l.03,1.88,4.93-.06ZM414.76,31.96l-.08-3-4.2-.11c-.06.08-.14.14-.22.2-.17.14-.25.22-.25.56l-.06,2.41,4.82-.06Z"/>
      <path class="cls-1" d="M441.94,49.04c-.2-.76-.92-1.74-1.71-2.72-.11-.17-.17-.28-.17-.34,0-.11.11-.17.34-.14.64.06,1.23.08,1.71.08,1.57,0,2.38-.28,2.41-1.04l.03-3.75-.03-4.9c0-.5,0-4.37-.25-6.58l-4.82-.03c-2.24,0-5.43.03-11.03.28h-.06c-.14,0-.31-.06-.31-.25-.03-.22-.03-.76-.03-1.32s0-1.15.03-1.43c0-.31.14-.34.37-.34,3.89.28,6.44.31,8.37.31h4.73c2.27,0,4.73-.03,9.44-.31.17,0,.34.11.36.28.03.22.06.81.06,1.4s-.03,1.18-.06,1.46c-.03.14-.22.22-.31.2l-2.41-.11c-.08.11-.2.22-.39.36-.31.17-.39.48-.39,1.04l-.03,5.04c0,1.46.03,6.75.2,9.55.11,1.71-.95,3.64-5.57,3.72-.2,0-.39-.14-.48-.48ZM431.89,43.44c-.45-.06-.56-.08-.53-.5.17-2.27.22-5.43.22-5.8v-.84c0-1.23-.03-3.3-.11-3.98v-.14c0-.22.08-.25.42-.22,1.23.11,2.74.14,4.45.14s2.04-.06,4.09-.17c.31,0,.39.11.36.36-.11,1.01-.14,4-.14,4.65,0,.34.08,3.16.17,5.04,0,.11.03.2.03.28,0,.17-.08.2-.53.25-.48.08-1.57.08-2.07.06-.45-.06-.67-.08-.67-.42l.03-.84c-.34-.03-.78-.06-1.32-.06l-1.6.06-.03,1.68c0,.36-.06.39-.53.45l-1.15.03-1.09-.03ZM437.68,38.79l.06-1.79-.03-2.35s-.48-.06-1.48-.03l-1.6.03v2.44l.03,1.68,1.6.06,1.43-.03Z"/>
      <path class="cls-1" d="M460.14,49.74c-.42-.45-.67-1.01-.81-1.62-.03-.06-.03-.11-.03-.17,0-.14.06-.25.22-.34,2.66-1.6,4.96-5.77,4.96-10.89,0-4.68-2.29-8.93-4.96-10.56-.28-.14-.39-.31-.31-.56.17-.5.62-1.2.92-1.51.14-.14.25-.2.36-.2.08,0,.17.03.25.08,3.36,1.88,7.06,6.16,7.06,12.74s-3.7,11.31-7.06,13.13c-.08.06-.17.08-.25.08-.11,0-.22-.06-.36-.2Z"/>
    </g>
  </g>
</svg>