<?xml version="1.0" encoding="UTF-8"?>
<svg id="_レイヤー_2" data-name="レイヤー 2" xmlns="http://www.w3.org/2000/svg" viewBox="0 0 457.4 54.75">
  <defs>
    <style>
      .cls-1 {
        fill: #141414;
      }
    </style>
  </defs>
  <g id="_文字" data-name="文字">
    <g>
      <path class="cls-1" d="M7.48,54.11c-1.51-1.97-4.99-3.83-6.67-4.64-.58-.29-.81-.52-.81-.64,0-.17.29-.23.7-.35,11.83-3.13,18.62-10.44,21.29-20.42-3.42.06-6.21.17-13.28.7-.35,0-.75-.12-.81-.58-.06-.81-.12-1.91-.12-3.02s.06-2.15.12-2.78c.12-.7.29-.75.81-.7,7.37.52,10.85.64,14.38.7l.23-3.48c0-.29,0-2.32-.06-2.61,0-.87,0-1.86-.06-2.67-4.7,0-7.66.12-17.23.7h-.17c-.41,0-.7-.17-.75-.58l-.12-3.02c0-1.1.06-2.15.12-2.73.06-.75.23-.81.93-.75,11.77.7,15.2.7,20.94.7,6.84,0,10.38,0,21.87-.7h.12c.35,0,.35.23.41.64.06.64.06,1.86.06,3.07s0,2.38-.06,2.96c-.06.29-.23.41-.52.41-8-.52-12.53-.64-16.82-.7l-.87.81c-.41.41-.58,1.97-.58,2.73-.06,2.15-.12,3.89-.23,5.22,4.47,0,7.95-.12,15.72-.7h.12c.29,0,.29.23.35.64.06.64.06,1.86.06,3.07s0,2.38-.06,2.96c-.06.29-.17.41-.46.41-7.02-.52-10.96-.64-15.02-.7,2.44,6.55,8.53,15.2,22.91,19.89.41.12.7.23.7.41,0,.12-.23.29-.75.58-2.2,1.28-4.64,2.9-6.55,4.81-.17.17-.41.23-.64.23s-.46-.06-.64-.17c-10.5-4.93-16.01-12.82-18.79-19.2-3.31,8.29-9.22,15.2-18.27,19.55-.17.12-.46.23-.75.23s-.52-.12-.7-.29Z"/>
      <path class="cls-1" d="M87.18,54.29c-.52-.06-.64-.29-.58-.7.58-2.55.81-6.26.87-8.47-5.63,0-9.22.06-19.84.7-.46,0-.75-.12-.75-.58l-.06-2.78.06-2.61c.06-.64.17-.7.75-.7,10.15.58,15.14.64,19.95.64,0-1.04-.06-2.2-.17-3.25l-5.86.06c-.06.64-.29.7-.87.75-.81.06-1.8.06-2.73.06s-1.86,0-2.61-.06c-.7-.12-.93-.41-.87-1.04.52-4.64.58-10.15.58-11.37,0-1.68,0-2.38-.46-7.66v-.35c0-.52.17-.58,1.22-.52,1.86.23,12.3.35,15.08.35,2.55,0,11.77-.06,15.49-.35.7,0,.87.17.81.87-.23,3.19-.29,5.16-.29,6.5v1.8c0,1.16.06,5.68.46,10.85v.29c0,.52-.17.75-1.1.87-.75.06-2.09.17-3.25.17-.7,0-1.33-.06-1.74-.12-.93-.17-.99-.35-.99-.93v-.12l-5.92-.06-.17.29c-.23.64-.35,1.8-.41,2.96,5.74,0,10.32-.06,20.71-.64.46,0,.52.12.58.64.06.52.06,1.39.06,2.32,0,1.28,0,2.67-.06,3.31-.06.29-.17.41-.58.41-8.64-.52-13.57-.7-18.21-.7h-2.38c.06,1.97.29,5.51.64,8.58v.12c0,.29-.17.41-.58.46-.81.06-2.09.12-3.36.12l-3.42-.12ZM80.92,15.31c-.41-.06-.58-.17-.46-.58l.35-1.62c-2.96.06-6.73.23-12.3.58-.52,0-.75-.12-.81-.58-.06-.7-.12-1.74-.12-2.73,0-1.04.06-2.03.12-2.67.06-.64.29-.7,1.04-.7l12.24.58c-.12-1.22-.29-2.67-.75-4.52v-.17c0-.17.06-.35.41-.35,1.86.12,5.45.52,7.71,1.28.46.17.7.41.7.7,0,.52-.64,1.22-1.1,1.97-.23.35-.35.81-.41,1.22h6.21c-.06-1.22-.23-2.61-.75-4.64v-.23c0-.17.06-.29.41-.29,1.86.12,5.45.52,7.71,1.28.46.17.64.41.64.7,0,.52-.58,1.22-1.04,1.97-.23.35-.35.75-.41,1.1,3.25-.06,7.19-.23,13.22-.58.52,0,.64.23.7.64.06.58.06,1.74.06,2.84s0,2.2-.06,2.78c-.06.29-.35.41-.7.41-5.8-.35-9.86-.52-13.11-.64l.23,1.57v.23c0,.29-.12.41-.46.46-.75.12-1.97.17-3.25.17s-2.44-.06-3.25-.17c-.52-.06-.58-.29-.52-.58l.35-1.74h-5.86l.29,1.74v.12c0,.29-.17.41-.52.46-.75.12-1.97.17-3.25.17s-2.44-.06-3.25-.17ZM100.52,24.13l-.06-2.26s-8.47-.17-9.74-.12l-9.22.12-.06,2.2,9.34.12,9.74-.06ZM100.46,31.49l.06-2.49-9.74-.06-9.34.06v2.49l9.34.17,9.69-.17Z"/>
      <path class="cls-1" d="M143.76,30.97c0-3.83,1.39-7.83,4.76-11.77.17-.23.12-.35-.29-.23-5.45,1.22-8.87,1.86-15.66,3.07-.17.06-.35.06-.46.06-.41,0-.64-.17-.81-.58-.35-.75-1.57-5.45-1.62-6.21v-.12c0-.52.35-.7.93-.7,2.26,0,4.35-.12,6.9-.46,10.73-1.45,21.98-3.13,29.58-3.83-1.33-1.91-3.31-4.41-4.23-5.51-.12-.12-.17-.23-.17-.41s.12-.35.35-.52c.81-.64,2.38-1.57,2.96-1.74.23-.06.35-.12.52-.12s.29.06.52.23c1.57,1.45,4.35,4.52,5.45,6.32.06.17.12.29.12.41,0,.29-.17.52-.58.93l-.17.17c.12.12.12.29.17.52.23,1.28.35,5.39.29,6.44-.06.23-.17.46-.41.46-1.51,0-2.96-.17-4.41-.17-4.58,0-8.82.7-12.12,3.83-2.84,2.73-4.23,5.92-4.23,9.05,0,6.84,6.44,13.34,17.52,14.15.46.06.7.17.7.35s-.17.41-.41.7c-1.57,1.86-3.42,3.94-4.18,5.57-.23.52-.75.64-1.33.52-9.22-1.22-19.66-10.03-19.66-20.42ZM176.93,9.57c-1.16-1.91-3.89-5.34-4.99-6.73-.12-.12-.12-.29-.12-.41,0-.23.12-.41.29-.52.46-.46,2.38-1.57,2.96-1.8.23-.06.35-.12.52-.12.12,0,.29.06.52.29,1.57,1.45,4.35,4.52,5.39,6.32.06.17.12.29.12.46,0,.23-.17.52-.58.93-.52.58-2.38,1.74-3.02,2.03-.17.06-.29.12-.41.12-.29,0-.46-.23-.7-.58Z"/>
      <path class="cls-1" d="M219.58,54.34c-.93-.81-3.65-1.86-5.39-2.49-.29-.12-.52-.17-.52-.35,0-.12.17-.29.58-.46,1.57-.7,2.96-1.8,4.12-3.19l-13.34,2.2c-.93.23-1.51.87-2.03.87-.17,0-.41-.12-.64-.41-.7-.93-1.91-2.61-2.78-4.52,0,2.78.12,5.39.23,7.66,0,.23-.29.41-.52.41-.64.06-1.91.12-3.13.12s-2.49-.06-3.13-.12c-.41-.06-.58-.29-.52-.58.7-6.67,1.1-16.07,1.39-24.36l-.52.75c-.29.41-.75.52-1.16.29-1.45-.87-3.89-1.33-5.45-1.51-.52-.06-.87-.17-.41-.7,7.42-7.89,11.02-20.94,10.73-24.3,0-.35,0-.46.29-.46.93,0,4.7,1.62,6.73,2.78.35.17.58.41.64.64,6.44,0,11.08-.93,11.66-1.51.23-.12.35-.17.52-.17s.29.06.46.17c.93.75,2.84,2.55,3.65,3.54.29.41.46.7.46.93,0,.46-.58.7-1.57.7l-1.22-.06c-.46,0-1.22.12-1.74.23l-.87.12c0,.29-.17.58-.58.93-.46.41-.7.75-.81,1.62,1.86,0,4.35-.12,7.13-.41h.12c.17,0,.41.17.46.52.06.46.12,1.16.12,1.86s-.06,1.45-.12,2.03c-.06.23-.23.41-.52.35-2.78-.29-5.39-.46-7.31-.52v2.09l6.09-.29h.17c.52,0,.64.23.64.75-.29,4.18-.35,7.25-.35,8.35,0,.93.06,2.84.41,6.73v.41c0,.46-.12.52-1.04.64-.52.12-1.1.17-1.74.17-.41,0-.87-.06-1.28-.12-.58-.06-1.04,0-1.04-.81l-1.91-.06v3.02c1.51-.06,3.65-.17,6.5-.41h.12c.35,0,.46.23.52.52.06.58.12,1.33.12,2.09,0,.64-.06,1.28-.12,1.8-.06.23-.29.46-.58.41-2.78-.29-4.93-.35-6.44-.41l.06,1.91,4.87-.64c.12,0,.23-.06.35-.06.29,0,.41.17.29.58-.23.75-.52,1.62-.64,2.73,4.29-6.26,6.09-16.53,6.61-24.3l-2.96.23c-.17,0-.46-.06-.46-.46-.06-.41-.06-1.22-.06-2.15,0-1.22,0-2.55.06-3.02,0-.41.17-.58.52-.58l3.02.23c0-5.34-.41-9.57-.7-12.06v-.23c0-.41.17-.58.75-.46,1.74.23,5.16.87,6.21,1.16s1.45.64,1.45,1.1c0,.41-.41.99-.93,1.74-.58.87-.64,1.68-.7,2.26-.17,2.09-.23,2.84-.29,6.44,1.8-.06,4.35-.23,7.83-.58.12,0,.23-.06.35-.06.41,0,.46.23.35.75-.81,6.15-.23,24.59-2.49,31.32-1.57,4.7-4.7,6.32-8.7,6.32-1.28,0-1.8-.23-1.91-.93-.35-1.91-1.04-3.25-2.03-4.47-1.22,2.09-2.61,4.06-4.18,5.68-.41.35-.7.46-.93.46-.29,0-.52-.17-.81-.41ZM200.15,45.01c2.38-.06,5.86-.35,9.16-.7l.12-2.44c-1.62.06-3.89.17-7.02.41-.17,0-.64-.12-.64-.52-.06-.52-.06-1.22-.06-1.91,0-.75,0-1.45.06-1.91.06-.58.35-.58.64-.58,3.31.29,5.51.41,7.08.46v-3.02l-1.91.06v.58c0,.58-.23.7-1.04.75-.7.06-1.28.06-1.91.06-.58,0-1.16,0-1.8-.06-.81-.06-.75-.12-.7-.99.46-3.77.46-6.73.52-7.77,0-2.44-.06-5.34-.29-7.89,0-.17-.06-.35-.06-.46,0-.35.17-.41.99-.35,1.45.12,3.89.23,6.21.23l-.06-2.09c-1.62.06-4.12.17-7.42.58h-.06c-.23,0-.58-.17-.58-.46-.06-.46-.06-1.16-.06-1.91,0-.7,0-1.39.06-1.86.06-.52.35-.58.64-.52,3.25.35,5.68.41,7.31.41l-.12-1.8-4.7.35c-.46,0-.93,0-1.04-.58-.12-.58-.46-1.16-.87-1.74-.23.99-1.33,4.06-2.84,7.71l.99.29c.35.12.52.35.52.7,0,.41-.23.93-.58,1.39-.81,1.04-.81,1.68-.87,2.78-.17,6.5-.29,13.57-.29,20.01v2.9c.17-.06.35-.12.64-.12ZM209.83,22.39l-2.32.06-.06,2.61,2.38.06v-2.73ZM209.83,28.42l-2.38.06v2.67l2.38.06v-2.78ZM216.62,25.06l-.06-2.61-2.38-.06v2.73l2.44-.06ZM216.62,31.15v-2.67l-2.44-.06v2.78l2.44-.06ZM231.7,46.28c2.15-4.12,2.44-19.78,2.38-24.71h-2.03c-.35,7.89-1.97,17.92-5.92,25.75,1.04.17,1.91.29,2.61.29,1.8,0,2.55-.58,2.96-1.33Z"/>
      <path class="cls-1" d="M273.88,52.6c-2.38-5.22-7.25-12.82-10.67-16.47-2.2-2.32-3.6-4.29-3.6-6.55,0-1.68.75-3.54,2.49-5.8,4.29-5.51,7.71-9.28,11.08-17.4.12-.23.23-.35.41-.35s.35.06.52.17c1.51.87,5.39,3.07,6.38,3.83.75.58,1.04,1.04,1.04,1.39,0,.93-2.2,1.28-3.25,2.73-3.71,5.1-6.55,8.7-9.98,12.64-.75.93-1.1,1.68-1.1,2.44,0,1.04.7,1.97,1.57,2.96,2.38,2.73,10.73,11.83,13.98,17.98.12.23.17.46.17.58,0,.46-.46.52-.99.75-1.22.46-4.81,1.57-6.09,1.86-.41.12-.7.12-.99.12-.52,0-.7-.23-.99-.87Z"/>
      <path class="cls-1" d="M317.08,52.78c-1.97-1.39-4.06-2.03-7.13-3.07-.46-.17-.7-.35-.7-.46,0-.17.17-.35.58-.46,14.67-5.45,15.54-19.89,15.54-27.14,0-3.77-.12-5.8-.06-7.89,0-2.09-.29-4.52-.58-6.44v-.29c0-.35.12-.46.58-.46,1.28.06,6.21.81,8.47,1.51.7.23.93.64.93,1.04,0,.75-.75,1.68-.93,2.03-1.1,2.09-1.22,2.44-1.22,5.34l.12,5.05c.06.64.06,1.51.06,2.49,0,6.67-1.45,20.18-13.11,28.71-.52.35-.93.52-1.33.52s-.81-.17-1.22-.46ZM310.24,33.99c-.58-.06-.7-.35-.64-.7.35-2.26.75-6.38.75-11.95v-2.61c0-2.9-.12-5.92-.99-10.67,0-.12-.06-.17-.06-.23,0-.29.17-.41.52-.35,2.84.17,5.8.46,8.29,1.33.58.23.75.46.75.87,0,.64-.46,1.57-1.1,3.19-.7,1.57-.75,3.89-.75,5.92v2.55c0,5.68.41,9.74.7,12.01v.12c0,.35-.17.46-.52.52-.75.06-2.15.12-3.54.12s-2.67-.06-3.42-.12Z"/>
      <path class="cls-1" d="M361.43,51.5c-2.44-1.86-5.63-2.49-7.02-3.13-.35-.17-.52-.35-.52-.52s.17-.35.46-.52c12.59-6.84,15.43-19.26,15.66-22.16.12-1.33.17-2.15.17-3.07,0-.46,0-.99-.06-1.68v-.23c0-.29.06-.46.52-.46,1.28.06,6.84.87,9.05,1.57.87.29,1.28.7,1.28,1.22,0,.58-.52,1.22-1.45,1.97-.93.64-1.62.93-1.91,2.49-.93,3.71-3.89,15.83-14.27,24.65-.29.23-.58.35-.87.35-.35,0-.7-.17-1.04-.46ZM383,30.22c-1.04-1.28-2.38-1.8-4.12-2.49-.23-.12-.41-.29-.41-.41,0-.17.17-.41.41-.58,3.94-3.65,5.86-5.92,8.35-9.22.17-.23.23-.35.23-.46,0-.23-.17-.29-.7-.29l-10.44.23c-3.07.12-14.15.58-18.56,1.16h-.17c-.52,0-.87-.23-.93-.64-.12-1.51-.29-3.6-.29-5.28,0-.58,0-1.1.06-1.51.06-.64.58-.7.93-.64,5.1.58,10.15.64,14.79.64h4.18c4.52,0,14.73-.17,15.78-1.16.46-.23.75-.35.99-.35s.41.12.75.35c.75.46,3.13,2.49,4.23,3.71.52.58.75.99.75,1.28,0,.87-1.62,1.04-2.73,2.55-2.55,3.42-5.16,8.29-11.43,13.28-.29.23-.52.35-.81.35s-.58-.17-.87-.52Z"/>
      <path class="cls-1" d="M412.62,47.67c-1.62-1.28-3.71-1.86-6.26-2.84-.35-.17-.41-.46,0-.7,8.82-4.81,13.86-15.37,13.86-22.85,0-1.45-.17-2.78-.58-3.94-.06-.23-.12-.41-.12-.52,0-.35.23-.41.7-.41,2.32.17,9.69,1.1,9.69,2.2,0,.87-2.03,2.15-2.32,3.71-1.86,8.41-4.52,18.62-13.11,25.46-.29.23-.58.35-.87.35s-.64-.17-.99-.46ZM436.52,46.11c-2.38-.93-4.81-1.97-5.63-2.73-.23-.17-.29-.41-.29-.58,0-.29.17-.58.23-.81.29-1.97.41-5.45.46-9.51v-10.61c.06-3.89-.17-5.28-.75-8,0-.12-.06-.23-.06-.29,0-.41.17-.52.46-.52,1.28,0,6.03.46,8.58,1.33.52.17.75.46.75.87,0,.7-.64,1.74-1.22,3.42-.93,2.38-.93,4.93-.99,7.19l-.12,4.87.06,4.87c0,.58.23.7.64.46,4.58-3.31,11.14-9.16,15.14-15.37.17-.23.29-.35.46-.35s.29.17.41.52c.46,1.62,1.28,4.76,2.55,6.26.12.17.17.35.17.52,0,.29-.17.64-.41.99-2.55,3.65-12.3,11.48-18.27,15.72-.81.58-.75,1.86-1.68,1.86-.17,0-.29-.06-.52-.12Z"/>
    </g>
  </g>
</svg>