<?xml version="1.0" encoding="UTF-8"?>
<svg id="_レイヤー_2" data-name="レイヤー 2" xmlns="http://www.w3.org/2000/svg" viewBox="0 0 612.33 52.02">
  <defs>
    <style>
      .cls-1 {
        fill: #141414;
      }
    </style>
  </defs>
  <g id="_文字" data-name="文字">
    <g>
      <path class="cls-1" d="M6.5,48.43c-.99-.99-3.71-2.49-5.74-3.48-.52-.23-.75-.41-.75-.58,0-.23.35-.46.87-.64,15.66-4.64,25.64-17.69,30.28-25.75.06-.17.12-.29.12-.41,0-.29-.23-.46-.64-.41l-9.11.17c-3.48,4.29-7.37,9.11-12.93,12.82-.29.17-.7.29-1.1.29s-.81-.12-1.16-.35c-1.51-1.1-3.19-1.8-4.81-2.44-.35-.12-.52-.29-.52-.46s.12-.35.35-.46c8.82-5.05,17.4-15.54,19.31-22.21.12-.52.41-.7.93-.52,2.03.7,5.51,2.73,7.19,3.89.52.35.75.7.75.99,0,.64-.81,1.16-1.74,1.74-.46.23-.87.58-1.28.99,3.89,0,7.77-.17,8.53-.75.29-.17.52-.29.75-.29s.46.06.75.17c1.39.7,3.83,2.38,5.05,3.42.41.35.58.64.58.87,0,.81-1.57,1.39-2.55,3.13-6.9,12.18-17.92,25.81-31.03,30.74-.35.12-.64.23-.87.23-.46,0-.81-.23-1.22-.7Z"/>
      <path class="cls-1" d="M71.67,50.4c-1.97-1.39-4.06-2.03-7.13-3.07-.46-.17-.7-.35-.7-.46,0-.17.17-.35.58-.46,14.67-5.45,15.54-19.89,15.54-27.14,0-3.77-.12-5.8-.06-7.89,0-2.09-.29-4.52-.58-6.44v-.29c0-.35.12-.46.58-.46,1.28.06,6.21.81,8.47,1.51.7.23.93.64.93,1.04,0,.75-.75,1.68-.93,2.03-1.1,2.09-1.22,2.44-1.22,5.34l.12,5.05c.06.64.06,1.51.06,2.49,0,6.67-1.45,20.18-13.11,28.71-.52.35-.93.52-1.33.52s-.81-.17-1.22-.46ZM64.83,31.61c-.58-.06-.7-.35-.64-.7.35-2.26.75-6.38.75-11.95v-2.61c0-2.9-.12-5.92-.99-10.67,0-.12-.06-.17-.06-.23,0-.29.17-.41.52-.35,2.84.17,5.8.46,8.29,1.33.58.23.75.46.75.87,0,.64-.46,1.57-1.1,3.19-.7,1.57-.75,3.89-.75,5.92v2.55c0,5.68.41,9.74.7,12.01v.12c0,.35-.17.46-.52.52-.75.06-2.15.12-3.54.12s-2.67-.06-3.42-.12Z"/>
      <path class="cls-1" d="M108.26,42.98c-.06-.46-.12-1.45-.12-2.49,0-1.62.06-3.48.12-4.06.06-.7.17-.87.81-.7,2.49.87,12.01.99,16.47,1.04l.06-3.13v-3.65c0-2.61-.12-7.19-.58-9.34v-.12c-3.19.06-7.54.17-12.41.58h-.17c-.35,0-.58-.12-.64-.64,0-1.22-.06-4.7,0-5.8.06-.64.41-.81.87-.75,6.67.52,11.66.58,14.79.58h4c3.42,0,8.06-.06,14.15-.58h.12c.23,0,.46.17.52.46.06.52.12,1.8.12,3.13s-.06,2.61-.12,3.25c-.06.23-.29.41-.64.35-6.32-.52-11.02-.58-14.67-.58h-2.96c1.74.29,3.89.7,5.45,1.22.46.17.58.35.58.58,0,.58-.7,1.45-.99,3.02-.41,2.44-.52,3.42-.52,4.64v3.65l.06,3.07c5.74-.12,11.25-.41,16.65-.81.46,0,.52.12.64.64l.12,4.18c0,.93,0,1.74-.06,2.2-.06.23-.23.46-.64.41-5.8-.41-11.83-.58-18.21-.58h-2.73c-6.5.06-13.34.35-19.37.81h-.23c-.29,0-.41-.12-.46-.58Z"/>
      <path class="cls-1" d="M188.51,49.99c-.52-.06-.7-.35-.64-.7.81-7.77.81-15.31.87-23.03-3.83,3.83-8.29,7.83-13.22,11.08-.41.23-.81.41-1.16.41-.29,0-.52-.12-.75-.29-1.62-1.45-5.45-2.9-7.13-3.48-.41-.12-.58-.29-.58-.46,0-.12.17-.29.52-.46,14.85-6.15,23.32-17.69,26.68-21.92,1.28-1.68,2.38-3.54,3.02-5.22.17-.46.29-.7.75-.46,1.45.58,7.77,4.47,7.77,5.39,0,.87-1.91,1.28-2.32,1.62-1.68,1.16-2.03,1.51-3.31,2.96-.93.87-2.03,2.09-3.36,3.54.17,9.45,0,20.47.93,30.51v.06c0,.29-.29.46-.58.46-.81.12-2.2.17-3.54.17-1.57,0-3.13-.06-3.94-.17Z"/>
      <path class="cls-1" d="M230.67,48.14c-2.2-1.86-4.87-2.67-6.44-3.19-.46-.17-.64-.35-.64-.52s.17-.41.58-.52c11.72-3.94,16.18-14.38,16.41-19.55-5.8.17-11.77.46-17.57.93h-.12c-.35,0-.58-.17-.64-.58l-.12-3.71c0-1.22.06-2.32.12-2.9.06-.64.23-.75.87-.7,5.86.75,11.25.93,16.07.93h2.78c7.13-.06,13.63-.46,20.65-.93.46,0,.46.23.52.64.06.81.17,2.73.17,4.29,0,.93-.06,1.74-.12,2.15,0,.29-.12.46-.46.46-4.76-.35-9.4-.52-14.21-.58-.41,6.26-5.28,17.75-15.54,24.07-.29.17-.58.29-.93.29-.46,0-.93-.23-1.39-.58ZM229.04,13.75c-.06-.64-.12-1.74-.12-2.9,0-1.39.06-2.84.12-3.42,0-.64.29-.64.75-.64,6.15.64,9.16.7,11.89.7h2.44c2.78,0,5.92-.06,12.06-.7.29,0,.52.23.58.64.06.52.12,1.86.12,3.13s-.06,2.67-.12,3.36c-.06.23-.41.41-.58.35-5.8-.58-8.76-.64-11.77-.64h-2.96c-2.49,0-5.8.06-11.66.64h-.12c-.29,0-.64-.12-.64-.52Z"/>
      <path class="cls-1" d="M293.93,50.23c-.64-.06-.99-.29-.93-.93.58-5.45.64-10.79.64-16.3-2.73,2.73-5.97,5.57-9.51,7.89-.41.23-.75.41-1.04.41-.35,0-.64-.17-.99-.52-.93-.81-3.83-1.97-5.22-2.38-.58-.23-.87-.46-.87-.7s.23-.46.75-.64c11.08-4.64,17.34-13.05,19.89-16.24.93-1.16,1.68-2.49,2.15-3.77.17-.46.29-.7.58-.7.12,0,.29.06.52.17.87.35,4.18,2.38,5.45,3.42.41.35.58.7.58.99,0,.58-.75.99-1.33,1.28-.35.17-.64.23-.93.29-.46.29-1.22,1.22-2.2,2.26l-1.8,1.91c.17,7.42.06,15.25.7,22.56v.23c0,.52-.29.7-.81.75-.58.06-1.57.12-2.55.12-1.22,0-2.49-.06-3.07-.12Z"/>
      <path class="cls-1" d="M335.12,47.44c-1.74-1.68-4.64-2.96-5.97-3.71-.41-.23-.64-.46-.64-.7s.23-.41.64-.52c12.93-3.89,21.63-13.92,25.81-24.36.06-.23.12-.41.12-.52,0-.23-.17-.29-.58-.29-2.03,0-5.86.06-9.92.29-5.74.23-12.01.75-14.91,1.16h-.12c-.46,0-.87-.29-.93-.7-.17-2.03-.29-5.34-.17-6.96,0-.64.29-.75.87-.7,5.74.7,10.79.75,16.82.75,4.58,0,12.24-.23,13.34-1.16.29-.23.52-.35.75-.35.17,0,.41.12.7.23,1.33.7,3.54,2.2,4.76,3.25.35.35.52.64.52.93,0,.99-1.8,1.86-2.55,3.71-6.44,15.37-15.14,24.24-26.39,30.1-.29.12-.58.23-.81.23-.46,0-.87-.23-1.33-.7ZM363.6,10.79c-1.1-1.97-3.65-5.51-4.7-6.96-.12-.17-.23-.29-.23-.41s.12-.23.35-.41c.58-.52,2.49-1.51,3.13-1.74.17-.06.35-.06.46-.06.17,0,.29.06.52.29,1.57,1.51,4.18,4.7,5.1,6.44.12.23.17.41.17.58,0,.23-.17.52-.58.87-.58.52-2.49,1.68-3.19,1.86-.17.06-.29.12-.41.12-.29,0-.41-.23-.64-.58ZM372.12,9.63c-1.1-1.97-3.6-5.57-4.64-6.96-.12-.17-.17-.29-.17-.46,0-.12.12-.29.35-.46.52-.41,2.49-1.45,3.07-1.62.17-.06.35-.12.46-.12.17,0,.35.06.58.29,1.45,1.57,4.06,4.64,5.05,6.55.06.17.12.29.12.46,0,.75-2.9,2.55-3.77,2.84-.12.06-.29.06-.35.06-.35,0-.46-.17-.7-.58Z"/>
      <path class="cls-1" d="M389.06,37.99c-.35-.12-.58-.52-.35-.87,1.91-2.96,7.08-12.18,10.32-19.2-2.32.41-4.81.7-7.42.75-.7,0-1.04-.29-1.22-.58-.41-.75-1.04-4.64-1.1-5.63v-.23c0-.35.12-.52.75-.41.93.12,1.86.17,2.84.17,2.78,0,5.68-.41,8.35-.99.23-1.1.52-2.61.52-4.41,0-.64,0-1.33-.12-2.09v-.35c0-.29.06-.41.46-.41,1.28,0,5.16.58,6.55.87,1.1.29,1.51.64,1.51.99,0,.64-1.22,1.45-1.45,2.44l-.35,1.1,3.6-1.22c.12-.06.29-.06.35-.06.29,0,.46.17.52.64.17.93.46,2.96.46,4.18,0,.7,0,1.33-.75,1.51-1.45.35-3.6,1.1-6.21,1.91-3.25,7.66-8.47,18.85-10.44,23.2-.17.29-.35.23-.7.23-1.39,0-4.99-1.1-6.15-1.57ZM402.05,47.21c-2.9-1.62-4.35-4.18-4.35-6.61,0-2.84,1.97-5.57,5.68-6.61,1.39-.41,2.9-.52,4.47-.52s3.25.12,4.93.41c-.35-1.62-.87-3.48-1.1-5.1-.06-.46-.12-.93-.12-1.39,0-4.58,3.42-7.13,6.73-9.16.35-.17.52-.29.52-.46,0-.93-5.05-1.39-4.76-1.51-.35-.06-.7-.41-.52-.81.35-.93,1.39-2.84,2.26-3.83.23-.23.81-.35,1.04-.29,4.41.46,11.54,2.9,13.63,4.99.23.17.35.35.35.52,0,.06-.64,2.32-1.57,3.65-.23.35-.75.52-1.45.64-1.39.41-3.65.93-4.7,1.22-2.9.93-5.45,2.2-5.45,5.57,0,2.26,1.33,5.45,2.09,7.77,4.12,1.39,7.95,3.19,10.44,4.7.58.41.81.75.58,1.39-.58,1.39-1.86,3.71-2.73,4.99-.23.35-.46.58-.75.58-.23,0-.46-.12-.81-.35-1.74-1.33-4.35-3.07-7.25-4.58-.93,2.09-2.44,4.18-4.7,5.34-1.57.81-3.48,1.16-5.45,1.16-2.55,0-5.1-.58-7.02-1.68ZM411.21,42.05c.87-.7,1.28-1.39,1.57-2.15-1.57-.41-3.19-.64-4.7-.64-.93,0-1.8.12-2.67.29-.81.17-1.22.7-1.22,1.28,0,.41.23.87.58,1.16.64.52,1.97.93,3.36.93,1.1,0,2.2-.23,3.07-.87Z"/>
      <path class="cls-1" d="M459.3,48.43c-1.04-1.74-1.91-2.38-2.78-3.42-.17-.23-.29-.41-.29-.58s.17-.29.64-.35c4.35-.35,10.96-1.04,16.59-4.41,2.49-1.62,3.65-3.65,3.65-5.45,0-2.49-2.2-4.64-5.97-4.76-3.71,0-8.53,2.26-11.14,4.7-2.2,2.09-2.38,2.78-3.19,3.94-.41.58-.87.87-1.39.99-1.33.29-3.07.41-4.29.29-.81-.12-1.04-.41-1.16-1.45-.06-.75-.12-1.57-.12-2.55,0-4.12.64-9.98,1.22-14.67.17-1.86.29-3.25.29-4.41,0-.52.17-.64.7-.64.75,0,4.18.46,6.03.87.52.12.75.35.75.58,0,.52-.7,1.33-.87,2.32-.46,1.91-1.22,6.84-1.33,8.41,0,.29.06.46.17.46.06,0,.23-.12.46-.29,4.64-3.36,9.57-4.99,13.98-4.99,7.71.06,13.63,5.28,13.63,11.43,0,3.77-2.26,7.83-7.71,11.25-4.99,3.13-10.79,3.94-15.37,4.18-1.51.06-1.91-.41-2.49-1.45ZM455.93,13.46l-2.2.06c-.35,0-.64-.17-.64-.52,0-1.22.52-4,.87-5.34.12-.46.35-.64.7-.64l4.06-.12c4.23,0,8.58.29,11.19.75.64.12.58.35.58,1.16-.06.87-1.04,4.58-1.45,5.45-.23.35-.41.64-.93.46-1.22-.41-5.92-1.28-12.18-1.28Z"/>
      <path class="cls-1" d="M504.68,51.73c-1.51-1.97-4.99-3.83-6.67-4.64-.58-.29-.81-.52-.81-.64,0-.17.29-.23.7-.35,11.83-3.13,18.62-10.44,21.29-20.42-3.42.06-6.21.17-13.28.7-.35,0-.75-.12-.81-.58-.06-.81-.12-1.91-.12-3.02s.06-2.15.12-2.78c.12-.7.29-.75.81-.7,7.37.52,10.85.64,14.38.7l.23-3.48c0-.29,0-2.32-.06-2.61,0-.87,0-1.86-.06-2.67-4.7,0-7.66.12-17.23.7h-.17c-.41,0-.7-.17-.75-.58l-.12-3.02c0-1.1.06-2.15.12-2.73.06-.75.23-.81.93-.75,11.77.7,15.2.7,20.94.7,6.84,0,10.38,0,21.87-.7h.12c.35,0,.35.23.41.64.06.64.06,1.86.06,3.07s0,2.38-.06,2.96c-.06.29-.23.41-.52.41-8-.52-12.53-.64-16.82-.7l-.87.81c-.41.41-.58,1.97-.58,2.73-.06,2.15-.12,3.89-.23,5.22,4.47,0,7.95-.12,15.72-.7h.12c.29,0,.29.23.35.64.06.64.06,1.86.06,3.07s0,2.38-.06,2.96c-.06.29-.17.41-.46.41-7.02-.52-10.96-.64-15.02-.7,2.44,6.55,8.53,15.2,22.91,19.89.41.12.7.23.7.41,0,.12-.23.29-.75.58-2.2,1.28-4.64,2.9-6.55,4.81-.17.17-.41.23-.64.23s-.46-.06-.64-.17c-10.5-4.93-16.01-12.82-18.79-19.2-3.31,8.29-9.22,15.2-18.27,19.55-.17.12-.46.23-.75.23s-.52-.12-.7-.29Z"/>
      <path class="cls-1" d="M584.37,51.91c-.52-.06-.64-.29-.58-.7.58-2.55.81-6.26.87-8.47-5.63,0-9.22.06-19.83.7-.46,0-.75-.12-.75-.58l-.06-2.78.06-2.61c.06-.64.17-.7.75-.7,10.15.58,15.14.64,19.95.64,0-1.04-.06-2.2-.17-3.25l-5.86.06c-.06.64-.29.7-.87.75-.81.06-1.8.06-2.73.06s-1.86,0-2.61-.06c-.7-.12-.93-.41-.87-1.04.52-4.64.58-10.15.58-11.37,0-1.68,0-2.38-.46-7.66v-.35c0-.52.17-.58,1.22-.52,1.86.23,12.3.35,15.08.35,2.55,0,11.77-.06,15.49-.35.7,0,.87.17.81.87-.23,3.19-.29,5.16-.29,6.5v1.8c0,1.16.06,5.68.46,10.85v.29c0,.52-.17.75-1.1.87-.75.06-2.09.17-3.25.17-.7,0-1.33-.06-1.74-.12-.93-.17-.99-.35-.99-.93v-.12l-5.92-.06-.17.29c-.23.64-.35,1.8-.41,2.96,5.74,0,10.32-.06,20.71-.64.46,0,.52.12.58.64.06.52.06,1.39.06,2.32,0,1.28,0,2.67-.06,3.31-.06.29-.17.41-.58.41-8.64-.52-13.57-.7-18.21-.7h-2.38c.06,1.97.29,5.51.64,8.58v.12c0,.29-.17.41-.58.46-.81.06-2.09.12-3.36.12l-3.42-.12ZM578.11,12.93c-.41-.06-.58-.17-.46-.58l.35-1.62c-2.96.06-6.73.23-12.29.58-.52,0-.75-.12-.81-.58-.06-.7-.12-1.74-.12-2.73,0-1.04.06-2.03.12-2.67.06-.64.29-.7,1.04-.7l12.24.58c-.12-1.22-.29-2.67-.75-4.52v-.17c0-.17.06-.35.41-.35,1.86.12,5.45.52,7.71,1.28.46.17.7.41.7.7,0,.52-.64,1.22-1.1,1.97-.23.35-.35.81-.41,1.22h6.21c-.06-1.22-.23-2.61-.75-4.64v-.23c0-.17.06-.29.41-.29,1.86.12,5.45.52,7.71,1.28.46.17.64.41.64.7,0,.52-.58,1.22-1.04,1.97-.23.35-.35.75-.41,1.1,3.25-.06,7.19-.23,13.22-.58.52,0,.64.23.7.64.06.58.06,1.74.06,2.84s0,2.2-.06,2.78c-.06.29-.35.41-.7.41-5.8-.35-9.86-.52-13.11-.64l.23,1.57v.23c0,.29-.12.41-.46.46-.75.12-1.97.17-3.25.17s-2.44-.06-3.25-.17c-.52-.06-.58-.29-.52-.58l.35-1.74h-5.86l.29,1.74v.12c0,.29-.17.41-.52.46-.75.12-1.97.17-3.25.17s-2.44-.06-3.25-.17ZM597.71,21.75l-.06-2.26s-8.47-.17-9.74-.12l-9.22.12-.06,2.2,9.34.12,9.74-.06ZM597.65,29.12l.06-2.49-9.74-.06-9.34.06v2.49l9.34.17,9.69-.17Z"/>
    </g>
  </g>
</svg>